<svg width="27" height="24" viewBox="0 0 27 24" fill="none" xmlns="http://www.w3.org/2000/svg">
<path d="M13.8753 21.75H11.2503V15.8803L19.1599 7.97109C19.8874 7.24359 19.3723 6 18.3434 6H1.15714C0.128232 6 -0.386924 7.24359 0.340575 7.97109L8.25026 15.8803V21.75H5.62526C4.58979 21.75 3.75026 22.5895 3.75026 23.625C3.75026 23.8322 3.91807 24 4.12526 24H15.3753C15.5824 24 15.7503 23.8322 15.7503 23.625C15.7503 22.5895 14.9107 21.75 13.8753 21.75ZM20.2502 0C17.3154 0 14.8432 1.88438 13.9137 4.5H16.3765C17.157 3.16172 18.5923 2.25 20.2502 2.25C22.7313 2.25 24.7502 4.26844 24.7502 6.75C24.7502 9.23156 22.7313 11.25 20.2502 11.25C19.5921 11.25 18.971 11.1 18.4071 10.845L16.7543 12.4978C17.7767 13.1213 18.9654 13.5 20.2502 13.5C23.9782 13.5 27.0002 10.478 27.0002 6.75C27.0002 3.02203 23.9782 0 20.2502 0Z" fill="#8CC63E"/>
</svg>
