<svg width="50" height="31" viewBox="0 0 50 31" fill="none" xmlns="http://www.w3.org/2000/svg">
<rect width="50" height="31" transform="matrix(-1 0 0 1 50 0)" fill="#8CC63E"/>
<g clip-path="url(#clip0)">
<path d="M13.25 4.625C37.5031 4.625 31.8664 20.7379 31.8918 23.2262L36 27.375H34.6797L31.1047 23.7594C29.1242 23.9727 24.7875 25.5113 20.2172 21.8805C15.6367 18.2496 15.8906 13.9027 13.25 4.625ZM17.2973 6.96094C14.7734 5.76758 17.0332 7.42812 17.0332 7.42812C19.3285 9.0125 20.3848 11.1707 21.6137 13.5168C23.2133 16.5738 25.6254 20.6109 28.9363 22.0328C32.2371 23.4547 30.673 22.6676 29.241 21.6012C27.809 20.5246 25.7777 17.1832 24.6199 14.9895C23.0102 11.9426 21.5223 8.9668 17.2973 6.96094V6.96094Z" fill="#FCF6D8"/>
</g>
<defs>
<clipPath id="clip0">
<rect width="22.75" height="26" fill="white" transform="matrix(-1 0 0 1 36 3)"/>
</clipPath>
</defs>
</svg>
