<svg width="26" height="26" viewBox="0 0 26 26" fill="none" xmlns="http://www.w3.org/2000/svg">
<path d="M13 0.40625C6.03997 0.40625 0.40625 6.03886 0.40625 13C0.40625 19.96 6.03886 25.5938 13 25.5938C15.4453 25.5938 17.8416 24.8757 19.8762 23.5512C20.4858 23.1543 20.6189 22.3178 20.1581 21.7549L19.6413 21.1236C19.2518 20.6477 18.5658 20.5311 18.0482 20.8631C16.5506 21.8236 14.7933 22.3438 13 22.3438C7.84784 22.3438 3.65625 18.1522 3.65625 13C3.65625 7.84784 7.84784 3.65625 13 3.65625C18.0852 3.65625 22.3438 6.58221 22.3438 11.7812C22.3438 13.7509 21.2726 15.8306 19.3898 16.0313C18.5088 16.0082 18.5311 15.3784 18.7055 14.5066L19.8954 8.35651C20.041 7.60449 19.4649 6.90625 18.6989 6.90625H16.4147C16.2461 6.90625 16.0833 6.96833 15.9575 7.08066C15.8317 7.19298 15.7517 7.34769 15.7326 7.51527L15.7321 7.51994C14.9858 6.61091 13.6781 6.41418 12.6867 6.41418C8.89946 6.41418 5.6875 9.5745 5.6875 14.1055C5.6875 17.4217 7.55549 19.4817 10.5625 19.4817C11.9328 19.4817 13.4758 18.6877 14.3706 17.5351C14.8542 19.267 16.433 19.2669 17.9614 19.2669C23.4919 19.2669 25.5938 15.6304 25.5938 11.7812C25.5938 4.85738 20.009 0.40625 13 0.40625ZM11.8991 15.8656C10.7692 15.8656 10.0674 15.0722 10.0674 13.7952C10.0674 11.5104 11.6304 10.1019 13.0447 10.1019C14.1767 10.1019 14.8526 10.8759 14.8526 12.1723C14.8526 14.4605 13.1323 15.8656 11.8991 15.8656Z" fill="#C63F3C"/>
</svg>
