<svg width="27" height="35" viewBox="0 0 27 35" fill="none" xmlns="http://www.w3.org/2000/svg">
<g clip-path="url(#clip0)">
<path d="M11.7761 34.2938C1.84365 19.8947 0 18.4169 0 13.125C0 5.87624 5.87624 0 13.125 0C20.3738 0 26.25 5.87624 26.25 13.125C26.25 18.4169 24.4063 19.8947 14.4739 34.2938C13.8221 35.2354 12.4279 35.2354 11.7761 34.2938ZM13.125 18.5938C16.1453 18.5938 18.5938 16.1453 18.5938 13.125C18.5938 10.1047 16.1453 7.65625 13.125 7.65625C10.1047 7.65625 7.65625 10.1047 7.65625 13.125C7.65625 16.1453 10.1047 18.5938 13.125 18.5938Z" fill="#E4544A"/>
</g>
<defs>
<clipPath id="clip0">
<rect width="26.25" height="35" fill="white"/>
</clipPath>
</defs>
</svg>
