<svg width="27" height="24" viewBox="0 0 27 24" fill="none" xmlns="http://www.w3.org/2000/svg">
<path d="M0 5.51531V21.7491C0 22.2797 0.535781 22.6425 1.02844 22.4456L7.5 19.5V1.5L0.943125 4.12266C0.664771 4.23399 0.426155 4.42616 0.258051 4.67439C0.0899478 4.92262 6.6666e-05 5.21552 0 5.51531H0ZM9 19.5L18 22.5V4.5L9 1.5V19.5ZM25.9716 1.55437L19.5 4.5V22.5L26.0569 19.8773C26.3353 19.7661 26.5739 19.5739 26.742 19.3257C26.9101 19.0774 27 18.7845 27 18.4847V2.25094C27 1.72031 26.4642 1.3575 25.9716 1.55437Z" fill="#8CC63E"/>
</svg>
