<svg width="24" height="24" viewBox="0 0 24 24" fill="none" xmlns="http://www.w3.org/2000/svg">
<path d="M21.4286 0H2.57143C1.15179 0 0 1.15179 0 2.57143V21.4286C0 22.8482 1.15179 24 2.57143 24H21.4286C22.8482 24 24 22.8482 24 21.4286V2.57143C24 1.15179 22.8482 0 21.4286 0ZM12.8571 15.4286H10.2857V18C10.2857 18.4714 9.9 18.8571 9.42857 18.8571H7.71429C7.24286 18.8571 6.85714 18.4714 6.85714 18V6C6.85714 5.52857 7.24286 5.14286 7.71429 5.14286H12.8571C15.6911 5.14286 18 7.45179 18 10.2857C18 13.1196 15.6911 15.4286 12.8571 15.4286ZM12.8571 8.57143H10.2857V12H12.8571C13.8 12 14.5714 11.2286 14.5714 10.2857C14.5714 9.34286 13.8 8.57143 12.8571 8.57143Z" fill="#8CC63E"/>
</svg>
