<svg width="40" height="40" viewBox="0 0 40 40" fill="none" xmlns="http://www.w3.org/2000/svg">
<rect width="40" height="40" fill="#8CC63E"/>
<g clip-path="url(#clip0)">
<path d="M29.8918 10.3585L25.5584 9.35846C25.0876 9.25013 24.6043 9.49596 24.4126 9.93763L22.4126 14.6043C22.2376 15.0126 22.3543 15.4918 22.7001 15.771L25.2251 17.8376C23.7251 21.0335 21.1043 23.6918 17.8418 25.221L15.7751 22.696C15.4918 22.3501 15.0168 22.2335 14.6084 22.4085L9.94178 24.4085C9.49594 24.6043 9.25011 25.0876 9.35844 25.5585L10.3584 29.8918C10.4626 30.3418 10.8626 30.6668 11.3334 30.6668C22.0043 30.6668 30.6668 22.021 30.6668 11.3335C30.6668 10.8668 30.3459 10.4626 29.8918 10.3585Z" fill="white"/>
</g>
<defs>
<clipPath id="clip0">
<rect width="21.3333" height="21.3333" fill="white" transform="translate(9.3335 9.3335)"/>
</clipPath>
</defs>
</svg>
