<svg width="50" height="31" viewBox="0 0 50 31" fill="none" xmlns="http://www.w3.org/2000/svg">
<rect width="50" height="31" fill="#E4544A"/>
<g clip-path="url(#clip0)">
<path d="M20.548 11.7977C21.817 10.5287 21.817 8.47055 20.548 7.20152C19.279 5.9325 17.2208 5.9325 15.9518 7.20152C14.6827 8.47055 14.6827 10.5287 15.9518 11.7977C17.2213 13.0673 19.279 13.0673 20.548 11.7977ZM33.548 20.2015C32.279 18.9325 30.2208 18.9325 28.9518 20.2015C27.6827 21.4705 27.6827 23.5287 28.9518 24.7977C30.2208 26.0668 32.279 26.0668 33.548 24.7977C34.8175 23.5287 34.8175 21.4711 33.548 20.2015ZM33.4495 8.44922L32.3008 7.30055C31.666 6.66578 30.6372 6.66578 30.0029 7.30055L16.0508 21.2527C15.416 21.8875 15.416 22.9163 16.0508 23.5505L17.1995 24.6992C17.8342 25.334 18.8631 25.334 19.4973 24.6992L33.4495 10.7471C34.0842 10.1128 34.0842 9.08398 33.4495 8.44922Z" fill="#FCF6D8"/>
</g>
<defs>
<clipPath id="clip0">
<rect width="19.5" height="26" fill="white" transform="translate(15 3)"/>
</clipPath>
</defs>
</svg>
