<svg width="31" height="18" viewBox="0 0 31 18" fill="none" xmlns="http://www.w3.org/2000/svg">
<path d="M25.605 10.3217C25.1061 9.69171 25.2489 9.41143 25.605 8.84829C25.6114 8.84186 29.7296 3.15129 30.1539 1.22143L30.1564 1.22014C30.3673 0.516857 30.1564 0 29.1369 0H25.7631C24.9043 0 24.5083 0.443571 24.2961 0.939857C24.2961 0.939857 22.5784 5.05157 20.1484 7.71686C19.3641 8.487 19.0016 8.73386 18.5734 8.73386C18.3626 8.73386 18.0347 8.487 18.0347 7.78371V1.22014C18.0347 0.376714 17.7943 0 17.0833 0H11.7784C11.2397 0 10.9196 0.393429 10.9196 0.759857C10.9196 1.55957 12.1346 1.74343 12.2606 3.99343V8.87529C12.2606 9.945 12.0664 10.1417 11.6357 10.1417C10.4889 10.1417 7.70529 6.01329 6.05571 1.28829C5.72271 0.371571 5.39743 0.00128562 4.53214 0.00128562H1.15714C0.194143 0.00128562 0 0.444857 0 0.941143C0 1.818 1.14686 6.17786 5.33314 11.9379C8.12314 15.8696 12.0523 18 15.6266 18C17.775 18 18.0373 17.5269 18.0373 16.713C18.0373 12.9561 17.8431 12.6013 18.9193 12.6013C19.4181 12.6013 20.277 12.8481 22.2827 14.7446C24.5751 16.9933 24.9519 18 26.235 18H29.6087C30.5704 18 31.0577 17.5269 30.7774 16.5934C30.1359 14.6301 25.8004 10.5917 25.605 10.3217V10.3217Z" fill="#4B729F"/>
</svg>
