<svg width="53" height="56" viewBox="0 0 53 56" fill="none" xmlns="http://www.w3.org/2000/svg">
<path d="M26.25 21H31.5V13.125H39.375V7.875H31.5V0H26.25V7.875H18.375V13.125H26.25V21ZM15.75 44.625C12.8625 44.625 10.5263 46.9875 10.5263 49.875C10.5263 52.7625 12.8625 55.125 15.75 55.125C18.6375 55.125 21 52.7625 21 49.875C21 46.9875 18.6375 44.625 15.75 44.625ZM42 44.625C39.1125 44.625 36.7763 46.9875 36.7763 49.875C36.7763 52.7625 39.1125 55.125 42 55.125C44.8875 55.125 47.25 52.7625 47.25 49.875C47.25 46.9875 44.8875 44.625 42 44.625ZM16.1963 36.0938L16.275 35.7788L18.6375 31.5H38.1938C40.1625 31.5 41.895 30.4238 42.7875 28.7963L52.92 10.395L48.3525 7.875H48.3262L45.4387 13.125L38.1938 26.25H19.7662L19.425 25.5413L13.545 13.125L11.0513 7.875L8.58375 2.625H0V7.875H5.25L14.7 27.7988L11.1562 34.23C10.7363 34.965 10.5 35.8313 10.5 36.75C10.5 39.6375 12.8625 42 15.75 42H47.25V36.75H16.8525C16.5113 36.75 16.1963 36.4613 16.1963 36.0938Z" fill="#37332F"/>
</svg>
