<svg width="353" height="250" viewBox="0 0 353 250" fill="none" xmlns="http://www.w3.org/2000/svg">
<path fill-rule="evenodd" clip-rule="evenodd" d="M6.58035 114.043C-10.9932 165.88 6.26402 230.619 62.9505 244.92C131.559 262.229 155.102 229.234 210.982 235.605C266.863 241.976 288.429 252.272 321.761 227.763C355.093 203.253 356.565 161.1 346.761 135.611C336.956 110.121 314.549 109.271 290.88 85.1235C267.212 60.9765 264.421 33.6932 224.18 13.5523C192.373 -2.36826 140.019 -6.54611 95.9123 13.5523C51.8057 33.6507 22.4238 67.3455 6.58806 114.044L6.58035 114.043ZM291.747 19.8557C281.204 27.2451 281.717 53.0085 301.803 71.2032C326.438 93.5294 345.522 83.8775 350.333 74.5979C354.354 66.8401 352.381 47.5615 332.908 30.3004C316.409 15.676 300.922 13.425 291.747 19.8557Z" fill="#C1DCFF"/>
<path fill-rule="evenodd" clip-rule="evenodd" d="M350.562 181.399C347.352 198.408 338.643 215.347 321.76 227.763C288.428 252.272 266.862 241.978 210.982 235.605C155.102 229.232 131.558 262.223 62.9497 244.92C30.038 236.616 10.416 211.31 3.18677 181.399H350.562Z" fill="#709FDB"/>
<path fill-rule="evenodd" clip-rule="evenodd" d="M326.937 111.821C335.406 117.676 342.368 124.155 346.765 135.611C351.603 148.189 353.696 164.827 350.569 181.399H3.18642C-2.03493 159.793 -0.790835 135.79 6.57923 114.043C6.83641 113.299 7.09358 112.559 7.35076 111.821H326.937Z" fill="#D6E8FF"/>
<path fill-rule="evenodd" clip-rule="evenodd" d="M5.13288 118.602C10.524 113.913 15.6238 111.668 15.6238 111.668C15.6238 111.668 17.0704 124.888 10.4661 136.326C7.59793 141.301 3.67468 145.124 0.156494 147.859C0.652982 137.944 2.32344 128.124 5.13288 118.602V118.602Z" fill="#009255"/>
<path fill-rule="evenodd" clip-rule="evenodd" d="M17.0723 181.399H3.18471C0.102438 168.638 -0.72696 155.04 0.629009 141.565H17.0723V181.399Z" fill="#B7D5FA"/>
<path fill-rule="evenodd" clip-rule="evenodd" d="M17.0724 181.399V186.163C17.0727 188.689 16.1758 191.132 14.5419 193.057C12.908 194.983 10.6432 196.265 8.15158 196.676C6.09954 191.721 4.43951 186.613 3.18677 181.399H17.0724Z" fill="#8EB9F1"/>
<path fill-rule="evenodd" clip-rule="evenodd" d="M66.032 81.4549H21.0247C32.4562 61.2099 47.4586 44.3327 66.032 30.8231V81.4549Z" fill="#F5F9FF"/>
<path fill-rule="evenodd" clip-rule="evenodd" d="M54.4802 69.9031H28.1729C35.6287 58.8631 44.4699 48.8252 54.4802 40.0352V69.9031Z" fill="#B1D1FA"/>
<path fill-rule="evenodd" clip-rule="evenodd" d="M262.46 81.7963L244.483 77.7034H215.655L197.605 81.7963V161.175H262.46V81.7963Z" fill="#FF7632"/>
<path d="M230.069 98.7295C231.031 98.7295 231.811 97.9497 231.811 96.9878C231.811 96.0258 231.031 95.246 230.069 95.246C229.107 95.246 228.327 96.0258 228.327 96.9878C228.327 97.9497 229.107 98.7295 230.069 98.7295Z" fill="#F5F9FF"/>
<path d="M230.069 113.884C231.031 113.884 231.811 113.105 231.811 112.143C231.811 111.181 231.031 110.401 230.069 110.401C229.107 110.401 228.327 111.181 228.327 112.143C228.327 113.105 229.107 113.884 230.069 113.884Z" fill="#F5F9FF"/>
<path d="M230.069 129.037C231.031 129.037 231.811 128.258 231.811 127.296C231.811 126.334 231.031 125.554 230.069 125.554C229.107 125.554 228.327 126.334 228.327 127.296C228.327 128.258 229.107 129.037 230.069 129.037Z" fill="#F5F9FF"/>
<path d="M230.069 144.192C231.031 144.192 231.811 143.412 231.811 142.45C231.811 141.488 231.031 140.709 230.069 140.709C229.107 140.709 228.327 141.488 228.327 142.45C228.327 143.412 229.107 144.192 230.069 144.192Z" fill="#F5F9FF"/>
<path fill-rule="evenodd" clip-rule="evenodd" d="M262.46 81.7964L266.756 83.0135C269.895 83.9032 272.688 85.7289 274.763 88.2471C276.837 90.7652 278.095 93.8561 278.367 97.1075C279.621 112.083 281.702 136.949 281.702 136.949L262.46 148.522V81.7964Z" fill="#FF7632"/>
<path fill-rule="evenodd" clip-rule="evenodd" d="M197.605 81.7964L196.641 82.0163C193.653 82.6944 190.936 84.2505 188.839 86.4846C186.743 88.7187 185.362 91.5288 184.875 94.5537C182.56 108.976 178.602 133.516 178.602 133.516L188.054 148.511H197.621L197.605 81.7964Z" fill="#FF7632"/>
<path fill-rule="evenodd" clip-rule="evenodd" d="M255.252 105.434H239.243V117.08C239.243 117.964 239.417 118.839 239.755 119.656C240.093 120.472 240.589 121.214 241.214 121.839C241.839 122.464 242.581 122.96 243.397 123.298C244.214 123.636 245.089 123.81 245.973 123.81H248.519C249.403 123.811 250.278 123.637 251.095 123.299C251.912 122.961 252.654 122.465 253.28 121.84C253.905 121.216 254.401 120.473 254.74 119.657C255.078 118.84 255.252 117.965 255.252 117.08V105.434Z" fill="#F5F9FF"/>
<path d="M219.754 105.434H204.813V108.788H219.754V105.434Z" fill="#F5F9FF"/>
<path fill-rule="evenodd" clip-rule="evenodd" d="M238.421 42.4559H212.546V61.9043C212.546 64.015 213.385 66.0391 214.877 67.5318C216.37 69.0245 218.394 69.8635 220.504 69.8646H238.421V42.4559Z" fill="#F6A895"/>
<path fill-rule="evenodd" clip-rule="evenodd" d="M231.778 61.1153C231.778 62.0438 231.409 62.9342 230.753 63.5908C230.096 64.2473 229.206 64.6161 228.277 64.6161C227.349 64.6161 226.459 64.2473 225.802 63.5908C225.145 62.9342 224.777 62.0438 224.777 61.1153H231.778Z" fill="#E06A51"/>
<path d="M238.419 69.8646H221.718V83.5477H238.419V69.8646Z" fill="#F6A895"/>
<path fill-rule="evenodd" clip-rule="evenodd" d="M221.718 69.8646H229.363L221.718 75.9134V69.8646Z" fill="#E06A51"/>
<path fill-rule="evenodd" clip-rule="evenodd" d="M221.717 73.7627L227.755 83.5477L221.478 90.9004L215.655 77.7033L221.717 73.7627Z" fill="#F5F9FF"/>
<path fill-rule="evenodd" clip-rule="evenodd" d="M238.421 73.7627L232.384 83.5477L238.66 90.9004L244.483 77.7033L238.421 73.7627Z" fill="#F5F9FF"/>
<path fill-rule="evenodd" clip-rule="evenodd" d="M242.35 53.3557L233.802 51.6197C232.986 51.4562 232.252 51.0152 231.724 50.3717C231.197 49.7282 230.909 48.922 230.908 48.09V41.7711H242.343V53.3557H242.35Z" fill="#003F8F"/>
<path d="M238.421 59.121C241.159 59.121 243.378 56.9016 243.378 54.1639C243.378 51.4262 241.159 49.2068 238.421 49.2068C235.683 49.2068 233.464 51.4262 233.464 54.1639C233.464 56.9016 235.683 59.121 238.421 59.121Z" fill="#F6A895"/>
<path fill-rule="evenodd" clip-rule="evenodd" d="M242.351 44.0356H212.547V32.8155C212.546 32.3948 212.631 31.9784 212.794 31.5907C212.958 31.203 213.197 30.8521 213.498 30.5585C213.8 30.2649 214.157 30.0346 214.549 29.8813C214.94 29.728 215.359 29.6547 215.779 29.6658L239.28 30.283C240.102 30.3046 240.883 30.6461 241.456 31.2348C242.03 31.8235 242.351 32.6128 242.351 33.4347V44.0356Z" fill="#1251A1"/>
<path d="M290.334 148.518H108.933V198.161H290.334V148.518Z" fill="#1251A1"/>
<path d="M276.082 164.346H249.402V187.215H276.082V164.346Z" fill="white"/>
<path d="M272.108 181.471H253.373V183.01H272.108V181.471Z" fill="#B3D4FF"/>
<path d="M272.108 176.703H253.373V178.242H272.108V176.703Z" fill="#B3D4FF"/>
<path d="M272.108 171.936H253.373V173.476H272.108V171.936Z" fill="#B3D4FF"/>
<path d="M276.081 187.215H249.402V190.245H276.081V187.215Z" fill="#B3D4FF"/>
<path fill-rule="evenodd" clip-rule="evenodd" d="M242.915 143.698V158.128L271.773 154.805C274.806 154.457 277.585 152.942 279.52 150.581C281.455 148.22 282.395 145.198 282.14 142.155C281.754 137.651 281.417 133.522 281.417 133.522L242.915 143.698Z" fill="#FF7632"/>
<path fill-rule="evenodd" clip-rule="evenodd" d="M262.578 114.868C262.743 114.904 262.892 114.994 263.001 115.122C263.111 115.251 263.175 115.413 263.183 115.582V137.811C263.183 137.864 263.178 137.916 263.166 137.968C263.046 138.515 262.169 138.739 261.841 138.184C261.776 138.07 261.74 137.942 261.737 137.811V115.582C261.741 115.478 261.767 115.377 261.812 115.283C261.858 115.19 261.922 115.108 262.001 115.041C262.08 114.974 262.172 114.924 262.271 114.894C262.371 114.864 262.475 114.855 262.578 114.868Z" fill="#B55221"/>
<path fill-rule="evenodd" clip-rule="evenodd" d="M268.879 135.541C269.057 135.667 269.132 135.684 269.229 135.892C269.294 136.048 269.306 136.221 269.262 136.383C269.217 136.546 269.119 136.689 268.984 136.789C268.911 136.832 268.835 136.867 268.756 136.895L243.583 143.552C243.419 143.595 243.244 143.578 243.091 143.505C242.998 143.457 242.917 143.391 242.852 143.309C242.787 143.228 242.739 143.134 242.712 143.033C242.686 142.932 242.68 142.827 242.697 142.724C242.713 142.621 242.751 142.522 242.807 142.435C242.939 142.242 243.014 142.242 243.212 142.153L268.386 135.497L268.636 135.476L268.879 135.541V135.541Z" fill="#B55221"/>
<path fill-rule="evenodd" clip-rule="evenodd" d="M242.915 143.698H244.607C245.894 143.698 247.168 143.952 248.357 144.444C249.546 144.937 250.626 145.659 251.536 146.569C252.446 147.479 253.168 148.559 253.66 149.748C254.152 150.937 254.406 152.212 254.405 153.499V153.499L248.656 159.542C248.166 160.056 247.577 160.466 246.925 160.747C246.272 161.027 245.57 161.171 244.86 161.172H234.021C233.62 161.172 233.224 161.079 232.864 160.9C232.505 160.721 232.192 160.461 231.95 160.141C231.708 159.82 231.544 159.448 231.47 159.053C231.396 158.658 231.415 158.252 231.526 157.866C232.033 156.083 232.644 153.931 233.096 152.351C233.504 150.915 234.395 149.663 235.619 148.806L242.915 143.698Z" fill="#F6A895"/>
<path fill-rule="evenodd" clip-rule="evenodd" d="M213.443 143.698V158.128L187.498 154.976C185.929 154.785 184.415 154.279 183.046 153.489C181.678 152.699 180.482 151.641 179.532 150.378C178.582 149.115 177.896 147.673 177.517 146.139C177.137 144.605 177.07 143.01 177.322 141.449C178.001 137.231 178.597 133.524 178.597 133.524L213.443 143.698Z" fill="#FF7632"/>
<path fill-rule="evenodd" clip-rule="evenodd" d="M191.693 136.604L191.77 136.619L213.873 142.155C213.923 142.168 213.972 142.186 214.019 142.209C214.12 142.267 214.206 142.347 214.27 142.443C214.335 142.539 214.376 142.648 214.392 142.763C214.407 142.878 214.396 142.994 214.359 143.104C214.323 143.214 214.261 143.313 214.179 143.395C214.089 143.471 213.983 143.524 213.869 143.553C213.755 143.581 213.636 143.582 213.522 143.557L191.419 138.022C190.881 137.856 190.694 137.075 191.172 136.733C191.243 136.672 191.327 136.629 191.417 136.606C191.508 136.584 191.602 136.583 191.693 136.604Z" fill="#B55221"/>
<path fill-rule="evenodd" clip-rule="evenodd" d="M197.686 114.438C197.859 114.467 198.017 114.554 198.134 114.685C198.25 114.816 198.319 114.982 198.328 115.157V138.662C198.329 138.716 198.322 138.77 198.309 138.822C198.188 139.362 197.327 139.58 196.992 139.046C196.923 138.929 196.885 138.796 196.882 138.66V115.152C196.887 115.052 196.912 114.953 196.955 114.863C196.998 114.773 197.059 114.692 197.134 114.626C197.209 114.559 197.296 114.508 197.391 114.476C197.486 114.444 197.586 114.431 197.686 114.438V114.438Z" fill="#B55221"/>
<path fill-rule="evenodd" clip-rule="evenodd" d="M213.638 143.61H212.395C209.772 143.61 207.256 144.652 205.401 146.507C203.546 148.362 202.504 150.877 202.504 153.501V153.501C202.504 153.501 206.111 157.291 208.252 159.544C208.742 160.058 209.331 160.467 209.983 160.747C210.636 161.027 211.338 161.171 212.048 161.172H222.888C223.29 161.172 223.686 161.079 224.045 160.9C224.404 160.721 224.717 160.461 224.959 160.141C225.201 159.821 225.365 159.449 225.439 159.054C225.513 158.66 225.494 158.254 225.384 157.868C224.881 156.099 224.273 153.967 223.826 152.392C223.408 150.931 222.492 149.663 221.237 148.808L213.632 143.6L213.638 143.61Z" fill="#F6A895"/>
<path d="M290.334 198.161H108.933V214.319H290.334V198.161Z" fill="#1D68C9"/>
<path fill-rule="evenodd" clip-rule="evenodd" d="M119.91 248.714V214.319H279.358V243.251C261.806 243.743 241.511 239.091 210.981 235.609C173.929 231.385 151.093 244.468 119.91 248.725V248.714Z" fill="#1251A1"/>
<path fill-rule="evenodd" clip-rule="evenodd" d="M214.855 187.049C208.403 189.103 188.758 189.103 182.306 187.049C177.927 185.654 175.252 179.231 176.134 174.722C177.484 167.894 190.353 146.071 190.353 146.071V136.38C190.356 134.228 191.213 132.164 192.736 130.643C194.259 129.121 196.324 128.267 198.477 128.268H198.67C200.824 128.268 202.89 129.123 204.413 130.647C205.937 132.17 206.792 134.236 206.792 136.39V146.071C206.792 146.071 219.669 167.894 221.012 174.722C221.909 179.231 219.233 185.654 214.855 187.049ZM202.642 136.157C202.642 135.082 202.215 134.052 201.455 133.292C200.696 132.533 199.665 132.106 198.591 132.106C198.058 132.105 197.53 132.208 197.037 132.411C196.545 132.614 196.097 132.912 195.719 133.288C195.342 133.665 195.043 134.112 194.838 134.604C194.634 135.096 194.529 135.624 194.529 136.157V145.222H202.651V136.157H202.642Z" fill="white"/>
<path fill-rule="evenodd" clip-rule="evenodd" d="M175.973 176.874C184.323 183.965 197.794 175.812 207.209 176.917C210.231 177.27 215.921 178.117 221.096 178.012C220.607 181.893 218.238 185.978 214.853 187.057C208.401 189.111 188.756 189.111 182.304 187.057C178.587 185.865 176.103 181.052 175.973 176.874Z" fill="#CCE2FF"/>
<path fill-rule="evenodd" clip-rule="evenodd" d="M141.576 160.207C135.123 162.263 115.479 162.263 109.026 160.207C104.649 158.815 101.972 152.39 102.853 147.882C104.203 141.052 117.071 119.229 117.071 119.229V109.539C117.071 107.385 117.927 105.319 119.45 103.797C120.974 102.274 123.039 101.418 125.193 101.418H125.397C127.551 101.418 129.617 102.274 131.14 103.797C132.663 105.319 133.519 107.385 133.52 109.539V119.229C133.52 119.229 146.408 141.052 147.749 147.882C148.636 152.39 145.961 158.815 141.576 160.207ZM129.367 109.317C129.369 108.783 129.265 108.255 129.061 107.761C128.858 107.268 128.559 106.819 128.181 106.442C127.804 106.064 127.356 105.765 126.863 105.561C126.369 105.358 125.841 105.254 125.307 105.255V105.255C124.774 105.255 124.246 105.36 123.754 105.564C123.262 105.769 122.815 106.068 122.439 106.445C122.062 106.823 121.764 107.271 121.561 107.763C121.358 108.256 121.255 108.784 121.256 109.317V118.382H129.377V109.317H129.367Z" fill="white"/>
<path fill-rule="evenodd" clip-rule="evenodd" d="M102.699 150.025C111.049 157.117 124.522 148.964 133.936 150.068C136.959 150.422 142.647 151.267 147.824 151.165C147.334 155.046 144.967 159.129 141.577 160.209C135.123 162.264 115.479 162.264 109.026 160.209C105.314 159.025 102.822 154.211 102.699 150.025Z" fill="#CCE2FF"/>
<path fill-rule="evenodd" clip-rule="evenodd" d="M165.71 160.207C159.258 162.263 139.613 162.263 133.161 160.207C128.783 158.815 126.107 152.39 126.989 147.882C128.339 141.052 141.208 119.229 141.208 119.229V109.539C141.208 108.472 141.418 107.416 141.827 106.431C142.235 105.445 142.833 104.55 143.587 103.796C144.342 103.042 145.237 102.444 146.222 102.036C147.208 101.628 148.264 101.418 149.331 101.418H149.523C150.59 101.418 151.646 101.628 152.632 102.036C153.617 102.444 154.512 103.042 155.267 103.796C156.021 104.55 156.619 105.445 157.027 106.431C157.436 107.416 157.646 108.472 157.646 109.539V119.229C157.646 119.229 170.523 141.052 171.865 147.882C172.764 152.39 170.089 158.815 165.71 160.207ZM153.497 109.317C153.496 108.242 153.07 107.211 152.311 106.449C151.551 105.688 150.521 105.258 149.446 105.255C148.371 105.258 147.341 105.688 146.582 106.449C145.823 107.211 145.396 108.242 145.396 109.317V118.382H153.497V109.317Z" fill="white"/>
<path fill-rule="evenodd" clip-rule="evenodd" d="M126.829 150.025C135.179 157.117 148.649 148.964 158.064 150.068C161.087 150.422 166.777 151.267 171.952 151.165C171.473 155.046 169.095 159.129 165.71 160.209C159.258 162.264 139.613 162.264 133.161 160.209C129.442 159.025 126.952 154.211 126.829 150.025Z" fill="#CCE2FF"/>
<path fill-rule="evenodd" clip-rule="evenodd" d="M351.974 111.668C351.974 111.668 353.422 124.887 346.816 136.326C340.21 147.766 328.041 153.121 328.041 153.121C328.041 153.121 326.592 139.902 333.196 128.463C339.801 117.023 351.974 111.668 351.974 111.668Z" fill="#009255"/>
<path fill-rule="evenodd" clip-rule="evenodd" d="M304.108 111.668C304.108 111.668 316.279 117.023 322.887 128.461C329.495 139.899 328.044 153.119 328.044 153.119C328.044 153.119 315.872 147.764 309.267 136.324C302.663 124.885 304.111 111.666 304.111 111.666L304.108 111.668Z" fill="#009255"/>
<path fill-rule="evenodd" clip-rule="evenodd" d="M328.041 105.255C328.041 105.255 335.905 115.979 335.905 129.19C335.905 142.4 328.041 153.123 328.041 153.123C328.041 153.123 320.187 142.398 320.187 129.19C320.187 115.981 328.05 105.255 328.05 105.255H328.041Z" fill="#00B268"/>
<path fill-rule="evenodd" clip-rule="evenodd" d="M348.752 141.565C352.111 153.207 353.218 167.326 350.562 181.399H302.661V141.565H348.752Z" fill="#B7D5FA"/>
<path fill-rule="evenodd" clip-rule="evenodd" d="M350.562 181.399C349.613 186.472 348.169 191.439 346.253 196.23C345.13 196.616 343.951 196.812 342.763 196.809H313.318C311.919 196.809 310.533 196.534 309.24 195.998C307.947 195.463 306.772 194.678 305.783 193.689C304.793 192.699 304.008 191.525 303.472 190.232C302.937 188.939 302.661 187.553 302.661 186.154V181.39L350.562 181.399Z" fill="#8EB9F1"/>
<path fill-rule="evenodd" clip-rule="evenodd" d="M69.9705 127.689L61.2078 129.618C57.1756 130.51 53.4669 132.495 50.4885 135.356C47.5101 138.217 45.3769 141.842 44.3229 145.835C41.4296 156.778 37.3791 172.131 34.6575 182.448C33.8432 185.527 34.1827 188.797 35.6119 191.643C37.0412 194.488 39.4615 196.713 42.4172 197.898L57.1592 203.812L69.9705 127.689Z" fill="#FF7632"/>
<path fill-rule="evenodd" clip-rule="evenodd" d="M57.6336 243.396C52.7028 238.001 49.9716 230.955 49.978 223.646V213.85L77.7108 219.694L89.9955 249.543C81.7594 248.87 72.8289 247.421 62.9494 244.929C61.1363 244.466 59.3644 243.955 57.6336 243.396Z" fill="#003F8F"/>
<path fill-rule="evenodd" clip-rule="evenodd" d="M86.4117 249.194C82.3661 246.361 79.5509 242.094 78.5382 237.26C76.4492 227.348 74.0671 215.997 74.0671 215.997L122.159 219.661L150.063 223.872C153.94 224.458 157.582 226.096 160.592 228.608C163.602 231.12 165.864 234.411 167.133 238.12C142.155 243.419 120.166 252.803 86.4117 249.194Z" fill="#003F8F"/>
<path fill-rule="evenodd" clip-rule="evenodd" d="M79.8712 248.351L77.7861 238.423C77.7562 238.296 77.7562 238.164 77.7861 238.037C77.83 237.837 77.9347 237.656 78.086 237.517C78.2373 237.379 78.4277 237.291 78.631 237.266C78.695 237.258 78.7598 237.258 78.8239 237.266C79.0274 237.293 79.218 237.381 79.3703 237.519C79.5225 237.657 79.6293 237.837 79.6764 238.037L81.9042 248.646C81.233 248.553 80.554 248.453 79.8731 248.353L79.8712 248.351Z" fill="#00224D"/>
<path fill-rule="evenodd" clip-rule="evenodd" d="M122.159 219.482C122.159 220.143 121.897 220.776 121.43 221.243C120.963 221.711 120.329 221.974 119.669 221.974H49.9783V143.814C49.9784 140.494 51.1115 137.273 53.1902 134.684C55.2688 132.095 58.1687 130.293 61.4105 129.575L77.8692 125.934H98.9339L122.159 132.106V219.482V219.482Z" fill="#F5F9FF"/>
<path d="M122.159 163.376H49.978V186.464H122.159V163.376Z" fill="#CCE2FF"/>
<path fill-rule="evenodd" clip-rule="evenodd" d="M80.2646 113.578C80.2646 113.578 71.0621 108.092 70.7477 96.604C70.4333 85.1159 79.4931 81.6575 79.4931 81.6575C79.4931 81.6575 82.7374 71.9304 91.7315 70.2581C97.7282 69.1413 107.548 75.1862 113.412 79.339C114.042 79.7849 114.571 80.3587 114.965 81.023C115.358 81.6872 115.607 82.427 115.695 83.194C115.784 83.961 115.709 84.738 115.477 85.4743C115.245 86.2106 114.86 86.8897 114.347 87.4671C110.121 92.2178 104.022 99.0845 104.022 99.0845L93.6545 118.045L80.2646 113.57V113.578Z" fill="#003F8F"/>
<path fill-rule="evenodd" clip-rule="evenodd" d="M78.7888 125.934C78.7888 125.934 86.6623 130.432 98.9335 125.934L99.9172 120.03L105.341 119.137C106.134 119.006 106.855 118.598 107.375 117.986C107.895 117.373 108.18 116.596 108.18 115.792V106.42L109.714 105.866C110.132 105.717 110.489 105.435 110.733 105.064C110.977 104.693 111.093 104.253 111.064 103.81C110.775 99.3989 109.961 87.0023 109.961 87.0023L102.485 87.7739L98.0733 101.195L92.6243 111.373C92.2677 112.04 91.7368 112.597 91.0883 112.985C90.4398 113.373 89.698 113.578 88.9422 113.578H80.2624L78.7888 125.934Z" fill="#F6A895"/>
<path fill-rule="evenodd" clip-rule="evenodd" d="M103.217 109.645L98.3086 110.465C98.3086 110.465 99.5681 113.674 103.217 113.611V109.645Z" fill="#E06A51"/>
<path fill-rule="evenodd" clip-rule="evenodd" d="M99.9135 120.03L93.7258 121.048L98.9337 125.934L99.9174 120.03H99.9135Z" fill="#E06A51"/>
<path fill-rule="evenodd" clip-rule="evenodd" d="M97.296 95.9887C100.156 96.3263 102.479 98.9225 102.479 101.775C102.479 104.628 100.164 106.686 97.296 106.348C94.4279 106.011 92.1113 103.415 92.1113 100.562C92.1113 97.7092 94.4356 95.6512 97.296 95.9887Z" fill="#F6A895"/>
<path fill-rule="evenodd" clip-rule="evenodd" d="M173.057 170.455L180.176 161.621C180.524 161.189 181.001 160.88 181.537 160.738C182.073 160.596 182.64 160.629 183.156 160.832L183.349 160.911C183.692 161.046 184.003 161.253 184.26 161.517C184.517 161.781 184.716 162.097 184.842 162.443C184.968 162.789 185.019 163.159 184.992 163.526C184.965 163.894 184.86 164.252 184.684 164.576C183.642 166.48 182.41 168.738 182.41 168.738L192.85 166.684C193.106 166.634 193.369 166.638 193.623 166.696C193.876 166.755 194.115 166.866 194.323 167.022C194.531 167.179 194.703 167.378 194.829 167.606C194.955 167.834 195.031 168.086 195.053 168.345C195.198 170.058 195.41 172.569 195.601 174.826C195.729 176.334 195.366 177.844 194.566 179.13C193.767 180.416 192.574 181.409 191.165 181.962L188.364 183.066C187.125 183.555 185.839 183.915 184.526 184.14L176.232 185.562L173.049 170.449L173.057 170.455Z" fill="#F6A895"/>
<path fill-rule="evenodd" clip-rule="evenodd" d="M129.321 138.274C128.936 137.247 128.347 136.309 127.59 135.517C126.832 134.724 125.921 134.094 124.912 133.665C123.903 133.235 122.817 133.015 121.72 133.018C120.624 133.021 119.539 133.247 118.533 133.682C114.439 135.454 111.184 138.732 109.441 142.839C107.698 146.945 107.602 151.565 109.172 155.74L120.244 185.214L149.541 192.351L129.321 138.274Z" fill="#FF7632"/>
<path fill-rule="evenodd" clip-rule="evenodd" d="M143.16 175.283L135.038 177C134.638 177.069 134.528 176.946 134.395 176.822C134.312 176.734 134.251 176.627 134.217 176.51C134.184 176.394 134.179 176.271 134.204 176.152C134.228 176.033 134.281 175.922 134.358 175.827C134.434 175.733 134.533 175.659 134.644 175.611C134.675 175.599 134.706 175.59 134.739 175.584L142.647 173.914L143.158 175.283H143.16Z" fill="#B55221"/>
<path fill-rule="evenodd" clip-rule="evenodd" d="M176.573 187.151L172.748 168.989L118.454 180.454L121.763 189.255C123.012 192.576 125.463 195.306 128.63 196.904C131.798 198.501 135.45 198.849 138.863 197.879L176.573 187.151V187.151Z" fill="#FF7632"/>
</svg>
