<svg width="364" height="266" viewBox="0 0 364 266" fill="none" xmlns="http://www.w3.org/2000/svg">
<g clip-path="url(#clip0)">
<path d="M169.84 1.64002C52.85 10.28 -49.41 99.46 25.66 125.16C172.14 175.3 60.1 270.42 148.66 264.81C230.08 259.65 363.66 157.18 363.66 89.81C363.66 22.44 295 -7.60998 169.84 1.64002Z" fill="#E4544A"/>
<path d="M169.84 1.64002C52.85 10.28 -49.41 99.46 25.66 125.16C172.14 175.3 60.1 270.42 148.66 264.81C230.08 259.65 363.66 157.18 363.66 89.81C363.66 22.44 295 -7.60998 169.84 1.64002Z" fill="url(#paint0_linear)"/>
<path d="M170.46 68.2002C170.98 67.7802 172.32 66.6702 172.64 63.7002H174.64C175.01 66.7002 176.33 67.7902 176.85 68.1902C177.69 68.7202 178.04 69.0002 178.05 69.6702L178.19 86.3002C178.19 86.6512 178.052 86.988 177.804 87.2371C177.557 87.4863 177.221 87.6276 176.87 87.6302L170.82 87.6902C170.646 87.6915 170.473 87.6583 170.312 87.5926C170.151 87.5269 170.004 87.4298 169.88 87.3071C169.757 87.1844 169.659 87.0385 169.592 86.8777C169.525 86.7169 169.49 86.5444 169.49 86.3702L169.35 69.7502C169.33 69.0702 169.57 68.7102 170.46 68.2002Z" fill="#37332F"/>
<path d="M174.919 62.7531L172.319 62.7744L172.332 64.3844L174.932 64.363L174.919 62.7531Z" fill="white"/>
<path d="M177.362 71.9073L170.092 71.98L170.173 80.07L177.443 79.9973L177.362 71.9073Z" fill="white"/>
<path d="M122.28 178.9C122.4 184.21 122.83 193.14 123.07 193.23C124.07 193.63 124.52 193.23 124.52 193.23C124.74 193.11 125.91 186.45 126.76 180.61L122.28 178.9Z" fill="#E58B5E"/>
<path d="M132.2 178.9C132.2 183.49 132.69 191.82 132.69 191.82C133.334 192.043 134.03 192.071 134.69 191.9C134.91 189.63 135.89 181.6 136.11 178.9H132.2Z" fill="#E58B5E"/>
<path d="M121.77 188.42C121.77 188.42 122.44 189.07 126.26 188.5L128.77 165L130.2 131.86L131.42 131.76L132.2 188.47C133.342 188.753 134.542 188.694 135.65 188.3C135.65 188.3 141.94 147.73 141.94 132.13C141.94 129.65 141.59 112.34 141.59 112.34C134.284 112.718 126.958 112.487 119.69 111.65C119.69 111.65 118.26 126.8 118.55 135.19C118.76 141.3 119.38 151.63 120.2 164.37C120.67 171.68 121.21 179.83 121.77 188.42Z" fill="#37332F"/>
<path d="M122.28 136.61C122.28 136.61 118.9 130.74 117.41 129.96C115.92 129.18 109.52 136.61 109.52 136.61L110.08 146.1L121.76 141.29L122.28 136.61Z" fill="#E4544A"/>
<path d="M119.47 148.73C119.47 148.73 112.04 133.73 108.03 134.09C104.02 134.45 100.94 136.95 101.17 144.61C101.4 152.27 102.66 154.75 102.66 154.75H118.51L119.47 148.73Z" fill="#EFA731"/>
<path d="M124.5 150.18C124.5 150.18 127.13 148.88 127.07 147.55C127.01 146.22 127.36 136.89 124.84 135.29C122.32 133.69 113.75 138.84 112.44 140.67C111.13 142.5 117.67 149.67 119.31 150.18C120.95 150.69 124.5 150.18 124.5 150.18Z" fill="#37332F"/>
<path d="M121.5 146.77C121.5 146.77 126.17 148.61 126.17 149.64C126.17 150.67 125.53 154.1 125.17 154.36C124.81 154.62 114.6 155.09 114.65 154.36C114.7 153.63 116.4 147 121.5 146.77Z" fill="#EFA731"/>
<path d="M132.44 191.23C133.288 191.151 134.14 191.131 134.99 191.17L135.28 192.47C135.28 192.47 140.28 194.64 140.61 194.94V195.68H131.86C131.86 195.68 131.44 195.68 132.44 191.23Z" fill="#37332F"/>
<path d="M122.65 191.8C123.501 191.721 124.356 191.701 125.21 191.74L125.49 193.04C125.49 193.04 130.49 195.21 130.82 195.51V196.26H122.07C122.07 196.26 121.65 196.24 122.65 191.8Z" fill="#37332F"/>
<path d="M145 94.2299L138.7 72.9999L143.7 70.8999C143.7 70.8999 145.6 76.5899 148.7 90.3799L145 94.2299Z" fill="#E58B5E"/>
<path d="M145.13 69.6601L149.22 84.6601C148.268 85.4271 147.169 85.992 145.992 86.3204C144.814 86.6487 143.582 86.7337 142.37 86.5701L140 69.3701L145.13 69.6601Z" fill="#FFC42C"/>
<path d="M99.9402 139.79C99.8481 139.788 99.7567 139.806 99.6721 139.842C99.5875 139.879 99.5118 139.933 99.4501 140.001C99.3884 140.07 99.3422 140.15 99.3146 140.238C99.287 140.326 99.2787 140.419 99.2902 140.51L100.74 154.59C100.766 154.786 100.861 154.966 101.008 155.097C101.154 155.229 101.343 155.305 101.54 155.31H126.54C126.737 155.305 126.926 155.229 127.073 155.097C127.219 154.966 127.314 154.786 127.34 154.59L128.79 140.51C128.802 140.419 128.793 140.326 128.766 140.238C128.738 140.15 128.692 140.07 128.63 140.001C128.569 139.933 128.493 139.879 128.408 139.842C128.324 139.806 128.232 139.788 128.14 139.79H99.9402ZM123.35 154C123.258 154.002 123.166 153.984 123.081 153.948C122.996 153.912 122.92 153.858 122.857 153.79C122.795 153.721 122.748 153.641 122.719 153.553C122.69 153.465 122.68 153.372 122.69 153.28L123.6 142.28C123.62 142.084 123.711 141.902 123.857 141.769C124.003 141.636 124.193 141.562 124.39 141.56H125.73C125.821 141.558 125.912 141.576 125.996 141.612C126.079 141.647 126.155 141.701 126.216 141.768C126.278 141.835 126.324 141.915 126.352 142.001C126.381 142.088 126.39 142.18 126.38 142.27L125.19 153.27C125.164 153.466 125.069 153.646 124.923 153.777C124.776 153.909 124.587 153.985 124.39 153.99L123.35 154ZM118.43 154C118.336 154 118.242 153.981 118.155 153.944C118.068 153.907 117.99 153.853 117.924 153.785C117.859 153.716 117.808 153.636 117.775 153.547C117.741 153.459 117.726 153.365 117.73 153.27L118.12 142.27C118.13 142.077 118.214 141.896 118.353 141.762C118.492 141.628 118.677 141.552 118.87 141.55H120.22C120.313 141.549 120.406 141.566 120.492 141.603C120.578 141.639 120.655 141.692 120.719 141.76C120.783 141.828 120.832 141.908 120.863 141.996C120.895 142.084 120.907 142.177 120.9 142.27L120.24 153.27C120.225 153.465 120.138 153.647 119.995 153.78C119.853 153.913 119.665 153.988 119.47 153.99L118.43 154ZM112.65 142.27C112.649 142.176 112.666 142.083 112.701 141.995C112.736 141.908 112.789 141.829 112.855 141.762C112.921 141.695 112.999 141.642 113.086 141.605C113.173 141.569 113.266 141.55 113.36 141.55H114.71C114.805 141.549 114.898 141.567 114.986 141.602C115.073 141.638 115.153 141.691 115.219 141.759C115.285 141.826 115.337 141.906 115.372 141.994C115.406 142.082 115.423 142.176 115.42 142.27L115.29 153.27C115.285 153.462 115.207 153.645 115.071 153.781C114.935 153.917 114.752 153.995 114.56 154H113.56C113.368 153.995 113.185 153.917 113.05 153.781C112.914 153.645 112.835 153.462 112.83 153.27L112.65 142.27ZM107.17 142.27C107.163 142.177 107.176 142.084 107.207 141.996C107.238 141.908 107.287 141.828 107.351 141.76C107.415 141.692 107.493 141.639 107.579 141.603C107.664 141.566 107.757 141.549 107.85 141.55H109.2C109.393 141.552 109.578 141.628 109.718 141.762C109.857 141.896 109.94 142.077 109.95 142.27L110.34 153.27C110.344 153.365 110.329 153.459 110.296 153.547C110.262 153.636 110.211 153.716 110.146 153.785C110.081 153.853 110.002 153.907 109.915 153.944C109.828 153.981 109.735 154 109.64 154H108.64C108.445 153.998 108.258 153.923 108.115 153.79C107.973 153.657 107.885 153.475 107.87 153.28L107.17 142.27ZM101.69 142.27C101.68 142.18 101.69 142.088 101.718 142.001C101.746 141.915 101.793 141.835 101.854 141.768C101.916 141.701 101.991 141.647 102.075 141.612C102.159 141.576 102.249 141.558 102.34 141.56H103.68C103.877 141.562 104.067 141.636 104.213 141.769C104.359 141.902 104.45 142.084 104.47 142.28L105.39 153.28C105.399 153.373 105.388 153.466 105.358 153.554C105.328 153.641 105.279 153.722 105.216 153.79C105.153 153.858 105.076 153.912 104.991 153.948C104.905 153.984 104.813 154.002 104.72 154H103.72C103.523 153.995 103.334 153.919 103.188 153.787C103.041 153.656 102.946 153.476 102.92 153.28L101.69 142.27Z" fill="#C63F3C"/>
<path d="M129.72 137.55H98.3601C98.0784 137.55 97.8501 137.778 97.8501 138.06V139.72C97.8501 140.001 98.0784 140.23 98.3601 140.23H129.72C130.002 140.23 130.23 140.001 130.23 139.72V138.06C130.23 137.778 130.002 137.55 129.72 137.55Z" fill="#C63F3C"/>
<path d="M112.84 138.53C112.761 138.764 112.771 139.019 112.869 139.247C112.967 139.474 113.145 139.657 113.37 139.76C113.486 139.807 113.609 139.83 113.734 139.829C113.858 139.828 113.982 139.802 114.096 139.752C114.21 139.703 114.314 139.631 114.401 139.542C114.487 139.452 114.555 139.346 114.6 139.23C114.68 138.997 114.671 138.742 114.575 138.515C114.48 138.288 114.303 138.105 114.08 138C113.845 137.918 113.587 137.926 113.357 138.024C113.128 138.122 112.943 138.303 112.84 138.53Z" fill="#37332F"/>
<path d="M113.12 138.64C113.057 138.8 113.059 138.979 113.126 139.138C113.194 139.297 113.321 139.423 113.48 139.49C113.642 139.552 113.822 139.548 113.981 139.479C114.14 139.41 114.265 139.281 114.33 139.12C114.393 138.959 114.391 138.78 114.322 138.622C114.254 138.463 114.125 138.339 113.965 138.275C113.804 138.211 113.625 138.214 113.467 138.282C113.308 138.351 113.183 138.479 113.12 138.64Z" fill="#FCF6D8"/>
<path d="M113.36 138.88C113.359 138.932 113.368 138.983 113.387 139.031C113.406 139.079 113.435 139.122 113.471 139.159C113.508 139.195 113.551 139.224 113.599 139.243C113.647 139.262 113.698 139.271 113.75 139.27C113.851 139.27 113.947 139.23 114.019 139.159C114.09 139.087 114.13 138.991 114.13 138.89L114.18 121.03C114.18 120.929 114.14 120.833 114.069 120.761C113.997 120.69 113.901 120.65 113.8 120.65C113.749 120.649 113.699 120.658 113.652 120.676C113.604 120.695 113.561 120.722 113.525 120.758C113.488 120.793 113.46 120.835 113.44 120.882C113.42 120.929 113.41 120.979 113.41 121.03L113.36 138.88Z" fill="#9CC0C0"/>
<path d="M113.18 127.56V120.35C113.172 120.224 113.213 120.1 113.296 120.005C113.378 119.909 113.495 119.85 113.62 119.84H114C114.126 119.85 114.242 119.909 114.325 120.005C114.407 120.1 114.449 120.224 114.44 120.35C114.44 120.35 114.44 127.54 114.44 127.56H113.18Z" fill="#37332F"/>
<path d="M118.77 66.3798C121.201 65.5781 123.679 64.9269 126.19 64.4298C127.61 61.0598 127.5 51.0298 127.5 51.0298C127.5 51.0298 134.5 55.0998 134.62 56.0298C134.94 59.8898 136.23 63.2898 136.34 64.6498C136.42 65.5898 141.79 66.8798 141.79 66.8798C142.07 67.2498 142.41 72.6298 142.61 74.1398L119 74.7298L118.77 66.3798Z" fill="#C97550"/>
<path d="M134.46 55.78C134.41 55.72 134.37 55.66 134.31 55.6L134.19 55.49L133.98 55.29L133.82 55.16L133.55 54.93L133.37 54.8L133.03 54.55L132.85 54.42L132.44 54.13L132.28 54.02L131.75 53.66H131.67C131.24 53.38 130.8 53.09 130.38 52.83H130.31L129.77 52.49L129.61 52.39L129.19 52.13L129.03 52.03L128.67 51.82L128.51 51.73L128.25 51.57L128.07 51.46L127.93 51.38L127.75 51.27H127.5V52.59C127.5 52.73 127.5 52.87 127.5 53.02V53.21C127.5 53.47 127.5 53.74 127.5 54.03V54C127.5 54.88 127.44 55.9 127.38 57C127.385 57.0197 127.385 57.0403 127.38 57.06C127.38 57.46 127.38 57.87 127.3 58.27V58.37L127.24 59C129.47 62 132.75 65.29 136.54 65H136.59C136.485 64.9207 136.411 64.8077 136.38 64.68C136.27 63.32 134.98 59.92 134.66 56.06C134.644 55.9849 134.613 55.9136 134.57 55.85L134.46 55.78Z" fill="#B25F42"/>
<path d="M142 114.23L145.56 73.3099C145.56 73.3099 145.7 69.9499 144.44 68.0799C143.77 67.0799 140.32 65.9699 138.61 65.7399C138.61 65.7399 138.61 70.7399 132.29 70.8499C132.29 70.8499 125.47 73.1799 121.63 65.1899C121.63 65.1899 113.56 65.5599 113.93 69.6899C113.93 69.6899 119.63 80.7899 119.52 91.1299C119.4 103.79 118.21 113.77 118.62 114.28C118.61 114.28 127.66 116 142 114.23Z" fill="#FFC42C"/>
<path d="M136.13 60.4699C135.625 60.7039 135.051 60.7396 134.52 60.5699C133.59 60.3699 128.75 57.4399 127.72 53.6999C127.265 53.7397 126.811 53.6124 126.443 53.3419C126.075 53.0714 125.818 52.6761 125.72 52.2299C125.09 50.4799 125.79 47.9999 127.72 49.5999C127.72 49.5999 127.04 41.8599 130.43 41.3099C133.82 40.7599 140.31 39.4499 140.74 44.9399C140.849 47.9865 140.641 51.0362 140.12 54.0399C139.339 56.4786 137.969 58.6871 136.13 60.4699Z" fill="#E58B5E"/>
<path d="M134.39 48.9402C134.274 48.7837 134.123 48.6562 133.95 48.5677C133.776 48.4792 133.585 48.4321 133.39 48.4302C133.17 48.4339 132.955 48.496 132.767 48.6102C132.579 48.7244 132.424 48.8867 132.32 49.0802" stroke="#37332F" stroke-width="0.45" stroke-miterlimit="10" stroke-linecap="round"/>
<path d="M133.94 49.6898C133.951 49.7662 133.945 49.844 133.923 49.9178C133.901 49.9917 133.863 50.06 133.812 50.1181C133.761 50.1762 133.699 50.2228 133.629 50.2547C133.559 50.2866 133.482 50.3031 133.405 50.3031C133.328 50.3031 133.252 50.2866 133.182 50.2547C133.112 50.2228 133.049 50.1762 132.998 50.1181C132.948 50.06 132.91 49.9917 132.888 49.9178C132.866 49.844 132.86 49.7662 132.87 49.6898C132.888 49.5605 132.952 49.442 133.05 49.3562C133.149 49.2704 133.275 49.2231 133.405 49.2231C133.536 49.2231 133.662 49.2704 133.76 49.3562C133.859 49.442 133.923 49.5605 133.94 49.6898Z" fill="#312E4E"/>
<path d="M139.67 48.8198C139.555 48.6614 139.405 48.532 139.231 48.4418C139.058 48.3515 138.865 48.3029 138.67 48.2998C138.451 48.3062 138.237 48.3707 138.051 48.4866C137.865 48.6026 137.712 48.7659 137.61 48.9598" stroke="#37332F" stroke-width="0.45" stroke-miterlimit="10" stroke-linecap="round"/>
<path d="M139.22 49.5601C139.224 49.6673 139.196 49.7732 139.14 49.8643C139.083 49.9555 139.001 50.0278 138.903 50.072C138.806 50.1162 138.697 50.1303 138.591 50.1126C138.486 50.0949 138.388 50.0461 138.31 49.9724C138.232 49.8988 138.178 49.8036 138.154 49.699C138.13 49.5945 138.138 49.4852 138.177 49.3852C138.216 49.2852 138.283 49.199 138.371 49.1376C138.459 49.0761 138.563 49.0422 138.67 49.0401C138.812 49.0374 138.949 49.0904 139.052 49.1876C139.154 49.2849 139.215 49.4187 139.22 49.5601Z" fill="#37332F"/>
<path d="M133.77 55.11L138.35 55C138.35 55 136 58 133.77 55.11Z" fill="white"/>
<path d="M114.12 72.6001C114.12 72.6001 112.24 86.6001 113 120.3L115.48 120.51L119.48 73.6801L114.12 72.6001Z" fill="#E58B5E"/>
<path d="M152.12 93.2C157.6 89 160.05 87 168.25 80.06L166.86 78L147.32 90.1C147.32 90.1 144.85 91.77 144.62 92.63C144.39 93.49 145.62 96.81 146.57 96.86C147.52 96.91 152.12 93.2 152.12 93.2Z" fill="#E58B5E"/>
<path d="M114 69.2802L112.28 79.4402C112.28 79.4402 115.17 86.2802 119.43 84.6202L121.43 73.2902C121.43 73.2902 119.66 67.5202 114 69.2802Z" fill="#FFC42C"/>
<path d="M115.58 119.35C116.112 120.233 116.5 121.195 116.73 122.2C116.73 122.2 117.08 123.12 115.92 124.2C115.392 124.628 114.716 124.829 114.04 124.76C114.04 124.76 112.04 125.76 111.75 124.22C111.459 122.204 111.926 120.152 113.06 118.46L115.58 119.35Z" fill="#E58B5E"/>
<path d="M168.93 75.5902C169.082 75.5349 169.24 75.4947 169.4 75.4702V78.2002C169.32 78.4102 169.28 78.5602 169.28 78.5602C169.28 78.5602 169.42 79.7102 172.92 80.7902C173.75 81.0502 172.63 81.4702 171.92 81.5902C170.31 81.6257 168.704 81.4097 167.16 80.9502L166.4 78.7902C166.4 78.7902 167.73 76.1002 168.93 75.5902Z" fill="#E58B5E"/>
<path d="M140.69 47.1698C140.579 45.7848 140.088 44.4573 139.271 43.3334C138.455 42.2095 137.343 41.3328 136.06 40.7998C136.06 40.7998 133.99 48.0498 128.62 48.7998C128.62 48.7998 129.17 50.9398 128.62 51.1798C128.07 51.4198 127.62 47.9198 125.78 49.6298C125.78 49.6298 124.42 52.4798 127.2 53.7398C127.495 55.237 127.515 56.7753 127.26 58.2798C127.26 58.2798 123.05 59.0698 121.43 58.1198C119.81 57.1698 119.43 39.4398 128.5 37.0398C137.57 34.6398 144.59 41.2698 142.61 55.7398C142.118 56.0711 141.565 56.3017 140.983 56.4184C140.401 56.5351 139.802 56.5356 139.22 56.4198C140.555 53.5314 141.064 50.3297 140.69 47.1698Z" fill="#37332F"/>
<path d="M200.404 111.779L199.021 134.829L215.621 135.825L217.004 112.775L200.404 111.779Z" fill="#37332F"/>
<path d="M200.931 116.358L200.102 130.834L213.609 131.608L214.439 117.132L200.931 116.358Z" fill="white"/>
<path d="M177.21 110.41C176.62 109.9 175.09 108.52 174.84 104.99L173.67 104.93L172.5 104.87C171.91 108.36 170.3 109.64 169.67 110.1C168.67 110.68 168.22 111 168.18 111.79L167.24 131.48C167.221 131.895 167.367 132.3 167.646 132.608C167.925 132.915 168.315 133.099 168.73 133.12L175.9 133.46C176.106 133.472 176.312 133.443 176.507 133.374C176.702 133.306 176.881 133.199 177.033 133.06C177.186 132.921 177.31 132.753 177.397 132.566C177.484 132.379 177.532 132.176 177.54 131.97L178.48 112.28C178.52 111.49 178.24 111.06 177.21 110.41Z" fill="#EFA731"/>
<path d="M172.181 103.725L172.09 105.633L175.167 105.779L175.258 103.871L172.181 103.725Z" fill="white"/>
<path d="M168.99 114.781L168.533 124.36L177.143 124.771L177.6 115.192L168.99 114.781Z" fill="white"/>
<path d="M174.263 116.31L173.318 132.792L190.689 133.788L191.634 117.305L174.263 116.31Z" fill="#C63F3C"/>
<path d="M173.406 112.637L173.131 117.429L192.689 118.55L192.964 113.757L173.406 112.637Z" fill="#4F4C4A"/>
<path d="M175.171 121.014L174.789 127.683L190.184 128.565L190.566 121.896L175.171 121.014Z" fill="white"/>
<path d="M203.31 111.38C202.72 110.86 201.21 109.47 200.99 105.94L199.82 105.87L198.64 105.81C198.02 109.29 196.4 110.55 195.76 111C194.76 111.57 194.31 111.89 194.26 112.68L193.13 132.36C193.118 132.566 193.147 132.773 193.215 132.968C193.282 133.163 193.388 133.343 193.526 133.497C193.663 133.652 193.83 133.777 194.016 133.867C194.202 133.956 194.404 134.009 194.61 134.02L201.78 134.43C202.195 134.452 202.602 134.308 202.911 134.031C203.22 133.754 203.407 133.365 203.43 132.95L204.56 113.27C204.6 112.48 204.33 112.05 203.31 111.38Z" fill="#EFA731"/>
<path d="M198.343 104.659L198.234 106.565L201.309 106.741L201.418 104.834L198.343 104.659Z" fill="white"/>
<path d="M195.812 115.664L195.236 125.264L203.856 125.781L204.432 116.181L195.812 115.664Z" fill="white"/>
<path d="M222.08 133.45C221.31 133.31 219.29 132.9 217.27 130L216.27 130.55L215.27 131.1C216.55 134.4 215.82 136.32 215.51 137.04C214.93 138.04 214.72 138.55 215.1 139.25L224.35 156.66C224.545 157.027 224.878 157.301 225.275 157.423C225.673 157.545 226.102 157.504 226.47 157.31L232.81 153.94C233.175 153.743 233.447 153.409 233.567 153.012C233.687 152.615 233.645 152.186 233.45 151.82L224.2 134.41C223.75 133.71 223.3 133.49 222.08 133.45Z" fill="#EFA731"/>
<path d="M217.07 128.823L214.35 130.268L215.246 131.955L217.966 130.509L217.07 128.823Z" fill="white"/>
<path d="M224.838 137.375L217.227 141.421L221.732 149.898L229.344 145.852L224.838 137.375Z" fill="white"/>
<path d="M165.449 132.345L164.13 155.357L180.703 156.307L182.022 133.294L165.449 132.345Z" fill="#4F4C4A"/>
<path d="M166.805 136.897L165.975 151.373L179.483 152.147L180.313 137.671L166.805 136.897Z" fill="white"/>
<path d="M183.595 133.394L182.276 156.406L198.849 157.356L200.168 134.344L183.595 133.394Z" fill="#E4544A"/>
<path d="M184.952 137.936L184.122 152.413L197.63 153.187L198.46 138.71L184.952 137.936Z" fill="white"/>
<path d="M201.742 134.423L200.423 157.436L216.996 158.385L218.315 135.373L201.742 134.423Z" fill="#37332F"/>
<path d="M203.099 138.966L202.269 153.442L215.777 154.216L216.607 139.74L203.099 138.966Z" fill="white"/>
<path d="M184.35 133.4C183.77 132.88 182.25 131.49 182.03 127.95L180.86 127.89L179.69 127.82C179.07 131.3 177.45 132.57 176.81 133.02C175.81 133.59 175.35 133.91 175.31 134.69L174.18 154.38C174.168 154.585 174.196 154.79 174.264 154.984C174.331 155.178 174.436 155.357 174.572 155.51C174.709 155.663 174.875 155.788 175.059 155.877C175.244 155.967 175.445 156.018 175.65 156.03L182.82 156.44C183.235 156.464 183.643 156.324 183.954 156.048C184.265 155.772 184.454 155.385 184.48 154.97L185.6 135.28C185.65 134.5 185.38 134.06 184.35 133.4Z" fill="#EFA731"/>
<path d="M179.386 126.673L179.277 128.58L182.352 128.756L182.461 126.849L179.386 126.673Z" fill="white"/>
<path d="M176.093 137.692L175.544 147.276L184.15 147.77L184.699 138.185L176.093 137.692Z" fill="white"/>
<path d="M207 135.21C206.41 134.7 204.88 133.32 204.62 129.79H203.45L202.28 129.73C201.69 133.22 200.08 134.5 199.45 134.95C198.45 135.53 198 135.86 197.96 136.65L197 156.29C196.981 156.705 197.127 157.11 197.407 157.418C197.686 157.725 198.075 157.909 198.49 157.93L205.66 158.27C206.075 158.289 206.481 158.143 206.788 157.864C207.095 157.584 207.279 157.195 207.3 156.78L208.24 137.09C208.3 136.3 208 135.87 207 135.21Z" fill="#EFA731"/>
<path d="M201.946 128.536L201.855 130.443L204.932 130.59L205.023 128.682L201.946 128.536Z" fill="white"/>
<path d="M199.432 139.673L198.952 149.273L207.572 149.704L208.052 140.104L199.432 139.673Z" fill="white"/>
<path d="M262.28 189.8L264.28 190.96C264.28 190.96 271.28 178.16 273.76 173.07C276.01 168.52 280.4 161.5 279.38 147.57C284.18 139.66 293.56 118.24 293.56 118.24C294.01 116.93 296.38 114.89 296.38 114.89L282.09 105.89C279.02 114.83 274.73 131.59 270.99 145.43C270.539 146.714 270.439 148.095 270.7 149.43C270.7 149.43 271.51 152.31 269.47 161.65C268.65 165.2 262.28 189.8 262.28 189.8Z" fill="#E58B5E"/>
<path d="M271.37 140.56C277.82 117 279.56 112.87 280.81 109.21L281.01 109.12L286.6 112.64L293.26 119.95C292.85 120.44 301.17 122.38 295.16 123.72C295.16 123.72 290.61 132.34 282.47 148.42C282.47 148.42 274.57 145.39 271.37 140.56Z" fill="#37332F"/>
<path d="M319.28 161.52C316.92 157.05 314.28 150.64 305.38 144.88C305.18 139.88 304.75 134.43 304.38 130.3H290.61C292.54 135.79 294.56 139.65 297.61 149.13C297.907 150.412 298.567 151.582 299.51 152.5C299.51 152.5 302.45 153.77 308.51 160.35C310.83 162.85 326.38 181.17 326.38 181.17L328.21 179.75C328.21 179.75 321.92 166.52 319.28 161.52Z" fill="#E58B5E"/>
<path d="M303.94 123.82C303.663 122.665 303.598 121.468 303.75 120.29C307.28 104.84 301.95 97.29 301.21 96.29C295.75 100.82 283.77 104.16 279.88 105.58C279.88 106.11 279.88 122.26 288.31 125.28C288.51 125.36 288.94 124.87 289.13 124.98C291.85 126.39 292.19 131.24 293.26 134.71C299.43 135.03 301.73 133.19 303.82 131.85C303.493 129.18 303.533 126.479 303.94 123.82Z" fill="#37332F"/>
<path d="M306.88 142.54L303.51 118.06L288.12 124C288.12 124 291.5 140.36 294.12 148.42C294.15 148.42 300.05 147.65 306.88 142.54Z" fill="#37332F"/>
<path d="M276.53 41.91C276.53 41.91 277.28 45.8 277.45 47.18C277.54 47.5143 277.745 47.8064 278.028 48.0056C278.311 48.2047 278.655 48.2983 279 48.27C280.198 48.2811 281.392 48.1331 282.55 47.83C282.55 47.83 283.55 47.62 284.55 47.34C284.34 49.23 284.01 51.13 283.73 52.54C283.73 52.54 282.94 53.54 281.9 54.84C282.316 55.0397 282.714 55.2739 283.09 55.54H299.79C299.04 54.1953 297.989 53.042 296.72 52.17C293.55 48.97 291.86 46.38 292.07 42.87C292.77 41.65 297.07 33.87 293.94 28.46C293.186 27.0535 292.05 25.8887 290.663 25.0996C289.276 24.3105 287.694 23.9294 286.1 24C283.2 24.1 281.53 24.46 279.39 26.35C279.39 26.35 275.78 28.94 276.6 35.06C276.828 36.4202 276.629 37.8175 276.03 39.06C276.03 39.06 275.31 40.06 275.76 40.43C276.103 40.8734 276.364 41.3746 276.53 41.91Z" fill="#E58B5E"/>
<path d="M290 42.1001C289.575 43.3687 288.843 44.5126 287.87 45.4303C286.896 46.3479 285.711 47.0109 284.42 47.3601H284.51C284.35 48.8101 284.12 50.2501 283.9 51.4801C290.35 49.8501 290 42.1001 290 42.1001Z" fill="#C97550"/>
<path d="M304 102.74C306.41 99.6199 300.29 82.7399 302.16 64.2599C302.104 62.9481 301.936 61.6435 301.66 60.3599C301.648 60.2889 301.632 60.2187 301.61 60.1499C301.61 59.9299 301.5 59.7199 301.45 59.5099L301.39 59.3299C301.32 59.1099 301.26 58.8999 301.19 58.6899C300.968 58.0433 300.711 57.4091 300.42 56.7899V56.6899L300.18 56.2199C300.18 56.2199 300.13 56.1299 300.11 56.0799L299.87 55.6699L299.79 55.5399L299.55 55.1499L299.5 55.0799C299.254 54.7017 298.987 54.3378 298.7 53.9899L298.63 53.9099L298.42 53.6699L298.33 53.5599L298.13 53.3499L298.04 53.2599C297.98 53.1899 297.91 53.1399 297.86 53.0799L297.77 52.9999L297.26 52.5599C297.229 52.5421 297.202 52.5183 297.18 52.4899L297.08 52.4199C297.08 52.4199 297.03 52.4199 297 52.3599H296.93H296.86C296.86 52.3599 296.86 52.3599 296.81 52.3599H296.76C296.52 52.1199 296.29 51.8899 296.07 51.6499C295.182 50.7238 294.379 49.7198 293.67 48.6499C290.3 52.4899 288.47 54.1099 285.81 54.3799C284.718 54.5011 283.614 54.4437 282.54 54.2099C281.88 55.0399 272.39 68.2099 275.06 83.5399C276.883 90.1584 277.921 96.9687 278.15 103.83C278.15 103.83 278.43 108.53 279.92 109.26C281.41 109.99 301.75 105.28 304 102.74Z" fill="#FFC42C"/>
<path d="M287.49 88.6099L299.32 65.9999C299.32 65.9999 301.77 56.2099 298.15 53.0999C294.53 49.9899 292.44 52.0999 291.15 56.4599L282.15 83.9699L256.3 92.2299L257.88 95.1799C257.88 95.1799 283.58 93.6399 287.49 88.6099Z" fill="#E58B5E"/>
<path d="M257.84 95.1301C257.84 95.1301 248.16 95.8501 249.97 94.9201C254.73 92.4501 245.53 91.3801 245.49 90.5601C245.4 89.0001 252.55 87.3001 258.18 92.2001L257.84 95.1301Z" fill="#E58B5E"/>
<path d="M295.42 80.29C295.59 80.3134 295.753 80.3713 295.9 80.46C298.012 74.9748 299.515 69.2738 300.38 63.46C300.44 61.98 301.79 51.53 293.75 50.78C293.75 50.78 290.34 50.46 285.43 73.25C286.35 77.4 290.64 80.46 295.42 80.29Z" fill="#FFC42C"/>
<path d="M294.89 25.5999C293.98 25.4999 292.48 23.5999 291.74 21.7499C291 19.8999 290 19.9999 290 19.9999C288.744 20.5825 287.365 20.8488 285.983 20.7756C284.6 20.7024 283.257 20.2919 282.07 19.5799C279.66 18.0799 279.4 25.1299 276.21 25.2099C274.11 25.2699 275.96 28.5999 275.96 28.5999C275.54 29.5999 283.56 28.7699 284.96 29.5999C286.36 30.4299 286.15 34.7199 286.96 35.2899C287.205 35.5869 287.51 35.8293 287.854 36.0016C288.199 36.1738 288.575 36.272 288.96 36.2899C289.85 36.2899 291.26 34.3599 292.05 34.7899C292.84 35.2199 292.1 39.5199 290.05 40.0999C290.033 40.7923 290.184 41.4784 290.49 42.0999C290.99 42.9999 291.55 44.7699 292.13 44.5699C292.71 44.3699 292.96 42.0499 293.57 40.7699C294.02 40.6399 295.21 41.2899 295.63 40.9299C296.63 40.0899 295.39 39.0099 296.8 37.7899C299.8 35.1699 298.43 34.2099 297.33 32.0599C297.04 31.4999 297.92 30.6399 298.27 28.7999C298.62 26.9599 298 25.9999 294.89 25.5999Z" fill="#37332F"/>
<path d="M327.74 177.8L325.2 179.8C325.2 179.8 324.48 187.99 321.28 193.15L322.05 194.39L332.29 184.3L327.74 177.8Z" fill="#37332F"/>
<path d="M265.55 189.15L262.79 187.8C262.79 187.8 255.56 191.16 249.5 190.8L248.78 192.08L262.54 196.25L265.55 189.15Z" fill="#37332F"/>
<path d="M177.07 189.29C177.07 190.576 176.689 191.832 175.974 192.901C175.26 193.97 174.245 194.803 173.057 195.295C171.87 195.787 170.563 195.916 169.302 195.665C168.041 195.414 166.883 194.795 165.974 193.886C165.065 192.977 164.446 191.819 164.195 190.558C163.944 189.297 164.073 187.99 164.565 186.803C165.057 185.615 165.89 184.6 166.959 183.885C168.028 183.171 169.284 182.79 170.57 182.79C172.294 182.79 173.947 183.475 175.166 184.694C176.385 185.913 177.07 187.566 177.07 189.29Z" fill="#37332F"/>
<path d="M174.92 189.29C174.92 190.15 174.665 190.991 174.187 191.707C173.709 192.422 173.03 192.98 172.235 193.309C171.44 193.638 170.565 193.724 169.722 193.556C168.878 193.389 168.103 192.974 167.494 192.366C166.886 191.758 166.472 190.982 166.304 190.139C166.136 189.295 166.222 188.42 166.551 187.625C166.881 186.83 167.438 186.151 168.153 185.673C168.869 185.195 169.71 184.94 170.57 184.94C171.724 184.94 172.83 185.398 173.646 186.214C174.462 187.03 174.92 188.136 174.92 189.29Z" fill="#F8FBFF"/>
<path d="M230.58 195.79C234.17 195.79 237.08 192.88 237.08 189.29C237.08 185.7 234.17 182.79 230.58 182.79C226.99 182.79 224.08 185.7 224.08 189.29C224.08 192.88 226.99 195.79 230.58 195.79Z" fill="#4F4C4A"/>
<path d="M234.93 189.29C234.93 190.15 234.675 190.991 234.197 191.707C233.719 192.422 233.04 192.98 232.245 193.309C231.45 193.638 230.575 193.724 229.731 193.556C228.888 193.389 228.112 192.974 227.504 192.366C226.896 191.758 226.481 190.982 226.314 190.139C226.146 189.295 226.232 188.42 226.561 187.625C226.89 186.83 227.448 186.151 228.163 185.673C228.879 185.195 229.72 184.94 230.58 184.94C231.734 184.94 232.84 185.398 233.656 186.214C234.472 187.03 234.93 188.136 234.93 189.29Z" fill="#F8FBFF"/>
<path d="M156.57 156.31L228.91 161.18C229.62 162.27 234.91 170.66 235.41 178.06H159.3C158.992 178.06 158.697 178.182 158.48 178.4C158.262 178.617 158.14 178.912 158.14 179.22C158.14 179.528 158.262 179.823 158.48 180.04C158.697 180.258 158.992 180.38 159.3 180.38H237.77V179.23C237.77 172.34 233.7 164.65 231.77 161.38L233.97 161.52L248.75 94.23L247.33 94.35C240.92 94.92 235.44 98.53 231.5 104.8C229.802 107.505 228.495 110.438 227.62 113.51L154.87 120.61L156.57 156.31ZM242.69 112L229.85 113.25C230.682 110.639 231.837 108.143 233.29 105.82C236.62 100.55 240.91 97.45 246.07 96.58L242.69 112ZM238.49 131.14H236.44L237.73 114.53L242.22 114.09L238.49 131.14ZM235.34 145.48L236.28 133.29L238.03 133.24L235.34 145.48ZM234.34 131.25L229.7 131.39L230.75 115.26L235.62 114.79L234.34 131.25ZM233.11 147.19L228.68 147.04L229.56 133.48L234.18 133.35L233.11 147.19ZM227.9 159L228.54 149.15L232.95 149.29L232.17 159.29L227.9 159ZM227.6 131.47L223.04 131.6L223.85 115.96L228.65 115.49L227.6 131.47ZM226.6 146.99L222.26 146.84L222.94 133.69L227.48 133.56L226.6 146.99ZM221.6 158.58L222.11 148.93L226.42 149.08L225.79 158.86L221.6 158.58ZM220.91 131.66L216.3 131.79L216.89 116.64L221.72 116.16L220.91 131.66ZM220.13 146.78L215.73 146.63L216.22 133.88L220.8 133.75L220.13 146.78ZM215.28 158.15L215.64 148.72L220.02 148.86L219.52 158.44L215.28 158.15ZM214.21 131.85L209.64 131.98L209.96 117.31L214.79 116.84L214.21 131.85ZM213.64 146.56L209.33 146.41L209.6 134.07L214.13 133.94L213.64 146.56ZM209.08 157.74L209.29 148.5L213.56 148.65L213.19 158.01L209.08 157.74ZM207.55 132.04L202.98 132.17L203.04 117.99L207.87 117.51L207.55 132.04ZM207.24 146.34L202.92 146.2L202.97 134.26L207.51 134.13L207.24 146.34ZM202.87 157.34V148.34L207.16 148.48L206.96 157.65L202.87 157.34ZM196.32 148.09L200.82 148.24V157.24L196.42 156.94L196.32 148.09ZM196.22 134.47L200.88 134.34V146.15L196.36 146L196.22 134.47ZM196.1 118.68L200.95 118.21L200.89 132.21L196.21 132.35L196.1 118.68ZM190 147.88L194.29 148.02L194.36 156.76L190.2 156.48L190 147.88ZM189.69 134.66L194.19 134.53L194.28 145.93L189.95 145.79L189.69 134.66ZM189.33 119.35L194.07 118.89L194.18 132.44L189.64 132.58L189.33 119.35ZM183.33 147.66L187.87 147.81L188.07 156.34L183.65 156.04L183.33 147.66ZM182.83 134.86L187.56 134.72L187.82 145.72L183.25 145.56L182.83 134.86ZM182.27 120L187.21 119.52L187.52 132.59L182.76 132.73L182.27 120ZM176.81 147.4L181.24 147.55L181.56 155.86L177.26 155.57L176.81 147.4ZM176.13 135.01L180.76 134.88L181.16 145.45L176.69 145.31L176.13 135.01ZM175.35 120.67L180.19 120.2L180.68 132.79L176 133L175.35 120.67ZM170.42 147.19L174.71 147.33L175.16 155.43L170.91 155.14L170.42 147.19ZM169.68 135.19L174.04 135.06L174.6 145.22L170.29 145.08L169.68 135.19ZM168.82 121.3L173.27 120.87L173.93 132.97L169.55 133.1L168.82 121.3ZM163.92 147L168.32 147.15L168.81 155.03L164.5 154.74L163.92 147ZM163 135.43L167.55 135.29L168.15 145.06L163.72 144.91L163 135.43ZM162.84 133.34L162 122L166.71 121.54L167.43 133.19L162.84 133.34ZM158.17 146.82L161.78 146.94L162.36 154.61L158.53 154.35L158.17 146.82ZM157.63 135.58L160.91 135.49L161.62 144.84L158.07 144.72L157.63 135.58ZM157 122.5L159.91 122.22L160.75 133.4L157.53 133.49L157 122.5Z" fill="#37332F"/>
<path d="M224.08 179.34C224.08 179.34 226.29 188.52 231.08 188.87C231.08 188.87 234.56 189.79 233.08 179.34H224.08Z" fill="#4F4C4A"/>
<path d="M164 179.34C164 179.34 166.2 188.52 171 188.87C171 188.87 174.48 189.79 173 179.34H164Z" fill="#4F4C4A"/>
<path d="M248.9 98.3998C251.264 98.3998 253.18 96.4836 253.18 94.1199C253.18 91.7561 251.264 89.8398 248.9 89.8398C246.536 89.8398 244.62 91.7561 244.62 94.1199C244.62 96.4836 246.536 98.3998 248.9 98.3998Z" fill="#4F4C4A"/>
<path d="M251.83 94.1202C251.832 94.7001 251.662 95.2676 251.341 95.7507C251.021 96.2339 250.564 96.611 250.028 96.8343C249.493 97.0576 248.904 97.117 248.335 97.0051C247.766 96.8932 247.243 96.6149 246.832 96.2056C246.421 95.7962 246.141 95.2741 246.027 94.7055C245.913 94.1369 245.971 93.5472 246.192 93.0113C246.414 92.4753 246.789 92.0171 247.271 91.6947C247.753 91.3723 248.32 91.2002 248.9 91.2002C249.675 91.2028 250.417 91.511 250.966 92.0577C251.514 92.6045 251.825 93.3457 251.83 94.1202Z" fill="#37332F"/>
<path d="M278.06 35.3601C278.184 35.1618 278.357 34.9982 278.561 34.8848C278.766 34.7714 278.996 34.7119 279.23 34.7119C279.464 34.7119 279.694 34.7714 279.899 34.8848C280.104 34.9982 280.276 35.1618 280.4 35.3601" stroke="#312E4E" stroke-width="0.44" stroke-miterlimit="10" stroke-linecap="round"/>
<path d="M278.09 37.1799C278.09 37.5099 278.09 37.7599 278.7 37.7599C278.778 37.76 278.855 37.7443 278.927 37.7139C278.998 37.6835 279.063 37.639 279.117 37.583C279.171 37.527 279.214 37.4607 279.242 37.388C279.27 37.3153 279.283 37.2377 279.28 37.1599C279.28 37.0816 279.264 37.004 279.234 36.9318C279.204 36.8596 279.159 36.7941 279.104 36.7391C279.048 36.6842 278.981 36.641 278.909 36.6119C278.836 36.5829 278.758 36.5686 278.68 36.5699C278.522 36.5775 278.374 36.6448 278.264 36.7581C278.155 36.8715 278.092 37.0223 278.09 37.1799Z" fill="#312E4E"/>
<path d="M276.26 41.2502C278.291 40.7292 280.356 40.3549 282.44 40.1302C283.82 40.1302 286.36 41.3102 286.65 40.9602C286.94 40.6102 287.34 34.7402 287.34 34.7402L288.51 35.0802C288.51 35.0802 290.61 41.7902 289.2 44.5802C287.79 47.3702 278.41 51.5802 277 48.0002C276.17 45.8529 275.915 43.5263 276.26 41.2502Z" fill="#37332F"/>
<path d="M276.83 43.44C276.83 43.44 281.43 42.62 281.63 42.52C281.63 42.52 278.14 46.11 276.83 43.44Z" fill="white"/>
</g>
<defs>
<linearGradient id="paint0_linear" x1="279.152" y1="9.20043" x2="68.046" y2="230.689" gradientUnits="userSpaceOnUse">
<stop stop-color="#E4544A"/>
<stop offset="1" stop-color="#C63F3C"/>
</linearGradient>
<clipPath id="clip0">
<rect width="363.69" height="265.04" fill="white"/>
</clipPath>
</defs>
</svg>
