<svg width="387" height="302" viewBox="0 0 387 302" fill="none" xmlns="http://www.w3.org/2000/svg">
<g clip-path="url(#clip0)">
<path d="M381.55 161.37C378.48 153.56 374 146.37 370.24 138.91C366.11 130.68 364.05 121.52 361.15 112.82C355.88 97.0099 347.15 84.2299 333.9 74.0699C322 64.8899 307.1 59.8399 292.62 56.3499C277.54 52.7199 262.06 51.0199 246.77 48.5699C227.34 45.4599 208.17 41.3999 188.59 39.1899C162.871 36.2087 136.903 36.0511 111.15 38.7199C88.81 41.0899 65 45.0899 44.27 54.1599C36.37 57.6199 29.21 62.2499 23.53 68.7999C17 76.2899 14 85.6399 11.28 94.9999C5.27996 116.12 2.67996 138.45 2.27996 160.42C-0.210041 176 -0.270041 192.4 0.279959 208C1.01814 224.845 6.08805 241.216 15 255.53C23.49 269.4 34.89 279.32 50.34 284.53C66.55 290.02 84.69 290.43 101.56 292.43C142.66 297.32 184.44 304.06 225.93 300.43C246.2 298.67 266.16 294.27 285.61 288.43C302.36 283.35 319.54 278.72 335.98 272.69C350.45 267.39 363.12 259.78 372.08 247.03C380.46 235.12 384 220.27 385.68 206.03C387.42 191.44 387 175.18 381.55 161.37Z" fill="#8CC63E"/>
<path d="M381.55 161.37C378.48 153.56 374 146.37 370.24 138.91C366.11 130.68 364.05 121.52 361.15 112.82C355.88 97.0099 347.15 84.2299 333.9 74.0699C322 64.8899 307.1 59.8399 292.62 56.3499C277.54 52.7199 262.06 51.0199 246.77 48.5699C227.34 45.4599 208.17 41.3999 188.59 39.1899C162.871 36.2087 136.903 36.0511 111.15 38.7199C88.81 41.0899 65 45.0899 44.27 54.1599C36.37 57.6199 29.21 62.2499 23.53 68.7999C17 76.2899 14 85.6399 11.28 94.9999C5.27996 116.12 2.67996 138.45 2.27996 160.42C-0.210041 176 -0.270041 192.4 0.279959 208C1.01814 224.845 6.08805 241.216 15 255.53C23.49 269.4 34.89 279.32 50.34 284.53C66.55 290.02 84.69 290.43 101.56 292.43C142.66 297.32 184.44 304.06 225.93 300.43C246.2 298.67 266.16 294.27 285.61 288.43C302.36 283.35 319.54 278.72 335.98 272.69C350.45 267.39 363.12 259.78 372.08 247.03C380.46 235.12 384 220.27 385.68 206.03C387.42 191.44 387 175.18 381.55 161.37Z" fill="url(#paint0_linear)"/>
<path d="M165.01 222.56L192.82 208.31L172.27 174.62L149.67 186.21L165.01 222.56Z" fill="#186D1E"/>
<path d="M169 177.84C169 177.84 154.78 162.38 153.1 162.84C151.42 163.3 153.44 182.59 154.23 185.39" stroke="#261D39" stroke-miterlimit="10"/>
<path d="M139.4 223.06L170.62 221.7L165.98 182.52L140.6 183.62L139.4 223.06Z" fill="#E4544A"/>
<path d="M161.64 184.07C161.64 184.07 155.16 164.07 153.43 163.81C151.7 163.55 145.5 181.91 145.06 184.81" stroke="#261D39" stroke-miterlimit="10"/>
<path d="M118.33 212.56L147.78 223L158.18 184.93L134.24 176.44L118.33 212.56Z" fill="#541B1B"/>
<path d="M153.57 184.74C153.57 184.74 155.06 163.74 153.57 162.88C152.08 162.02 139.45 176.69 137.95 179.21" stroke="#261D39" stroke-miterlimit="10"/>
<path d="M140.46 99.79C140.46 99.79 146.56 117.63 154.32 161.92L151.13 162.85L133.73 102.59L140.46 99.79Z" fill="#E58B5E"/>
<path d="M150.7 161.36C150.235 162.645 149.975 163.995 149.93 165.36C150.413 166.465 150.675 167.654 150.7 168.86C150.7 168.86 152.22 170.2 152.99 168.86C152.99 168.86 157.32 167.86 157.27 165.81C157.22 163.76 155.96 161.72 153.77 159.6L150.7 161.36Z" fill="#E58B5E"/>
<path d="M142.31 98.15L147.77 118.15C146.499 119.175 145.031 119.93 143.458 120.369C141.885 120.807 140.238 120.92 138.62 120.7L135.5 97.77L142.31 98.15Z" fill="#C63F3C"/>
<path d="M95.0998 238.16C91.4498 244.21 85.5398 254.57 85.7398 254.85C86.5698 256.02 87.3498 255.9 87.3498 255.9C87.6998 255.9 93.7798 248.22 98.9198 242.25L95.0998 238.16Z" fill="#F4A684"/>
<path d="M133.07 243.93C133.91 250 136.13 260.93 136.13 260.93C137.04 261.11 137.983 261.016 138.84 260.66C138.7 257.61 138.49 246.82 138.29 243.22L133.07 243.93Z" fill="#F4A684"/>
<path d="M87.7197 248.51C87.7197 248.51 88.0097 249.72 92.7197 251.81L115 219.59C115 219.59 115.68 218.74 116.75 213.71C118.94 203.48 121.52 181.16 121.52 181.16L123.15 181.03L133.95 256.59C135.811 256.727 137.677 256.411 139.39 255.67C139.39 255.67 137.18 202.33 137.18 181.52C137.18 178.21 136.71 155.11 136.71 155.11C136.71 155.11 126.35 156.96 108.28 155.11C108.28 155.11 106.86 155.11 103.87 213.62L87.7197 248.51Z" fill="#37332F"/>
<path d="M135.69 260.18C136.794 259.91 137.917 259.726 139.05 259.63L139.67 261.29C139.67 261.29 145.43 263.41 145.93 263.72L146.07 264.72L135.76 266.19C135.76 266.19 135.2 266.24 135.69 260.18Z" fill="#FCF6D8"/>
<path d="M86.2901 252.94C87.3009 253.462 88.2764 254.05 89.2101 254.7L88.6001 256.38C88.6001 256.38 91.6001 261.72 91.7601 262.29L91.2301 263.13L82.4501 257.54C82.4501 257.54 82.0001 257.23 86.2901 252.94Z" fill="#FCF6D8"/>
<path d="M107.14 93.78C110.386 92.7061 113.696 91.8344 117.05 91.17C118.93 86.67 118.79 73.29 118.79 73.29C118.79 73.29 128.18 78.73 128.28 80.02C128.71 85.17 130.44 89.71 130.58 91.51C130.69 92.78 137.85 94.51 137.85 94.51C138.23 95 138.68 102.17 138.95 104.18L107.41 104.92L107.14 93.78Z" fill="#E58B5E"/>
<path d="M128.08 79.6199C128.01 79.5499 127.95 79.4699 127.87 79.3999C127.825 79.339 127.775 79.2821 127.72 79.2299C127.618 79.1492 127.521 79.0624 127.43 78.9699C127.357 78.9218 127.289 78.8647 127.23 78.7999C127.11 78.6999 126.99 78.5999 126.85 78.4999C126.769 78.4462 126.692 78.386 126.62 78.3199C126.47 78.2099 126.33 78.0999 126.17 77.9999C126.01 77.8999 126 77.8699 125.93 77.7999L125.37 77.4299L125.16 77.2799C124.93 77.1099 124.7 76.9599 124.46 76.8099L124.35 76.7299L122.63 75.6199L122.53 75.5699C122.29 75.4199 122.05 75.2699 121.82 75.1099L121.61 74.9899L121.05 74.6499L120.82 74.5099L120.35 74.2299L120.14 74.0999L119.79 73.8899L119.55 73.7499L119.36 73.6399C119.287 73.5823 119.206 73.5352 119.12 73.4999L118.79 73.4199V74.4199C118.79 74.5299 118.79 74.6099 118.79 74.7299C118.79 74.8499 118.79 75.0399 118.79 75.2199V75.7899C118.785 75.8732 118.785 75.9567 118.79 76.0399C118.79 76.3799 118.79 76.7499 118.79 77.1299V77.2799C118.79 78.4699 118.7 79.8199 118.63 81.2799C118.63 81.2799 118.63 81.2799 118.63 81.3599C118.63 81.8999 118.57 82.4299 118.53 82.9799C118.536 83.0197 118.536 83.0601 118.53 83.0999C118.53 83.3899 118.53 83.6699 118.46 83.9499C121.46 87.9499 125.81 92.3399 130.87 91.9499C130.87 91.9499 130.87 91.9499 130.94 91.9499C130.793 91.8476 130.69 91.6943 130.65 91.5199C130.51 89.7199 128.78 85.1799 128.35 80.0299C128.339 79.9267 128.297 79.8292 128.23 79.7499C128.23 79.7499 128.1 79.6599 128.08 79.6199Z" fill="#C97550"/>
<path d="M138.12 157.62L142.87 103.02C142.87 103.02 143.06 98.5301 141.38 96.0201C140.48 94.6901 135.87 93.2102 133.6 92.9002C133.6 92.9002 133.65 99.5202 125.17 99.7202C125.17 99.7202 116.07 102.83 110.94 92.1602C110.94 92.1602 100.18 92.6602 100.66 98.1602C100.66 98.1602 108.26 112.96 108.13 126.75C107.97 143.64 106.37 156.96 106.93 157.64C106.93 157.68 119 160 138.12 157.62Z" fill="#C63F3C"/>
<path d="M130.3 85.8801C129.629 86.2034 128.859 86.2571 128.15 86.0301C126.91 85.7501 120.45 81.8301 119.08 76.8601C118.46 76.9201 117.839 76.7492 117.338 76.3802C116.836 76.0111 116.488 75.4699 116.36 74.8601C115.53 72.5201 116.47 69.2101 118.98 71.3401C118.98 71.3401 118.08 61.0201 122.6 60.2901C127.12 59.5601 135.78 57.8001 136.36 65.1401C136.502 69.2042 136.228 73.2721 135.54 77.2801C134.525 80.5332 132.726 83.4867 130.3 85.8801Z" fill="#E58B5E"/>
<path d="M100.37 101.19C100.37 101.19 95.1099 119.3 89.4399 163.91L92.6599 164.68L107.23 103.68L100.37 101.19Z" fill="#E58B5E"/>
<path d="M100.92 96.8098L92.27 123.23C92.27 123.23 97.74 127.43 103.7 126.09L109.88 103.55C109.88 103.55 108.69 95.5898 100.92 96.8098Z" fill="#C63F3C"/>
<path d="M136.34 69.8201C136.34 69.8201 133.17 67.7201 130.2 62.1601C130.2 62.1601 125.86 67.8201 121.29 68.8501C121.331 69.1712 121.301 69.4972 121.204 69.8058C121.106 70.1143 120.943 70.3981 120.725 70.6376C120.508 70.8771 120.241 71.0666 119.943 71.193C119.645 71.3195 119.323 71.3799 119 71.3701C119 71.3701 118.45 74.8501 116.38 74.8901C116.496 75.4432 116.795 75.9412 117.229 76.3039C117.662 76.6666 118.205 76.8731 118.77 76.8901C118.77 76.8901 118.44 85.2401 117.99 87.4501C117.99 87.4501 116.5 88.5601 114.9 86.1501C114.724 85.4874 114.354 84.8925 113.837 84.4417C113.32 83.9909 112.68 83.7048 112 83.6201C109.71 83.3901 108.91 84.4101 108.45 81.7801C107.99 79.1501 108.36 77.2101 107.21 76.2901C106.06 75.3701 102.61 76.0201 103.21 73.2901C103.81 70.5601 106.87 70.2901 105.61 68.2901C104.35 66.2901 101.49 65.2101 103.78 63.4901C106.07 61.7701 106.29 62.3801 106.64 59.6101C106.99 56.8401 106.75 56.3901 108.01 56.0501C109.27 55.7101 110.75 57.2001 111.9 54.4401C113.05 51.6801 116.19 46.4401 119.9 47.8101C123.61 49.1801 123.51 52.7201 126.24 50.6601C128.97 48.6001 132.01 46.6601 133.01 47.5801C134.01 48.5001 133.43 51.7001 135.01 51.1201C136.59 50.5401 139.13 49.6401 139.7 50.7801C140.27 51.9201 139.59 53.8701 140.39 54.2101C141.04 54.6094 141.598 55.1436 142.024 55.7768C142.45 56.4099 142.735 57.1272 142.86 57.8801C142.86 59.3701 141.03 61.7801 141.62 62.1701C142.21 62.5601 144.52 64.7401 143.48 66.3401C142.44 67.9401 141.48 69.7301 142.11 70.0901C142.74 70.4501 143.37 73.5601 142.11 74.5801C140.85 75.6001 140.05 77.1301 140.51 77.5801C140.97 78.0301 141.88 79.7401 139.82 81.5801C137.76 83.4201 136.82 82.0301 136.38 84.4301C135.94 86.8301 131.7 86.9801 131.12 85.0301C131.13 85.0001 136.52 80.7401 136.34 69.8201Z" fill="#37332F"/>
<path d="M137.65 68.0002C137.65 68.0002 136.39 58.3102 130.53 57.6202C130.53 57.6202 118.53 54.8702 115.68 69.0602H115.14C115.14 69.0602 115.47 52.6602 131.14 55.0602C131.14 55.0602 137.99 56.2902 137.99 67.5702L137.65 68.0002Z" fill="#C63F3C"/>
<path d="M78.6398 226.16L50.8198 211.89L71.3698 178.21L93.9798 189.8L78.6398 226.16Z" fill="#186D1E"/>
<path d="M74.6699 181.43C74.6699 181.43 88.8999 165.97 90.5799 166.43C92.2599 166.89 90.2399 186.17 89.4399 188.99" stroke="#261D39" stroke-miterlimit="10"/>
<path d="M104.25 226.65L73.0298 225.3L77.6598 186.11L103.05 187.22L104.25 226.65Z" fill="#E4544A"/>
<path d="M82 187.66C82 187.66 88.48 167.66 90.21 167.41C91.94 167.16 98.13 185.5 98.58 188.41" stroke="#261D39" stroke-miterlimit="10"/>
<path d="M125.31 216.15L95.8597 226.59L85.4697 188.52L109.41 180.03L125.31 216.15Z" fill="#541B1B"/>
<path d="M90.0699 188.34C90.0699 188.34 88.5899 167.34 90.0699 166.47C91.5499 165.6 104.19 180.28 105.68 182.8" stroke="#261D39" stroke-miterlimit="10"/>
<path d="M93 163.18C93.5482 164.45 93.8859 165.801 94 167.18C93.5705 168.303 93.3667 169.499 93.4 170.7C93.4 170.7 91.94 172.11 91.11 170.75C91.11 170.75 86.74 169.98 86.69 167.92C86.64 165.86 87.8 163.77 89.9 161.54L93 163.18Z" fill="#E58B5E"/>
<path d="M239.4 253.37L243.16 253.05C243.16 253.05 245.59 260.05 244.78 263.69C244.32 265.74 232.43 266.48 231.11 266.05C231.11 266.05 229.81 263.17 234.54 261.88C234.54 261.88 237.9 260.56 238.19 259.24C238.58 257.5 239.4 253.37 239.4 253.37Z" fill="#FCF6D8"/>
<path d="M262.11 253.37L265.89 253.05C265.89 253.05 268.31 260.05 267.5 263.69C267.04 265.74 255.15 266.48 253.83 266.05C253.83 266.05 252.53 263.17 257.26 261.88C257.26 261.88 260.62 260.56 260.91 259.24C261.29 257.5 262.11 253.37 262.11 253.37Z" fill="#FCF6D8"/>
<path d="M227 144.41C227 144.41 233.38 223.61 236.61 254.04H245C245 254.04 246.4 188.12 248.15 159.52C248.15 159.52 257.89 240.32 259.79 254.04H270.06C270.06 254.04 267.17 153.85 268.58 134.89L227 144.41Z" fill="#37332F"/>
<path d="M236.33 70.6299L216.22 89.9399L178 97.8499L178.23 101.11C178.23 101.11 208.87 101.28 214.88 101.11C219.15 100.99 241.55 84.5799 241.55 84.5799C241.55 84.5799 242.91 73.8099 236.33 70.6299Z" fill="#EB808B"/>
<path d="M230.93 71.5698L217.11 86.6798C216.767 89.2382 217.122 91.8419 218.137 94.215C219.153 96.5881 220.792 98.6423 222.88 100.16L230.68 94.7198L230.93 71.5698Z" fill="#186D1E"/>
<path d="M237.39 69.9999C238.39 67.9999 239.76 62.1199 240.21 56.2799C240.33 54.8399 250.89 48.6299 250.89 48.6299C250.89 48.6299 250.44 62.6299 253.52 68.9599C253.52 68.9599 254.18 69.0899 255.25 69.3399L252.37 80.4399L250.51 80.6899L233 76.1499L234.2 71.5599C235.75 71.0899 237.13 70.5299 237.39 69.9999Z" fill="#E58B5E"/>
<path d="M226.06 146.56L227.28 81.0001C227.28 81.0001 227.45 71.8301 233.44 70.2501L237.83 68.8901L236.97 71.8901C242.97 78.6901 253.79 69.0101 253.79 69.0101C256.12 69.1501 272.03 70.1601 271.48 79.1801C271.48 79.1801 269.54 145.1 268.35 146.59C254.526 150.52 239.879 150.509 226.06 146.56Z" fill="#186D1E"/>
<path d="M237.83 68.8898C239.026 65.0382 239.8 61.0684 240.14 57.0498L249 51.2798H250.88C250.88 52.9398 250.96 55.2098 251.15 57.6498C249.16 61.8598 243.72 71.7398 237.83 68.8898Z" fill="#C97550"/>
<path d="M230.88 43.1602C230.575 47.904 230.834 52.6672 231.65 57.3502C232.44 61.1202 236.22 65.2502 238.65 66.2502C238.65 66.2502 239.32 66.6102 241.65 66.1902C244.52 65.6702 249.65 61.2702 250.96 55.5902C250.96 55.5902 253.09 55.9002 253.96 53.2302C254.83 50.5602 253.59 46.8702 250.85 49.3902C250.85 49.3902 251.41 37.6902 246.26 37.0602C241.11 36.4302 231.2 34.8402 230.88 43.1602Z" fill="#E58B5E"/>
<path d="M255.87 38.4998C256.331 39.6782 256.591 40.9255 256.64 42.1898C256.71 45.3898 254.16 51.4998 254.16 51.4998C254.16 51.4998 253.08 46.4998 249.8 50.3598C249.8 50.3598 248.54 49.7098 248.32 46.3598C248.1 43.0098 246.32 42.0298 244.77 41.5498C243.22 41.0698 230.77 46.9598 230.77 39.0198C230.77 39.0198 230.57 30.0998 236.94 28.5898C236.94 28.5898 238.51 28.5898 239.16 31.1098C239.16 31.1098 242 28.4298 243.58 31.1098C245.16 33.7898 247.97 34.6298 248.75 34.2998C249.53 33.9698 255.22 33.3198 255.87 38.4998Z" fill="#37332F"/>
<path d="M181.3 97.06C181.3 97.06 182.3 101.45 180.63 102.2C178.96 102.95 170.44 102.65 169.22 99.74C168 96.83 174.09 95.94 176.65 95.66C176.65 95.66 175.65 94.12 176.47 94.02C177.29 93.92 180.44 94.78 181.3 97.06Z" fill="#F29B7C"/>
<path d="M225.9 71.1201H170.22V109.2H225.9V71.1201Z" fill="#541B1B"/>
<path d="M198.11 24.73L189.41 0L177.13 14.43L198.11 24.73Z" fill="#EFA731"/>
<path d="M198.11 24.73L206.82 0L219.1 14.43L198.11 24.73Z" fill="#EFA731"/>
<path d="M222.3 30.0698H173.93V66.6698H222.3V30.0698Z" fill="#E4544A"/>
<path d="M225.06 24.73H171.16V35.41H225.06V24.73Z" fill="#541B1B"/>
<path d="M201.83 66.67H194.5L192.73 23.54H203.61L201.83 66.67Z" fill="#EFA731"/>
<path d="M228.53 66.6699H167.6V75.5699H228.53V66.6699Z" fill="#EFA731"/>
<path d="M255.09 83.2998L235 102.61L196.91 106.25L197.13 109.51C197.13 109.51 227.67 113.95 233.67 113.77C237.94 113.65 260.34 97.2298 260.34 97.2298C260.34 97.2298 261.66 86.4798 255.09 83.2998Z" fill="#E58B5E"/>
<path d="M273.05 89.1201L254 102.79C254 102.79 244.88 96.0601 243.61 92.3601L258.46 73.8401C258.46 73.8401 266.27 69.2101 272.26 76.0201C274.54 78.6301 275.76 82.6101 273.05 89.1201Z" fill="#186D1E"/>
<path d="M198 106.23C198 106.23 198.56 110.71 196.76 111.23C194.96 111.75 186.59 110.56 185.69 107.54C184.79 104.52 190.94 104.3 193.52 104.3C193.52 104.3 192.74 102.66 193.52 102.64C194.3 102.62 197.38 103.87 198 106.23Z" fill="#E58B5E"/>
</g>
<defs>
<linearGradient id="paint0_linear" x1="94.9405" y1="74.2381" x2="357.109" y2="258.725" gradientUnits="userSpaceOnUse">
<stop stop-color="#37AA3F"/>
<stop offset="1" stop-color="#8CC63E"/>
</linearGradient>
<clipPath id="clip0">
<rect width="386.59" height="301.5" fill="white"/>
</clipPath>
</defs>
</svg>
