<svg width="622" height="368" viewBox="0 0 622 368" fill="none" xmlns="http://www.w3.org/2000/svg">
<g clip-path="url(#clip0)">
<path d="M619.771 348.655C621.254 336.258 621.998 323.784 622 311.299C622 139.372 482.762 0 311 0C139.238 0 0 139.372 0 311.299C0.00168706 323.784 0.746087 336.258 2.22925 348.655H619.771Z" fill="#8CC63E"/>
<path d="M258.235 133.774C258.046 131.782 257.906 129.371 256.692 127.687C254.702 124.928 248.989 124.938 246.153 126.223C243.834 127.279 239.266 130.048 238.928 132.867C238.231 138.535 245.327 134.929 247.885 134.172C252.542 132.808 253.736 137.161 258.185 133.804L258.235 133.774Z" fill="#F4A584"/>
<path d="M371.031 217.501C371.031 217.501 373.18 228.458 367.916 230.222C367.916 230.222 363.935 231.517 364.592 218.397L371.031 217.501Z" fill="#F4A584"/>
<path d="M342.259 341.203L337.721 340.795C337.721 340.795 334.735 349.232 335.73 353.645C336.278 356.126 350.658 357.022 352.211 356.504C352.211 356.504 353.783 353.028 348.081 351.464C348.081 351.464 344.03 349.88 343.672 348.286C343.244 346.174 342.259 341.203 342.259 341.203Z" fill="#382B60"/>
<path d="M309.906 341.203L314.454 340.795C314.454 340.795 317.39 349.232 316.394 353.645C315.857 356.126 301.466 357.022 299.924 356.504C299.924 356.504 298.351 353.028 304.044 351.464C304.044 351.464 308.094 349.88 308.453 348.286C308.92 346.174 309.906 341.203 309.906 341.203Z" fill="#382B60"/>
<path d="M353.913 209.611C353.913 209.611 349.524 305.242 345.623 341.99H335.472C335.472 341.99 330.496 262.388 328.376 227.861C328.376 227.861 319.937 325.424 317.638 341.99H305.248C305.248 341.99 305.427 221.007 303.735 198.116L353.913 209.611Z" fill="#262625"/>
<path d="M284.846 146.206C284.846 146.206 272.346 156.396 269.699 158.478C269.699 158.478 268.276 163.37 273.978 167.125L290.459 154.942L284.846 146.206Z" fill="#EA6A7C"/>
<path d="M267.709 159.793C267.709 159.793 291.693 136.334 302.959 127.508L322.584 132.758C322.276 133.146 321.957 133.555 321.589 133.963C317.519 138.685 283.772 161.577 274.715 168.261C272.88 167.634 271.254 166.512 270.018 165.017C268.781 163.523 267.982 161.715 267.709 159.793Z" fill="#E4544A"/>
<path d="M305.407 128.146C305.407 128.146 318.773 124.739 319.489 123.165C320.614 120.774 322.206 113.592 322.624 106.549C322.734 104.796 335.353 97.0854 335.353 97.0854C335.353 97.0854 335.094 113.95 338.936 121.571C338.936 121.571 342.827 122.567 346.808 123.962V134.083L308.861 139.86C304.78 137.111 304.91 128.843 305.407 128.146Z" fill="#F4A584"/>
<path d="M320.007 121.83C321.376 117.155 322.233 112.345 322.565 107.485L333.124 100.333H335.383C335.432 102.325 335.552 105.075 335.831 108.013C333.532 113.104 327.172 125.137 320.007 121.83Z" fill="#D2755D"/>
<path d="M303.536 211.663C302.935 210.749 302.613 209.679 302.61 208.585L302.939 127.498L319.071 123.155C329.789 133.903 339.234 121.611 339.244 121.601C342.06 121.73 358.381 123.065 357.884 133.963C357.884 133.963 356.391 208.754 354.998 210.567C354.998 210.567 349.315 217.003 343.722 219.154L328.794 213.397L313.985 219.154C313.985 219.154 305.208 213.626 303.536 211.663Z" fill="#E4544A"/>
<path d="M315.887 85.3805C315.887 85.3805 315.051 94.834 316.543 102.534C317.419 107.087 322.843 112.147 325.729 113.402C325.729 113.402 326.515 113.861 329.342 113.402C332.805 112.825 338.11 107.625 339.811 100.781C339.811 100.781 342.379 101.209 343.454 98.0018C344.529 94.7942 343.125 90.3015 339.771 93.29C339.771 93.29 340.667 79.1844 334.467 78.3477C328.267 77.5109 316.474 75.3492 315.887 85.3805Z" fill="#F4A584"/>
<path d="M316.294 100.612C315.42 100.684 314.549 100.442 313.838 99.929C313.126 99.4159 312.621 98.6654 312.413 97.8126C311.338 94.605 312.732 90.1024 316.085 93.1008" fill="#F4A584"/>
<path d="M333.721 73.0581C333.721 73.0581 343.056 72.57 340.966 92.4831C340.966 92.4831 338.975 95.4716 338.328 94.7444C337.682 94.0172 338.259 92.3735 338.328 90.5605C338.398 88.7475 336.786 81.5951 336.109 81.366C335.432 81.1369 329.222 86.546 318.265 84.9123C318.265 84.9123 316.743 90.4709 317.419 93.6187C318.096 96.7666 316.673 94.8838 316.295 94.336C315.917 93.7881 314.643 92.1544 314.643 92.1544C314.643 92.1544 311.956 83.3185 315.638 77.4412C315.638 77.4412 312.493 76.3454 312.652 74.6718C312.812 72.9983 318.454 74.1738 322.973 73.6757C322.973 73.6757 320.753 73.1776 320.355 71.8926C319.957 70.6075 332.526 72.8887 333.721 73.0581Z" fill="#1D1E1C"/>
<path d="M348.768 123.354C348.768 123.354 360.79 125.346 364.8 130.546C368.811 135.746 373.359 216.644 373.359 216.644C373.359 216.644 367.388 221.834 362.551 218.098L353.913 146.206C353.913 146.206 349.922 126.512 348.768 123.354Z" fill="#E4544A"/>
<path d="M319.459 123.175C319.459 123.175 327.749 150.469 329.7 155.131C329.7 155.131 338.229 126.183 339.234 121.601C339.264 121.601 333.243 129.351 319.459 123.175Z" fill="#9CBED1"/>
<path d="M327.968 131.732L325.978 148.507L328.515 154.902L329.7 155.131C329.7 155.131 331.153 155.062 331.153 154.902C331.153 154.743 333.193 147.929 333.193 147.929L330.207 130.616L327.968 131.732Z" fill="#E4544A"/>
<path d="M320.315 120.844L329.73 155.131L328.336 157.711L319.181 147.59L321.261 141.086L314.175 139.651L315.658 124.081C315.658 124.081 319.091 120.346 320.315 120.844Z" fill="#A31A16"/>
<path d="M338.428 120.445L329.729 155.131L331.123 157.711L340.269 147.591L338.199 141.086L345.275 139.651L343.802 122.109C343.802 122.109 339.642 119.947 338.428 120.445Z" fill="#A31A16"/>
<path d="M331.481 125.585C331.063 124.968 329.371 124.978 329.371 124.978C329.371 124.978 327.689 124.978 327.271 125.585C327.271 125.585 325.938 128.644 326.008 129.57L327.998 131.722H330.536L332.775 129.57C332.815 128.644 331.481 125.585 331.481 125.585Z" fill="#E4544A"/>
<path d="M253.776 134.88C253.776 134.88 268.406 165.82 270.695 166.856C271.569 167.323 272.549 167.551 273.539 167.519C274.529 167.486 275.493 167.194 276.334 166.672C277.176 166.149 277.865 165.414 278.334 164.541C278.803 163.668 279.034 162.687 279.005 161.696C278.955 158.349 258.951 131.732 258.951 131.732L253.776 134.88Z" fill="#E4544A"/>
<path d="M340.568 155.131H268.664C268.423 155.131 268.227 155.328 268.227 155.57V204.282C268.227 204.524 268.423 204.72 268.664 204.72H340.568C340.81 204.72 341.006 204.524 341.006 204.282V155.57C341.006 155.328 340.81 155.131 340.568 155.131Z" fill="#605D5B"/>
<path d="M311.627 217.461H297.595L300.809 177.605H308.403L311.627 217.461Z" fill="#4F4C4A"/>
<path d="M320.096 217.461H289.116C288.874 217.461 288.678 217.657 288.678 217.899V220.22C288.678 220.462 288.874 220.659 289.116 220.659H320.096C320.338 220.659 320.534 220.462 320.534 220.22V217.899C320.534 217.657 320.338 217.461 320.096 217.461Z" fill="#B0B0B0"/>
<path d="M462.21 220.668H199.786V360.23H462.21V220.668Z" fill="#186D1E"/>
<path d="M462.21 220.668H199.786V227.492H462.21V220.668Z" fill="#37332F"/>
<path d="M400.956 197.538H382.903V220.669H400.956V197.538Z" fill="#605D5B"/>
<path d="M408.729 201.224H394.209C394.061 201.224 393.919 201.282 393.815 201.387C393.71 201.492 393.651 201.633 393.651 201.781V204.272C393.659 204.163 393.709 204.061 393.791 203.988C393.873 203.915 393.98 203.878 394.089 203.883H405.365C405.474 203.878 405.581 203.915 405.663 203.988C405.745 204.061 405.795 204.163 405.803 204.272V215.229C405.795 215.339 405.745 215.441 405.663 215.513C405.581 215.586 405.474 215.623 405.365 215.618H394.099C393.99 215.623 393.883 215.586 393.801 215.513C393.719 215.441 393.669 215.339 393.661 215.229V217.71C393.66 217.784 393.673 217.858 393.701 217.926C393.728 217.995 393.769 218.058 393.821 218.111C393.873 218.164 393.935 218.206 394.003 218.234C394.071 218.263 394.145 218.278 394.219 218.278H408.729C408.803 218.278 408.876 218.263 408.944 218.234C409.013 218.206 409.074 218.164 409.126 218.111C409.178 218.058 409.219 217.995 409.246 217.926C409.274 217.858 409.287 217.784 409.286 217.71V201.771C409.283 201.625 409.224 201.486 409.119 201.383C409.015 201.281 408.875 201.223 408.729 201.224Z" fill="#605D5B"/>
<path d="M203.419 121.372C203.419 121.372 206.932 122.457 210.385 130.656L224.199 162.652L250.313 187.337L248.571 191.162C248.571 191.162 227.741 177.575 219.541 173.072C215.013 170.582 200.184 146.873 197.368 134.043C194.552 121.212 203.419 121.372 203.419 121.372Z" fill="#F39B7C"/>
<path d="M250.173 186.142C250.173 186.142 246.521 190.435 248.004 192.248C249.486 194.061 259.1 198.544 262.116 196.014C265.131 193.483 258.851 188.991 256.144 187.228C256.144 187.228 258.085 186.062 257.289 185.494C256.493 184.926 252.432 184.09 250.173 186.142Z" fill="#F39B7C"/>
<path d="M175.454 83.189C175.454 83.189 162.228 80.6289 159.083 94.1467C155.938 107.665 150.803 122.577 143.239 124.47C143.239 124.47 144.075 127.687 149.648 126.044C155.221 124.4 170.836 122.149 170.209 96.8363C170.209 96.8363 169.781 83.7568 175.026 85.1614C180.271 86.566 175.454 83.189 175.454 83.189Z" fill="#1D130F"/>
<path d="M175.354 82.4519C175.093 82.4008 174.823 82.4263 174.575 82.5252C174.328 82.6242 174.115 82.7924 173.961 83.0097C173.394 83.7867 172.966 86.6556 174.648 86.6556C176.33 86.6556 175.354 82.4519 175.354 82.4519Z" fill="#DF3F8D"/>
<path d="M195.059 351.982L190.342 351.563C190.342 351.563 187.307 360.32 188.352 364.892C188.919 367.462 203.797 368.398 205.439 367.88C205.439 367.88 207.071 364.284 201.16 362.651C201.16 362.651 196.96 361.017 196.592 359.363C196.055 357.142 195.059 351.982 195.059 351.982Z" fill="#37332F"/>
<path d="M116.777 274.182L118.837 269.928C118.837 269.928 111.721 263.951 107.084 263.334C104.476 262.965 98.3755 276.563 98.2959 278.276C98.2959 278.276 101.092 281.075 104.695 276.105C104.695 276.105 107.681 272.748 109.382 272.977C111.602 273.335 116.777 274.182 116.777 274.182Z" fill="#37332F"/>
<path d="M156.246 281.324C156.754 251.589 159.232 213.855 158.455 203.624L210.475 215.578C210.475 215.578 202.513 314.716 198.452 352.819H187.963C187.963 352.819 186.221 270.287 183.982 234.485C181.953 255.574 178.804 276.539 174.548 297.293C170.428 316.718 121.553 279.013 115.313 275.626L118.787 266.382L156.246 281.324Z" fill="#37332F"/>
<path d="M205.499 139.571C206.057 126.133 203.927 122.278 203.509 121.641C203.509 121.641 194.552 118.772 194.452 117.258C194.323 115.076 192.392 109.587 192.014 103.401C191.925 101.847 180.838 95.0831 180.838 95.0831C180.838 95.0831 180.639 111.121 178.231 116.451C172.647 117.784 167.147 119.447 161.76 121.431C160.874 121.76 158.854 150.987 158.506 152.681L205.499 139.571Z" fill="#F39B7C"/>
<path d="M191.755 102.963C191.692 102.854 191.615 102.753 191.527 102.664C191.527 102.604 191.407 102.554 191.347 102.475C191.288 102.395 191.128 102.265 190.999 102.156L190.77 101.957C190.631 101.827 190.492 101.698 190.322 101.568L190.054 101.349L189.526 100.94L189.238 100.721L188.591 100.253C188.51 100.182 188.424 100.119 188.332 100.064L187.506 99.4761L187.386 99.3765C186.71 98.9083 186.023 98.4501 185.396 98.0118L185.287 97.9321L184.441 97.3742L184.192 97.2148L183.535 96.7865L183.217 96.6271L182.659 96.2685L182.41 96.1091L181.992 95.8401L181.714 95.6708C181.632 95.6292 181.556 95.5791 181.485 95.5214L181.206 95.352L180.818 95.2723C180.822 95.3254 180.822 95.3787 180.818 95.4317C180.813 95.4914 180.813 95.5514 180.818 95.611V95.9198C180.818 96.0693 180.818 96.2386 180.818 96.4179C180.818 96.5972 180.818 96.647 180.818 96.7865C180.818 96.926 180.818 97.1551 180.818 97.3742C180.818 97.5934 180.818 97.8125 180.818 98.0616C180.818 98.1512 180.818 98.2608 180.818 98.3704C180.818 98.7688 180.818 99.2072 180.748 99.6753V99.8347C180.679 101.269 180.589 102.883 180.44 104.576V104.666C180.39 105.324 180.331 105.971 180.261 106.658C180.261 106.658 180.261 106.748 180.261 106.808C180.261 107.156 180.191 107.475 180.151 107.804C183.605 112.645 188.72 118.064 194.791 117.766L194.87 117.815C194.705 117.685 194.589 117.502 194.542 117.297C194.413 115.116 192.482 109.627 192.104 103.441C192.092 103.318 192.047 103.201 191.974 103.102L191.755 102.963Z" fill="#DA876A"/>
<path d="M194.253 110.573C193.437 110.927 192.519 110.966 191.676 110.683C190.203 110.314 182.56 105.433 181.057 99.4164C181.057 99.4164 178.808 99.8048 177.872 96.9758C176.937 94.1467 178.151 90.2218 181.107 92.8517C181.107 92.8517 180.31 80.4495 185.754 79.6925C191.198 78.9354 201.608 77.0825 202.095 85.8985C202.15 90.7756 201.706 95.6456 200.772 100.432C199.458 104.295 197.22 107.776 194.253 110.573Z" fill="#F39B7C"/>
<path d="M202.096 86.6656C202.434 85.3681 202.491 84.0132 202.263 82.6919C202.034 81.3705 201.526 80.1135 200.772 79.0051C197.269 74.0244 183.963 69.2926 176.748 79.0051C171.483 86.0878 174.757 96.9359 177.872 100.044C180.4 102.534 178.698 104.029 179.186 105.413C179.524 106.35 179.873 106.409 180.181 106.409C180.45 104.118 181.077 101.668 181.176 99.8447C181.176 99.7152 181.107 99.5758 181.067 99.4363C181.027 99.2968 178.818 99.8248 177.882 96.9957C176.947 94.1666 178.121 90.3514 180.977 92.7621C181.191 93.0921 181.46 93.382 181.774 93.6188C182.381 93.9973 185.117 91.2977 184.441 88.638C184.441 88.638 190.312 80.3599 198.015 84.8725C198.045 84.8526 201.2 84.4441 202.096 86.6656Z" fill="#1D130F"/>
<path d="M158.486 131.692C158.117 159.724 153.768 223.099 154.505 224.026C154.505 224.026 189.466 227.642 212.813 219.792L206.166 137.4L205.111 121.959L198.781 119.618C198.781 119.618 195.865 135.089 189.466 134.979C189.466 134.979 181.206 132.778 176.528 116.939C176.528 116.939 162.387 119.369 160.685 121.312C160.665 121.312 158.595 123.653 158.486 131.692Z" fill="#FFC42C"/>
<path d="M184.431 88.6579C184.431 88.6579 195.278 90.8992 198.005 82.4917H191.895C191.895 82.4917 185.326 84.9422 184.431 88.6579Z" fill="#1D130F"/>
<path d="M198.662 83.8564C198.662 83.8564 200.513 89.5544 202.096 91.1483C202.096 91.1483 203.33 83.179 201.678 80.6189L198.662 83.8564Z" fill="#1D130F"/>
<path d="M238.49 141.733C238.49 141.733 235.236 141.853 231.374 137.998C227.513 134.142 230.648 130.855 237.346 134.132C244.043 137.41 243.416 136.583 243.416 136.583C243.416 136.583 244.242 131.094 248.561 131.443C252.881 131.791 247.566 140.408 247.069 141.733H238.49Z" fill="#186D1E"/>
<path d="M236.36 140.906C236.36 140.906 217.889 155.241 213.092 179.876C213.092 179.876 209.111 194.878 229.871 197.119C229.871 197.119 235.693 206.085 253.587 199.58C253.587 199.58 282.905 191.949 269.251 172.783C256.473 154.852 247.456 140.906 247.456 140.906H236.36Z" fill="#186D1E"/>
<path d="M160.665 121.312C160.665 121.312 164.238 122.228 168.099 130.218L183.594 161.437L220.646 191.431L219.133 195.336C219.133 195.336 187.914 176.15 179.484 172.096C174.837 169.845 158.774 146.953 155.281 134.242C151.788 121.531 160.665 121.312 160.665 121.312Z" fill="#F39B7C"/>
<path d="M220.467 190.266C220.467 190.266 217.033 194.749 218.625 196.492C220.218 198.235 230.03 202.19 232.907 199.48C235.783 196.771 229.274 192.647 226.498 191.023C226.498 191.023 228.368 189.758 227.493 189.23C226.617 188.702 222.606 188.064 220.467 190.266Z" fill="#F39B7C"/>
</g>
<defs>
<clipPath id="clip0">
<rect width="622" height="368" fill="white"/>
</clipPath>
</defs>
</svg>
