<svg width="884" height="501" viewBox="0 0 884 501" fill="none" xmlns="http://www.w3.org/2000/svg">
<path d="M851.395 459.817C853.349 443.465 854.325 427.011 854.317 410.543C854.317 183.808 670.569 0 443.865 0C217.16 0 33.3936 183.808 33.3936 410.543C33.3961 427.012 34.378 443.465 36.334 459.817H851.395Z" fill="#8CC63E"/>
<path d="M851.395 459.817C853.349 443.465 854.325 427.011 854.317 410.543C854.317 183.808 670.569 0 443.865 0C217.16 0 33.3936 183.808 33.3936 410.543C33.3961 427.012 34.378 443.465 36.334 459.817H851.395Z" fill="url(#paint0_linear)"/>
<path d="M495.875 267.297H356.837V456.69H495.875V267.297Z" fill="#FCF6D8"/>
<path d="M491.784 271.834H361.902V312.692H491.784V271.834Z" fill="#9CC0C0"/>
<path d="M491.784 318.927H361.902V359.786H491.784V318.927Z" fill="#9CC0C0"/>
<path d="M491.784 366.02H361.902V406.879H491.784V366.02Z" fill="#9CC0C0"/>
<path d="M376.15 286.428C375.463 285.889 373.664 284.414 373.191 280.462H370.547C370.083 284.414 368.339 285.945 367.644 286.483C366.531 287.198 366.067 287.578 366.067 288.469V310.661C366.067 311.128 366.253 311.577 366.583 311.907C366.914 312.238 367.362 312.423 367.829 312.423H375.918C376.385 312.421 376.832 312.234 377.162 311.904C377.491 311.574 377.678 311.127 377.68 310.661V288.469C377.68 287.606 377.346 287.114 376.15 286.428Z" fill="#37332F"/>
<path d="M373.608 279.191H370.139V281.343H373.608V279.191Z" fill="#FCF6D8"/>
<path d="M376.836 291.781H367.134V302.58H376.836V291.781Z" fill="#FCF6D8"/>
<path d="M389.739 286.428C389.053 285.889 387.253 284.414 386.78 280.462H384.137C383.663 284.414 381.929 285.945 381.233 286.483C380.12 287.198 379.656 287.578 379.656 288.469V310.661C379.656 311.128 379.842 311.577 380.172 311.907C380.503 312.238 380.951 312.423 381.419 312.423H389.498C389.965 312.423 390.414 312.238 390.744 311.907C391.075 311.577 391.26 311.128 391.26 310.661V288.469C391.26 287.606 390.936 287.114 389.739 286.428Z" fill="#37332F"/>
<path d="M387.198 279.191H383.729V281.343H387.198V279.191Z" fill="#FCF6D8"/>
<path d="M390.426 291.781H380.723V302.58H390.426V291.781Z" fill="#FCF6D8"/>
<path d="M403.329 286.428C402.642 285.889 400.843 284.414 400.37 280.462H397.726C397.253 284.414 395.518 285.945 394.823 286.483C393.709 287.198 393.246 287.578 393.246 288.469V310.661C393.246 311.128 393.431 311.577 393.762 311.907C394.092 312.238 394.541 312.423 395.008 312.423H403.087C403.555 312.423 404.003 312.238 404.334 311.907C404.664 311.577 404.85 311.128 404.85 310.661V288.469C404.85 287.606 404.525 287.114 403.329 286.428Z" fill="#37332F"/>
<path d="M400.778 279.191H397.309V281.343H400.778V279.191Z" fill="#FCF6D8"/>
<path d="M404.015 291.781H394.312V302.58H404.015V291.781Z" fill="#FCF6D8"/>
<path d="M416.918 286.428C416.222 285.889 414.432 284.414 413.959 280.462H411.315C410.842 284.414 409.098 285.945 408.412 286.483C407.29 287.198 406.826 287.578 406.826 288.469V310.661C406.828 311.129 407.016 311.577 407.348 311.908C407.68 312.238 408.129 312.423 408.597 312.423H416.677C417.144 312.423 417.592 312.238 417.923 311.907C418.254 311.577 418.439 311.128 418.439 310.661V288.469C418.439 287.606 418.105 287.114 416.918 286.428Z" fill="#37332F"/>
<path d="M414.367 279.191H410.897V281.343H414.367V279.191Z" fill="#FCF6D8"/>
<path d="M417.595 291.781H407.892V302.58H417.595V291.781Z" fill="#FCF6D8"/>
<path d="M430.498 286.428C429.812 285.889 428.012 284.414 427.548 280.462H424.905C424.422 284.414 422.688 285.945 422.001 286.483C420.879 287.198 420.415 287.578 420.415 288.469V310.661C420.415 311.128 420.601 311.577 420.931 311.907C421.262 312.238 421.71 312.423 422.177 312.423H430.266C430.734 312.423 431.182 312.238 431.512 311.907C431.843 311.577 432.029 311.128 432.029 310.661V288.469C432.029 287.606 431.695 287.114 430.498 286.428Z" fill="#37332F"/>
<path d="M427.956 279.191H424.487V281.343H427.956V279.191Z" fill="#FCF6D8"/>
<path d="M431.184 291.781H421.481V302.58H431.184V291.781Z" fill="#FCF6D8"/>
<path d="M444.087 286.428C443.4 285.889 441.601 284.414 441.128 280.462H438.484C438.011 284.414 436.277 285.945 435.581 286.483C434.468 287.198 434.004 287.578 434.004 288.469V310.661C434.004 311.128 434.19 311.577 434.52 311.907C434.851 312.238 435.299 312.423 435.766 312.423H443.855C444.322 312.421 444.769 312.234 445.099 311.904C445.429 311.574 445.615 311.127 445.617 310.661V288.469C445.617 287.606 445.246 287.114 444.087 286.428Z" fill="#37332F"/>
<path d="M441.545 279.191H438.076V281.343H441.545V279.191Z" fill="#FCF6D8"/>
<path d="M444.764 291.781H435.071V302.58H444.764V291.781Z" fill="#FCF6D8"/>
<path d="M457.676 286.428C456.981 285.889 455.19 284.414 454.717 280.462H452.074C451.6 284.414 449.866 285.945 449.17 286.483C448.057 287.198 447.593 287.578 447.593 288.469V310.661C447.593 311.128 447.779 311.577 448.109 311.907C448.44 312.238 448.888 312.423 449.356 312.423H457.435C457.903 312.423 458.351 312.238 458.681 311.907C459.012 311.577 459.198 311.128 459.198 310.661V288.469C459.16 287.606 458.873 287.114 457.676 286.428Z" fill="#37332F"/>
<path d="M455.125 279.191H451.656V281.343H455.125V279.191Z" fill="#FCF6D8"/>
<path d="M458.363 291.781H448.66V302.58H458.363V291.781Z" fill="#FCF6D8"/>
<path d="M471.266 286.428C470.57 285.889 468.78 284.414 468.307 280.462H465.654C465.181 284.414 463.437 285.945 462.75 286.483C461.637 287.198 461.173 287.578 461.173 288.469V310.661C461.173 311.128 461.359 311.577 461.69 311.907C462.02 312.238 462.468 312.423 462.936 312.423H471.015C471.483 312.423 471.931 312.238 472.261 311.907C472.592 311.577 472.778 311.128 472.778 310.661V288.469C472.787 287.606 472.453 287.114 471.266 286.428Z" fill="#37332F"/>
<path d="M468.715 279.191H465.246V281.343H468.715V279.191Z" fill="#FCF6D8"/>
<path d="M471.943 291.781H462.25V302.58H471.943V291.781Z" fill="#FCF6D8"/>
<path d="M484.846 286.428C484.159 285.889 482.36 284.414 481.896 280.462H479.252C478.779 284.414 477.035 285.945 476.349 286.483C475.227 287.198 474.763 287.578 474.763 288.469V310.661C474.763 311.128 474.948 311.577 475.279 311.907C475.609 312.238 476.058 312.423 476.525 312.423H484.614C485.081 312.423 485.53 312.238 485.86 311.907C486.191 311.577 486.376 311.128 486.376 310.661V288.469C486.376 287.606 486.061 287.114 484.846 286.428Z" fill="#37332F"/>
<path d="M482.304 279.191H478.835V281.343H482.304V279.191Z" fill="#FCF6D8"/>
<path d="M485.532 291.781H475.83V302.58H485.532V291.781Z" fill="#FCF6D8"/>
<path d="M384.331 341.202H364.75V359.786H384.331V341.202Z" fill="#C63F3C"/>
<path d="M385.574 337.12H363.525V342.52H385.574V337.12Z" fill="#541B1B"/>
<path d="M383.422 346.426H366.067V353.95H383.422V346.426Z" fill="#FCF6D8"/>
<path d="M408.95 341.202H389.368V359.786H408.95V341.202Z" fill="#C63F3C"/>
<path d="M410.183 337.12H388.134V342.52H410.183V337.12Z" fill="#541B1B"/>
<path d="M408.041 346.426H390.686V353.95H408.041V346.426Z" fill="#FCF6D8"/>
<path d="M433.559 341.202H413.978V359.786H433.559V341.202Z" fill="#C63F3C"/>
<path d="M434.793 337.12H412.744V342.52H434.793V337.12Z" fill="#541B1B"/>
<path d="M432.65 346.426H415.294V353.95H432.65V346.426Z" fill="#FCF6D8"/>
<path d="M458.168 341.202H438.586V359.786H458.168V341.202Z" fill="#C63F3C"/>
<path d="M459.402 337.12H437.353V342.52H459.402V337.12Z" fill="#541B1B"/>
<path d="M457.259 346.426H439.904V353.95H457.259V346.426Z" fill="#FCF6D8"/>
<path d="M482.787 341.202H463.205V359.786H482.787V341.202Z" fill="#C63F3C"/>
<path d="M484.02 337.12H461.971V342.52H484.02V337.12Z" fill="#541B1B"/>
<path d="M481.877 346.426H464.513V353.95H481.877V346.426Z" fill="#FCF6D8"/>
<path d="M383.431 380.939H364.75V406.879H383.431V380.939Z" fill="#37332F"/>
<path d="M381.79 385.958H366.559V402.277H381.79V385.958Z" fill="#FCF6D8"/>
<path d="M403.894 380.939H385.212V406.879H403.894V380.939Z" fill="#37332F"/>
<path d="M402.253 385.958H387.021V402.277H402.253V385.958Z" fill="#FCF6D8"/>
<path d="M424.348 380.939H405.666V406.879H424.348V380.939Z" fill="#37332F"/>
<path d="M422.706 385.958H407.475V402.277H422.706V385.958Z" fill="#FCF6D8"/>
<path d="M444.811 380.939H426.129V406.879H444.811V380.939Z" fill="#37332F"/>
<path d="M443.169 385.958H427.938V402.277H443.169V385.958Z" fill="#FCF6D8"/>
<path d="M465.264 380.939H446.583V406.879H465.264V380.939Z" fill="#37332F"/>
<path d="M463.622 385.958H448.391V402.277H463.622V385.958Z" fill="#FCF6D8"/>
<path d="M488.176 381.143H469.494V407.092H488.176V381.143Z" fill="#37332F"/>
<path d="M486.534 386.162H471.303V402.481H486.534V386.162Z" fill="#FCF6D8"/>
<path d="M786.602 267.297H647.565V456.69H786.602V267.297Z" fill="#FCF6D8"/>
<path d="M782.502 271.834H652.62V312.692H782.502V271.834Z" fill="#9CC0C0"/>
<path d="M782.502 318.927H652.62V359.786H782.502V318.927Z" fill="#9CC0C0"/>
<path d="M782.502 366.02H652.62V406.879H782.502V366.02Z" fill="#9CC0C0"/>
<path d="M674.14 312.702H655.737L657.676 288.237H672.202L674.14 312.702Z" fill="#E4544A"/>
<path d="M695.215 312.702H676.803L678.741 288.237H693.277L695.215 312.702Z" fill="#E4544A"/>
<path d="M716.281 312.702H697.877L699.816 288.237H714.342L716.281 312.702Z" fill="#E4544A"/>
<path d="M737.356 312.702H718.953L720.882 288.237H735.418L737.356 312.702Z" fill="#E4544A"/>
<path d="M758.431 312.702H740.019L741.957 288.237H756.493L758.431 312.702Z" fill="#E4544A"/>
<path d="M779.97 312.702H761.566L763.505 288.237H778.031L779.97 312.702Z" fill="#E4544A"/>
<path d="M667.795 326.321H658.399V359.786H667.795V326.321Z" fill="#37332F"/>
<path d="M666.887 329.949H659.494V334.356H666.887V329.949Z" fill="#FCF6D8"/>
<path d="M666.887 336.434H659.494V355.119H666.887V336.434Z" fill="#FCF6D8"/>
<path d="M678.843 326.321H669.447V359.786H678.843V326.321Z" fill="#37332F"/>
<path d="M677.934 329.949H670.542V334.356H677.934V329.949Z" fill="#FCF6D8"/>
<path d="M677.934 336.434H670.542V355.119H677.934V336.434Z" fill="#FCF6D8"/>
<path d="M689.882 326.321H680.485V359.786H689.882V326.321Z" fill="#37332F"/>
<path d="M688.982 329.949H681.589V334.356H688.982V329.949Z" fill="#FCF6D8"/>
<path d="M688.982 336.434H681.589V355.119H688.982V336.434Z" fill="#FCF6D8"/>
<path d="M700.929 326.321H691.533V359.786H700.929V326.321Z" fill="#37332F"/>
<path d="M700.02 329.949H692.627V334.356H700.02V329.949Z" fill="#FCF6D8"/>
<path d="M700.02 336.434H692.627V355.119H700.02V336.434Z" fill="#FCF6D8"/>
<path d="M711.968 326.321H702.571V359.786H711.968V326.321Z" fill="#37332F"/>
<path d="M711.059 329.949H703.666V334.356H711.059V329.949Z" fill="#FCF6D8"/>
<path d="M711.059 336.434H703.666V355.119H711.059V336.434Z" fill="#FCF6D8"/>
<path d="M723.016 326.321H713.619V359.786H723.016V326.321Z" fill="#37332F"/>
<path d="M722.106 329.949H714.713V334.356H722.106V329.949Z" fill="#FCF6D8"/>
<path d="M722.106 336.434H714.713V355.119H722.106V336.434Z" fill="#FCF6D8"/>
<path d="M734.054 326.321H724.657V359.786H734.054V326.321Z" fill="#37332F"/>
<path d="M733.154 329.949H725.761V334.356H733.154V329.949Z" fill="#FCF6D8"/>
<path d="M733.154 336.434H725.761V355.119H733.154V336.434Z" fill="#FCF6D8"/>
<path d="M745.102 326.321H735.705V359.786H745.102V326.321Z" fill="#37332F"/>
<path d="M744.193 329.949H736.8V334.356H744.193V329.949Z" fill="#FCF6D8"/>
<path d="M744.193 336.434H736.8V355.119H744.193V336.434Z" fill="#FCF6D8"/>
<path d="M756.15 326.321H746.753V359.786H756.15V326.321Z" fill="#37332F"/>
<path d="M755.24 329.949H747.847V334.356H755.24V329.949Z" fill="#FCF6D8"/>
<path d="M755.24 336.434H747.847V355.119H755.24V336.434Z" fill="#FCF6D8"/>
<path d="M767.188 326.321H757.791V359.786H767.188V326.321Z" fill="#37332F"/>
<path d="M766.279 329.949H758.886V334.356H766.279V329.949Z" fill="#FCF6D8"/>
<path d="M766.279 336.434H758.886V355.119H766.279V336.434Z" fill="#FCF6D8"/>
<path d="M778.235 326.321H768.839V359.786H778.235V326.321Z" fill="#37332F"/>
<path d="M777.326 329.949H769.934V334.356H777.326V329.949Z" fill="#FCF6D8"/>
<path d="M777.326 336.434H769.934V355.119H777.326V336.434Z" fill="#FCF6D8"/>
<path d="M778.208 374.917H755.008V406.832H778.208V374.917Z" fill="#605D5B"/>
<path d="M772.41 374.917H755.008V406.832H772.41V374.917Z" fill="#37332F"/>
<path d="M777.577 378.517H773.004V382.21H777.577V378.517Z" fill="#FCF6D8"/>
<path d="M777.577 383.379H773.004V401.767H777.577V383.379Z" fill="#FCF6D8"/>
<path d="M764.006 374.917H740.807V406.832H764.006V374.917Z" fill="#4F4C4A"/>
<path d="M758.208 374.917H740.807V406.832H758.208V374.917Z" fill="#37332F"/>
<path d="M763.375 378.517H758.802V382.21H763.375V378.517Z" fill="#FCF6D8"/>
<path d="M763.375 383.379H758.802V401.767H763.375V383.379Z" fill="#FCF6D8"/>
<path d="M751.01 374.917H727.82V406.832H751.01V374.917Z" fill="#4F4C4A"/>
<path d="M745.222 374.917H727.82V406.832H745.222V374.917Z" fill="#37332F"/>
<path d="M750.389 378.517H745.816V382.21H750.389V378.517Z" fill="#FCF6D8"/>
<path d="M750.389 383.379H745.816V401.767H750.389V383.379Z" fill="#FCF6D8"/>
<path d="M736.818 374.917H713.619V406.832H736.818V374.917Z" fill="#4F4C4A"/>
<path d="M731.021 374.917H713.619V406.832H731.021V374.917Z" fill="#37332F"/>
<path d="M736.187 378.517H731.614V382.21H736.187V378.517Z" fill="#FCF6D8"/>
<path d="M736.187 383.379H731.614V401.767H736.187V383.379Z" fill="#FCF6D8"/>
<path d="M722.375 374.917H699.176V406.832H722.375V374.917Z" fill="#4F4C4A"/>
<path d="M716.578 374.917H699.176V406.832H716.578V374.917Z" fill="#37332F"/>
<path d="M721.745 378.517H717.172V382.21H721.745V378.517Z" fill="#FCF6D8"/>
<path d="M721.745 383.379H717.172V401.767H721.745V383.379Z" fill="#FCF6D8"/>
<path d="M708.174 374.917H684.975V406.832H708.174V374.917Z" fill="#4F4C4A"/>
<path d="M702.376 374.917H684.975V406.832H702.376V374.917Z" fill="#37332F"/>
<path d="M707.543 378.517H702.97V382.21H707.543V378.517Z" fill="#FCF6D8"/>
<path d="M707.543 383.379H702.97V401.767H707.543V383.379Z" fill="#FCF6D8"/>
<path d="M695.512 374.917H672.313V406.832H695.512V374.917Z" fill="#4F4C4A"/>
<path d="M689.715 374.917H672.313V406.832H689.715V374.917Z" fill="#37332F"/>
<path d="M694.882 378.517H690.309V382.21H694.882V378.517Z" fill="#FCF6D8"/>
<path d="M694.882 383.379H690.309V401.767H694.882V383.379Z" fill="#FCF6D8"/>
<path d="M681.301 374.917H658.111V406.832H681.301V374.917Z" fill="#4F4C4A"/>
<path d="M675.513 374.917H658.111V406.832H675.513V374.917Z" fill="#37332F"/>
<path d="M680.68 378.517H676.107V382.21H680.68V378.517Z" fill="#FCF6D8"/>
<path d="M680.68 383.379H676.107V401.767H680.68V383.379Z" fill="#FCF6D8"/>
<path d="M442 464.456C686.11 464.456 884 462.586 884 460.281C884 457.975 686.11 456.106 442 456.106C197.89 456.106 0 457.975 0 460.281C0 462.586 197.89 464.456 442 464.456Z" fill="#186D1E"/>
<path d="M515.925 378.461L514.104 410.25L536.997 411.562L538.818 379.773L515.925 378.461Z" fill="#541B1B"/>
<path d="M517.716 384.676L516.574 404.673L535.234 405.74L536.377 385.742L517.716 384.676Z" fill="#FCF6D8"/>
<path d="M485.013 376.513C484.196 375.799 482.081 373.897 481.738 369.017L480.115 368.943L478.501 368.868C477.685 373.683 475.468 375.455 474.586 376.077C473.177 376.884 472.583 377.33 472.537 378.415L471.219 405.617C471.206 405.901 471.248 406.185 471.344 406.452C471.44 406.72 471.588 406.966 471.779 407.176C471.971 407.386 472.202 407.557 472.459 407.678C472.716 407.799 472.995 407.868 473.279 407.881L483.185 408.363C483.76 408.388 484.32 408.185 484.745 407.797C485.169 407.409 485.422 406.869 485.449 406.294L486.747 379.102C486.812 378.007 486.441 377.413 485.013 376.513Z" fill="#EFA731"/>
<path d="M478.07 367.296L477.945 369.928L482.198 370.13L482.323 367.498L478.07 367.296Z" fill="#FCF6D8"/>
<path d="M473.65 382.536L473.019 395.779L484.907 396.346L485.538 383.103L473.65 382.536Z" fill="#FCF6D8"/>
<path d="M480.986 384.701L479.682 407.468L503.676 408.844L504.981 386.077L480.986 384.701Z" fill="#C63F3C"/>
<path d="M479.774 379.605L479.395 386.218L506.409 387.767L506.788 381.153L479.774 379.605Z" fill="#541B1B"/>
<path d="M482.226 391.186L481.698 400.403L502.961 401.621L503.489 392.405L482.226 391.186Z" fill="#FCF6D8"/>
<path d="M521.05 377.858C520.252 377.144 518.146 375.214 517.85 370.334L516.226 370.241L514.612 370.149C513.75 374.964 511.514 376.708 510.633 377.33C509.214 378.118 508.62 378.554 508.555 379.649L506.997 406.832C506.966 407.406 507.164 407.969 507.546 408.398C507.928 408.827 508.464 409.088 509.037 409.124L518.935 409.69C519.509 409.723 520.073 409.526 520.503 409.144C520.932 408.761 521.193 408.223 521.226 407.649L522.775 380.465C522.84 379.371 522.469 378.777 521.05 377.858Z" fill="#EFA731"/>
<path d="M514.211 368.586L514.06 371.217L518.311 371.461L518.462 368.83L514.211 368.586Z" fill="#FCF6D8"/>
<path d="M509.656 383.797L508.898 397.033L520.78 397.714L521.538 384.478L509.656 383.797Z" fill="#FCF6D8"/>
<path d="M546.976 408.335C545.919 408.15 543.127 407.584 540.334 403.576L538.897 404.337L537.468 405.097C539.231 409.653 538.229 412.306 537.793 413.299C536.995 414.709 536.708 415.386 537.227 416.36L550 440.408C550.267 440.919 550.725 441.303 551.274 441.477C551.823 441.651 552.419 441.6 552.931 441.336L561.688 436.697C561.942 436.568 562.168 436.389 562.353 436.171C562.537 435.954 562.677 435.702 562.763 435.43C562.849 435.158 562.881 434.872 562.855 434.587C562.83 434.303 562.748 434.027 562.615 433.774L549.842 409.727C549.286 408.706 548.664 408.391 546.976 408.335Z" fill="#EFA731"/>
<path d="M540.04 402L536.281 403.999L537.518 406.326L541.277 404.327L540.04 402Z" fill="#FCF6D8"/>
<path d="M550.798 413.727L540.289 419.314L546.51 431.021L557.018 425.434L550.798 413.727Z" fill="#FCF6D8"/>
<path d="M468.778 406.82L466.957 438.608L489.849 439.921L491.671 408.132L468.778 406.82Z" fill="#37332F"/>
<path d="M470.63 413.097L469.484 433.095L488.145 434.164L489.291 414.167L470.63 413.097Z" fill="#FCF6D8"/>
<path d="M493.826 408.251L492.005 440.039L514.898 441.352L516.719 409.563L493.826 408.251Z" fill="#37332F"/>
<path d="M495.725 414.557L494.579 434.554L513.24 435.624L514.385 415.626L495.725 414.557Z" fill="#FCF6D8"/>
<path d="M518.911 409.71L517.09 441.499L539.982 442.811L541.804 411.022L518.911 409.71Z" fill="#37332F"/>
<path d="M520.792 415.997L519.646 435.995L538.306 437.064L539.452 417.067L520.792 415.997Z" fill="#FCF6D8"/>
<path d="M494.873 408.27C494.066 407.556 491.97 405.626 491.673 400.746L490.05 400.653L488.436 400.561C487.573 405.376 485.337 407.12 484.456 407.741C483.037 408.53 482.443 408.966 482.378 410.061L480.82 437.254C480.79 437.826 480.987 438.388 481.37 438.816C481.752 439.243 482.288 439.502 482.861 439.536L492.758 440.102C493.042 440.118 493.326 440.078 493.595 439.984C493.863 439.89 494.111 439.745 494.323 439.555C494.535 439.365 494.707 439.136 494.83 438.879C494.953 438.623 495.025 438.345 495.04 438.061L496.598 410.877C496.663 409.783 496.264 409.189 494.873 408.27Z" fill="#EFA731"/>
<path d="M487.988 398.965L487.837 401.596L492.088 401.839L492.238 399.208L487.988 398.965Z" fill="#FCF6D8"/>
<path d="M483.472 414.199L482.713 427.435L494.595 428.116L495.353 414.88L483.472 414.199Z" fill="#FCF6D8"/>
<path d="M526.152 410.775C525.336 410.07 523.221 408.159 522.877 403.288L521.254 403.214L519.631 403.131C518.824 407.955 516.598 409.718 515.726 410.348C514.316 411.146 513.722 411.592 513.666 412.686L512.377 439.888C512.362 440.172 512.403 440.456 512.498 440.723C512.593 440.99 512.74 441.237 512.931 441.447C513.122 441.657 513.352 441.828 513.609 441.949C513.865 442.07 514.143 442.139 514.427 442.152L524.334 442.625C524.908 442.653 525.47 442.452 525.896 442.066C526.322 441.679 526.578 441.14 526.606 440.566L527.896 413.364C527.951 412.269 527.571 411.684 526.152 410.775Z" fill="#EFA731"/>
<path d="M519.216 401.57L519.09 404.202L523.343 404.404L523.469 401.773L519.216 401.57Z" fill="white"/>
<path d="M514.78 416.798L514.149 430.04L526.037 430.607L526.668 417.365L514.78 416.798Z" fill="#FCF6D8"/>
<path d="M602.502 486.147L605.211 487.752C605.211 487.752 614.83 470.078 618.308 463.045C621.416 456.764 627.473 447.06 626.063 427.79C632.695 416.852 645.663 387.275 645.663 387.275C646.275 385.42 649.55 382.636 649.55 382.636L629.838 370.26C625.608 382.599 619.635 405.756 614.514 424.877C613.88 426.662 613.742 428.586 614.115 430.444C614.115 430.444 615.229 434.424 612.409 447.329C611.286 452.209 602.502 486.147 602.502 486.147Z" fill="#E58B5E"/>
<path d="M615.062 418.17C623.976 385.614 626.378 379.918 628.048 374.852L628.326 374.732L636.044 379.593L645.292 389.659C644.726 390.337 656.219 393.009 647.926 394.855C647.926 394.855 641.637 406.767 630.385 428.978C630.385 429.015 619.477 424.831 615.062 418.17Z" fill="#37332F"/>
<path d="M681.236 447.116C677.98 440.946 674.279 432.086 662.044 424.135C661.757 417.26 661.172 409.699 660.681 403.984H641.637C644.309 411.573 647.091 416.908 651.321 430.008C651.321 430.008 652.017 433.088 653.937 434.647C653.937 434.647 658 436.409 666.423 445.501C669.632 448.953 691.115 474.262 691.115 474.262L693.638 472.295C693.638 472.295 684.891 454.027 681.236 447.116Z" fill="#E58B5E"/>
<path d="M660.05 395.04C659.666 393.447 659.575 391.796 659.781 390.17C664.651 368.831 657.295 358.366 656.275 356.984C648.743 363.255 632.157 367.866 626.814 369.824C626.814 370.557 626.814 392.869 638.456 397.044C638.743 397.146 639.328 396.478 639.597 396.627C643.307 398.575 643.817 405.264 645.292 410.07C653.817 410.515 656.989 407.973 659.874 406.109C659.429 402.428 659.488 398.705 660.05 395.04Z" fill="#37332F"/>
<path d="M664.159 420.897L659.521 387.08L638.187 395.282C638.187 395.282 642.825 417.882 646.535 429.015C646.535 429.015 654.67 427.957 664.159 420.897Z" fill="#37332F"/>
<path d="M622.195 281.881C622.195 281.881 623.225 287.263 623.457 289.155C623.58 289.611 623.857 290.011 624.24 290.286C624.624 290.562 625.091 290.697 625.562 290.667C627.215 290.68 628.862 290.474 630.46 290.055C630.46 290.055 631.768 289.777 633.243 289.387C632.965 291.994 632.501 294.62 632.111 296.568C632.111 296.568 631.017 297.913 629.579 299.75C630.155 300.004 630.705 300.315 631.221 300.678H654.299C653.263 298.822 651.808 297.234 650.051 296.039C645.682 291.614 643.335 288.042 643.623 283.19C644.55 281.501 650.505 270.739 646.211 263.289C645.168 261.353 643.602 259.749 641.691 258.661C639.78 257.574 637.601 257.046 635.404 257.138C631.406 257.268 629.097 257.778 626.128 260.385C626.128 260.385 621.147 263.966 622.279 272.446C622.279 272.446 622.891 274.571 621.49 278.013C621.49 278.013 620.498 279.367 621.119 279.868C621.591 280.472 621.955 281.153 622.195 281.881Z" fill="#E58B5E"/>
<path d="M640.83 282.151C640.246 283.903 639.237 285.483 637.894 286.751C636.551 288.019 634.914 288.934 633.131 289.415C633.171 289.423 633.212 289.423 633.252 289.415C633.038 291.41 632.714 293.404 632.408 295.102C641.276 292.857 640.83 282.151 640.83 282.151Z" fill="#C97550"/>
<path d="M660.189 365.918C663.51 361.613 655.06 338.28 657.638 312.757C657.571 310.944 657.344 309.141 656.961 307.367C656.93 307.27 656.905 307.171 656.887 307.07C656.813 306.783 656.739 306.495 656.655 306.198C656.655 306.115 656.6 306.022 656.581 305.948C656.488 305.651 656.405 305.354 656.303 305.066C656.001 304.171 655.648 303.295 655.245 302.441C655.245 302.394 655.245 302.339 655.171 302.292C655.069 302.079 654.958 301.865 654.846 301.652C654.846 301.596 654.772 301.522 654.735 301.457C654.698 301.392 654.522 301.077 654.41 300.891C654.377 300.827 654.34 300.766 654.299 300.706L653.974 300.168L653.9 300.084C653.56 299.557 653.192 299.049 652.796 298.563L652.704 298.47C652.602 298.349 652.509 298.229 652.407 298.127C652.305 298.025 652.323 298.025 652.277 297.987C652.231 297.95 652.101 297.783 652.008 297.691L651.878 297.561L651.628 297.31L651.507 297.208C651.247 296.967 651.015 296.763 650.811 296.605L650.7 296.503L650.552 296.401L650.45 296.317L650.348 296.253L650.255 296.188C650.255 296.188 650.255 296.188 650.19 296.188C650.125 296.188 650.134 296.188 650.125 296.132C649.791 295.798 649.485 295.482 649.197 295.149C647.97 293.886 646.862 292.513 645.886 291.048C641.248 296.355 638.706 298.59 635.033 298.952C634.402 299.027 631.564 299.175 630.506 298.72C629.579 299.871 616.5 318.064 620.173 339.245C622.695 348.39 624.13 357.801 624.449 367.282C624.449 367.282 624.829 373.776 626.889 374.778C628.948 375.78 657.026 369.425 660.189 365.918Z" fill="#FFC42C"/>
<path d="M637.333 346.398L653.678 315.086C653.678 315.086 657.054 301.569 652.054 297.273C646.906 292.838 644.161 295.854 642.324 301.912L629.903 339.95L594.191 351.352L596.371 355.434C596.371 355.434 631.926 353.338 637.333 346.398Z" fill="#E58B5E"/>
<path d="M596.371 355.407C596.371 355.407 583.004 356.399 585.499 355.11C592.076 351.705 579.377 350.23 579.322 349.088C579.192 346.936 589.061 344.589 596.844 351.352L596.371 355.407Z" fill="#E58B5E"/>
<path d="M648.279 334.922C648.514 334.96 648.74 335.038 648.947 335.154C651.868 327.572 653.943 319.691 655.134 311.653C655.218 309.612 657.082 295.176 645.979 294.137C645.979 294.137 641.257 293.701 634.486 325.189C635.757 330.904 641.684 335.135 648.279 334.922Z" fill="#FFC42C"/>
<path d="M647.556 259.346C646.285 259.207 644.216 256.563 643.205 254.03C642.194 251.497 640.831 251.544 640.831 251.544C635.209 254.401 629.885 250.969 629.885 250.969C626.555 248.89 626.175 258.632 621.778 258.752C618.893 258.845 621.49 263.484 621.49 263.484C620.915 264.866 631.981 263.716 633.966 264.801C635.951 265.887 635.599 271.871 636.666 272.669C637.001 273.093 637.423 273.441 637.902 273.69C638.382 273.94 638.909 274.085 639.448 274.116C640.682 274.116 642.621 271.444 643.715 272.038C644.81 272.632 643.78 278.532 640.933 279.367C640.901 280.346 641.111 281.318 641.545 282.197C642.24 283.431 643.01 285.908 643.808 285.593C644.606 285.277 644.949 282.123 645.793 280.36C646.415 280.174 648.066 281.074 648.641 280.583C650.014 279.414 648.316 277.929 650.255 276.241C654.411 272.622 652.518 271.296 650.988 268.327C650.589 267.548 651.804 266.369 652.296 263.827C652.787 261.285 651.869 259.829 647.556 259.346Z" fill="#37332F"/>
<path d="M692.915 469.614L689.409 472.397C689.409 472.397 688.416 483.716 683.992 490.841L685.068 492.567L699.204 478.65L692.915 469.614Z" fill="#37332F"/>
<path d="M607.029 485.284L603.216 483.428C603.216 483.428 593.235 488.067 584.859 487.585L583.857 489.347L602.873 495.099L607.029 485.284Z" fill="#37332F"/>
<path d="M484.818 485.479C484.818 487.256 484.291 488.993 483.303 490.47C482.316 491.947 480.912 493.098 479.27 493.777C477.629 494.457 475.822 494.633 474.08 494.285C472.338 493.937 470.738 493.08 469.483 491.822C468.228 490.564 467.374 488.963 467.03 487.219C466.685 485.476 466.866 483.67 467.548 482.029C468.231 480.388 469.384 478.987 470.863 478.002C472.343 477.018 474.08 476.494 475.857 476.498C478.235 476.503 480.514 477.451 482.194 479.135C483.874 480.818 484.818 483.1 484.818 485.479Z" fill="#37332F"/>
<path d="M481.85 485.479C481.85 486.668 481.497 487.831 480.835 488.82C480.174 489.809 479.234 490.58 478.135 491.035C477.035 491.489 475.826 491.607 474.659 491.373C473.493 491.14 472.422 490.566 471.582 489.723C470.742 488.88 470.171 487.807 469.941 486.64C469.712 485.473 469.833 484.263 470.291 483.165C470.749 482.067 471.522 481.129 472.513 480.471C473.504 479.812 474.668 479.463 475.858 479.467C476.646 479.468 477.426 479.624 478.154 479.927C478.881 480.23 479.542 480.673 480.099 481.231C480.655 481.79 481.096 482.452 481.396 483.181C481.697 483.909 481.851 484.69 481.85 485.479Z" fill="#FCF6D8"/>
<path d="M567.689 485.479C567.689 487.255 567.163 488.991 566.176 490.468C565.189 491.945 563.787 493.096 562.146 493.776C560.506 494.455 558.7 494.633 556.958 494.287C555.217 493.94 553.617 493.085 552.361 491.829C551.105 490.573 550.25 488.973 549.903 487.231C549.557 485.488 549.735 483.683 550.414 482.042C551.094 480.401 552.245 478.998 553.722 478.011C555.198 477.025 556.934 476.498 558.71 476.498C561.091 476.5 563.373 477.447 565.057 479.131C566.74 480.815 567.687 483.097 567.689 485.479Z" fill="#37332F"/>
<path d="M564.73 485.479C564.73 486.668 564.377 487.831 563.717 488.82C563.056 489.808 562.116 490.579 561.017 491.034C559.919 491.488 558.71 491.607 557.543 491.374C556.377 491.142 555.306 490.568 554.466 489.726C553.625 488.885 553.054 487.813 552.823 486.646C552.592 485.479 552.712 484.27 553.169 483.171C553.625 482.073 554.397 481.135 555.387 480.475C556.376 479.816 557.539 479.465 558.729 479.467C559.518 479.467 560.299 479.622 561.027 479.924C561.756 480.227 562.418 480.67 562.976 481.228C563.533 481.786 563.975 482.449 564.276 483.179C564.577 483.908 564.731 484.69 564.73 485.479Z" fill="#FCF6D8"/>
<path d="M456.507 439.916L556.419 446.652C557.347 448.155 564.684 459.742 565.398 469.976H460.264C460.044 469.959 459.822 469.988 459.614 470.061C459.405 470.133 459.214 470.249 459.052 470.399C458.889 470.549 458.76 470.731 458.672 470.934C458.583 471.136 458.538 471.355 458.538 471.576C458.538 471.797 458.583 472.016 458.672 472.218C458.76 472.421 458.889 472.603 459.052 472.753C459.214 472.904 459.405 473.019 459.614 473.092C459.822 473.164 460.044 473.193 460.264 473.176H568.617V471.581C568.617 462.071 563.051 451.439 560.324 446.921L563.357 447.125L583.765 354.163L581.807 354.33C572.949 355.11 565.389 360.101 559.935 368.757C557.599 372.509 555.797 376.568 554.582 380.818L454.133 390.587L456.507 439.916ZM575.444 378.768L557.718 380.493C558.865 376.886 560.457 373.436 562.458 370.223C567.096 362.949 572.995 358.663 580.082 357.457L575.444 378.768ZM569.646 405.199L566.864 405.283L568.617 382.33L574.813 381.727L569.646 405.199ZM565.296 425.016L566.604 408.215L569.006 408.15L565.296 425.016ZM563.923 405.366L557.504 405.543L558.961 383.276L565.686 382.618L563.923 405.366ZM562.216 427.373L556.094 427.169L557.319 408.437L563.701 408.261L562.216 427.373ZM555.018 443.664L555.946 430.054L562.031 430.258L560.964 444.063L555.018 443.664ZM554.61 405.626L548.312 405.812L549.434 384.204L556.048 383.555L554.61 405.626ZM553.209 427.076L547.208 426.872L548.136 408.697L554.406 408.521L553.209 427.076ZM546.355 443.089L547.05 429.757L553.015 429.952L552.087 443.47L546.355 443.089ZM545.427 405.895L539.054 406.072L539.871 385.141L546.54 384.483L545.427 405.895ZM544.332 426.77L538.247 426.566L538.934 408.938L545.26 408.753L544.332 426.77ZM537.626 442.542L538.136 429.507L544.175 429.702L543.488 442.931L537.626 442.542ZM536.151 406.155L529.853 406.341L530.289 386.069L536.958 385.42L536.151 406.155ZM535.363 426.473L529.417 426.278L529.788 409.226L536.04 409.05L535.363 426.473ZM529.073 441.92L529.352 429.163L535.251 429.358L534.75 442.301L529.073 441.92ZM526.959 406.424L520.642 406.6L520.725 387.006L527.394 386.357L526.959 406.424ZM526.532 426.185L520.558 425.981L520.632 409.486L526.894 409.309L526.532 426.185ZM520.493 441.336L520.549 428.867L526.467 429.071L526.189 441.725L520.493 441.336ZM511.449 428.57L517.664 428.774L517.599 441.141L511.523 440.733L511.449 428.57ZM511.31 409.755L517.747 409.569L517.673 425.888L511.43 425.675L511.31 409.755ZM511.106 387.943L517.794 387.294L517.72 406.684L511.226 406.869L511.106 387.943ZM502.591 428.273L508.527 428.468L508.611 440.529L502.869 440.148L502.591 428.273ZM502.164 410.015L508.388 409.838L508.499 425.61L502.526 425.415L502.164 410.015ZM501.663 388.862L508.221 388.221L508.36 406.953L502.099 407.129L501.663 388.862ZM493.481 427.967L499.752 428.18L500.03 439.963L493.927 439.545L493.481 427.967ZM492.804 410.284L499.298 410.098L499.659 425.285L493.342 425.072L492.804 410.284ZM492.016 389.817L498.834 389.149L499.26 407.213L492.684 407.398L492.016 389.817ZM484.456 427.698L490.578 427.902L491.023 439.378L485.068 438.979L484.456 427.698ZM483.528 410.58L489.92 410.395L490.476 425.007L484.308 424.803L483.528 410.58ZM482.443 390.773L489.131 390.123L489.808 407.51L483.371 407.695L482.443 390.773ZM475.635 427.401L481.571 427.596L482.183 438.784L476.321 438.385L475.635 427.401ZM474.614 410.831L480.644 410.664L481.413 424.701L475.458 424.506L474.614 410.831ZM473.427 391.654L479.568 391.06L480.495 407.76L474.438 407.936L473.427 391.654ZM466.655 427.095L472.74 427.299L473.408 438.191L467.462 437.792L466.655 427.095ZM465.45 411.1L471.729 410.914L472.564 424.404L466.442 424.209L465.45 411.1ZM465.227 408.215L464.049 392.573L470.542 391.942L471.535 408.038L465.227 408.215ZM458.734 426.835L463.715 427.002L464.522 437.597L459.235 437.244L458.734 426.835ZM457.992 411.304L462.518 411.184L463.502 424.107L458.604 423.94L457.992 411.304ZM457.12 393.25L461.136 392.851L462.305 408.298L457.852 408.428L457.12 393.25Z" fill="#37332F"/>
<path d="M549.75 471.738C549.75 471.738 552.792 484.412 559.369 484.894C559.369 484.894 564.174 486.165 562.096 471.738H549.75Z" fill="#4F4C4A"/>
<path d="M466.702 471.738C466.702 471.738 469.754 484.412 476.321 484.894C476.321 484.894 481.136 486.165 479.048 471.738H466.702Z" fill="#4F4C4A"/>
<path d="M589.952 354.015C589.952 355.184 589.605 356.327 588.955 357.299C588.306 358.271 587.382 359.029 586.302 359.476C585.222 359.923 584.033 360.039 582.887 359.811C581.74 359.582 580.688 359.018 579.862 358.19C579.036 357.363 578.474 356.309 578.247 355.162C578.02 354.015 578.138 352.827 578.587 351.747C579.035 350.667 579.794 349.745 580.767 349.097C581.74 348.448 582.883 348.103 584.052 348.105C585.618 348.108 587.118 348.731 588.225 349.839C589.331 350.947 589.952 352.449 589.952 354.015Z" fill="#B6A883"/>
<path d="M588.096 354.015C588.098 354.818 587.862 355.603 587.417 356.271C586.972 356.939 586.339 357.46 585.598 357.768C584.857 358.076 584.041 358.157 583.254 358.001C582.467 357.845 581.744 357.459 581.177 356.891C580.609 356.323 580.223 355.6 580.067 354.813C579.911 354.026 579.992 353.21 580.3 352.468C580.608 351.727 581.129 351.094 581.797 350.649C582.465 350.204 583.25 349.968 584.052 349.97C585.125 349.97 586.153 350.396 586.912 351.155C587.67 351.913 588.096 352.942 588.096 354.015Z" fill="#37332F"/>
<path d="M624.347 275.341C624.347 275.795 624.347 276.148 625.191 276.148C625.408 276.148 625.615 276.062 625.768 275.909C625.922 275.756 626.008 275.548 626.008 275.331C626.008 275.115 625.922 274.907 625.768 274.754C625.615 274.601 625.408 274.515 625.191 274.515C625.081 274.511 624.971 274.53 624.868 274.57C624.765 274.61 624.672 274.67 624.593 274.747C624.514 274.825 624.451 274.917 624.409 275.019C624.367 275.121 624.346 275.23 624.347 275.341Z" fill="#312E4E"/>
<path d="M621.815 280.963C621.815 280.963 628.466 279.358 630.358 279.423C632.25 279.488 635.766 281.047 636.174 280.573C636.582 280.1 637.101 271.982 637.101 271.982L638.725 272.446C638.725 272.446 641.619 281.724 639.652 285.574C637.686 289.424 624.746 295.241 622.751 290.213C621.651 287.261 621.328 284.076 621.815 280.963Z" fill="#37332F"/>
<path d="M622.603 283.997C622.603 283.997 628.957 282.865 629.235 282.735C629.235 282.735 624.412 287.689 622.603 283.997Z" fill="#FCF6D8"/>
<path d="M651.906 389.53C651.906 389.53 649.457 389.613 646.554 386.746C643.651 383.879 646.007 381.375 651.034 383.842C656.062 386.31 655.607 385.698 655.607 385.698C655.607 385.698 656.229 381.569 659.485 381.829C662.741 382.089 658.724 388.611 658.353 389.576L651.906 389.53Z" fill="#186D1E"/>
<path d="M649.049 388.899C640.728 396.754 635.047 406.997 632.788 418.216C632.788 418.216 629.764 429.498 645.422 431.205C645.422 431.205 649.8 437.94 663.278 433.06C663.278 433.06 679.103 430.147 675.059 412.909C671.014 395.671 659.401 388.927 659.401 388.927L649.049 388.899Z" fill="#186D1E"/>
<path d="M722.895 391.728C722.895 391.728 720.446 391.821 717.543 388.945C714.64 386.069 716.996 383.573 722.033 386.041C727.069 388.509 726.606 387.897 726.606 387.897C726.606 387.897 727.218 383.768 730.474 384.037C733.73 384.306 729.713 390.81 729.342 391.775L722.895 391.728Z" fill="#186D1E"/>
<path d="M667.341 309.148C667.341 309.148 660.31 329.726 651.358 380.809L655.069 381.857L675.133 312.386L667.341 309.148Z" fill="#E58B5E"/>
<path d="M655.533 380.141C656.069 381.631 656.366 383.196 656.414 384.779C655.857 386.05 655.557 387.419 655.533 388.806C655.533 388.806 653.78 390.346 652.889 388.741C652.889 388.741 647.899 387.618 647.955 385.243C648.01 382.868 649.467 380.521 651.99 378.072L655.533 380.141Z" fill="#E58B5E"/>
<path d="M665.198 307.256L658.909 330.283C660.374 331.466 662.065 332.337 663.879 332.843C665.692 333.349 667.59 333.478 669.456 333.224L673.055 306.829L665.198 307.256Z" fill="#E4544A"/>
<path d="M719.62 468.695C723.841 475.681 730.659 487.631 730.418 487.946C729.49 489.301 728.562 489.162 728.562 489.162C728.173 489.162 721.142 480.302 715.233 473.39L719.62 468.695Z" fill="#E58B5E"/>
<path d="M675.856 475.366C674.882 482.343 672.332 494.942 672.332 494.942C671.154 495.396 669.206 494.617 669.206 494.617C669.363 491.11 669.604 478.669 669.836 474.512L675.856 475.366Z" fill="#E58B5E"/>
<path d="M728.164 480.636C728.164 480.636 727.83 482.027 722.403 484.439L696.727 447.329C696.727 447.329 695.948 446.355 694.705 440.547C692.191 428.746 689.214 403.019 689.214 403.019L687.359 402.861L674.855 489.95C672.71 490.11 670.558 489.747 668.584 488.893C668.584 488.893 671.126 427.401 671.126 403.39C671.126 399.586 671.664 372.96 671.664 372.96C671.664 372.96 683.602 375.075 704.445 372.96C704.445 372.96 706.077 372.96 709.528 440.417L728.164 480.636Z" fill="#FFC42C"/>
<path d="M672.823 494.097C671.554 493.793 670.264 493.576 668.965 493.448L668.241 495.368C668.241 495.368 661.609 497.809 661.034 498.152L660.876 499.293L672.758 500.991C672.758 500.991 673.436 501.074 672.823 494.097Z" fill="#37332F"/>
<path d="M729.787 485.757C728.621 486.356 727.496 487.031 726.42 487.779L727.116 489.709C727.116 489.709 723.656 495.869 723.47 496.528L724.082 497.456L734.221 490.962C734.221 490.962 734.75 490.693 729.787 485.757Z" fill="#37332F"/>
<path d="M705.744 302.218C702.005 300.986 698.195 299.982 694.334 299.212C692.154 294.026 692.321 278.607 692.321 278.607C692.321 278.607 681.496 284.869 681.376 286.344C680.875 292.291 678.89 297.524 678.723 299.611C678.602 301.058 670.374 303.044 670.374 303.044C669.938 303.619 669.447 311.895 669.104 314.177L705.465 315.03L705.744 302.218Z" fill="#C97550"/>
<path d="M681.617 285.908C681.688 285.81 681.765 285.717 681.849 285.63C681.904 285.574 681.969 285.518 682.025 285.453L682.359 285.147C682.441 285.088 682.518 285.023 682.591 284.952L683.017 284.609L683.286 284.405L683.815 284.015L684.093 283.811L684.724 283.366L684.975 283.199C685.234 283.013 685.513 282.828 685.782 282.652L685.902 282.568C686.561 282.132 687.238 281.696 687.897 281.288L687.999 281.223L688.833 280.703L689.075 280.555L689.715 280.165L689.974 280.007L690.522 279.683C690.599 279.628 690.679 279.578 690.763 279.534C690.902 279.441 691.041 279.367 691.171 279.293L691.44 279.126L691.663 278.996L691.941 278.829L692.321 278.755V280.184C692.321 280.36 692.321 280.546 692.321 280.75V281.408C692.321 281.501 692.321 281.603 692.321 281.705C692.321 282.095 692.321 282.512 692.321 282.958V283.125C692.321 284.489 692.414 286.047 692.507 287.689C692.507 287.689 692.507 287.745 692.507 287.773C692.507 288.394 692.581 289.016 692.627 289.628C692.627 289.675 692.627 289.721 692.627 289.767L692.711 290.751C689.288 295.325 684.242 300.418 678.407 300.029L678.333 300.084C678.498 299.966 678.614 299.791 678.658 299.592C678.825 297.505 680.81 292.272 681.311 286.325C681.332 286.214 681.38 286.109 681.45 286.019C681.5 285.974 681.556 285.937 681.617 285.908Z" fill="#B25F42"/>
<path d="M670.031 375.836L664.559 312.887C664.559 312.887 664.336 307.701 666.275 304.825C667.304 303.294 672.619 301.587 675.244 301.235C675.244 301.235 675.198 308.861 684.966 309.093C684.966 309.093 695.457 312.683 701.356 300.381C701.356 300.381 713.777 300.956 713.211 307.311C713.211 307.311 704.445 324.392 704.603 340.293C704.798 359.776 706.634 375.121 705.994 375.91C705.994 375.91 692.08 378.526 670.031 375.836Z" fill="#C63F3C"/>
<path d="M679.047 293.117C679.826 293.483 680.713 293.542 681.533 293.284C682.953 292.978 690.401 288.459 691.987 282.717C691.987 282.717 694.149 283.125 695.113 280.434C696.078 277.744 694.993 273.94 692.099 276.398C692.099 276.398 693.138 264.495 687.915 263.642C682.693 262.788 672.731 260.775 672.063 269.208C671.887 273.894 672.198 278.586 672.99 283.208C674.169 286.957 676.248 290.359 679.047 293.117Z" fill="#E58B5E"/>
<path d="M682.415 276.538C682.411 276.701 682.456 276.862 682.544 276.999C682.631 277.137 682.758 277.246 682.907 277.312C683.057 277.377 683.222 277.397 683.383 277.369C683.544 277.341 683.693 277.266 683.811 277.153C683.929 277.04 684.011 276.895 684.046 276.735C684.081 276.576 684.069 276.41 684.01 276.257C683.951 276.105 683.848 275.974 683.714 275.88C683.581 275.786 683.422 275.734 683.259 275.73C683.041 275.728 682.83 275.811 682.672 275.962C682.514 276.113 682.422 276.319 682.415 276.538Z" fill="#312E4E"/>
<path d="M674.298 276.343C674.293 276.507 674.336 276.669 674.423 276.808C674.51 276.947 674.636 277.057 674.786 277.124C674.936 277.191 675.102 277.212 675.264 277.184C675.425 277.156 675.575 277.081 675.694 276.967C675.812 276.854 675.895 276.708 675.93 276.548C675.965 276.388 675.952 276.22 675.892 276.068C675.831 275.915 675.727 275.784 675.592 275.691C675.457 275.598 675.297 275.547 675.133 275.545C675.026 275.542 674.919 275.561 674.819 275.6C674.719 275.639 674.628 275.697 674.55 275.771C674.473 275.845 674.411 275.934 674.368 276.032C674.324 276.13 674.301 276.236 674.298 276.343Z" fill="#312E4E"/>
<path d="M682.711 284.878L675.662 284.711C675.662 284.711 679.242 289.331 682.711 284.878Z" fill="#FCF6D8"/>
<path d="M713.554 310.8C713.554 310.8 719.611 331.684 726.151 383.119L722.44 384L705.651 313.667L713.554 310.8Z" fill="#E58B5E"/>
<path d="M712.914 305.706L722.895 336.174C722.895 336.174 716.578 341.026 709.714 339.477L702.59 313.5C702.59 313.5 703.963 304.305 712.914 305.706Z" fill="#C63F3C"/>
<path d="M722.023 382.237C721.405 383.713 721.032 385.28 720.919 386.876C721.415 388.172 721.652 389.553 721.615 390.94C721.615 390.94 723.294 392.563 724.249 391.005C724.249 391.005 729.286 390.077 729.342 387.739C729.397 385.401 728.062 382.952 725.631 380.391L722.023 382.237Z" fill="#E58B5E"/>
<path d="M720.038 391.107C711.723 398.962 706.046 409.201 703.786 420.415C703.786 420.415 700.753 431.696 716.411 433.403C716.411 433.403 720.798 440.139 734.267 435.259C734.267 435.259 750.092 432.336 746.057 415.099C742.022 397.861 730.39 391.125 730.39 391.125L720.038 391.107Z" fill="#186D1E"/>
<path d="M672.081 274.617C672.081 274.617 675.736 272.196 679.159 265.785C679.159 265.785 684.158 272.279 689.436 273.504C689.389 273.876 689.423 274.255 689.537 274.613C689.65 274.97 689.84 275.299 690.093 275.577C690.347 275.854 690.657 276.072 691.004 276.218C691.35 276.363 691.723 276.431 692.099 276.417C692.099 276.417 692.729 280.416 695.113 280.453C694.977 281.094 694.628 281.671 694.123 282.088C693.618 282.506 692.986 282.741 692.331 282.754C692.331 282.754 692.72 292.365 693.258 294.926C693.258 294.926 694.983 296.206 696.829 293.432C697.032 292.678 697.452 292 698.038 291.483C698.624 290.967 699.349 290.635 700.122 290.528C702.766 290.259 703.684 291.456 704.213 288.413C704.742 285.37 704.315 283.134 705.651 282.076C706.987 281.019 710.947 281.77 710.289 278.625C709.63 275.48 706.059 275.22 707.506 272.845C708.953 270.47 712.255 269.282 709.621 267.279C706.987 265.275 706.718 265.998 706.319 262.816C705.92 259.634 706.189 259.105 704.732 258.706C703.276 258.307 701.569 260.023 700.252 256.851C698.935 253.678 695.299 247.573 691.05 249.196C686.802 250.82 686.876 254.874 683.732 252.499C680.587 250.124 677.072 247.86 675.931 248.946C674.79 250.031 675.448 253.687 673.602 253.028C671.756 252.369 668.844 251.312 668.185 252.629C667.527 253.947 668.315 256.192 667.397 256.591C666.478 256.99 664.614 259.096 664.54 260.812C664.466 262.528 666.664 265.312 665.968 265.766C665.273 266.221 662.648 268.735 663.835 270.581C665.022 272.428 666.08 274.487 665.412 274.905C664.744 275.322 663.965 278.894 665.412 280.082C666.859 281.269 667.786 283.023 667.267 283.533C666.747 284.043 665.681 286.019 668.055 288.172C670.43 290.324 671.487 288.701 672.016 291.465C672.545 294.23 677.415 294.406 678.073 292.143C678.073 292.105 671.877 287.188 672.081 274.617Z" fill="#37332F"/>
<path d="M670.569 272.474C670.569 272.474 672.026 261.294 678.779 260.506C678.779 260.506 692.692 257.342 695.902 273.699H696.523C696.523 273.699 696.143 254.791 678.018 257.519C678.018 257.519 670.133 258.919 670.133 271.936L670.569 272.474Z" fill="#8CC63E"/>
<path d="M229.821 358.607L225.953 297.143L216.288 293.924L224.135 359.396L229.821 358.607Z" fill="#E58B5E"/>
<path d="M229.822 358.607C230.427 361.432 230.283 364.366 229.404 367.118C228.525 369.87 226.942 372.344 224.813 374.296C224.813 374.296 219.887 374.296 224.136 359.396L229.822 358.607Z" fill="#E58B5E"/>
<path d="M155.948 360.685L159.816 299.221L169.481 296.011L161.634 361.483L155.948 360.685Z" fill="#E58B5E"/>
<path d="M155.948 360.685C155.343 363.512 155.487 366.447 156.366 369.2C157.244 371.954 158.827 374.43 160.957 376.383C160.957 376.383 165.882 376.383 161.634 361.474L155.948 360.685Z" fill="#E58B5E"/>
<path d="M204.442 467.591L200.435 467.239C200.435 467.239 197.856 474.661 198.719 478.557C199.201 480.747 211.854 481.545 213.254 481.09C213.254 481.09 214.646 478.019 209.609 476.637C209.609 476.637 206.038 475.245 205.722 473.854C205.314 472.007 204.442 467.591 204.442 467.591Z" fill="#37332F"/>
<path d="M175.9 467.591L179.908 467.239C179.908 467.239 182.505 474.661 181.633 478.557C181.151 480.747 168.498 481.545 167.098 481.09C167.098 481.09 165.706 478.019 170.734 476.637C170.734 476.637 174.305 475.245 174.62 473.854C175.038 472.007 175.9 467.591 175.9 467.591Z" fill="#37332F"/>
<path d="M214.72 351.621C214.72 351.621 210.852 435.908 207.401 468.306H198.45C198.45 468.306 194.053 398.139 192.198 367.709C192.198 367.709 184.777 453.703 182.727 468.306H171.791C171.791 468.306 171.949 361.669 170.455 341.49L214.72 351.621Z" fill="#37332F"/>
<path d="M171.94 279.85C171.94 279.85 183.729 276.844 184.36 275.471C185.343 273.365 186.744 267.028 187.143 260.821C187.236 259.272 198.367 252.471 198.367 252.471C198.367 252.471 198.144 267.316 201.53 274.051C201.53 274.051 204.962 274.979 208.468 276.167V285.082L175.001 290.166C171.383 287.754 171.504 280.462 171.94 279.85Z" fill="#C97550"/>
<path d="M184.814 274.274C186.023 270.153 186.779 265.913 187.069 261.628L196.344 255.329H198.339C198.339 257.092 198.497 259.504 198.738 262.102C196.743 266.583 191.131 277.196 184.814 274.274Z" fill="#B25F42"/>
<path d="M169.481 358.607L169.75 279.256L183.98 275.434C193.441 284.897 201.771 274.06 201.78 274.06C204.266 274.172 218.663 275.35 218.227 284.962C218.227 284.962 215.935 356.984 214.702 358.589L169.481 358.607Z" fill="#FFC42C"/>
<path d="M181.178 242.146C181.178 242.146 180.436 250.495 181.753 257.259C182.523 261.276 187.319 265.738 189.86 266.852C189.86 266.852 190.556 267.241 193.042 266.852C196.103 266.351 200.778 261.758 202.318 255.719C202.318 255.719 204.581 256.099 205.527 253.269C206.474 250.44 205.24 246.487 202.281 249.122C202.281 249.122 203.079 236.681 197.643 235.93C192.207 235.178 181.66 233.313 181.178 242.146Z" fill="#E58B5E"/>
<path d="M181.54 255.607C180.769 255.676 179.998 255.466 179.368 255.015C178.739 254.563 178.291 253.901 178.108 253.149C177.18 250.319 178.396 246.358 181.355 248.992" fill="#E58B5E"/>
<path d="M198.775 231.745C198.775 231.745 205.147 230.864 203.301 248.445C203.301 248.445 201.576 251.033 200.973 250.44C200.37 249.846 200.917 248.352 200.973 246.729C201.029 245.105 199.609 238.871 199.016 238.629C198.422 238.388 192.328 246.051 182.662 244.66C182.201 246.21 182.153 247.854 182.523 249.428C183.117 252.212 181.865 250.532 181.54 250.059C181.215 249.586 180.084 248.139 180.084 248.139C180.084 248.139 177.857 241.561 180.278 235.243C180.278 235.234 185.519 226.763 198.775 231.745Z" fill="#37332F"/>
<path d="M188.21 249.391C188.211 249.537 188.17 249.68 188.09 249.802C188.01 249.924 187.896 250.019 187.762 250.076C187.627 250.132 187.479 250.148 187.336 250.12C187.193 250.092 187.062 250.022 186.959 249.919C186.856 249.816 186.786 249.684 186.758 249.541C186.73 249.398 186.745 249.25 186.802 249.116C186.858 248.981 186.954 248.867 187.076 248.787C187.198 248.707 187.34 248.666 187.486 248.668C187.677 248.67 187.86 248.747 187.995 248.882C188.13 249.017 188.207 249.2 188.21 249.391Z" fill="#37332F"/>
<path d="M196.122 249.391C196.119 249.584 196.041 249.768 195.904 249.904C195.767 250.039 195.582 250.115 195.389 250.115C195.197 250.115 195.013 250.039 194.877 249.903C194.742 249.767 194.666 249.583 194.666 249.391C194.666 249.199 194.742 249.015 194.877 248.88C195.013 248.744 195.197 248.668 195.389 248.668C195.582 248.668 195.767 248.744 195.904 248.879C196.041 249.014 196.119 249.199 196.122 249.391Z" fill="#37332F"/>
<path d="M195.5 258.224C191.391 262.528 188.812 258.585 188.812 258.585L195.5 258.224Z" fill="#FCF6D8"/>
<path d="M216.13 309.659L228.105 305.873C226.936 293.608 225.619 283.607 224.395 281.965C220.851 277.41 210.249 275.628 210.249 275.628C211.26 278.412 214.785 295.761 214.785 295.761L216.13 309.659Z" fill="#FFC42C"/>
<path d="M170.298 305.873L171.225 298.043C171.225 298.043 174.759 280.666 175.77 277.901C175.77 277.901 165.418 278.458 161.856 283.004C160.651 284.563 159.361 294.044 158.146 305.873H170.298Z" fill="#FFC42C"/>
<path d="M180.278 235.234C180.278 235.234 187.347 237.442 191.409 237.442L201.817 233.601C201.817 233.601 195.955 227.209 190.12 221.707C190.102 221.735 185.519 227.301 180.278 235.234Z" fill="#FCF6D8"/>
<path d="M185.065 273.485L193.413 279.237L181.002 286.91C181.002 286.91 184.332 272.91 185.065 273.485Z" fill="#FCF6D8"/>
<path d="M201.4 272.762L193.385 279.256L204.164 285.75C204.164 285.75 202.132 272.224 201.4 272.762Z" fill="#FCF6D8"/>
<path d="M233.078 320.606H212.698V333.762H233.078V320.606Z" fill="#605D5B"/>
<path d="M175.408 309.501H114.502C114.297 309.501 114.131 309.667 114.131 309.872V351.102C114.131 351.307 114.297 351.473 114.502 351.473H175.408C175.613 351.473 175.779 351.307 175.779 351.102V309.872C175.779 309.667 175.613 309.501 175.408 309.501Z" fill="#605D5B"/>
<path d="M150.902 362.263H139.019L141.737 328.52H148.174L150.902 362.263Z" fill="#4F4C4A"/>
<path d="M158.081 362.263H131.839C131.634 362.263 131.468 362.429 131.468 362.634V364.601C131.468 364.806 131.634 364.972 131.839 364.972H158.081C158.286 364.972 158.452 364.806 158.452 364.601V362.634C158.452 362.429 158.286 362.263 158.081 362.263Z" fill="#605D5B"/>
<path d="M324.075 364.972H82.3613V483.113H324.075V364.972Z" fill="#186D1E"/>
<path d="M324.075 364.972H82.3613V370.752H324.075V364.972Z" fill="#37332F"/>
<path d="M265.84 339.18H212.698V364.972H265.84V339.18Z" fill="#605D5B"/>
<path d="M227.011 339.18H219.488L221.306 325.95H225.193L227.011 339.18Z" fill="#4F4C4A"/>
<path d="M366.661 313.583L361.03 362.43L364.908 362.875C369.62 342.056 372.672 326.024 374.638 314.297L366.661 313.583Z" fill="#E58B5E"/>
<path d="M361.234 360.602C360.136 361.798 359.235 363.16 358.563 364.638C358.563 364.638 357.737 365.937 359.175 368.024C359.511 368.433 359.926 368.772 360.394 369.02C360.862 369.269 361.374 369.422 361.902 369.471C361.902 369.471 364.685 371.614 365.612 369.36C366.674 366.343 366.591 363.042 365.38 360.082L361.234 360.602Z" fill="#E58B5E"/>
<path d="M406.612 465.42C406.427 473.77 405.75 487.816 405.369 487.956C403.792 488.596 403.097 487.956 403.097 487.956C402.744 487.761 400.898 477.286 399.562 468.092L406.612 465.42Z" fill="#E58B5E"/>
<path d="M391.01 465.42C391.01 472.629 390.24 485.748 390.24 485.748C389.127 486.379 387.04 485.868 387.04 485.868C386.687 482.296 385.185 469.67 384.795 465.457L391.01 465.42Z" fill="#E58B5E"/>
<path d="M407.41 480.394C407.41 480.394 406.362 481.415 400.36 480.515L396.409 443.47L394.155 391.329L392.234 391.172L391.01 480.385C391.01 480.385 389.155 481.09 385.583 480.116C385.583 480.116 375.695 416.295 375.695 391.756C375.695 387.86 376.243 360.639 376.243 360.639C376.243 360.639 389.368 361.706 410.684 359.544C410.684 359.544 412.938 383.379 412.484 396.571C412.159 406.192 411.176 422.446 409.896 442.477C409.144 454.065 408.291 466.877 407.41 480.394Z" fill="#37332F"/>
<path d="M406.612 398.937C406.612 398.937 411.937 389.715 414.274 388.472C416.612 387.229 426.695 398.937 426.695 398.937L425.767 413.781L407.41 406.229L406.612 398.937Z" fill="#4F4C4A"/>
<path d="M411.027 417.956C411.027 417.956 422.724 394.391 429.023 394.929C435.321 395.467 440.154 399.429 439.82 411.48C439.486 423.532 437.473 427.429 437.473 427.429H412.549L411.027 417.956Z" fill="#EFA731"/>
<path d="M403.124 420.276C403.124 420.276 398.987 418.253 399.071 416.147C399.154 414.041 398.625 399.382 402.577 396.868C406.528 394.354 420.025 402.435 422.056 405.32C424.088 408.205 413.829 419.496 411.241 420.276C408.653 421.055 403.124 420.276 403.124 420.276Z" fill="#8CC63E"/>
<path d="M407.846 414.876C407.846 414.876 400.49 417.78 400.49 419.394C400.49 421.008 401.501 426.417 402.039 426.816C402.577 427.215 418.662 427.967 418.578 426.816C418.495 425.666 415.87 415.219 407.846 414.876Z" fill="#EFA731"/>
<path d="M390.629 484.82C389.298 484.696 387.959 484.662 386.622 484.718L386.168 486.768C386.168 486.768 378.311 490.182 377.819 490.646V491.824H391.585C391.585 491.824 392.206 491.806 390.629 484.82Z" fill="#37332F"/>
<path d="M406.028 485.72C404.693 485.597 403.351 485.56 402.011 485.608L401.557 487.659C401.557 487.659 393.7 491.082 393.208 491.537V492.715H406.983C406.983 492.715 407.605 492.696 406.028 485.72Z" fill="#37332F"/>
<path d="M370.677 293.581L364.24 317.109C365.74 318.31 367.47 319.194 369.323 319.704C371.176 320.214 373.114 320.342 375.018 320.077L378.729 293.089L370.677 293.581Z" fill="#FFC42C"/>
<path d="M397.419 403.901C397.275 403.897 397.131 403.924 396.998 403.981C396.865 404.038 396.745 404.124 396.648 404.231C396.551 404.339 396.479 404.466 396.436 404.604C396.393 404.743 396.38 404.889 396.399 405.032L398.672 427.178C398.712 427.487 398.861 427.77 399.092 427.978C399.324 428.186 399.622 428.304 399.933 428.31H439.236C439.545 428.301 439.841 428.183 440.071 427.975C440.3 427.768 440.448 427.485 440.488 427.178L442.77 405.032C442.787 404.888 442.773 404.742 442.729 404.604C442.685 404.466 442.611 404.338 442.514 404.231C442.416 404.124 442.296 404.038 442.163 403.981C442.029 403.924 441.885 403.897 441.74 403.901H397.419ZM403.291 426.167C402.981 426.159 402.683 426.04 402.452 425.833C402.221 425.626 402.071 425.343 402.03 425.035L400.174 407.714C400.156 407.571 400.168 407.426 400.211 407.288C400.253 407.15 400.325 407.023 400.421 406.916C400.517 406.809 400.635 406.723 400.767 406.665C400.899 406.608 401.042 406.579 401.186 406.582H403.3C403.609 406.585 403.906 406.702 404.134 406.911C404.362 407.12 404.504 407.406 404.534 407.714L405.981 425.035C405.994 425.18 405.977 425.326 405.93 425.463C405.883 425.601 405.807 425.727 405.709 425.834C405.61 425.941 405.49 426.025 405.356 426.083C405.223 426.14 405.078 426.169 404.933 426.167H403.291ZM411.027 426.167C410.721 426.163 410.428 426.045 410.205 425.835C409.981 425.626 409.845 425.34 409.821 425.035L408.783 407.714C408.772 407.567 408.793 407.42 408.842 407.282C408.892 407.143 408.97 407.017 409.071 406.91C409.172 406.804 409.295 406.72 409.43 406.663C409.566 406.607 409.712 406.579 409.859 406.582H411.973C412.278 406.586 412.57 406.707 412.789 406.919C413.008 407.131 413.137 407.418 413.152 407.723L413.764 425.035C413.77 425.182 413.746 425.329 413.694 425.467C413.642 425.604 413.562 425.73 413.46 425.836C413.357 425.942 413.234 426.026 413.098 426.083C412.963 426.14 412.816 426.168 412.669 426.167H411.027ZM421.556 425.035C421.548 425.336 421.424 425.623 421.21 425.834C420.995 426.045 420.707 426.164 420.405 426.167H418.764C418.462 426.167 418.172 426.048 417.957 425.836C417.741 425.625 417.618 425.337 417.613 425.035L417.418 407.751C417.416 407.602 417.443 407.454 417.499 407.315C417.554 407.177 417.636 407.051 417.741 406.945C417.845 406.839 417.97 406.754 418.107 406.697C418.244 406.639 418.392 406.61 418.541 406.61H420.656C420.805 406.61 420.952 406.639 421.09 406.697C421.227 406.754 421.352 406.839 421.456 406.945C421.561 407.051 421.643 407.177 421.698 407.315C421.753 407.454 421.781 407.602 421.778 407.751L421.556 425.035ZM429.338 425.035C429.315 425.34 429.178 425.626 428.955 425.835C428.732 426.045 428.438 426.163 428.132 426.167H426.5C426.352 426.168 426.206 426.14 426.069 426.083C425.933 426.026 425.809 425.942 425.706 425.837C425.603 425.731 425.522 425.605 425.469 425.467C425.416 425.33 425.391 425.183 425.396 425.035L426.017 407.723C426.029 407.418 426.158 407.129 426.378 406.916C426.597 406.704 426.89 406.584 427.195 406.582H429.301C429.448 406.579 429.594 406.607 429.729 406.663C429.865 406.72 429.987 406.804 430.089 406.91C430.19 407.017 430.268 407.143 430.317 407.282C430.367 407.42 430.387 407.567 430.377 407.714L429.338 425.035ZM437.13 425.035C437.088 425.343 436.938 425.626 436.707 425.833C436.476 426.04 436.179 426.159 435.868 426.167H434.227C434.082 426.169 433.938 426.14 433.805 426.083C433.671 426.025 433.552 425.94 433.454 425.834C433.356 425.727 433.281 425.6 433.235 425.463C433.19 425.325 433.173 425.179 433.188 425.035L434.625 407.714C434.659 407.408 434.803 407.124 435.03 406.916C435.257 406.708 435.551 406.589 435.859 406.582H437.974C438.118 406.579 438.262 406.608 438.394 406.666C438.526 406.723 438.645 406.809 438.741 406.916C438.838 407.023 438.911 407.15 438.954 407.287C438.998 407.425 439.012 407.57 438.994 407.714L437.13 425.035Z" fill="#186D1E"/>
<path d="M394.924 400.375H444.235C444.447 400.375 444.65 400.459 444.799 400.609C444.949 400.758 445.033 400.961 445.033 401.173V403.789C445.033 403.895 445.012 404 444.972 404.098C444.931 404.196 444.872 404.285 444.797 404.36C444.722 404.435 444.633 404.494 444.535 404.535C444.437 404.575 444.332 404.596 444.226 404.596H394.924C394.818 404.596 394.713 404.575 394.615 404.535C394.517 404.494 394.428 404.435 394.354 404.36C394.279 404.285 394.219 404.196 394.179 404.098C394.138 404 394.117 403.895 394.117 403.789V401.173C394.12 400.96 394.206 400.758 394.357 400.608C394.508 400.459 394.712 400.375 394.924 400.375Z" fill="#186D1E"/>
<path d="M421.454 401.915C421.562 402.187 421.588 402.486 421.527 402.772C421.466 403.059 421.322 403.321 421.112 403.526C420.902 403.731 420.637 403.869 420.349 403.923C420.061 403.977 419.763 403.945 419.493 403.83C419.224 403.715 418.994 403.523 418.834 403.278C418.673 403.033 418.589 402.746 418.591 402.452C418.593 402.159 418.682 401.874 418.847 401.631C419.011 401.388 419.244 401.2 419.515 401.089C419.882 400.943 420.292 400.947 420.655 401.102C421.018 401.257 421.306 401.549 421.454 401.915Z" fill="#45366D"/>
<path d="M421.018 402.091C421.101 402.218 421.154 402.361 421.175 402.51C421.196 402.659 421.184 402.812 421.139 402.956C421.094 403.1 421.018 403.232 420.915 403.343C420.813 403.454 420.688 403.541 420.548 403.597C420.408 403.654 420.257 403.679 420.107 403.67C419.956 403.662 419.809 403.62 419.677 403.548C419.544 403.476 419.43 403.375 419.341 403.253C419.252 403.131 419.191 402.991 419.163 402.843C419.118 402.611 419.156 402.371 419.269 402.163C419.382 401.956 419.563 401.794 419.782 401.706C420.001 401.617 420.243 401.607 420.469 401.677C420.694 401.748 420.888 401.894 421.018 402.091Z" fill="white"/>
<path d="M420.638 402.472C420.638 402.632 420.574 402.785 420.461 402.898C420.348 403.011 420.194 403.075 420.035 403.075C419.876 403.075 419.724 403.013 419.611 402.902C419.499 402.79 419.434 402.639 419.432 402.481L419.357 374.388C419.357 374.229 419.421 374.075 419.534 373.962C419.647 373.849 419.8 373.785 419.96 373.785C420.039 373.784 420.117 373.799 420.19 373.828C420.263 373.857 420.33 373.901 420.386 373.956C420.442 374.011 420.487 374.077 420.517 374.15C420.548 374.222 420.563 374.3 420.563 374.379L420.638 402.472Z" fill="#99A2CF"/>
<path d="M420.925 384.65V373.312C420.932 373.214 420.92 373.114 420.889 373.02C420.859 372.926 420.809 372.839 420.745 372.764C420.68 372.689 420.601 372.628 420.513 372.583C420.424 372.539 420.328 372.512 420.229 372.505H419.71C419.612 372.512 419.517 372.538 419.43 372.582C419.342 372.626 419.264 372.687 419.201 372.761C419.137 372.836 419.088 372.922 419.058 373.015C419.027 373.107 419.016 373.206 419.023 373.303C419.023 373.303 419.07 384.622 419.07 384.64L420.925 384.65Z" fill="#45366D"/>
<path d="M412.131 288.422C408.307 287.164 404.41 286.139 400.462 285.351C398.236 280.054 398.403 264.282 398.403 264.282C398.403 264.282 387.337 270.683 387.216 272.196C386.706 278.273 384.674 283.626 384.498 285.76C384.377 287.244 375.927 289.266 375.927 289.266C375.491 289.851 374.999 298.312 374.638 300.687L411.853 301.522L412.131 288.422Z" fill="#C97550"/>
<path d="M387.458 271.741C387.532 271.658 387.597 271.565 387.699 271.463L387.875 271.286L388.218 270.971L388.459 270.776C388.598 270.656 388.738 270.535 388.895 270.414L389.174 270.21L389.702 269.811L389.99 269.607L390.639 269.153L390.89 268.976C391.168 268.791 391.437 268.596 391.724 268.42L391.845 268.336C392.513 267.891 393.209 267.408 393.876 267.019L393.988 266.954L394.832 266.425L395.082 266.277L395.741 265.868C395.831 265.821 395.918 265.769 396.001 265.711L396.557 265.377L396.808 265.228L397.225 264.978L397.513 264.811L397.735 264.681L398.014 264.514L398.403 264.44V265.933C398.403 266.11 398.403 266.304 398.403 266.509V267.195C398.403 267.288 398.403 267.39 398.403 267.492C398.403 267.9 398.403 268.327 398.403 268.782V268.949C398.403 270.34 398.505 271.936 398.598 273.587V273.689C398.598 274.33 398.681 274.96 398.728 275.61V275.749L398.811 276.751C395.314 281.39 390.157 286.641 384.192 286.205L384.118 286.261C384.284 286.139 384.399 285.961 384.443 285.76C384.619 283.626 386.651 278.273 387.161 272.196C387.18 272.081 387.228 271.972 387.3 271.88L387.458 271.741Z" fill="#B25F42"/>
<path d="M375.621 363.682L370.056 299.314C370.056 299.314 369.824 294.026 371.809 291.085C372.866 289.517 378.302 287.773 380.983 287.374C380.983 287.374 380.936 295.186 390.917 295.418C390.917 295.418 401.65 299.129 407.679 286.511C407.679 286.511 420.378 287.096 419.803 293.599C419.803 293.599 410.842 311.06 411 327.314C411.195 347.224 413.068 362.921 412.419 363.729C412.382 363.766 398.162 366.465 375.621 363.682Z" fill="#FFC42C"/>
<path d="M384.832 279.117C385.627 279.496 386.536 279.555 387.374 279.284C388.821 278.968 396.446 274.357 398.06 268.475C398.06 268.475 400.267 268.902 401.26 266.156C402.252 263.41 401.139 259.504 398.171 262.018C398.171 262.018 399.238 249.846 393.904 248.983C388.57 248.12 378.367 246.051 377.699 254.698C377.513 259.489 377.823 264.287 378.626 269.013C379.838 272.838 381.969 276.307 384.832 279.117Z" fill="#E58B5E"/>
<path d="M388.283 262.167C388.305 262.374 388.402 262.566 388.557 262.706C388.712 262.845 388.914 262.922 389.122 262.922C389.331 262.922 389.532 262.845 389.687 262.706C389.842 262.566 389.94 262.374 389.962 262.167C389.964 261.943 389.879 261.728 389.725 261.567C389.571 261.405 389.359 261.311 389.136 261.304C389.023 261.301 388.91 261.322 388.804 261.364C388.699 261.407 388.603 261.471 388.524 261.551C388.444 261.632 388.381 261.728 388.34 261.834C388.298 261.94 388.279 262.053 388.283 262.167Z" fill="#312E4E"/>
<path d="M379.971 261.972C379.968 262.139 380.014 262.303 380.103 262.444C380.193 262.585 380.323 262.696 380.475 262.763C380.628 262.83 380.797 262.851 380.962 262.822C381.126 262.793 381.278 262.715 381.399 262.6C381.519 262.485 381.603 262.336 381.639 262.173C381.676 262.01 381.663 261.84 381.602 261.684C381.542 261.529 381.436 261.394 381.3 261.299C381.163 261.203 381.001 261.15 380.834 261.146C380.611 261.144 380.396 261.229 380.234 261.383C380.073 261.537 379.979 261.749 379.971 261.972Z" fill="#312E4E"/>
<path d="M388.552 270.693L381.344 270.526C381.344 270.526 385.036 275.248 388.552 270.693Z" fill="#FCF6D8"/>
<path d="M419.45 298.201C419.45 298.201 422.409 320.235 421.203 373.238L417.307 373.563L411.027 299.899L419.45 298.201Z" fill="#E58B5E"/>
<path d="M419.58 292.987L422.279 308.944C422.279 308.944 417.743 319.697 411.027 317.09L407.957 299.258C407.957 299.258 410.74 290.213 419.58 292.987Z" fill="#FFC42C"/>
<path d="M417.159 371.744C416.303 373.132 415.677 374.648 415.304 376.235C415.304 376.235 414.757 377.673 416.575 379.426C416.986 379.759 417.46 380.007 417.967 380.157C418.475 380.307 419.007 380.355 419.534 380.298C419.534 380.298 422.725 381.848 423.142 379.454C423.594 376.281 422.858 373.052 421.074 370.39L417.159 371.744Z" fill="#E58B5E"/>
<path d="M377.652 258.205C377.83 256.026 378.604 253.938 379.89 252.17C381.176 250.403 382.925 249.024 384.943 248.185C384.943 248.185 388.19 259.587 396.64 260.691C396.64 260.691 395.778 264.059 396.64 264.402C397.503 264.746 398.217 259.263 401.121 261.953C401.121 261.953 403.254 266.444 398.867 268.448C398.867 268.448 398.226 270.479 398.774 275.601C398.774 275.601 405.415 276.834 407.957 275.341C410.499 273.847 411.037 245.959 396.826 242.183C382.615 238.407 371.521 248.825 374.638 271.593C375.412 272.115 376.282 272.478 377.197 272.663C378.113 272.848 379.055 272.85 379.971 272.669C379.971 272.669 376.855 267.019 377.652 258.205Z" fill="#37332F"/>
<path d="M254.013 332.769L300.662 293.952L309.511 298.702L257.297 337.38L254.013 332.769Z" fill="#E58B5E"/>
<path d="M254.013 332.769C251.581 334.249 249.577 336.339 248.201 338.832C246.824 341.325 246.123 344.135 246.166 346.982C246.166 346.982 249.496 350.517 257.297 337.389L254.013 332.769Z" fill="#E58B5E"/>
<path d="M314.864 250.987C314.864 250.987 318.185 239.854 326.978 243.918C339.64 249.846 324.965 282.178 331.885 284.739C332.967 284.941 334.078 284.926 335.154 284.697C336.23 284.468 337.25 284.028 338.156 283.403C338.156 283.403 335.234 289.999 328.379 288.626C316.895 286.335 323.212 264.05 323.88 250.969C323.88 250.969 323.611 246.627 316.413 252.536L314.864 250.987Z" fill="#37332F"/>
<path d="M315.875 255.264C315.875 255.264 318.509 253.529 317.257 252.481C316.004 251.432 314.539 247.944 312.943 251.275L315.875 255.264Z" fill="#E4544A"/>
<path d="M269.281 483.818L272.166 485.302C272.166 485.302 280.227 470.096 283.947 463.602C287.258 457.803 294.92 447.431 294.428 429.952C301.506 419.849 313.908 378.573 313.908 378.573C314.557 376.893 318.054 374.296 318.054 374.296L296.989 362.81C292.471 374.212 287.592 409.551 282.082 427.206C281.42 428.826 281.271 430.61 281.655 432.318C281.655 432.318 282.416 437.588 279.411 449.519C278.279 454.046 269.281 483.818 269.281 483.818Z" fill="#E58B5E"/>
<path d="M294.197 283.273C292.397 283.273 290.18 274.348 290.18 274.348C289.854 273.485 289.408 272.673 288.854 271.936C288.223 271.379 289.243 269.997 289.243 269.997C291.423 266.221 290.282 264.653 290.282 264.653C289.605 255.997 294.225 252.323 294.225 252.323C297.258 249.651 299.623 249.132 303.714 249.002C305.969 248.906 308.204 249.448 310.165 250.566C312.126 251.683 313.732 253.331 314.799 255.32C319.205 262.955 313.157 273.986 312.155 275.73C311.849 280.703 312.6 287.003 317.081 291.502H316.672C317.6 291.827 317.229 291.716 317.229 291.716C319.771 294.319 321.565 297.559 322.423 301.095H291.516C295.866 295.139 300.347 289.359 300.347 289.35C301.525 287.643 302.322 286.223 301.515 281.993" fill="#E58B5E"/>
<path opacity="0.6" d="M309.28 274.617C309.28 274.617 309.706 285.008 301.349 287.661C301.877 286.428 302.054 284.878 301.516 282.039H301.395C303.218 281.545 304.891 280.61 306.266 279.315C307.641 278.02 308.676 276.407 309.28 274.617Z" fill="#C97550"/>
<path d="M353.322 447.747C349.843 442.041 345.901 433.83 332.831 426.519C332.525 420.174 330.447 399.234 329.918 393.955H309.595C312.442 400.969 316.867 419.84 321.384 431.938C321.847 433.622 322.819 435.122 324.167 436.233C324.167 436.233 328.499 437.866 337.497 446.253C340.91 449.444 363.85 472.815 363.85 472.815L366.54 470.959C366.54 470.959 357.218 454.13 353.322 447.747Z" fill="#E58B5E"/>
<path d="M365.826 469.085L362.691 471.182C362.691 471.182 361.717 482.315 357.348 489.384L358.405 491.082L372.365 477.314L365.826 469.085Z" fill="#37332F"/>
<path d="M295.171 361.558C295.171 361.558 292.193 378.712 280.858 424.052C280.858 424.052 278.854 426.427 288.037 425.712C297.221 424.998 306.255 444.722 322.423 447.19C338.591 449.658 354.648 445.956 358.961 439.044C358.961 439.044 345.752 420.489 343.035 409.18C340.317 397.87 333.889 359.572 324.399 352.419L295.171 361.558Z" fill="#FFC42C"/>
<path d="M283.418 313.583C283.771 311.978 289.911 303.294 294.048 297.7C302.165 293.627 302.211 294.082 309.28 290.194C310.981 289.228 312.89 288.687 314.845 288.617C315.474 289.664 316.224 290.632 317.081 291.502H316.672C317.6 291.827 317.229 291.716 317.229 291.716C318.954 293.979 327.266 300.418 320.81 324.262C320.485 326.525 319.604 329.578 319.279 331.025C318.478 334.116 318.601 337.374 319.632 340.395C320.559 343.104 328.147 353.31 326.82 354.562C325.494 355.815 309.864 366.976 294.048 365.25C294.048 365.25 289.559 339.802 290.718 327.017C290.417 326.271 290.067 325.546 289.67 324.846C282.713 321.005 282.741 316.737 283.418 313.583Z" fill="#C63F3C"/>
<path d="M273.381 483.029L270.033 481.294C270.033 481.294 259.764 485.775 251.481 485.302L250.507 487.074L269.281 492.743L273.381 483.029Z" fill="#37332F"/>
<path d="M294.976 266.406C294.976 266.603 294.918 266.795 294.809 266.958C294.699 267.121 294.544 267.248 294.363 267.324C294.182 267.399 293.982 267.418 293.79 267.38C293.597 267.342 293.42 267.247 293.281 267.108C293.143 266.97 293.048 266.793 293.01 266.6C292.971 266.408 292.991 266.208 293.066 266.027C293.141 265.845 293.269 265.69 293.432 265.581C293.595 265.472 293.787 265.414 293.983 265.414C294.247 265.414 294.499 265.518 294.685 265.705C294.871 265.891 294.976 266.143 294.976 266.406Z" fill="#312E4E"/>
<path d="M312.09 277.549C312.09 277.549 307.888 274.617 307.452 271.147C307.151 270.792 306.986 270.342 306.986 269.876C306.986 269.411 307.151 268.96 307.452 268.605C308.519 267.269 309.715 264.421 308.25 264.041C306.784 263.66 305.819 265.414 305.031 265.21C305.031 265.21 300.912 264.866 296.376 258.465C296.083 259.239 296.083 260.094 296.376 260.868C296.905 261.795 291.173 263.271 289.169 260.599C287.165 257.927 290.097 253.39 292.963 251.525C292.963 251.525 303.25 241.116 313.778 250.987C313.778 250.987 323.453 258.483 313.5 275.109C313.457 275.594 313.309 276.064 313.066 276.485C312.822 276.907 312.489 277.27 312.09 277.549Z" fill="#37332F"/>
<path d="M245.953 328.427C245.081 328.297 242.762 327.926 240.387 324.716L239.227 325.384L238.077 326.052C239.663 329.763 238.912 331.962 238.587 332.788C237.966 333.975 237.762 334.541 238.207 335.32L249.44 354.729C249.557 354.931 249.713 355.108 249.899 355.25C250.085 355.392 250.296 355.495 250.522 355.555C250.748 355.614 250.984 355.629 251.215 355.597C251.446 355.565 251.669 355.488 251.871 355.369L258.939 351.287C259.347 351.049 259.645 350.658 259.767 350.201C259.888 349.744 259.824 349.257 259.588 348.847L248.318 329.439C247.873 328.659 247.344 328.427 245.953 328.427Z" fill="#37332F"/>
<path d="M240.075 323.391L237.041 325.148L238.129 327.027L241.163 325.27L240.075 323.391Z" fill="#FCF6D8"/>
<path d="M249.248 332.786L240.771 337.694L246.235 347.137L254.713 342.229L249.248 332.786Z" fill="#FCF6D8"/>
<path d="M252.919 337.38C252.919 337.38 250.739 342.947 252.251 343.633C253.763 344.32 255.674 340.033 256.49 338.707" fill="#EB808B"/>
<path d="M305.309 394.716C305.309 394.716 310.253 386.143 312.424 385.002C314.594 383.861 323.954 394.716 323.954 394.716L323.128 408.632L306.107 401.572L305.309 394.716Z" fill="#605D5B"/>
<path d="M309.409 412.436C309.409 412.436 320.281 390.541 326.106 391.042C331.931 391.543 336.467 395.217 336.133 406.415C335.799 417.613 333.953 421.259 333.953 421.259H310.763L309.409 412.436Z" fill="#8CC63E"/>
<path d="M302.063 414.551C302.063 414.551 298.213 412.696 298.306 410.71C298.399 408.725 297.879 395.133 301.562 392.795C305.244 390.457 317.776 397.972 319.696 400.653C321.616 403.335 312.044 413.818 309.641 414.57C307.239 415.321 302.063 414.551 302.063 414.551Z" fill="#37332F"/>
<path d="M306.45 409.569C306.45 409.569 299.614 412.269 299.614 413.781C299.614 415.293 300.541 420.276 301.061 420.684C301.58 421.092 316.505 421.741 316.431 420.684C316.357 419.626 313.908 409.885 306.45 409.569Z" fill="#8CC63E"/>
<path d="M296.766 399.373C296.633 399.372 296.502 399.399 296.381 399.453C296.26 399.507 296.151 399.587 296.064 399.686C295.976 399.785 295.91 399.902 295.871 400.029C295.832 400.156 295.821 400.29 295.838 400.421L297.953 420.999C297.992 421.285 298.131 421.548 298.345 421.741C298.559 421.935 298.834 422.046 299.122 422.057H335.651C335.939 422.048 336.214 421.936 336.426 421.742C336.639 421.549 336.775 421.285 336.81 420.999L338.925 400.421C338.943 400.29 338.931 400.156 338.893 400.029C338.854 399.902 338.788 399.785 338.7 399.686C338.612 399.587 338.504 399.507 338.383 399.453C338.262 399.399 338.13 399.372 337.998 399.373H296.766ZM302.22 420.09C301.933 420.082 301.658 419.972 301.444 419.78C301.23 419.588 301.091 419.326 301.052 419.042L299.326 402.945C299.308 402.813 299.318 402.678 299.356 402.55C299.394 402.422 299.459 402.304 299.547 402.203C299.635 402.103 299.744 402.023 299.866 401.968C299.988 401.914 300.12 401.886 300.254 401.887H302.22C302.508 401.895 302.782 402.006 302.994 402.2C303.205 402.395 303.339 402.659 303.371 402.945L304.706 419.042C304.724 419.177 304.712 419.315 304.671 419.445C304.629 419.576 304.559 419.695 304.466 419.795C304.373 419.896 304.259 419.974 304.132 420.025C304.005 420.076 303.869 420.098 303.732 420.09H302.22ZM309.409 420.09C309.124 420.086 308.85 419.975 308.642 419.78C308.435 419.584 308.308 419.317 308.287 419.032L307.359 402.945C307.352 402.809 307.372 402.672 307.419 402.544C307.466 402.416 307.538 402.299 307.632 402.2C307.726 402.101 307.839 402.022 307.964 401.969C308.09 401.915 308.225 401.887 308.361 401.887H310.318C310.602 401.889 310.873 402 311.077 402.197C311.281 402.394 311.401 402.662 311.413 402.945L311.988 419.032C311.994 419.17 311.972 419.307 311.924 419.436C311.875 419.565 311.801 419.682 311.705 419.781C311.61 419.88 311.495 419.958 311.368 420.012C311.241 420.065 311.105 420.091 310.968 420.09H309.409ZM319.195 419.032C319.191 419.307 319.082 419.569 318.89 419.766C318.699 419.962 318.44 420.078 318.166 420.09H316.644C316.362 420.09 316.091 419.979 315.89 419.781C315.689 419.584 315.573 419.315 315.568 419.032L315.374 402.945C315.374 402.666 315.484 402.398 315.68 402.2C315.876 402.002 316.143 401.89 316.422 401.887H318.388C318.526 401.889 318.662 401.917 318.789 401.971C318.915 402.024 319.03 402.103 319.127 402.201C319.223 402.299 319.299 402.415 319.351 402.543C319.403 402.671 319.428 402.807 319.427 402.945L319.195 419.032ZM326.431 419.032C326.41 419.317 326.283 419.584 326.075 419.78C325.867 419.975 325.594 420.086 325.308 420.09H323.778C323.641 420.09 323.506 420.063 323.38 420.009C323.254 419.955 323.14 419.876 323.046 419.778C322.951 419.679 322.878 419.562 322.83 419.434C322.782 419.306 322.76 419.169 322.767 419.032L323.332 402.945C323.349 402.663 323.47 402.398 323.673 402.202C323.876 402.006 324.145 401.894 324.427 401.887H326.393C326.53 401.886 326.665 401.912 326.791 401.966C326.916 402.019 327.029 402.098 327.122 402.198C327.216 402.297 327.287 402.415 327.333 402.544C327.378 402.672 327.396 402.809 327.386 402.945L326.431 419.032ZM333.666 419.032C333.626 419.319 333.486 419.581 333.27 419.774C333.054 419.966 332.777 420.075 332.488 420.081H330.967C330.834 420.082 330.703 420.054 330.581 420.001C330.46 419.947 330.352 419.867 330.264 419.768C330.176 419.668 330.111 419.551 330.072 419.425C330.033 419.298 330.022 419.164 330.039 419.032L331.375 402.936C331.404 402.649 331.537 402.384 331.749 402.189C331.961 401.994 332.237 401.883 332.525 401.878H334.482C334.616 401.877 334.748 401.904 334.87 401.959C334.992 402.013 335.101 402.094 335.189 402.194C335.277 402.294 335.342 402.413 335.38 402.541C335.418 402.669 335.428 402.803 335.41 402.936L333.666 419.032Z" fill="#186D1E"/>
<path d="M294.447 396.107H340.271C340.368 396.107 340.464 396.127 340.554 396.164C340.645 396.201 340.726 396.256 340.795 396.325C340.864 396.394 340.919 396.476 340.956 396.566C340.993 396.656 341.013 396.752 341.013 396.85V399.28C341.013 399.48 340.933 399.671 340.793 399.812C340.652 399.953 340.461 400.032 340.261 400.032H294.438C294.341 400.032 294.244 400.013 294.154 399.975C294.064 399.938 293.982 399.883 293.913 399.814C293.844 399.745 293.79 399.664 293.752 399.574C293.715 399.484 293.696 399.387 293.696 399.29V396.859C293.695 396.76 293.713 396.662 293.751 396.57C293.788 396.478 293.843 396.395 293.913 396.325C293.983 396.255 294.066 396.199 294.158 396.162C294.25 396.125 294.348 396.106 294.447 396.107Z" fill="#186D1E"/>
<path d="M319.094 397.527C319.23 397.868 319.226 398.249 319.081 398.586C318.937 398.924 318.664 399.19 318.324 399.327C317.983 399.463 317.602 399.459 317.264 399.314C316.927 399.17 316.661 398.897 316.524 398.557C316.388 398.216 316.392 397.835 316.536 397.497C316.681 397.16 316.953 396.893 317.294 396.757C317.635 396.62 318.016 396.625 318.353 396.769C318.691 396.913 318.957 397.186 319.094 397.527Z" fill="#37332F"/>
<path d="M318.695 397.694C318.788 397.928 318.785 398.189 318.686 398.42C318.587 398.652 318.4 398.834 318.166 398.928C317.932 399.021 317.671 399.018 317.439 398.919C317.208 398.82 317.026 398.633 316.932 398.399C316.886 398.283 316.863 398.159 316.864 398.035C316.866 397.91 316.892 397.787 316.941 397.672C316.99 397.558 317.061 397.454 317.15 397.367C317.24 397.28 317.345 397.211 317.461 397.165C317.577 397.119 317.7 397.096 317.825 397.097C317.95 397.099 318.073 397.125 318.187 397.174C318.302 397.223 318.406 397.294 318.493 397.383C318.58 397.473 318.648 397.578 318.695 397.694Z" fill="#FCF6D8"/>
<path d="M318.342 398.009C318.342 398.159 318.282 398.303 318.176 398.409C318.07 398.516 317.926 398.575 317.776 398.575C317.629 398.575 317.487 398.517 317.383 398.412C317.278 398.308 317.22 398.166 317.22 398.019L317.146 371.911C317.148 371.764 317.207 371.622 317.311 371.517C317.414 371.412 317.554 371.35 317.702 371.345C317.852 371.345 317.996 371.405 318.102 371.511C318.208 371.617 318.268 371.761 318.268 371.911L318.342 398.009Z" fill="#99A2CF"/>
<path d="M318.602 381.486V370.947C318.608 370.855 318.596 370.763 318.567 370.676C318.537 370.59 318.491 370.509 318.431 370.441C318.371 370.372 318.297 370.315 318.215 370.275C318.133 370.234 318.044 370.21 317.952 370.204H317.47C317.286 370.221 317.116 370.309 316.996 370.449C316.877 370.59 316.817 370.772 316.83 370.956C316.83 370.956 316.83 381.467 316.876 381.486H318.602Z" fill="#37332F"/>
<path d="M319.817 301.151C319.817 301.151 319.984 321.627 318.889 370.882L315.272 371.188L309.437 302.728C309.437 302.728 308.101 296.355 312.971 295.306C319.715 293.905 319.817 301.151 319.817 301.151Z" fill="#E58B5E"/>
<path d="M315.105 369.49C314.325 370.784 313.755 372.193 313.417 373.665C313.417 373.665 312.906 375.001 314.595 376.634C314.981 376.948 315.426 377.182 315.904 377.32C316.382 377.459 316.883 377.5 317.377 377.441C317.377 377.441 320.346 378.879 320.735 376.661C321.149 373.712 320.463 370.713 318.806 368.237L315.105 369.49Z" fill="#E58B5E"/>
<defs>
<linearGradient id="paint0_linear" x1="235" y1="65" x2="713.5" y2="476.5" gradientUnits="userSpaceOnUse">
<stop stop-color="#37AA3F"/>
<stop offset="1" stop-color="#8CC63E"/>
</linearGradient>
</defs>
</svg>
