<svg width="32" height="32" viewBox="0 0 32 32" fill="none" xmlns="http://www.w3.org/2000/svg">
<path d="M9.33398 24.0003C7.86732 24.0003 6.68065 25.2003 6.68065 26.667C6.68065 28.1337 7.86732 29.3337 9.33398 29.3337C10.8007 29.3337 12.0007 28.1337 12.0007 26.667C12.0007 25.2003 10.8007 24.0003 9.33398 24.0003ZM1.33398 2.66699V5.33366H4.00065L8.80065 15.4537L7.00065 18.7203C6.78732 19.0937 6.66732 19.5337 6.66732 20.0003C6.66732 21.467 7.86732 22.667 9.33398 22.667H25.334V20.0003H9.89398C9.70732 20.0003 9.56065 19.8537 9.56065 19.667L9.60065 19.507L10.8007 17.3337H20.734C21.734 17.3337 22.614 16.787 23.0673 15.9603L27.8406 7.30699C27.9473 7.12033 28.0006 6.89366 28.0006 6.66699C28.0006 5.93366 27.4006 5.33366 26.6673 5.33366H6.94732L5.69398 2.66699H1.33398ZM22.6673 24.0003C21.2006 24.0003 20.014 25.2003 20.014 26.667C20.014 28.1337 21.2006 29.3337 22.6673 29.3337C24.134 29.3337 25.334 28.1337 25.334 26.667C25.334 25.2003 24.134 24.0003 22.6673 24.0003Z" fill="#C63F3C"/>
</svg>
