<svg width="323" height="250" viewBox="0 0 323 250" fill="none" xmlns="http://www.w3.org/2000/svg">
<path fill-rule="evenodd" clip-rule="evenodd" d="M318.563 109.825C329.159 134.925 327.922 227.154 175.408 238.131C73.8674 245.463 7.85021 192.665 0.583689 116.158C-5.53518 52.1329 38.0461 18.0242 79.0288 14.7894C131.506 10.6269 160.263 55.9326 201.026 68.7888C257.207 86.5032 299.926 65.6848 318.563 109.819V109.825ZM247.764 3.45548C214.893 -4.28081 186.225 1.40991 183.793 16.163C181.361 30.916 206.068 49.1716 238.94 56.9138C271.812 64.656 300.479 58.9534 302.912 44.2063C305.344 29.4592 280.66 11.1977 247.764 3.45548Z" fill="#CDE6FF"/>
<path fill-rule="evenodd" clip-rule="evenodd" d="M213.096 72.0891C243.958 79.2962 270.182 76.4419 289.847 82.6678H2.15894C2.90533 79.0871 3.86642 75.5544 5.037 72.0891H213.096Z" fill="#9FCFFF"/>
<path fill-rule="evenodd" clip-rule="evenodd" d="M186.296 10.5138C194.33 0.0837918 219.489 -3.19863 247.764 3.45541C255.176 5.1884 262.427 7.54974 269.439 10.5138H186.296Z" fill="#9FCFFF"/>
<path fill-rule="evenodd" clip-rule="evenodd" d="M300.634 151.634H8.75377C7.43366 148.177 6.25825 144.649 5.22754 141.05H300.634V151.634Z" fill="#9FCFFF"/>
<path fill-rule="evenodd" clip-rule="evenodd" d="M276.027 210.034C261.322 219.299 242.287 227.118 217.818 232.321H103.92C85.2306 227.41 68.7233 219.834 54.6838 210.034H276.027Z" fill="#9FCFFF"/>
<path fill-rule="evenodd" clip-rule="evenodd" d="M73.7836 22.264V72.0891H21.7346V43.136C29.6473 34.2619 39.3375 27.1508 50.1763 22.264H73.7836Z" fill="#B1D9FF"/>
<path fill-rule="evenodd" clip-rule="evenodd" d="M53.6311 22.264V35.7802H41.887V26.5752C44.5709 24.9908 47.338 23.5517 50.1763 22.264H53.6311Z" fill="#9FCFFF"/>
<path fill-rule="evenodd" clip-rule="evenodd" d="M120.986 22.264C128.343 25.5938 135.425 29.4988 142.168 33.9428V72.0891H90.1125V22.264H120.986Z" fill="#B1D9FF"/>
<path fill-rule="evenodd" clip-rule="evenodd" d="M120.986 22.264L122.009 22.7219V35.804H110.271V22.264H120.986Z" fill="#9FCFFF"/>
<path fill-rule="evenodd" clip-rule="evenodd" d="M158.496 45.0626C172.239 54.6542 185.796 63.9841 201.025 68.7888C204.242 69.8056 207.418 70.6917 210.539 71.4766V72.0712H158.496V45.0626ZM184.232 22.27H210.545V46.7276C196.506 39.5919 186.7 30.6722 184.232 22.27V22.27Z" fill="#B1D9FF"/>
<path fill-rule="evenodd" clip-rule="evenodd" d="M184.233 22.264H190.393V32.3373C187.301 28.9954 185.208 25.5702 184.233 22.264Z" fill="#9FCFFF"/>
<path fill-rule="evenodd" clip-rule="evenodd" d="M226.88 53.5184V22.264H278.929V59.5719C267.821 61.1655 253.812 60.4103 238.94 56.9138C234.777 55.9327 230.746 54.7791 226.88 53.5184Z" fill="#B1D9FF"/>
<path d="M258.777 22.264H247.033V35.7743H258.777V22.264Z" fill="#9FCFFF"/>
<path d="M73.7836 91.2425H21.7346V141.062H73.7836V91.2425Z" fill="#B1D9FF"/>
<path d="M53.6311 91.2425H41.887V104.753H53.6311V91.2425Z" fill="#9FCFFF"/>
<path d="M142.162 91.2425H90.1125V141.062H142.162V91.2425Z" fill="#B1D9FF"/>
<path d="M122.015 91.2425H110.271V104.753H122.015V91.2425Z" fill="#9FCFFF"/>
<path d="M210.545 91.2425H158.496V141.062H210.545V91.2425Z" fill="#B1D9FF"/>
<path d="M190.399 91.2425H178.655V104.753H190.399V91.2425Z" fill="#9FCFFF"/>
<path d="M278.929 91.2425H226.88V141.062H278.929V91.2425Z" fill="#B1D9FF"/>
<path d="M258.777 91.2425H247.033V104.753H258.777V91.2425Z" fill="#9FCFFF"/>
<path fill-rule="evenodd" clip-rule="evenodd" d="M73.7839 210.034H54.6959C41.7422 201.074 30.5689 189.782 21.7468 176.734V160.215H73.7839V210.034Z" fill="#B1D9FF"/>
<path d="M53.6311 160.215H41.887V173.725H53.6311V160.215Z" fill="#9FCFFF"/>
<path d="M142.162 160.215H90.1125V210.034H142.162V160.215Z" fill="#B1D9FF"/>
<path d="M122.015 160.215H110.271V173.725H122.015V160.215Z" fill="#9FCFFF"/>
<path d="M210.545 160.215H158.496V210.034H210.545V160.215Z" fill="#B1D9FF"/>
<path d="M190.399 160.215H178.655V173.725H190.399V160.215Z" fill="#9FCFFF"/>
<path d="M278.929 160.215H226.88V210.034H278.929V160.215Z" fill="#B1D9FF"/>
<path d="M258.777 160.215H247.033V173.725H258.777V160.215Z" fill="#9FCFFF"/>
<path fill-rule="evenodd" clip-rule="evenodd" d="M293.236 83.8451C297.514 85.4785 301.5 87.7916 305.04 90.6954V183.709C301.507 188.445 297.552 192.852 293.224 196.875V83.8451H293.236ZM293.236 24.9756C300.241 31.3145 303.94 38.0577 302.911 44.1885C302.132 48.9099 298.665 52.7037 293.236 55.4272V24.9756Z" fill="#B1D9FF"/>
<path fill-rule="evenodd" clip-rule="evenodd" d="M7.42765 65.8037V148.013C3.8766 137.708 1.57863 127.012 0.583323 116.158C-1.30169 96.5586 1.48718 79.7659 7.42765 65.8037Z" fill="#B1D9FF"/>
<path fill-rule="evenodd" clip-rule="evenodd" d="M218.323 235.021L209.665 236.805C209.221 236.9 208.813 237.117 208.486 237.433C208.159 237.748 207.927 238.148 207.816 238.589V238.589C207.627 239.293 207.725 240.043 208.088 240.675C208.451 241.307 209.051 241.77 209.755 241.96L227.879 246.813C228.389 246.949 228.932 246.879 229.39 246.616C229.844 246.358 230.178 245.931 230.317 245.427L232.101 238.737L218.317 235.045L218.323 235.021Z" fill="url(#paint0_linear)"/>
<path fill-rule="evenodd" clip-rule="evenodd" d="M285.578 239.005L278.989 244.898C278.653 245.204 278.408 245.597 278.283 246.034C278.158 246.471 278.158 246.934 278.281 247.372V247.372C278.472 248.076 278.934 248.675 279.566 249.04C280.198 249.404 280.948 249.503 281.653 249.316L299.778 244.458C300.279 244.315 300.706 243.982 300.967 243.53C301.229 243.074 301.299 242.533 301.163 242.026L299.379 235.336L285.589 239.029L285.578 239.005Z" fill="url(#paint1_linear)"/>
<path fill-rule="evenodd" clip-rule="evenodd" d="M236.983 81.1341C236.983 79.7602 237.416 78.4211 238.219 77.3068C239.023 76.1924 240.157 75.3595 241.461 74.9261L254.46 70.5911H268.41L285.869 75.4434V141.348H236.983V81.1341Z" fill="url(#paint2_linear)"/>
<path fill-rule="evenodd" clip-rule="evenodd" d="M251.272 71.6431L254.46 70.5847H268.41L272.133 71.6193C266.715 78.6361 251.629 81.0147 251.272 71.6431Z" fill="url(#paint3_linear)"/>
<path fill-rule="evenodd" clip-rule="evenodd" d="M270.301 94.513L272.347 71.6788L280.255 73.8789L278.085 96.6062L285.869 109.879V184.934L299.367 235.294L285.577 238.987L266.448 191.297C266.051 190.569 265.742 189.796 265.526 188.996C265.289 188.115 265.169 187.208 265.169 186.296L261.239 153.591H257.843L245.849 187.432L232.107 238.714L218.323 235.021L225.608 184.143C225.628 183.311 225.748 182.485 225.965 181.682C226.036 181.42 226.113 181.158 226.202 180.903L236.983 139.932V103.522L241.616 99.4842V74.8661L249.524 72.2318V94.513H270.301Z" fill="url(#paint4_linear)"/>
<path fill-rule="evenodd" clip-rule="evenodd" d="M268.339 55.6353C268.339 55.6353 271.597 53.7206 272.222 47.5125H261.934V55.6353H268.339Z" fill="url(#paint5_linear)"/>
<path fill-rule="evenodd" clip-rule="evenodd" d="M261.691 44.2479L246.123 47.5125C246.123 47.5125 246.397 55.2429 246.617 61.4806C246.652 62.4424 246.887 63.3864 247.307 64.2524C247.727 65.1184 248.322 65.8877 249.055 66.5112C249.789 67.1348 250.643 67.599 251.566 67.8744C252.488 68.1498 253.457 68.2303 254.412 68.1109V68.1109V72.1664C255.786 75.9185 263.641 75.312 268.41 70.5846L268.339 55.6353L264.557 53.8098L261.691 44.2479Z" fill="url(#paint6_linear)"/>
<path fill-rule="evenodd" clip-rule="evenodd" d="M254.156 32.7654H261.738C263.115 32.7647 264.479 33.0353 265.751 33.5619C267.023 34.0884 268.179 34.8606 269.153 35.8343C270.127 36.8079 270.899 37.9639 271.425 39.2362C271.952 40.5085 272.223 41.872 272.222 43.249V47.5126H254.156V32.7654Z" fill="url(#paint7_linear)"/>
<path fill-rule="evenodd" clip-rule="evenodd" d="M264.069 41.3759C264.069 39.0922 263.162 36.9021 261.547 35.2874C259.933 33.6726 257.742 32.7654 255.459 32.7654H252.854C251.724 32.7654 250.604 32.9882 249.559 33.4209C248.515 33.8536 247.565 34.4878 246.766 35.2874C245.966 36.0869 245.332 37.0361 244.899 38.0808C244.467 39.1255 244.244 40.2451 244.244 41.3759V47.5126H264.069V41.3759Z" fill="url(#paint8_linear)"/>
<path fill-rule="evenodd" clip-rule="evenodd" d="M264.069 47.5125C261.531 44.9689 258.088 43.536 254.495 43.5284H243.274C242.217 43.5284 241.203 43.948 240.455 44.695C239.707 45.442 239.286 46.4554 239.284 47.5125H264.069Z" fill="url(#paint9_linear)"/>
<path fill-rule="evenodd" clip-rule="evenodd" d="M267.756 51.8772C268.554 51.8772 269.334 52.114 269.997 52.5575C270.66 53.001 271.177 53.6314 271.482 54.3688C271.787 55.1062 271.866 55.9174 271.709 56.6998C271.553 57.4822 271.167 58.2005 270.602 58.7639C270.037 59.3273 269.318 59.7103 268.535 59.8645C267.752 60.0187 266.941 59.9372 266.205 59.6302C265.468 59.3233 264.839 58.8047 264.398 58.1401C263.956 57.4755 263.722 56.6949 263.724 55.897C263.727 54.8298 264.153 53.8074 264.909 53.0538C265.665 52.3003 266.689 51.8772 267.756 51.8772V51.8772Z" fill="url(#paint10_linear)"/>
<path fill-rule="evenodd" clip-rule="evenodd" d="M254.412 68.1109C254.412 68.1109 258.741 67.2844 261.191 65.7324C261.191 65.7324 260.483 71.0187 254.412 72.1783V68.1109Z" fill="url(#paint11_linear)"/>
<path fill-rule="evenodd" clip-rule="evenodd" d="M220.601 72.2199L170.288 63.3538L160.774 117.211L211.122 126.065L220.601 72.2199Z" fill="url(#paint12_linear)"/>
<path fill-rule="evenodd" clip-rule="evenodd" d="M201.138 68.7889L189.787 66.7849L187.212 81.3953L198.564 83.3933L201.138 68.7889Z" fill="url(#paint13_linear)"/>
<path fill-rule="evenodd" clip-rule="evenodd" d="M266.388 80.2773L220.601 72.214L211.086 126.065L256.874 134.146L266.388 80.2773Z" fill="url(#paint14_linear)"/>
<path fill-rule="evenodd" clip-rule="evenodd" d="M208.607 107.886C208.637 107.716 208.633 107.542 208.595 107.373C208.558 107.204 208.487 107.045 208.388 106.903C208.288 106.762 208.162 106.641 208.016 106.549C207.87 106.456 207.707 106.394 207.537 106.364L197.172 104.539C197.002 104.508 196.828 104.511 196.659 104.548C196.491 104.585 196.331 104.655 196.189 104.754C196.048 104.853 195.927 104.979 195.835 105.124C195.742 105.27 195.679 105.433 195.65 105.603L193.842 115.956C193.782 116.3 193.86 116.655 194.061 116.941C194.262 117.228 194.568 117.423 194.913 117.484L205.277 119.31C205.621 119.369 205.974 119.29 206.26 119.091C206.546 118.892 206.742 118.588 206.805 118.245L208.607 107.886Z" fill="url(#paint15_linear)"/>
<path fill-rule="evenodd" clip-rule="evenodd" d="M261.506 85.3377C261.525 85.2196 261.498 85.0987 261.429 85.0009C261.36 84.9031 261.255 84.8362 261.138 84.8144L249.066 82.6856C249.008 82.6754 248.949 82.6769 248.891 82.6899C248.833 82.703 248.779 82.7274 248.731 82.7617C248.682 82.796 248.642 82.8395 248.61 82.8898C248.579 82.94 248.558 82.9959 248.549 83.0543L248.389 83.9403C248.378 83.9985 248.38 84.0582 248.393 84.1158C248.406 84.1735 248.43 84.2279 248.465 84.2761C248.499 84.3242 248.542 84.3651 248.593 84.3962C248.643 84.4274 248.699 84.4483 248.757 84.4576L260.828 86.5864C260.886 86.5975 260.946 86.5969 261.003 86.5845C261.061 86.5722 261.116 86.5484 261.164 86.5146C261.212 86.4807 261.253 86.4376 261.284 86.3876C261.316 86.3376 261.336 86.2819 261.346 86.2237L261.506 85.3377Z" fill="url(#paint16_linear)"/>
<path fill-rule="evenodd" clip-rule="evenodd" d="M260.846 89.078C260.857 89.0193 260.857 88.959 260.844 88.9007C260.831 88.8424 260.807 88.7872 260.773 88.7384C260.738 88.6896 260.694 88.6482 260.644 88.6166C260.593 88.5851 260.537 88.564 260.478 88.5547L252.468 87.1395C252.35 87.1205 252.23 87.1485 252.133 87.2176C252.037 87.2866 251.971 87.391 251.951 87.5081L251.79 88.3942C251.78 88.4527 251.781 88.5128 251.794 88.5708C251.807 88.6288 251.831 88.6837 251.866 88.7323C251.9 88.7809 251.943 88.8223 251.994 88.8541C252.044 88.8858 252.1 88.9074 252.159 88.9174L260.168 90.3267C260.286 90.346 260.406 90.3189 260.503 90.2512C260.601 90.1835 260.669 90.0805 260.692 89.964L260.846 89.078Z" fill="url(#paint17_linear)"/>
<path fill-rule="evenodd" clip-rule="evenodd" d="M205.735 110.235C205.745 110.165 205.728 110.094 205.687 110.036C205.646 109.979 205.584 109.939 205.515 109.926L197.862 108.576C197.827 108.569 197.791 108.569 197.757 108.577C197.722 108.584 197.689 108.597 197.66 108.617C197.63 108.637 197.605 108.663 197.586 108.693C197.566 108.722 197.553 108.755 197.547 108.79L197.327 110.033C197.315 110.104 197.331 110.177 197.372 110.236C197.413 110.295 197.476 110.335 197.547 110.348L205.2 111.698C205.271 111.71 205.343 111.694 205.402 111.653C205.461 111.612 205.502 111.549 205.515 111.478L205.735 110.235Z" fill="url(#paint18_linear)"/>
<path fill-rule="evenodd" clip-rule="evenodd" d="M205.099 113.827C205.111 113.756 205.094 113.683 205.053 113.624C205.012 113.565 204.949 113.525 204.879 113.512L197.225 112.162C197.155 112.15 197.082 112.166 197.023 112.207C196.964 112.249 196.923 112.311 196.91 112.382L196.696 113.625C196.689 113.66 196.69 113.696 196.697 113.73C196.705 113.765 196.719 113.798 196.74 113.827C196.76 113.856 196.787 113.88 196.817 113.899C196.847 113.917 196.881 113.929 196.916 113.934L204.546 115.284C204.58 115.291 204.616 115.29 204.651 115.283C204.686 115.275 204.718 115.261 204.747 115.24C204.776 115.22 204.801 115.193 204.819 115.163C204.838 115.133 204.85 115.099 204.855 115.064L205.099 113.827Z" fill="url(#paint19_linear)"/>
<path fill-rule="evenodd" clip-rule="evenodd" d="M222.385 96.7371L223.015 92.533C223.058 92.2502 223.194 91.9899 223.402 91.7937C223.61 91.5975 223.878 91.4768 224.163 91.4507L224.835 91.3853C225.106 91.3608 225.379 91.4238 225.612 91.565C225.845 91.7062 226.027 91.9183 226.131 92.1702L228.647 97.9264L229.491 98.0869L226.072 110.854L219.685 109.48C219.432 109.428 219.187 109.338 218.96 109.213C217.89 108.618 214.619 106.894 212.942 106.002C212.647 105.845 212.409 105.599 212.261 105.299C212.114 104.999 212.065 104.66 212.121 104.331L213.382 96.9274C213.419 96.6892 213.504 96.461 213.632 96.2566C213.76 96.0522 213.928 95.8758 214.125 95.7381C214.32 95.6022 214.539 95.5065 214.771 95.4565C215.003 95.4064 215.242 95.4031 215.475 95.4467L222.385 96.7371Z" fill="url(#paint20_linear)"/>
<path fill-rule="evenodd" clip-rule="evenodd" d="M275.79 79.8611C276.388 78.792 277.192 77.8523 278.156 77.0966C279.12 76.341 280.225 75.7844 281.406 75.4593C282.587 75.1342 283.821 75.047 285.036 75.2028C286.251 75.3586 287.423 75.7543 288.484 76.3668C289.545 76.9794 290.473 77.7966 291.216 78.771C291.958 79.7455 292.499 80.8577 292.808 82.0431C293.117 83.2285 293.187 84.4635 293.015 85.6763C292.842 86.889 292.431 88.0555 291.803 89.1078L275.582 117.211C274.633 118.922 273.14 120.267 271.34 121.032C269.54 121.797 267.535 121.938 265.645 121.433V121.433L226.072 110.83L229.521 98.0631L263.154 103.415L275.558 80.3785C275.641 80.212 275.724 80.0514 275.82 79.8849L275.79 79.8611Z" fill="url(#paint21_linear)"/>
<path d="M86.9729 63.5559H35.8872V118.245H86.9729V63.5559Z" fill="url(#paint22_linear)"/>
<path d="M67.189 63.5559H55.6648V78.3863H67.189V63.5559Z" fill="url(#paint23_linear)"/>
<path d="M133.438 63.5559H86.9729V118.245H133.438V63.5559Z" fill="url(#paint24_linear)"/>
<path fill-rule="evenodd" clip-rule="evenodd" d="M81.3357 100.769C81.3365 100.596 81.3031 100.424 81.2374 100.264C81.1717 100.104 81.075 99.9582 80.9529 99.8355C80.8308 99.7128 80.6857 99.6155 80.5258 99.5491C80.366 99.4827 80.1946 99.4485 80.0216 99.4485H69.4964C69.3228 99.4477 69.1508 99.4813 68.9903 99.5474C68.8298 99.6134 68.6839 99.7106 68.5612 99.8334C68.4384 99.9561 68.3412 100.102 68.2752 100.262C68.2091 100.423 68.1755 100.595 68.1763 100.769V111.294C68.1763 111.467 68.2105 111.638 68.2769 111.798C68.3433 111.958 68.4406 112.103 68.5633 112.225C68.686 112.347 68.8315 112.444 68.9917 112.51C69.1518 112.575 69.3233 112.609 69.4964 112.608H80.0216C80.1941 112.608 80.365 112.574 80.5245 112.508C80.6839 112.442 80.8288 112.345 80.9508 112.223C81.0728 112.101 81.1696 111.956 81.2357 111.797C81.3017 111.637 81.3357 111.466 81.3357 111.294V100.769Z" fill="url(#paint25_linear)"/>
<path fill-rule="evenodd" clip-rule="evenodd" d="M129.513 69.3715C129.513 69.2516 129.466 69.1367 129.381 69.0519C129.296 68.9672 129.181 68.9196 129.061 68.9196H116.806C116.686 68.9196 116.571 68.9672 116.486 69.0519C116.402 69.1367 116.354 69.2516 116.354 69.3715V70.2694C116.354 70.3892 116.402 70.5042 116.486 70.589C116.571 70.6737 116.686 70.7213 116.806 70.7213H129.061C129.181 70.7213 129.296 70.6737 129.381 70.589C129.466 70.5042 129.513 70.3892 129.513 70.2694V69.3715Z" fill="url(#paint26_linear)"/>
<path fill-rule="evenodd" clip-rule="evenodd" d="M129.514 73.1415C129.512 73.0227 129.464 72.9093 129.379 72.8258C129.295 72.7423 129.18 72.6955 129.062 72.6956H120.927C120.809 72.6971 120.697 72.7446 120.613 72.8279C120.53 72.9112 120.482 73.0237 120.481 73.1415V74.0454C120.481 74.1642 120.528 74.2783 120.611 74.3629C120.695 74.4475 120.808 74.4958 120.927 74.4973H129.062C129.121 74.4973 129.18 74.4856 129.235 74.4629C129.289 74.4402 129.339 74.4069 129.381 74.365C129.423 74.323 129.456 74.2732 129.479 74.2183C129.502 74.1635 129.514 74.1047 129.514 74.0454V73.1415Z" fill="url(#paint27_linear)"/>
<path fill-rule="evenodd" clip-rule="evenodd" d="M78.9154 103.575C78.9138 103.504 78.8843 103.436 78.8332 103.386C78.7821 103.336 78.7134 103.308 78.6419 103.308H70.8699C70.7989 103.308 70.7309 103.336 70.6807 103.386C70.6305 103.436 70.6023 103.504 70.6023 103.575V104.836C70.6023 104.907 70.6303 104.976 70.6803 105.027C70.7303 105.078 70.7984 105.108 70.8699 105.109H78.6419C78.7139 105.108 78.7826 105.079 78.8336 105.028C78.8846 104.977 78.9139 104.908 78.9154 104.836V103.575Z" fill="url(#paint28_linear)"/>
<path fill-rule="evenodd" clip-rule="evenodd" d="M78.9154 107.22C78.9138 107.149 78.8843 107.081 78.8332 107.031C78.7821 106.981 78.7134 106.953 78.6419 106.953H70.8699C70.7989 106.953 70.7309 106.981 70.6807 107.031C70.6305 107.081 70.6023 107.149 70.6023 107.22V108.481C70.6023 108.552 70.6305 108.62 70.6807 108.67C70.7309 108.721 70.7989 108.749 70.8699 108.749H78.6419C78.7134 108.749 78.7821 108.721 78.8332 108.671C78.8843 108.621 78.9138 108.553 78.9154 108.481V107.22Z" fill="url(#paint29_linear)"/>
<path d="M86.9727 172.928H35.887V227.618H86.9727V172.928Z" fill="url(#paint30_linear)"/>
<path d="M67.189 172.928H55.6648V187.759H67.189V172.928Z" fill="url(#paint31_linear)"/>
<path d="M133.438 172.928H86.9729V227.618H133.438V172.928Z" fill="url(#paint32_linear)"/>
<path fill-rule="evenodd" clip-rule="evenodd" d="M81.3357 210.141C81.3357 209.969 81.3017 209.798 81.2357 209.638C81.1696 209.479 81.0728 209.334 80.9508 209.212C80.8288 209.09 80.6839 208.993 80.5244 208.927C80.365 208.861 80.1941 208.827 80.0215 208.827H69.4964C69.3233 208.826 69.1518 208.86 68.9916 208.925C68.8315 208.991 68.6859 209.088 68.5633 209.21C68.4406 209.332 68.3433 209.477 68.2769 209.637C68.2105 209.797 68.1763 209.968 68.1763 210.141V220.666C68.1763 221.016 68.3154 221.352 68.5629 221.6C68.8105 221.847 69.1463 221.986 69.4964 221.986H80.0215C80.3706 221.985 80.7049 221.845 80.9512 221.598C81.1974 221.35 81.3357 221.015 81.3357 220.666V210.141Z" fill="url(#paint33_linear)"/>
<path fill-rule="evenodd" clip-rule="evenodd" d="M129.513 178.744C129.513 178.685 129.502 178.626 129.479 178.572C129.456 178.517 129.423 178.468 129.381 178.427C129.339 178.385 129.289 178.352 129.234 178.33C129.179 178.308 129.121 178.297 129.061 178.298H116.806C116.747 178.297 116.688 178.308 116.633 178.33C116.579 178.352 116.529 178.385 116.487 178.427C116.445 178.468 116.411 178.517 116.389 178.572C116.366 178.626 116.354 178.685 116.354 178.744V179.648C116.354 179.768 116.402 179.883 116.486 179.967C116.571 180.052 116.686 180.1 116.806 180.1H129.061C129.181 180.1 129.296 180.052 129.381 179.967C129.466 179.883 129.513 179.768 129.513 179.648V178.744Z" fill="url(#paint34_linear)"/>
<path fill-rule="evenodd" clip-rule="evenodd" d="M129.514 182.556C129.514 182.436 129.466 182.321 129.381 182.236C129.296 182.151 129.181 182.104 129.062 182.104H120.927C120.808 182.105 120.695 182.154 120.611 182.238C120.528 182.323 120.481 182.437 120.481 182.556V183.453C120.481 183.572 120.528 183.686 120.611 183.771C120.695 183.856 120.808 183.904 120.927 183.905H129.062C129.181 183.905 129.296 183.858 129.381 183.773C129.466 183.688 129.514 183.573 129.514 183.453V182.556Z" fill="url(#paint35_linear)"/>
<path fill-rule="evenodd" clip-rule="evenodd" d="M78.9154 212.954C78.9139 212.882 78.8846 212.813 78.8336 212.762C78.7826 212.711 78.7139 212.682 78.6419 212.68H70.8699C70.7984 212.682 70.7303 212.711 70.6803 212.762C70.6303 212.814 70.6023 212.882 70.6023 212.954V214.214C70.6023 214.285 70.6305 214.354 70.6807 214.404C70.7309 214.454 70.7989 214.482 70.8699 214.482H78.6419C78.7134 214.482 78.7821 214.454 78.8332 214.404C78.8843 214.354 78.9138 214.286 78.9154 214.214V212.954Z" fill="url(#paint36_linear)"/>
<path fill-rule="evenodd" clip-rule="evenodd" d="M78.9154 216.593C78.9138 216.521 78.8843 216.453 78.8332 216.403C78.7821 216.353 78.7134 216.325 78.6419 216.325H70.8699C70.7989 216.325 70.7309 216.354 70.6807 216.404C70.6305 216.454 70.6023 216.522 70.6023 216.593V217.859C70.6023 217.93 70.6305 217.999 70.6807 218.049C70.7309 218.099 70.7989 218.127 70.8699 218.127H78.6419C78.7134 218.127 78.7821 218.099 78.8332 218.049C78.8843 217.999 78.9138 217.931 78.9154 217.859V216.593Z" fill="url(#paint37_linear)"/>
<path d="M92.5447 118.245H41.459V172.934H92.5447V118.245Z" fill="url(#paint38_linear)"/>
<path d="M72.7668 118.245H61.2427V133.075H72.7668V118.245Z" fill="url(#paint39_linear)"/>
<path d="M139.01 118.245H92.5444V172.934H139.01V118.245Z" fill="url(#paint40_linear)"/>
<path fill-rule="evenodd" clip-rule="evenodd" d="M86.9072 155.452C86.9072 155.103 86.7688 154.769 86.5223 154.523C86.2759 154.276 85.9416 154.138 85.5931 154.138H75.0679C74.7188 154.138 74.3839 154.276 74.1365 154.522C73.8892 154.769 73.7494 155.103 73.7478 155.452V165.977C73.7478 166.327 73.8869 166.663 74.1345 166.91C74.382 167.158 74.7178 167.297 75.0679 167.297H85.6169C85.7899 167.297 85.9613 167.263 86.1211 167.197C86.281 167.13 86.4261 167.033 86.5482 166.91C86.6703 166.787 86.767 166.642 86.8327 166.482C86.8984 166.322 86.9318 166.15 86.931 165.977L86.9072 155.452Z" fill="url(#paint41_linear)"/>
<path fill-rule="evenodd" clip-rule="evenodd" d="M135.085 124.061C135.085 123.942 135.038 123.828 134.955 123.743C134.871 123.659 134.758 123.61 134.639 123.609H122.378C122.259 123.61 122.145 123.659 122.062 123.743C121.978 123.828 121.932 123.942 121.932 124.061V124.959C121.932 125.078 121.978 125.192 122.062 125.276C122.145 125.361 122.259 125.409 122.378 125.411H134.639C134.758 125.409 134.871 125.361 134.955 125.276C135.038 125.192 135.085 125.078 135.085 124.959V124.061Z" fill="url(#paint42_linear)"/>
<path fill-rule="evenodd" clip-rule="evenodd" d="M135.085 127.849C135.085 127.73 135.039 127.616 134.955 127.531C134.872 127.446 134.758 127.398 134.639 127.397H126.505C126.385 127.397 126.27 127.444 126.185 127.529C126.1 127.614 126.053 127.729 126.053 127.849V128.752C126.054 128.871 126.103 128.985 126.187 129.068C126.272 129.152 126.386 129.198 126.505 129.198H134.639C134.757 129.197 134.87 129.149 134.953 129.066C135.036 128.983 135.084 128.87 135.085 128.752V127.849Z" fill="url(#paint43_linear)"/>
<path fill-rule="evenodd" clip-rule="evenodd" d="M84.4872 158.265C84.4856 158.193 84.4561 158.125 84.405 158.075C84.3538 158.025 84.2852 157.997 84.2136 157.997H76.4417C76.3707 157.997 76.3026 158.025 76.2524 158.075C76.2023 158.125 76.1741 158.194 76.1741 158.265V159.525C76.1741 159.597 76.2021 159.665 76.2521 159.717C76.3021 159.768 76.3702 159.797 76.4417 159.799H84.2136C84.2857 159.797 84.3544 159.768 84.4054 159.717C84.4563 159.666 84.4857 159.597 84.4872 159.525V158.265Z" fill="url(#paint44_linear)"/>
<path fill-rule="evenodd" clip-rule="evenodd" d="M84.4872 161.91C84.4857 161.838 84.4563 161.769 84.4054 161.718C84.3544 161.667 84.2857 161.638 84.2136 161.636H76.4417C76.3702 161.638 76.3021 161.667 76.2521 161.718C76.2021 161.769 76.1741 161.838 76.1741 161.91V163.17C76.1741 163.241 76.2023 163.309 76.2524 163.359C76.3026 163.41 76.3707 163.438 76.4417 163.438H84.2136C84.2852 163.438 84.3538 163.41 84.405 163.36C84.4561 163.31 84.4856 163.242 84.4872 163.17V161.91Z" fill="url(#paint45_linear)"/>
<path d="M151.569 118.245H100.483V172.934H151.569V118.245Z" fill="url(#paint46_linear)"/>
<path d="M131.785 118.245H120.261V133.075H131.785V118.245Z" fill="url(#paint47_linear)"/>
<path d="M198.034 118.245H151.569V172.934H198.034V118.245Z" fill="url(#paint48_linear)"/>
<path fill-rule="evenodd" clip-rule="evenodd" d="M145.932 155.452C145.932 155.103 145.793 154.769 145.547 154.523C145.3 154.276 144.966 154.138 144.617 154.138H134.092C133.743 154.138 133.408 154.276 133.161 154.522C132.914 154.769 132.774 155.103 132.772 155.452V165.977C132.772 166.327 132.911 166.663 133.159 166.91C133.406 167.158 133.742 167.297 134.092 167.297H144.617C144.791 167.297 144.962 167.263 145.122 167.197C145.282 167.13 145.427 167.033 145.549 166.91C145.671 166.787 145.768 166.642 145.833 166.482C145.899 166.322 145.932 166.15 145.932 165.977V155.452Z" fill="url(#paint49_linear)"/>
<path fill-rule="evenodd" clip-rule="evenodd" d="M194.109 124.061C194.109 123.942 194.063 123.828 193.979 123.743C193.896 123.659 193.782 123.61 193.663 123.609H181.402C181.282 123.609 181.167 123.657 181.082 123.741C180.998 123.826 180.95 123.941 180.95 124.061V124.959C180.95 125.079 180.998 125.194 181.082 125.278C181.167 125.363 181.282 125.411 181.402 125.411H193.663C193.782 125.409 193.896 125.361 193.979 125.276C194.063 125.192 194.109 125.078 194.109 124.959V124.061Z" fill="url(#paint50_linear)"/>
<path fill-rule="evenodd" clip-rule="evenodd" d="M194.109 127.849C194.109 127.73 194.063 127.616 193.979 127.531C193.896 127.446 193.782 127.398 193.663 127.397H185.517C185.397 127.397 185.282 127.444 185.197 127.529C185.113 127.614 185.065 127.729 185.065 127.849V128.752C185.067 128.871 185.115 128.985 185.199 129.068C185.284 129.152 185.398 129.198 185.517 129.198H193.663C193.781 129.197 193.894 129.149 193.977 129.066C194.06 128.983 194.108 128.87 194.109 128.752V127.849Z" fill="url(#paint51_linear)"/>
<path fill-rule="evenodd" clip-rule="evenodd" d="M143.512 158.265C143.51 158.193 143.481 158.125 143.429 158.075C143.378 158.025 143.31 157.997 143.238 157.997H135.466C135.395 157.997 135.327 158.025 135.277 158.075C135.227 158.125 135.198 158.194 135.198 158.265V159.525C135.198 159.597 135.226 159.665 135.276 159.717C135.327 159.768 135.395 159.797 135.466 159.799H143.238C143.31 159.797 143.379 159.768 143.43 159.717C143.481 159.666 143.51 159.597 143.512 159.525V158.265Z" fill="url(#paint52_linear)"/>
<path fill-rule="evenodd" clip-rule="evenodd" d="M143.512 161.91C143.51 161.838 143.481 161.769 143.43 161.718C143.379 161.667 143.31 161.638 143.238 161.636H135.466C135.395 161.638 135.327 161.667 135.276 161.718C135.226 161.769 135.198 161.838 135.198 161.91V163.17C135.198 163.241 135.227 163.309 135.277 163.359C135.327 163.41 135.395 163.438 135.466 163.438H143.238C143.31 163.438 143.378 163.41 143.429 163.36C143.481 163.31 143.51 163.242 143.512 163.17V161.91Z" fill="url(#paint53_linear)"/>
<path d="M158.918 172.928H107.833V227.618H158.918V172.928Z" fill="url(#paint54_linear)"/>
<path d="M139.141 172.928H127.616V187.759H139.141V172.928Z" fill="url(#paint55_linear)"/>
<path d="M205.384 172.928H158.919V227.618H205.384V172.928Z" fill="url(#paint56_linear)"/>
<path fill-rule="evenodd" clip-rule="evenodd" d="M153.281 210.141C153.281 209.793 153.143 209.458 152.896 209.212C152.65 208.965 152.316 208.827 151.967 208.827H141.442C141.269 208.827 141.098 208.861 140.939 208.927C140.779 208.993 140.635 209.09 140.513 209.212C140.391 209.334 140.294 209.479 140.228 209.638C140.162 209.798 140.128 209.969 140.128 210.141V220.666C140.128 221.015 140.266 221.35 140.512 221.598C140.759 221.845 141.093 221.985 141.442 221.986H151.967C152.316 221.985 152.65 221.845 152.897 221.598C153.143 221.35 153.281 221.015 153.281 220.666V210.141Z" fill="url(#paint57_linear)"/>
<path fill-rule="evenodd" clip-rule="evenodd" d="M201.459 178.744C201.459 178.626 201.412 178.512 201.329 178.429C201.245 178.345 201.132 178.298 201.013 178.298H188.752C188.693 178.297 188.635 178.308 188.58 178.33C188.526 178.352 188.476 178.385 188.435 178.427C188.393 178.468 188.36 178.518 188.338 178.572C188.316 178.627 188.305 178.685 188.306 178.744V179.648C188.305 179.707 188.316 179.766 188.338 179.82C188.36 179.875 188.393 179.925 188.434 179.967C188.476 180.009 188.525 180.042 188.58 180.065C188.634 180.088 188.693 180.1 188.752 180.1H201.013C201.132 180.098 201.246 180.05 201.329 179.965C201.413 179.881 201.459 179.767 201.459 179.648V178.744Z" fill="url(#paint58_linear)"/>
<path fill-rule="evenodd" clip-rule="evenodd" d="M201.459 182.556C201.459 182.437 201.413 182.323 201.329 182.238C201.246 182.154 201.132 182.105 201.013 182.104H192.879C192.759 182.104 192.644 182.151 192.559 182.236C192.474 182.321 192.427 182.436 192.427 182.556V183.453C192.427 183.573 192.474 183.688 192.559 183.773C192.644 183.858 192.759 183.905 192.879 183.905H201.013C201.132 183.904 201.246 183.856 201.329 183.771C201.413 183.686 201.459 183.572 201.459 183.453V182.556Z" fill="url(#paint59_linear)"/>
<path fill-rule="evenodd" clip-rule="evenodd" d="M150.861 212.954C150.861 212.881 150.832 212.812 150.781 212.76C150.73 212.709 150.66 212.68 150.588 212.68H142.816C142.744 212.682 142.676 212.711 142.626 212.762C142.576 212.814 142.548 212.882 142.548 212.954V214.214C142.548 214.285 142.576 214.354 142.626 214.404C142.677 214.454 142.745 214.482 142.816 214.482H150.588C150.623 214.483 150.659 214.477 150.692 214.463C150.725 214.45 150.755 214.431 150.781 214.406C150.806 214.381 150.826 214.351 150.84 214.318C150.854 214.285 150.861 214.25 150.861 214.214V212.954Z" fill="url(#paint60_linear)"/>
<path fill-rule="evenodd" clip-rule="evenodd" d="M150.861 216.593C150.861 216.557 150.854 216.522 150.84 216.489C150.826 216.456 150.806 216.427 150.781 216.402C150.755 216.377 150.725 216.357 150.692 216.344C150.659 216.331 150.623 216.325 150.588 216.325H142.816C142.745 216.325 142.677 216.354 142.626 216.404C142.576 216.454 142.548 216.522 142.548 216.593V217.86C142.548 217.931 142.576 217.999 142.626 218.049C142.677 218.099 142.745 218.127 142.816 218.127H150.588C150.623 218.128 150.659 218.122 150.692 218.109C150.725 218.095 150.755 218.076 150.781 218.051C150.806 218.026 150.826 217.996 150.84 217.963C150.854 217.93 150.861 217.895 150.861 217.86V216.593Z" fill="url(#paint61_linear)"/>
<path d="M215.725 238.809H205.687V250H215.725V238.809Z" fill="url(#paint62_linear)"/>
<path d="M205.687 238.809H190.839V250H205.687V238.809Z" fill="#9F8D7C"/>
<path d="M205.687 244.404H173.612V250H205.687V244.404Z" fill="#9F8D7C"/>
<path d="M179.749 238.809H169.711V250H179.749V238.809Z" fill="url(#paint63_linear)"/>
<path d="M169.711 238.809H154.863V250H169.711V238.809Z" fill="#9F8D7C"/>
<path d="M169.711 244.404H137.636V250H169.711V244.404Z" fill="#9F8D7C"/>
<path d="M133.735 227.618H23.7683V238.809H133.735V227.618Z" fill="url(#paint64_linear)"/>
<path d="M143.773 227.618H133.735V238.809H143.773V227.618Z" fill="url(#paint65_linear)"/>
<path d="M161.761 227.618H151.723V238.809H161.761V227.618Z" fill="url(#paint66_linear)"/>
<path d="M179.749 227.618H169.711V238.809H179.749V227.618Z" fill="url(#paint67_linear)"/>
<path d="M197.737 227.618H187.699V238.809H197.737V227.618Z" fill="url(#paint68_linear)"/>
<path d="M215.725 227.618H205.687V238.809H215.725V227.618Z" fill="url(#paint69_linear)"/>
<path d="M151.723 227.618H143.773V238.809H151.723V227.618Z" fill="url(#paint70_linear)"/>
<path d="M169.711 227.618H161.761V238.809H169.711V227.618Z" fill="url(#paint71_linear)"/>
<path d="M187.699 227.618H179.749V238.809H187.699V227.618Z" fill="url(#paint72_linear)"/>
<path d="M205.687 227.618H197.737V238.809H205.687V227.618Z" fill="url(#paint73_linear)"/>
<path d="M38.6163 238.809H23.7681V250H38.6163V238.809Z" fill="url(#paint74_linear)"/>
<path d="M48.654 238.809H38.6165V250H48.654V238.809Z" fill="#9F8D7C"/>
<path d="M96.2136 238.809H86.176V250H96.2136V238.809Z" fill="#9F8D7C"/>
<path d="M86.1758 238.809H71.3276V250H86.1758V238.809Z" fill="url(#paint75_linear)"/>
<path d="M133.735 238.809H118.887V250H133.735V238.809Z" fill="url(#paint76_linear)"/>
<path d="M143.773 238.809H133.735V250H143.773V238.809Z" fill="url(#paint77_linear)"/>
<path d="M133.735 244.404H23.7681V250H133.735V244.404Z" fill="url(#paint78_linear)"/>
<defs>
<linearGradient id="paint0_linear" x1="219.884" y1="241.37" x2="222.16" y2="232.872" gradientUnits="userSpaceOnUse">
<stop stop-color="#FF5133"/>
<stop offset="1" stop-color="#FFBC56"/>
</linearGradient>
<linearGradient id="paint1_linear" x1="1.52736e+06" y1="313155" x2="1.52727e+06" y2="312816" gradientUnits="userSpaceOnUse">
<stop stop-color="#FF5133"/>
<stop offset="1" stop-color="#FFBC56"/>
</linearGradient>
<linearGradient id="paint2_linear" x1="1.49638e+07" y1="1.24888e+07" x2="1.49638e+07" y2="1.24831e+07" gradientUnits="userSpaceOnUse">
<stop stop-color="#FF5133"/>
<stop offset="1" stop-color="#FFBC56"/>
</linearGradient>
<linearGradient id="paint3_linear" x1="264.315" y1="69.6609" x2="264.315" y2="77.0372" gradientUnits="userSpaceOnUse">
<stop stop-color="white"/>
<stop offset="1" stop-color="#F0E7DF"/>
</linearGradient>
<linearGradient id="paint4_linear" x1="223.557" y1="81.7582" x2="256.71" y2="205.486" gradientUnits="userSpaceOnUse">
<stop stop-color="#2B5ACC"/>
<stop offset="1" stop-color="#152873"/>
</linearGradient>
<linearGradient id="paint5_linear" x1="-341745" y1="274703" x2="-341745" y2="274564" gradientUnits="userSpaceOnUse">
<stop stop-color="#FF5133"/>
<stop offset="1" stop-color="#FFBC56"/>
</linearGradient>
<linearGradient id="paint6_linear" x1="253.133" y1="49.0395" x2="253.133" y2="76.0037" gradientUnits="userSpaceOnUse">
<stop stop-color="#FFDDD3"/>
<stop offset="0.54" stop-color="#FFBBAA"/>
<stop offset="1" stop-color="#FFAE9A"/>
</linearGradient>
<linearGradient id="paint7_linear" x1="2.29724e+06" y1="-1.31907e+06" x2="2.29724e+06" y2="-1.31842e+06" gradientUnits="userSpaceOnUse">
<stop stop-color="#2B5ACC"/>
<stop offset="1" stop-color="#152873"/>
</linearGradient>
<linearGradient id="paint8_linear" x1="-1.23118e+06" y1="1.01722e+06" x2="-1.23118e+06" y2="1.01672e+06" gradientUnits="userSpaceOnUse">
<stop stop-color="#FF5133"/>
<stop offset="1" stop-color="#FFBC56"/>
</linearGradient>
<linearGradient id="paint9_linear" x1="-761238" y1="-503816" x2="-761238" y2="-503577" gradientUnits="userSpaceOnUse">
<stop stop-color="#2B5ACC"/>
<stop offset="1" stop-color="#152873"/>
</linearGradient>
<linearGradient id="paint10_linear" x1="-5653.24" y1="15133.7" x2="-5650.58" y2="15133.7" gradientUnits="userSpaceOnUse">
<stop stop-color="#FFDDD3"/>
<stop offset="0.54" stop-color="#FFBBAA"/>
<stop offset="1" stop-color="#FFAE9A"/>
</linearGradient>
<linearGradient id="paint11_linear" x1="254.807" y1="63.9775" x2="261.501" y2="63.9775" gradientUnits="userSpaceOnUse">
<stop stop-color="#F58B71"/>
<stop offset="1" stop-color="#FCA289"/>
</linearGradient>
<linearGradient id="paint12_linear" x1="198.486" y1="64.481" x2="189.109" y2="117.654" gradientUnits="userSpaceOnUse">
<stop stop-color="#F7E9DD"/>
<stop offset="1" stop-color="#E6C2A2"/>
</linearGradient>
<linearGradient id="paint13_linear" x1="201.113" y1="48.9094" x2="196.029" y2="77.7496" gradientUnits="userSpaceOnUse">
<stop stop-color="#F0E7DF"/>
<stop offset="1" stop-color="#B5977A"/>
</linearGradient>
<linearGradient id="paint14_linear" x1="244.997" y1="77.1071" x2="235.621" y2="130.28" gradientUnits="userSpaceOnUse">
<stop stop-color="#E6CBB0"/>
<stop offset="1" stop-color="#D3A77C"/>
</linearGradient>
<linearGradient id="paint15_linear" x1="776342" y1="-556333" x2="776285" y2="-556014" gradientUnits="userSpaceOnUse">
<stop stop-color="white"/>
<stop offset="1" stop-color="#F0E7DF"/>
</linearGradient>
<linearGradient id="paint16_linear" x1="169754" y1="-57969.4" x2="169747" y2="-57930.7" gradientUnits="userSpaceOnUse">
<stop stop-color="white"/>
<stop offset="1" stop-color="#F0E7DF"/>
</linearGradient>
<linearGradient id="paint17_linear" x1="93563" y1="-42288.7" x2="93558.3" y2="-42261.9" gradientUnits="userSpaceOnUse">
<stop stop-color="white"/>
<stop offset="1" stop-color="#F0E7DF"/>
</linearGradient>
<linearGradient id="paint18_linear" x1="196.089" y1="109.719" x2="196.707" y2="106.216" gradientUnits="userSpaceOnUse">
<stop stop-color="#B5977A"/>
<stop offset="1" stop-color="#B5A393"/>
</linearGradient>
<linearGradient id="paint19_linear" x1="1.21872e+06" y1="311777" x2="1.21873e+06" y2="311726" gradientUnits="userSpaceOnUse">
<stop stop-color="#B5977A"/>
<stop offset="1" stop-color="#B5A393"/>
</linearGradient>
<linearGradient id="paint20_linear" x1="3.38407e+06" y1="-1.16221e+06" x2="3.38407e+06" y2="-1.16166e+06" gradientUnits="userSpaceOnUse">
<stop stop-color="#FFDDD3"/>
<stop offset="0.54" stop-color="#FFBBAA"/>
<stop offset="1" stop-color="#FFAE9A"/>
</linearGradient>
<linearGradient id="paint21_linear" x1="255.575" y1="77.7119" x2="269.533" y2="127.769" gradientUnits="userSpaceOnUse">
<stop stop-color="#FFBC56"/>
<stop offset="1" stop-color="#FF5133"/>
</linearGradient>
<linearGradient id="paint22_linear" x1="-1.75692e+07" y1="-1.0167e+07" x2="-1.75692e+07" y2="-1.01622e+07" gradientUnits="userSpaceOnUse">
<stop stop-color="#F7E9DD"/>
<stop offset="1" stop-color="#E6C2A2"/>
</linearGradient>
<linearGradient id="paint23_linear" x1="3.45722e+06" y1="-1.18817e+06" x2="3.45722e+06" y2="-1.18758e+06" gradientUnits="userSpaceOnUse">
<stop stop-color="#F0E7DF"/>
<stop offset="1" stop-color="#B5977A"/>
</linearGradient>
<linearGradient id="paint24_linear" x1="-1.59865e+07" y1="-9.22162e+06" x2="-1.59865e+07" y2="-9.21728e+06" gradientUnits="userSpaceOnUse">
<stop stop-color="#E6CBB0"/>
<stop offset="1" stop-color="#D3A77C"/>
</linearGradient>
<linearGradient id="paint25_linear" x1="596966" y1="-610569" x2="596966" y2="-610282" gradientUnits="userSpaceOnUse">
<stop stop-color="white"/>
<stop offset="1" stop-color="#F0E7DF"/>
</linearGradient>
<linearGradient id="paint26_linear" x1="58757.5" y1="-88033.4" x2="58757.5" y2="-87994.1" gradientUnits="userSpaceOnUse">
<stop stop-color="white"/>
<stop offset="1" stop-color="#F0E7DF"/>
</linearGradient>
<linearGradient id="paint27_linear" x1="40510.4" y1="-58815.9" x2="40510.4" y2="-58788.9" gradientUnits="userSpaceOnUse">
<stop stop-color="white"/>
<stop offset="1" stop-color="#F0E7DF"/>
</linearGradient>
<linearGradient id="paint28_linear" x1="610587" y1="96501.1" x2="610587" y2="96451.4" gradientUnits="userSpaceOnUse">
<stop stop-color="#B5977A"/>
<stop offset="1" stop-color="#B5A393"/>
</linearGradient>
<linearGradient id="paint29_linear" x1="608651" y1="96411.2" x2="608651" y2="96361.4" gradientUnits="userSpaceOnUse">
<stop stop-color="#B5977A"/>
<stop offset="1" stop-color="#B5A393"/>
</linearGradient>
<linearGradient id="paint30_linear" x1="-1.75882e+07" y1="-1.01853e+07" x2="-1.75882e+07" y2="-1.01805e+07" gradientUnits="userSpaceOnUse">
<stop stop-color="#F7E9DD"/>
<stop offset="1" stop-color="#E6C2A2"/>
</linearGradient>
<linearGradient id="paint31_linear" x1="3.47136e+06" y1="-1.19205e+06" x2="3.47136e+06" y2="-1.19149e+06" gradientUnits="userSpaceOnUse">
<stop stop-color="#F0E7DF"/>
<stop offset="1" stop-color="#B5977A"/>
</linearGradient>
<linearGradient id="paint32_linear" x1="-1.60037e+07" y1="-9.2383e+06" x2="-1.60037e+07" y2="-9.23395e+06" gradientUnits="userSpaceOnUse">
<stop stop-color="#E6CBB0"/>
<stop offset="1" stop-color="#D3A77C"/>
</linearGradient>
<linearGradient id="paint33_linear" x1="599710" y1="-615067" x2="599710" y2="-614771" gradientUnits="userSpaceOnUse">
<stop stop-color="white"/>
<stop offset="1" stop-color="#F0E7DF"/>
</linearGradient>
<linearGradient id="paint34_linear" x1="61504.8" y1="-92525.2" x2="61504.8" y2="-92485.9" gradientUnits="userSpaceOnUse">
<stop stop-color="white"/>
<stop offset="1" stop-color="#F0E7DF"/>
</linearGradient>
<linearGradient id="paint35_linear" x1="42396.6" y1="-61797.2" x2="42396.6" y2="-61769.4" gradientUnits="userSpaceOnUse">
<stop stop-color="white"/>
<stop offset="1" stop-color="#F0E7DF"/>
</linearGradient>
<linearGradient id="paint36_linear" x1="638811" y1="93782.4" x2="638811" y2="93732.6" gradientUnits="userSpaceOnUse">
<stop stop-color="#B5977A"/>
<stop offset="1" stop-color="#B5A393"/>
</linearGradient>
<linearGradient id="paint37_linear" x1="639752" y1="93692.3" x2="639752" y2="93642.5" gradientUnits="userSpaceOnUse">
<stop stop-color="#B5977A"/>
<stop offset="1" stop-color="#B5A393"/>
</linearGradient>
<linearGradient id="paint38_linear" x1="-1.75796e+07" y1="-1.01745e+07" x2="-1.75796e+07" y2="-1.01699e+07" gradientUnits="userSpaceOnUse">
<stop stop-color="#F7E9DD"/>
<stop offset="1" stop-color="#E6C2A2"/>
</linearGradient>
<linearGradient id="paint39_linear" x1="3.46402e+06" y1="-1.18927e+06" x2="3.46402e+06" y2="-1.1887e+06" gradientUnits="userSpaceOnUse">
<stop stop-color="#F0E7DF"/>
<stop offset="1" stop-color="#B5977A"/>
</linearGradient>
<linearGradient id="paint40_linear" x1="-1.59961e+07" y1="-9.22836e+06" x2="-1.59961e+07" y2="-9.22415e+06" gradientUnits="userSpaceOnUse">
<stop stop-color="#E6CBB0"/>
<stop offset="1" stop-color="#D3A77C"/>
</linearGradient>
<linearGradient id="paint41_linear" x1="598109" y1="-613619" x2="598109" y2="-613322" gradientUnits="userSpaceOnUse">
<stop stop-color="white"/>
<stop offset="1" stop-color="#F0E7DF"/>
</linearGradient>
<linearGradient id="paint42_linear" x1="60113.4" y1="-90185.5" x2="60113.4" y2="-90146.2" gradientUnits="userSpaceOnUse">
<stop stop-color="white"/>
<stop offset="1" stop-color="#F0E7DF"/>
</linearGradient>
<linearGradient id="paint43_linear" x1="41436.3" y1="-60255.7" x2="41436.3" y2="-60228.7" gradientUnits="userSpaceOnUse">
<stop stop-color="white"/>
<stop offset="1" stop-color="#F0E7DF"/>
</linearGradient>
<linearGradient id="paint44_linear" x1="624685" y1="95041.5" x2="624685" y2="94990.2" gradientUnits="userSpaceOnUse">
<stop stop-color="#B5977A"/>
<stop offset="1" stop-color="#B5A393"/>
</linearGradient>
<linearGradient id="paint45_linear" x1="625624" y1="94951.4" x2="625624" y2="94900.1" gradientUnits="userSpaceOnUse">
<stop stop-color="#B5977A"/>
<stop offset="1" stop-color="#B5A393"/>
</linearGradient>
<linearGradient id="paint46_linear" x1="-1.75903e+07" y1="-1.01583e+07" x2="-1.75903e+07" y2="-1.01537e+07" gradientUnits="userSpaceOnUse">
<stop stop-color="#F7E9DD"/>
<stop offset="1" stop-color="#E6C2A2"/>
</linearGradient>
<linearGradient id="paint47_linear" x1="3.46126e+06" y1="-1.18046e+06" x2="3.46126e+06" y2="-1.17989e+06" gradientUnits="userSpaceOnUse">
<stop stop-color="#F0E7DF"/>
<stop offset="1" stop-color="#B5977A"/>
</linearGradient>
<linearGradient id="paint48_linear" x1="-1.60067e+07" y1="-9.21212e+06" x2="-1.60067e+07" y2="-9.2079e+06" gradientUnits="userSpaceOnUse">
<stop stop-color="#E6CBB0"/>
<stop offset="1" stop-color="#D3A77C"/>
</linearGradient>
<linearGradient id="paint49_linear" x1="595683" y1="-608542" x2="595683" y2="-608246" gradientUnits="userSpaceOnUse">
<stop stop-color="white"/>
<stop offset="1" stop-color="#F0E7DF"/>
</linearGradient>
<linearGradient id="paint50_linear" x1="59933.6" y1="-89694.1" x2="59933.6" y2="-89654.8" gradientUnits="userSpaceOnUse">
<stop stop-color="white"/>
<stop offset="1" stop-color="#F0E7DF"/>
</linearGradient>
<linearGradient id="paint51_linear" x1="41256.7" y1="-59807.7" x2="41256.7" y2="-59780.7" gradientUnits="userSpaceOnUse">
<stop stop-color="white"/>
<stop offset="1" stop-color="#F0E7DF"/>
</linearGradient>
<linearGradient id="paint52_linear" x1="624507" y1="93971.3" x2="624507" y2="93920.1" gradientUnits="userSpaceOnUse">
<stop stop-color="#B5977A"/>
<stop offset="1" stop-color="#B5A393"/>
</linearGradient>
<linearGradient id="paint53_linear" x1="625446" y1="93881.3" x2="625446" y2="93830" gradientUnits="userSpaceOnUse">
<stop stop-color="#B5977A"/>
<stop offset="1" stop-color="#B5A393"/>
</linearGradient>
<linearGradient id="paint54_linear" x1="-1.7601e+07" y1="-1.01655e+07" x2="-1.7601e+07" y2="-1.01607e+07" gradientUnits="userSpaceOnUse">
<stop stop-color="#F7E9DD"/>
<stop offset="1" stop-color="#E6C2A2"/>
</linearGradient>
<linearGradient id="paint55_linear" x1="3.46799e+06" y1="-1.18132e+06" x2="3.46799e+06" y2="-1.18075e+06" gradientUnits="userSpaceOnUse">
<stop stop-color="#F0E7DF"/>
<stop offset="1" stop-color="#B5977A"/>
</linearGradient>
<linearGradient id="paint56_linear" x1="-1.60167e+07" y1="-9.2185e+06" x2="-1.60167e+07" y2="-9.21416e+06" gradientUnits="userSpaceOnUse">
<stop stop-color="#E6CBB0"/>
<stop offset="1" stop-color="#D3A77C"/>
</linearGradient>
<linearGradient id="paint57_linear" x1="596754" y1="-610011" x2="596754" y2="-609715" gradientUnits="userSpaceOnUse">
<stop stop-color="white"/>
<stop offset="1" stop-color="#F0E7DF"/>
</linearGradient>
<linearGradient id="paint58_linear" x1="61285.9" y1="-91829.3" x2="61285.9" y2="-91790" gradientUnits="userSpaceOnUse">
<stop stop-color="white"/>
<stop offset="1" stop-color="#F0E7DF"/>
</linearGradient>
<linearGradient id="paint59_linear" x1="42177.6" y1="-61145.4" x2="42177.6" y2="-61117.6" gradientUnits="userSpaceOnUse">
<stop stop-color="white"/>
<stop offset="1" stop-color="#F0E7DF"/>
</linearGradient>
<linearGradient id="paint60_linear" x1="638626" y1="92478" x2="638626" y2="92428.2" gradientUnits="userSpaceOnUse">
<stop stop-color="#B5977A"/>
<stop offset="1" stop-color="#B5A393"/>
</linearGradient>
<linearGradient id="paint61_linear" x1="639599" y1="92387.9" x2="639599" y2="92338.1" gradientUnits="userSpaceOnUse">
<stop stop-color="#B5977A"/>
<stop offset="1" stop-color="#B5A393"/>
</linearGradient>
<linearGradient id="paint62_linear" x1="2.26216e+06" y1="-763367" x2="2.26216e+06" y2="-762994" gradientUnits="userSpaceOnUse">
<stop stop-color="#F0E7DF"/>
<stop offset="1" stop-color="#B5977A"/>
</linearGradient>
<linearGradient id="paint63_linear" x1="2.2615e+06" y1="-767419" x2="2.2615e+06" y2="-767046" gradientUnits="userSpaceOnUse">
<stop stop-color="#F0E7DF"/>
<stop offset="1" stop-color="#B5977A"/>
</linearGradient>
<linearGradient id="paint64_linear" x1="7.70317e+06" y1="-8.33279e+06" x2="7.70317e+06" y2="-8.32906e+06" gradientUnits="userSpaceOnUse">
<stop stop-color="white"/>
<stop offset="1" stop-color="#F0E7DF"/>
</linearGradient>
<linearGradient id="paint65_linear" x1="385420" y1="-390375" x2="385420" y2="-390183" gradientUnits="userSpaceOnUse">
<stop stop-color="white"/>
<stop offset="1" stop-color="#F0E7DF"/>
</linearGradient>
<linearGradient id="paint66_linear" x1="384799" y1="-389362" x2="384799" y2="-389170" gradientUnits="userSpaceOnUse">
<stop stop-color="white"/>
<stop offset="1" stop-color="#F0E7DF"/>
</linearGradient>
<linearGradient id="paint67_linear" x1="384177" y1="-388349" x2="384177" y2="-388157" gradientUnits="userSpaceOnUse">
<stop stop-color="white"/>
<stop offset="1" stop-color="#F0E7DF"/>
</linearGradient>
<linearGradient id="paint68_linear" x1="383558" y1="-387337" x2="383558" y2="-387144" gradientUnits="userSpaceOnUse">
<stop stop-color="white"/>
<stop offset="1" stop-color="#F0E7DF"/>
</linearGradient>
<linearGradient id="paint69_linear" x1="382937" y1="-386324" x2="382937" y2="-386131" gradientUnits="userSpaceOnUse">
<stop stop-color="white"/>
<stop offset="1" stop-color="#F0E7DF"/>
</linearGradient>
<linearGradient id="paint70_linear" x1="143.131" y1="218.841" x2="143.131" y2="239.041" gradientUnits="userSpaceOnUse">
<stop stop-color="white"/>
<stop offset="1" stop-color="#E2D0C0"/>
</linearGradient>
<linearGradient id="paint71_linear" x1="556680" y1="-543720" x2="556680" y2="-543450" gradientUnits="userSpaceOnUse">
<stop stop-color="white"/>
<stop offset="1" stop-color="#E2D0C0"/>
</linearGradient>
<linearGradient id="paint72_linear" x1="556061" y1="-541868" x2="556061" y2="-541598" gradientUnits="userSpaceOnUse">
<stop stop-color="white"/>
<stop offset="1" stop-color="#E2D0C0"/>
</linearGradient>
<linearGradient id="paint73_linear" x1="555441" y1="-540017" x2="555441" y2="-539747" gradientUnits="userSpaceOnUse">
<stop stop-color="white"/>
<stop offset="1" stop-color="#E2D0C0"/>
</linearGradient>
<linearGradient id="paint74_linear" x1="34.9496" y1="226.243" x2="34.9496" y2="248.342" gradientUnits="userSpaceOnUse">
<stop stop-color="#F0E7DF"/>
<stop offset="1" stop-color="#CFB7A1"/>
</linearGradient>
<linearGradient id="paint75_linear" x1="-10913.5" y1="21224.5" x2="-10908.6" y2="21224.5" gradientUnits="userSpaceOnUse">
<stop stop-color="#F0E7DF"/>
<stop offset="1" stop-color="#CFB7A1"/>
</linearGradient>
<linearGradient id="paint76_linear" x1="-10866" y1="21232.4" x2="-10861.1" y2="21232.4" gradientUnits="userSpaceOnUse">
<stop stop-color="#F0E7DF"/>
<stop offset="1" stop-color="#CFB7A1"/>
</linearGradient>
<linearGradient id="paint77_linear" x1="2.26082e+06" y1="-771471" x2="2.26082e+06" y2="-771098" gradientUnits="userSpaceOnUse">
<stop stop-color="#F0E7DF"/>
<stop offset="1" stop-color="#B5977A"/>
</linearGradient>
<linearGradient id="paint78_linear" x1="-81331" y1="10737.2" x2="-81294.7" y2="10737.2" gradientUnits="userSpaceOnUse">
<stop stop-color="#F0E7DF"/>
<stop offset="1" stop-color="#CFB7A1"/>
</linearGradient>
</defs>
</svg>
