<svg width="364" height="323" viewBox="0 0 364 323" fill="none" xmlns="http://www.w3.org/2000/svg">
<g clip-path="url(#clip0)">
<path d="M64.6698 246.52H64.3598C62.6398 235.42 53.0498 230 41.4298 229.91C29.8098 229.82 20.1398 235.05 18.2298 246.14H17.9098C8.07978 246 0.089782 249.22 -0.000217997 259.05C-0.090218 268.88 7.83978 273.77 17.6698 273.86C20.9189 273.89 24.113 273.021 26.8998 271.35C31.2909 273.552 36.1375 274.693 41.0498 274.68C45.9583 274.773 50.8207 273.718 55.2498 271.6C58.0119 273.311 61.1907 274.231 64.4398 274.26C74.2698 274.34 82.2798 269.59 82.3598 259.76C82.4398 249.93 74.4998 246.6 64.6698 246.52Z" fill="#FAFFF9"/>
<path opacity="0.04" d="M74.5097 248.12C75.1935 249.809 75.5335 251.618 75.5097 253.44C75.4197 263.27 67.4097 268.03 57.5797 267.94C54.3337 267.912 51.1581 266.991 48.3997 265.28C43.9721 267.403 39.1087 268.457 34.1997 268.36C29.2673 268.378 24.4009 267.227 19.9997 265C17.2117 266.668 14.0184 267.536 10.7697 267.51C7.56126 267.532 4.38247 266.895 1.42969 265.64C4.12969 271.05 10.3697 273.77 17.6597 273.83C20.9088 273.859 24.1029 272.991 26.8897 271.32C31.2808 273.522 36.1274 274.663 41.0397 274.65C45.9482 274.743 50.8106 273.688 55.2397 271.57C58.0018 273.281 61.1806 274.201 64.4297 274.23C74.2597 274.31 82.2697 269.56 82.3497 259.73C82.4097 253.57 79.2797 250 74.5097 248.12Z" fill="black"/>
<path d="M262.13 19.0001H261.77C259.8 6.30006 248.85 0.120055 235.58 5.52126e-05C222.31 -0.119945 211.26 5.88006 209.07 18.5401H208.71C197.48 18.4501 188.35 22.0901 188.25 33.3201C188.15 44.5501 197.25 50.1401 208.44 50.2301C212.158 50.2597 215.812 49.2631 219 47.3501C224.038 49.8035 229.56 51.1018 235.163 51.1502C240.767 51.1987 246.31 49.9961 251.39 47.6301C254.545 49.5738 258.174 50.6117 261.88 50.6301C273.11 50.7301 282.26 45.2901 282.36 34.0601C282.46 22.8301 273.36 19.0801 262.13 19.0001Z" fill="#FAFFF9"/>
<path d="M273.36 20.8101C274.137 22.7407 274.511 24.8096 274.46 26.8901C274.36 38.1201 265.21 43.5501 253.98 43.4501C250.277 43.433 246.651 42.3949 243.5 40.4501C238.418 42.8162 232.873 44.0189 227.268 43.9705C221.663 43.922 216.139 42.6237 211.1 40.1701C207.913 42.064 204.266 43.0432 200.56 43.0001C196.895 43.0183 193.264 42.2902 189.89 40.8601C192.98 47.0401 200.11 50.1401 208.44 50.2101C212.156 50.2457 215.81 49.2561 219 47.3501C224.038 49.8035 229.56 51.1018 235.163 51.1502C240.766 51.1987 246.31 49.9961 251.39 47.6301C254.545 49.5738 258.174 50.6117 261.88 50.6301C273.11 50.7301 282.26 45.2901 282.36 34.0601C282.4 27.0001 278.82 22.9201 273.36 20.8101Z" fill="#E3F4EE"/>
<path d="M290.546 280.091C347.426 223.211 347.426 130.99 290.546 74.1105C233.667 17.2306 141.446 17.2306 84.5663 74.1105C27.6864 130.99 27.6864 223.211 84.5663 280.091C141.446 336.971 233.667 336.971 290.546 280.091Z" fill="#D4EBED"/>
<path opacity="0.04" d="M298.36 82.5601C310.805 114.639 311.495 150.088 300.305 182.626C289.116 215.165 266.77 242.692 237.227 260.332C207.684 277.972 172.851 284.585 138.898 279C104.946 273.416 74.0663 255.993 51.73 229.82C59.4017 249.571 71.2898 267.41 86.5651 282.094C101.84 296.778 120.135 307.953 140.173 314.839C160.211 321.725 181.51 324.157 202.585 321.965C223.66 319.773 244.003 313.01 262.195 302.148C280.387 291.286 295.991 276.585 307.917 259.073C319.844 241.56 327.807 221.656 331.25 200.749C334.693 179.842 333.534 158.436 327.854 138.023C322.173 117.611 312.108 98.6828 298.36 82.5601Z" fill="black"/>
<path d="M333.2 178.35C333.325 164.398 331.449 150.5 327.63 137.08C314.63 138.58 287.47 126.08 269.4 131.08C250.4 136.34 239.99 155.51 243.69 180.23C247.39 204.95 281.6 179.05 286.32 192.03C290.32 202.92 294.22 246.58 300.97 268.45C321.594 242.927 332.956 211.164 333.2 178.35Z" fill="#B8DBDE"/>
<path d="M194 217.75C184.63 175.88 105.25 176.95 97.7697 171.17C90.2897 165.39 81.0497 155.37 87.4397 147C93.8297 138.63 126.75 126.86 140.98 117.35C155.21 107.84 181.87 87.6002 177.51 70.4102C173.15 53.2202 136.68 57.1102 136.68 57.1102C133.76 57.1802 122.16 56.2602 107.42 55.4502C77.5389 75.1438 55.942 105.137 46.7397 139.72C55.3097 152.6 70.9997 162.52 94.9997 178.07C126.14 198.2 101.64 211.84 112.64 227.89C123.64 243.94 133 239.8 131.89 264.78C131.08 282.78 136.48 304.83 142.71 315.71C146.11 316.81 149.563 317.787 153.07 318.64C153.36 311.98 148.32 297.84 156.68 286.97C168 272.31 200.38 246.25 194 217.75Z" fill="#B8DBDE"/>
<path d="M266.27 110.3C258.15 109.63 255.75 108.41 255.98 116.23C256.21 124.05 260.11 126.81 266.14 125.65C272.17 124.49 275.29 111.89 280.42 109.98C285.55 108.07 292.17 108.42 294.52 115.06C296.87 121.7 290.52 127.37 294.42 127.06C298.32 126.75 301.96 121.41 299.93 113.86C297.9 106.31 308 108.21 310.7 116.36C312.89 122.95 318.24 120.92 321.96 120.86C318.823 113.365 315.063 106.146 310.72 99.2802C307.52 94.7802 304.79 89.5802 301.17 85.9202C292.49 87.5202 280.3 88.6302 276.08 88.9702C269.46 89.5602 266.27 110.3 266.27 110.3Z" fill="#B8DBDE"/>
<g opacity="0.26">
<path opacity="0.26" d="M333.138 181.336C334.823 123.569 271.006 74.8397 190.6 72.4954C110.194 70.1512 43.6463 115.08 41.9621 172.846C40.2779 230.613 104.095 279.342 184.501 281.687C264.907 284.031 331.454 239.102 333.138 181.336Z" stroke="white" stroke-width="0.5" stroke-miterlimit="10"/>
<path opacity="0.26" d="M333.192 178.327C333.452 147.898 268.456 122.672 188.018 121.984C107.581 121.296 42.1626 145.406 41.9024 175.836C41.6421 206.266 106.638 231.492 187.076 232.18C267.513 232.868 332.931 208.757 333.192 178.327Z" stroke="white" stroke-width="0.5" stroke-miterlimit="10"/>
<path opacity="0.26" d="M292.146 180.141C294.49 99.7347 249.561 33.1873 191.795 31.5031C134.028 29.8189 85.2989 93.6356 82.9546 174.042C80.6104 254.448 125.539 320.995 183.306 322.679C241.072 324.364 289.801 260.547 292.146 180.141Z" stroke="white" stroke-width="0.5" stroke-miterlimit="10"/>
<path opacity="0.26" d="M242.645 177.553C243.333 97.1153 219.223 31.697 188.793 31.4367C158.363 31.1765 133.137 96.1729 132.449 176.61C131.761 257.048 155.872 322.466 186.302 322.726C216.731 322.986 241.957 257.99 242.645 177.553Z" stroke="white" stroke-width="0.5" stroke-miterlimit="10"/>
<path opacity="0.26" d="M41.8999 175.84L333.2 178.35" stroke="white" stroke-width="0.5" stroke-miterlimit="10"/>
<path opacity="0.26" d="M188.8 31.4502L186.3 322.74" stroke="white" stroke-width="0.5" stroke-miterlimit="10"/>
</g>
<path d="M86.8501 112.11H86.4901C84.4901 99.4102 73.5701 93.2302 60.3001 93.1102C47.0301 92.9902 36.0001 99.0002 33.7901 111.67H33.4301C22.2001 111.57 13.0701 115.21 12.9701 126.44C12.8701 137.67 21.9701 143.26 33.1601 143.36C36.8702 143.389 40.5166 142.396 43.7001 140.49C48.7138 143.008 54.2498 144.309 59.8601 144.29C65.4714 144.407 71.0315 143.202 76.09 140.77C79.2421 142.727 82.8703 143.782 86.5801 143.82C97.8101 143.91 106.96 138.48 107.06 127.25C107.16 116.02 98.08 112.2 86.8501 112.11Z" fill="#FAFFF9"/>
<path opacity="0.04" d="M98.0799 113.93C98.8557 115.861 99.2299 117.93 99.1799 120.01C99.0799 131.24 89.9299 136.68 78.6999 136.58C74.9978 136.558 71.3727 135.521 68.2199 133.58C63.1578 135.987 57.6037 137.179 51.9999 137.06C46.3873 137.071 40.85 135.77 35.8299 133.26C32.6448 135.161 28.9988 136.15 25.2899 136.12C21.6219 136.156 17.9861 135.434 14.6099 134C17.6999 140.18 24.8299 143.29 33.1599 143.36C36.87 143.389 40.5164 142.396 43.6999 140.49C48.7136 143.008 54.2496 144.309 59.8599 144.29C65.4712 144.407 71.0313 143.202 76.0899 140.77C79.2419 142.727 82.8701 143.782 86.5799 143.82C97.8099 143.91 106.96 138.48 107.06 127.25C107.12 120.16 103.54 116 98.0799 113.93Z" fill="black"/>
<path d="M345.24 239.38H344.91C343.12 227.83 333.16 222.2 321.09 222.1C309.02 222 299 227.47 297 239H296.68C286.46 238.91 278.16 242.22 278.07 252.43C277.98 262.64 286.22 267.73 296.43 267.82C299.806 267.847 303.124 266.944 306.02 265.21C310.602 267.443 315.624 268.626 320.721 268.671C325.817 268.715 330.86 267.622 335.48 265.47C338.345 267.252 341.646 268.21 345.02 268.24C355.23 268.32 363.56 263.38 363.64 253.17C363.72 242.96 355.45 239.47 345.24 239.38Z" fill="#FAFFF9"/>
<path opacity="0.04" d="M355.46 241C356.164 242.757 356.504 244.638 356.46 246.53C356.37 256.75 348.05 261.69 337.84 261.6C334.466 261.571 331.165 260.613 328.3 258.83C323.68 260.987 318.636 262.083 313.537 262.04C308.438 261.997 303.413 260.815 298.83 258.58C295.936 260.311 292.622 261.21 289.25 261.18C285.915 261.205 282.61 260.544 279.54 259.24C282.35 264.86 288.83 267.68 296.41 267.75C299.786 267.777 303.104 266.874 306 265.14C310.582 267.373 315.604 268.556 320.701 268.601C325.797 268.646 330.84 267.552 335.46 265.4C338.325 267.182 341.626 268.14 345 268.17C355.21 268.25 363.54 263.31 363.62 253.1C363.67 246.71 360.42 243 355.46 241Z" fill="black"/>
<path d="M277.29 97.0802H277.05C275.69 88.3302 268.15 84.0802 259.05 84.0002C249.95 83.9202 242.3 88.0002 240.79 96.7702H240.54C232.81 96.7102 226.54 99.2102 226.45 106.95C226.36 114.69 232.62 118.53 240.35 118.6C242.907 118.609 245.418 117.917 247.61 116.6C251.081 118.286 254.884 119.177 258.743 119.21C262.602 119.243 266.42 118.416 269.92 116.79C272.092 118.138 274.593 118.861 277.15 118.88C284.88 118.95 291.15 115.21 291.25 107.47C291.35 99.7302 285 97.1502 277.29 97.0802Z" fill="#FAFFF9"/>
<path opacity="0.04" d="M285 98.3401C285.53 99.6685 285.789 101.09 285.76 102.52C285.69 110.26 279.39 114 271.65 113.93C269.097 113.911 266.598 113.188 264.43 111.84C260.93 113.466 257.112 114.293 253.253 114.26C249.394 114.227 245.591 113.335 242.12 111.65C239.928 112.967 237.417 113.659 234.86 113.65C232.335 113.663 229.835 113.163 227.51 112.18C229.64 116.43 234.51 118.57 240.28 118.62C242.837 118.629 245.348 117.937 247.54 116.62C251.011 118.305 254.814 119.197 258.673 119.23C262.532 119.263 266.35 118.436 269.85 116.81C272.022 118.158 274.523 118.881 277.08 118.9C284.81 118.97 291.08 115.23 291.18 107.49C291.312 105.495 290.777 103.513 289.658 101.856C288.539 100.199 286.9 98.9621 285 98.3401Z" fill="black"/>
<path fill-rule="evenodd" clip-rule="evenodd" d="M139.28 225.6C140.36 225.36 141.2 224.98 141.15 224.76C141.1 224.54 140.15 224.55 139.1 224.76C138.05 224.97 137.19 225.38 137.24 225.6C137.29 225.82 138.21 225.84 139.28 225.6Z" fill="#888888"/>
<path fill-rule="evenodd" clip-rule="evenodd" d="M137.45 227.68C139.99 227.12 141.83 225.68 141.57 224.48C141.31 223.28 139.01 222.77 136.48 223.33C133.95 223.89 132.1 225.33 132.36 226.53C132.62 227.73 134.92 228.25 137.45 227.68Z" fill="#3E3639"/>
<path fill-rule="evenodd" clip-rule="evenodd" d="M125.91 181.32L129.46 180.53L139.44 225.23L139.56 225.8L139.55 225.82L139.53 225.84V225.85L139.52 225.86L139.51 225.88H139.5L139.48 225.9L139.45 225.94L139.43 225.96L139.41 225.98L139.4 225.99L139.39 226L139.37 226.02L139.35 226.04L139.34 226.05L139.33 226.06L139.31 226.07V226.08L139.28 226.1L139.26 226.12L139.25 226.13L139.24 226.14L139.21 226.16L139.19 226.17L139.18 226.18L139.16 226.19L139.14 226.21L139.11 226.23L139.1 226.24L139.08 226.25L139.06 226.26V226.27L139.03 226.28L139.02 226.29L139 226.3L138.98 226.32H138.97L138.94 226.34L138.91 226.36L138.9 226.37H138.88L138.85 226.39L138.82 226.41L138.81 226.42L138.79 226.43L138.77 226.44H138.76L138.73 226.46H138.72L138.7 226.47L138.67 226.49H138.66L138.63 226.51L138.6 226.52L138.58 226.53L138.56 226.54L138.53 226.55V226.56L138.5 226.57L138.48 226.58H138.46L138.43 226.6H138.42L138.39 226.61L138.38 226.62L138.35 226.63L138.32 226.64L138.28 226.66H138.27L138.24 226.67L138.22 226.68H138.21L138.17 226.7H138.16L138.13 226.71L138.11 226.72H138.09L138.05 226.73L138.01 226.75H138L137.97 226.76L137.94 226.77H137.93L137.89 226.78H137.88L137.82 226.8H137.81L137.77 226.81L137.73 226.82L137.71 226.83H137.69L137.65 226.84L137.62 226.85H137.59L137.57 226.86H137.54L137.53 226.87H137.51H137.49L137.47 226.88H137.46H137.44L137.41 226.89H137.38L137.36 226.9H137.35H137.33L137.3 226.91H137.29H137.28H137.25H137.24L137.22 226.92H137.2H137.18H137.17L137.15 226.93H137.12H137.1L137.07 226.94H137.04H137.02H137.01H136.99H136.97H136.95L136.94 226.95H136.92H136.9H136.89H136.87H136.84H136.82H136.79H136.78L136.77 226.96H136.75H136.73H136.72H136.7H136.67H136.65H136.63H136.6H136.58H136.57H136.55H136.53H136.52H136.51L136.48 226.95H136.46H136.44H136.42H136.41H136.39H136.37L136.35 226.94H136.32H136.24L136.22 226.93H136.19H136.17L136.15 226.92H136.13H136.11L136.09 226.91L135.88 226L125.91 181.32Z" fill="#A37D73"/>
<path fill-rule="evenodd" clip-rule="evenodd" d="M125.91 181.32L129.46 180.53L129.53 180.84C129.106 181.343 128.529 181.692 127.888 181.835C127.247 181.977 126.576 181.906 125.98 181.63L125.91 181.32Z" fill="#170603"/>
<path fill-rule="evenodd" clip-rule="evenodd" d="M127.69 180.93L125.91 181.32L135.89 226.02L136.02 226.59L136.04 226.6L136.06 226.61L136.07 226.62H136.08L136.1 226.63L136.12 226.64L136.14 226.65L136.16 226.66L136.19 226.67L136.21 226.68L136.23 226.69H136.25L136.26 226.7L136.28 226.71H136.3L136.32 226.72H136.33L136.35 226.73H136.36L136.38 226.74H136.41L136.43 226.75H136.45L136.46 226.76H136.49L136.51 226.77H136.53L136.54 226.78H136.57H136.58H136.59L136.62 226.79H136.65L136.67 226.8H136.68H136.71L136.72 226.81H136.74H136.76H136.77H136.8L136.81 226.82H136.83H136.86H136.89H136.91L136.92 226.83H136.96H136.99H137.01H137.02H137.05H137.06H137.08L137.12 226.84V226.83L137.15 226.84H137.17H137.18H137.22H137.25L137.28 226.83H137.32H137.33H137.35H137.38H137.42H137.44H137.45L137.49 226.82H137.5H137.52H137.55H137.56L137.59 226.81H137.63H137.67L137.7 226.8H137.74L137.77 226.79H137.78H137.81L137.84 226.78H137.85H137.88H137.9L137.92 226.77L137.66 225.61L127.69 180.93Z" fill="#BD9585"/>
<path fill-rule="evenodd" clip-rule="evenodd" d="M127.69 180.93L125.91 181.32L125.98 181.63C126.576 181.908 127.247 181.981 127.89 181.84L127.69 180.93Z" fill="#53362B"/>
<path fill-rule="evenodd" clip-rule="evenodd" d="M126.53 175.77C127.11 175.635 127.717 175.675 128.275 175.885C128.832 176.096 129.314 176.468 129.659 176.954C130.004 177.439 130.197 178.016 130.212 178.612C130.228 179.208 130.066 179.794 129.747 180.297C129.428 180.801 128.967 181.197 128.422 181.437C127.876 181.677 127.272 181.749 126.686 181.645C126.099 181.54 125.557 181.263 125.129 180.849C124.7 180.435 124.405 179.903 124.28 179.32C124.115 178.552 124.259 177.749 124.679 177.085C125.1 176.422 125.765 175.949 126.53 175.77Z" fill="#A37D73"/>
<path fill-rule="evenodd" clip-rule="evenodd" d="M126.29 181.5C125.633 181.191 125.111 180.654 124.82 179.988C124.529 179.323 124.489 178.575 124.708 177.883C124.926 177.191 125.388 176.601 126.008 176.224C126.629 175.846 127.364 175.706 128.08 175.83L126.29 181.5Z" fill="#BD9585"/>
<path fill-rule="evenodd" clip-rule="evenodd" d="M130.08 178C130.23 178.401 130.292 178.83 130.262 179.258C130.232 179.685 130.111 180.102 129.907 180.478C129.703 180.855 129.42 181.184 129.079 181.442C128.737 181.701 128.344 181.883 127.925 181.977C127.507 182.07 127.074 182.074 126.654 181.986C126.235 181.898 125.839 181.721 125.494 181.468C125.148 181.214 124.861 180.889 124.652 180.515C124.442 180.141 124.316 179.727 124.28 179.3C124.74 181.36 127.43 180.96 127.67 180.91C128.64 180.71 130.5 179.9 130.08 178Z" fill="#53362B"/>
<path fill-rule="evenodd" clip-rule="evenodd" d="M124.28 179.32C124.459 180.086 124.931 180.75 125.595 181.171C126.259 181.592 127.061 181.735 127.83 181.57L127.69 180.93C126.71 181.14 124.65 181 124.28 179.32Z" fill="#6F3E31"/>
<path fill-rule="evenodd" clip-rule="evenodd" d="M126.06 182C126.673 182.151 127.31 182.168 127.93 182.05C128.556 181.932 129.136 181.637 129.6 181.2L149.79 176.7L149.01 185.76L153.57 193.63L133.38 198.14C132.893 198.541 132.322 198.828 131.71 198.98C131.093 199.101 130.458 199.101 129.84 198.98L126.06 182Z" fill="#E7353B"/>
<path fill-rule="evenodd" clip-rule="evenodd" d="M127.93 182C128.556 181.882 129.136 181.587 129.6 181.15L133.38 198.09C132.892 198.49 132.322 198.777 131.71 198.93L127.93 182Z" fill="#E50013"/>
<path fill-rule="evenodd" clip-rule="evenodd" d="M108.93 97.1001C109.93 96.5901 110.63 96.0101 110.52 95.8001C110.41 95.5901 109.52 95.8001 108.52 96.3601C107.52 96.9201 106.83 97.4501 106.93 97.6501C107.03 97.8501 108 97.6101 108.93 97.1001Z" fill="#888888"/>
<path fill-rule="evenodd" clip-rule="evenodd" d="M107.69 99.58C110 98.38 111.42 96.52 110.85 95.43C110.28 94.34 107.95 94.43 105.64 95.62C103.33 96.81 101.92 98.68 102.48 99.77C103.04 100.86 105.39 100.77 107.69 99.58Z" fill="#3E3639"/>
<path fill-rule="evenodd" clip-rule="evenodd" d="M84.6797 57.71L87.9097 56.04L108.99 96.7L109.25 97.22V97.24L109.24 97.26L109.23 97.27V97.29L109.22 97.3V97.31L109.2 97.33L109.18 97.38L109.17 97.41L109.15 97.43V97.44L109.14 97.45L109.13 97.48H109.12L109.11 97.5L109.1 97.51L109.09 97.53L109.08 97.55L109.06 97.58L109.04 97.6L109.03 97.62L109.02 97.63L109.01 97.65H109L108.99 97.67L108.98 97.69L108.97 97.7L108.95 97.72L108.93 97.75L108.92 97.76L108.91 97.77L108.89 97.79L108.88 97.8L108.86 97.82V97.83L108.84 97.85L108.82 97.86V97.87L108.79 97.9L108.77 97.92L108.76 97.94L108.75 97.95L108.72 97.97L108.69 98H108.68L108.67 98.02L108.65 98.04H108.64L108.62 98.07L108.61 98.08L108.59 98.09L108.57 98.11L108.56 98.12L108.53 98.14L108.51 98.16L108.49 98.18L108.48 98.19L108.45 98.21L108.42 98.23L108.4 98.25L108.39 98.26L108.36 98.28L108.33 98.3L108.32 98.31L108.3 98.33L108.27 98.34L108.26 98.35L108.23 98.37L108.22 98.38L108.2 98.4L108.18 98.41L108.17 98.42L108.13 98.44L108.1 98.46L108.08 98.47L108.07 98.48L108.03 98.5V98.51L108 98.53L107.98 98.54L107.96 98.55L107.93 98.57L107.89 98.59L107.88 98.6L107.83 98.63H107.82L107.78 98.65V98.66L107.75 98.67L107.72 98.69H107.71L107.67 98.71L107.64 98.73L107.62 98.74H107.61L107.6 98.75L107.57 98.76L107.56 98.77L107.55 98.78L107.52 98.79L107.51 98.8H107.5L107.47 98.81L107.45 98.82L107.43 98.83L107.4 98.84L107.38 98.85L107.35 98.86L107.34 98.87L107.33 98.88L107.3 98.89H107.29H107.28L107.25 98.91H107.24L107.23 98.92H107.21L107.18 98.93L107.16 98.94L107.13 98.95L107.11 98.96L107.09 98.97H107.08L107.06 98.98L107.04 98.99H107.02V99H106.99L106.97 99.01L106.94 99.02L106.92 99.03H106.9L106.87 99.04H106.86L106.85 99.05L106.83 99.06H106.81H106.8L106.78 99.07L106.76 99.08H106.73L106.71 99.09H106.69L106.66 99.1L106.64 99.11H106.62H106.61L106.59 99.12H106.57L106.55 99.13H106.53L106.51 99.14H106.5H106.48H106.46L106.44 99.15H106.42L106.33 99.17H106.31H106.29H106.27L106.24 99.18H106.22H106.2H106.18L105.75 98.35L84.6797 57.71Z" fill="#A37D73"/>
<path fill-rule="evenodd" clip-rule="evenodd" d="M84.6797 57.71L87.9097 56L88.0497 56.28C87.7735 56.8752 87.3099 57.3635 86.7297 57.67C86.1453 57.9724 85.4777 58.0743 84.8297 57.96L84.6797 57.71Z" fill="#170603"/>
<path fill-rule="evenodd" clip-rule="evenodd" d="M86.2897 56.8801L84.6797 57.7101L105.76 98.3701L106.03 98.8901H106.05L106.07 98.9001H106.08L106.09 98.9101H106.12H106.14L106.17 98.9201H106.19H106.21L106.24 98.9301H106.26H106.28H106.29H106.31H106.32H106.34L106.36 98.9401H106.39H106.4H106.42H106.44H106.47H106.49H106.5H106.53H106.55L106.57 98.9301H106.58H106.61H106.62H106.64H106.67L106.69 98.9201H106.71H106.72H106.75H106.76L106.78 98.9101H106.81H106.84L106.86 98.9001H106.87H106.9L106.94 98.8901H106.95H106.97L107 98.8801L107.03 98.8701H107.05H107.06L107.09 98.8601H107.1L107.12 98.8501L107.15 98.8401H107.19L107.2 98.8301H107.22L107.25 98.8201H107.26L107.28 98.8101L107.31 98.8001L107.35 98.7901H107.36L107.38 98.7801L107.41 98.7701L107.45 98.7601L107.47 98.7501H107.48L107.51 98.7401H107.52L107.55 98.7301L107.57 98.7201H107.58L107.61 98.7001L107.64 98.6901L107.68 98.6801L107.71 98.6601L107.75 98.6501L107.78 98.6401L107.79 98.6301L107.81 98.6201L107.84 98.6101H107.85L107.88 98.5901H107.89L107.91 98.5801L107.37 97.5201L86.2897 56.8801Z" fill="#BD9585"/>
<path fill-rule="evenodd" clip-rule="evenodd" d="M86.2897 56.8701L84.6797 57.7101L84.8297 58.0001C85.4745 58.1122 86.1382 58.0103 86.7197 57.7101L86.2897 56.8701Z" fill="#53362B"/>
<path fill-rule="evenodd" clip-rule="evenodd" d="M83.8601 52.1801C84.3864 51.9002 84.9841 51.7835 85.5771 51.8448C86.17 51.9061 86.7312 52.1426 87.1892 52.5242C87.6471 52.9058 87.9809 53.4152 88.1481 53.9874C88.3153 54.5596 88.3083 55.1686 88.1279 55.7367C87.9475 56.3048 87.602 56.8064 87.1353 57.1773C86.6687 57.5482 86.1022 57.7717 85.508 57.8193C84.9138 57.8669 84.3189 57.7363 83.7992 57.4444C83.2795 57.1524 82.8586 56.7123 82.5901 56.1801C82.2367 55.4797 82.1718 54.6687 82.4092 53.921C82.6466 53.1733 83.1674 52.5484 83.8601 52.1801Z" fill="#A37D73"/>
<path fill-rule="evenodd" clip-rule="evenodd" d="M85.09 57.7901C84.6639 57.827 84.2348 57.7724 83.8316 57.6299C83.4283 57.4874 83.0602 57.2603 82.7518 56.9639C82.4435 56.6675 82.2022 56.3085 82.0439 55.9112C81.8857 55.5138 81.8142 55.0872 81.8344 54.66C81.8545 54.2328 81.9658 53.8148 82.1607 53.4341C82.3556 53.0534 82.6297 52.7188 82.9645 52.4527C83.2993 52.1866 83.6872 51.9951 84.1021 51.8912C84.5169 51.7873 84.9492 51.7732 85.37 51.8501L85.09 57.7901Z" fill="#BD9585"/>
<path fill-rule="evenodd" clip-rule="evenodd" d="M87.8699 53.4502C88.1144 53.8003 88.2813 54.1986 88.3596 54.6184C88.4378 55.0383 88.4255 55.4699 88.3234 55.8846C88.2214 56.2993 88.032 56.6875 87.768 57.0231C87.5039 57.3587 87.1712 57.634 86.7921 57.8308C86.4131 58.0275 85.9964 58.141 85.57 58.1637C85.1435 58.1864 84.7171 58.1178 84.3193 57.9625C83.9215 57.8072 83.5614 57.5688 83.2632 57.2631C82.9649 56.9575 82.7354 56.5917 82.5898 56.1902C83.5898 58.0702 86.0598 57.0002 86.2798 56.8802C87.1698 56.4202 88.7499 55.1602 87.8699 53.4502Z" fill="#53362B"/>
<path fill-rule="evenodd" clip-rule="evenodd" d="M82.5898 56.1902C82.9582 56.8828 83.5831 57.4037 84.3308 57.641C85.0785 57.8784 85.8894 57.8135 86.5898 57.4602L86.2798 56.8702C85.3998 57.3302 83.3698 57.7002 82.5898 56.1902Z" fill="#6F3E31"/>
<path fill-rule="evenodd" clip-rule="evenodd" d="M85 58.3001C85.6342 58.2928 86.259 58.146 86.83 57.8701C87.4053 57.594 87.8907 57.1606 88.23 56.6201L106.59 47.1101L108.16 56.1101L114.57 62.5601L96.19 72.0001C95.8212 72.5123 95.3429 72.9358 94.79 73.2401C94.228 73.5058 93.6205 73.6619 93 73.7001L85 58.3001Z" fill="#E7353B"/>
<path fill-rule="evenodd" clip-rule="evenodd" d="M86.8101 57.8701C87.3854 57.594 87.8708 57.1606 88.2101 56.6201L96.2101 72.0301C95.8413 72.5423 95.363 72.9659 94.8101 73.2701L86.8101 57.8701Z" fill="#E50013"/>
<path fill-rule="evenodd" clip-rule="evenodd" d="M291.29 105.21C290.22 104.93 289.4 104.51 289.46 104.29C289.52 104.07 290.46 104.12 291.51 104.4C292.56 104.68 293.39 105.1 293.33 105.32C293.27 105.54 292.36 105.5 291.29 105.21Z" fill="#888888"/>
<path fill-rule="evenodd" clip-rule="evenodd" d="M293 107.36C290.49 106.7 288.7 105.18 289 104C289.3 102.82 291.62 102.39 294.13 103.06C296.64 103.73 298.43 105.24 298.13 106.42C297.83 107.6 295.55 108 293 107.36Z" fill="#3E3639"/>
<path fill-rule="evenodd" clip-rule="evenodd" d="M306.44 61.5101L302.93 60.5701L291.15 104.83L291 105.4L291.01 105.41L291.02 105.42L291.03 105.44H291.04L291.05 105.46L291.06 105.47V105.48L291.08 105.5L291.11 105.54L291.13 105.56L291.15 105.58L291.16 105.59L291.17 105.6L291.19 105.62V105.63L291.21 105.64V105.65L291.23 105.67L291.24 105.68L291.25 105.69L291.27 105.71H291.28L291.29 105.73L291.31 105.74L291.32 105.75L291.34 105.77L291.36 105.79L291.38 105.8L291.39 105.81L291.41 105.83L291.44 105.85H291.45L291.46 105.86L291.49 105.88V105.89L291.52 105.9V105.91L291.54 105.92L291.56 105.94H291.57L291.6 105.96L291.63 105.98L291.64 105.99L291.66 106L291.69 106.02L291.72 106.03L291.73 106.04L291.75 106.05L291.77 106.07H291.78L291.81 106.09H291.82L291.84 106.11L291.86 106.12H291.87L291.91 106.14L291.94 106.16L291.96 106.17L291.97 106.18L292 106.19H292.01L292.04 106.21L292.06 106.22H292.07L292.11 106.24L292.14 106.26H292.16L292.18 106.27L292.21 106.28V106.29L292.25 106.3L292.26 106.31L292.29 106.32L292.31 106.33H292.32L292.36 106.35H292.37L292.4 106.36L292.42 106.37L292.44 106.38L292.47 106.39H292.48L292.51 106.41H292.53L292.55 106.42L292.58 106.43H292.59L292.63 106.44L292.64 106.45L292.7 106.47H292.71L292.75 106.48H292.76L292.79 106.49L292.81 106.5H292.83L292.87 106.52H292.9L292.93 106.53L292.95 106.54H292.98L292.99 106.55H293.01H293.03L293.05 106.56H293.06L293.09 106.57H293.11L293.14 106.58H293.16H293.17L293.19 106.59H293.22H293.23L293.24 106.6H293.27L293.28 106.61H293.29H293.32L293.34 106.62H293.35H293.37H293.4V106.63H293.42H293.45L293.47 106.64H293.5H293.51H293.52H293.55L293.57 106.65H293.6H293.62L293.65 106.66H293.67H293.68H293.7H293.72H293.73H293.75L293.77 106.67H293.79H293.8H293.82H293.84H293.87H293.89H293.92H293.94H293.95H293.96H293.99H294H294.01H294.03H294.06H294.08H294.1H294.13H294.15H294.17H294.19H294.28L294.3 106.66H294.32H294.35H294.37H294.39L294.41 106.65H294.43L294.67 105.74L306.44 61.5101Z" fill="#A37D73"/>
<path fill-rule="evenodd" clip-rule="evenodd" d="M306.44 61.5101L302.93 60.5701L302.85 60.8801C303.247 61.4073 303.811 61.7845 304.45 61.9501C305.084 62.1165 305.755 62.0708 306.36 61.8201L306.44 61.5101Z" fill="#170603"/>
<path fill-rule="evenodd" clip-rule="evenodd" d="M304.69 61.04L306.44 61.51L294.66 105.77L294.51 106.33L294.5 106.34H294.49L294.47 106.35L294.46 106.36H294.45L294.43 106.37L294.41 106.38L294.39 106.39L294.36 106.4L294.34 106.41H294.32L294.3 106.42H294.28L294.27 106.43L294.25 106.44H294.24H294.22L294.2 106.45H294.17L294.16 106.46H294.15L294.12 106.47H294.09L294.08 106.48H294.07H294.04H294.03L294.01 106.49H293.99L293.96 106.5H293.95H293.93L293.9 106.51H293.87H293.85H293.84L293.81 106.52H293.78H293.76H293.75H293.72H293.71L293.69 106.53H293.66H293.63H293.61H293.6H293.57H293.56H293.54H293.51H293.5H293.47H293.46H293.44H293.41H293.37H293.35H293.34H293.31H293.3H293.27L293.25 106.52H293.24H293.21H293.19H293.17H293.14L293.1 106.51H293.08H293.07L293.03 106.5H293H292.97H292.96L292.93 106.49H292.89L292.86 106.48L292.82 106.47H292.79L292.75 106.46H292.74H292.71L292.69 106.45H292.68L292.64 106.44H292.63H292.61L292.91 105.29L304.69 61.04Z" fill="#BD9585"/>
<path fill-rule="evenodd" clip-rule="evenodd" d="M304.69 61L306.44 61.47L306.36 61.78C305.754 62.0308 305.083 62.0764 304.45 61.91L304.69 61Z" fill="#53362B"/>
<path fill-rule="evenodd" clip-rule="evenodd" d="M306.05 55.9301C305.476 55.7722 304.867 55.7888 304.303 55.9777C303.738 56.1666 303.242 56.5192 302.879 56.9908C302.515 57.4623 302.3 58.0314 302.261 58.6255C302.222 59.2197 302.36 59.8121 302.659 60.3273C302.958 60.8424 303.403 61.2571 303.938 61.5184C304.473 61.7797 305.074 61.8759 305.663 61.7947C306.253 61.7135 306.806 61.4586 307.25 61.0625C307.695 60.6663 308.011 60.1468 308.16 59.5701C308.356 58.8079 308.245 57.9991 307.85 57.3182C307.455 56.6373 306.809 56.1388 306.05 55.9301Z" fill="#A37D73"/>
<path fill-rule="evenodd" clip-rule="evenodd" d="M306.06 61.6802C306.731 61.399 307.277 60.8835 307.596 60.2298C307.915 59.5761 307.986 58.8286 307.795 58.1265C307.605 57.4245 307.165 56.8157 306.559 56.4135C305.953 56.0113 305.221 55.8431 304.5 55.9402L306.06 61.6802Z" fill="#BD9585"/>
<path fill-rule="evenodd" clip-rule="evenodd" d="M302.41 58C302.248 58.3947 302.172 58.8193 302.187 59.2456C302.203 59.672 302.309 60.0901 302.498 60.4722C302.688 60.8543 302.957 61.1915 303.287 61.4614C303.618 61.7313 304.002 61.9276 304.414 62.0373C304.826 62.147 305.257 62.1675 305.678 62.0975C306.099 62.0275 306.5 61.8685 306.854 61.6312C307.209 61.3939 307.509 61.0838 307.734 60.7214C307.959 60.3591 308.104 59.9529 308.16 59.53C307.61 61.53 304.94 61.07 304.7 61C303.74 60.79 301.91 59.9 302.41 58Z" fill="#53362B"/>
<path fill-rule="evenodd" clip-rule="evenodd" d="M308.16 59.5701C307.951 60.3289 307.453 60.9754 306.772 61.3701C306.091 61.7648 305.282 61.8761 304.52 61.6801L304.69 61.0401C305.65 61.2901 307.72 61.2201 308.16 59.5701Z" fill="#6F3E31"/>
<path fill-rule="evenodd" clip-rule="evenodd" d="M306.27 62.1502C305.654 62.2861 305.016 62.2861 304.4 62.1502C303.777 62.0118 303.207 61.6957 302.76 61.2402L282.76 55.9202L283.17 65.0102L278.29 72.6902L298.29 78.0102C298.765 78.4273 299.325 78.7376 299.93 78.9202C300.548 79.04 301.182 79.04 301.8 78.9202L306.27 62.1502Z" fill="#E7353B"/>
<path fill-rule="evenodd" clip-rule="evenodd" d="M304.4 62.12C303.777 61.9816 303.207 61.6655 302.76 61.21L298.3 78C298.775 78.4171 299.334 78.7274 299.94 78.91L304.4 62.12Z" fill="#E50013"/>
</g>
<defs>
<clipPath id="clip0">
<rect width="363.62" height="323" fill="white"/>
</clipPath>
</defs>
</svg>
