<svg width="446" height="304" viewBox="0 0 446 304" fill="none" xmlns="http://www.w3.org/2000/svg">
<g clip-path="url(#clip0)">
<path d="M63.2402 86.59C98.7402 60.8 91.0602 44.69 118.8 29.13C139.86 17.32 161.29 18.13 204.14 19.83C248 21.54 269.93 22.39 288.36 34.54C319.95 55.36 313.36 82.14 350.72 105.36C371.2 118.07 375.03 111.19 395.91 124.83C403 129.46 444.1 156.3 445.18 196.92C445.93 225.2 426.9 246.19 421.18 252.55C394.23 282.28 348.99 288.18 259.59 298.77C230.228 302.367 200.661 304.038 171.08 303.77C108.85 303.14 91.2602 294.25 82.7402 289.08C69.7702 281.18 60.0002 268.81 40.3302 244.08C17.1902 214.93 5.55022 199.9 1.75022 177.53C0.350216 169.3 -3.87978 144.38 9.54022 122.93C21.5502 103.74 35.6102 106.66 63.2402 86.59Z" fill="#8CC63E"/>
<path d="M63.2402 86.59C98.7402 60.8 91.0602 44.69 118.8 29.13C139.86 17.32 161.29 18.13 204.14 19.83C248 21.54 269.93 22.39 288.36 34.54C319.95 55.36 313.36 82.14 350.72 105.36C371.2 118.07 375.03 111.19 395.91 124.83C403 129.46 444.1 156.3 445.18 196.92C445.93 225.2 426.9 246.19 421.18 252.55C394.23 282.28 348.99 288.18 259.59 298.77C230.228 302.367 200.661 304.038 171.08 303.77C108.85 303.14 91.2602 294.25 82.7402 289.08C69.7702 281.18 60.0002 268.81 40.3302 244.08C17.1902 214.93 5.55022 199.9 1.75022 177.53C0.350216 169.3 -3.87978 144.38 9.54022 122.93C21.5502 103.74 35.6102 106.66 63.2402 86.59Z" fill="url(#paint0_linear)"/>
<path d="M298.35 22.1L286.52 21.2V21.13H286.1H285.67V21.2L273.84 22.1C273.84 22.1 271.32 33.1 273.84 36.74C277.694 35.6339 281.665 34.9828 285.67 34.8H286.52C290.526 34.9816 294.496 35.6327 298.35 36.74C300.87 33.08 298.35 22.1 298.35 22.1Z" fill="#37332F"/>
<path d="M343.3 46.6101C343.3 46.6101 344.04 40.1201 345.81 39.7101C347.58 39.3001 359.12 37.9501 360.27 38.0601C361.42 38.1701 360.69 39.6301 359.54 40.5701C358.39 41.5101 348.01 44.5701 348.01 44.5701L345.81 48.4401L343.3 46.6101Z" fill="#E58B5E"/>
<path d="M317.4 58.7001C317.4 58.7001 329.57 68.6101 332.11 70.6401C332.11 70.6401 333.49 75.3901 327.94 79.0401L311.94 67.1901L317.4 58.7001Z" fill="#EA6A7C"/>
<path d="M307.49 45.62L305.8 64.26C315.87 71.41 320.92 75.69 325.49 79.04C325.49 79.04 333.06 78.52 334.1 71.91C334.1 71.91 319 55.11 307.49 45.62Z" fill="#C63F3C"/>
<path d="M347.621 47.69C347.621 47.69 332.911 78.42 330.691 79.43C325.811 81.66 323.041 77.01 323.081 73.76C323.121 70.51 342.611 44.62 342.611 44.62L347.621 47.69Z" fill="#C63F3C"/>
<path d="M293.66 222.5L289.86 222.16C289.86 222.16 287.41 229.21 288.23 232.9C288.69 234.98 300.69 235.73 302.02 235.3C302.02 235.3 303.34 232.38 298.57 231.08C298.57 231.08 295.17 229.75 294.88 228.41C294.49 226.65 293.66 222.5 293.66 222.5Z" fill="#4F4C4A"/>
<path d="M279.781 222.5L283.58 222.16C283.58 222.16 286.031 229.21 285.221 232.9C284.761 234.98 272.761 235.73 271.421 235.3C271.421 235.3 270.101 232.38 274.881 231.08C274.881 231.08 278.271 229.75 278.561 228.41C279.001 226.65 279.781 222.5 279.781 222.5Z" fill="#4F4C4A"/>
<path d="M269.66 119.26C272.27 161.26 279.78 222.5 279.78 222.5L283.68 222.44C284.16 200.37 286.63 129.53 286.63 129.53C288.39 158.39 289.58 223.02 289.58 223.02L293.8 223.16C304.37 140.83 305.97 139.24 307.52 120.16L269.66 119.26Z" fill="#E58B5E"/>
<path d="M267.08 102.89C267.08 102.89 261.2 129.66 269.66 172.97C269.66 172.97 286.31 178.83 304.4 172.97C304.4 172.97 312.4 122.32 304.4 105.02L267.08 102.89Z" fill="#C63F3C"/>
<path d="M250.2 61.26C250.2 61.26 239.74 69.78 237.56 71.52C237.56 71.52 236.37 75.61 241.15 78.75L254.93 68.57L250.2 61.26Z" fill="#EA6A7C"/>
<path d="M235.46 72.5C235.46 72.5 255.93 53 265.36 45.62L281.78 50C281.53 50.33 281.26 50.66 280.96 51C277.55 55 249.81 72.65 242.2 78.24C242.2 78.24 236.35 78.17 235.46 72.5Z" fill="#C63F3C"/>
<path d="M295.47 40.6801C292.25 34.3001 292.47 20.2101 292.47 20.2101C292.47 20.2101 281.9 26.6401 281.82 28.1101C281.46 34.0001 280.13 40.0001 279.2 42.0001C278.81 42.8501 273.99 43.8201 270.7 44.3901V55.9001L302.05 51.1401V42.6801C298.72 41.5101 295.47 40.6801 295.47 40.6801Z" fill="#C97550"/>
<path d="M279.621 40.88C280.774 36.9711 281.492 32.9466 281.761 28.88L290.601 22.88H292.491C292.491 24.55 292.641 26.88 292.871 29.3C290.941 33.58 285.621 43.64 279.621 40.88Z" fill="#B25F42"/>
<path d="M307.21 112.77C306.678 105.568 305.264 98.4581 303 91.6001C301.919 88.6377 301.536 85.4653 301.883 82.3307C302.23 79.1961 303.297 76.1842 305 73.5301C310.27 65.3101 307.53 45.6201 307.53 45.6201C305.3 43.4201 298.14 40.7901 295.78 40.6901C295.78 40.6901 287.87 50.9701 278.9 41.9901L265.4 45.6201C265.4 45.6201 262.27 64.9101 268.79 72.1601C274.69 78.7501 270.94 88.2201 269.99 90.8001C267.425 97.8999 265.746 105.289 264.99 112.8C264.99 112.8 266.32 117.64 275.15 123.68L286.45 112.8L297.33 123.68C297.33 123.68 306.47 116 307.21 112.77Z" fill="#C63F3C"/>
<path d="M295.74 40.6901C295.74 40.6901 287.83 51.0001 278.86 42.0001C278.86 42.0001 283.76 62.7401 287.42 69.0601C287.42 69.0501 294.8 48.5801 295.74 40.6901Z" fill="#FCF6D8"/>
<path d="M276.18 10.4C275.797 15.188 275.979 20.0044 276.72 24.75C277.45 28.56 281.99 32.75 284.41 33.84C284.41 33.84 285.07 34.22 287.41 33.84C290.32 33.36 294.76 29 296.18 23.28C296.18 23.28 298.331 23.64 299.231 20.96C300.131 18.28 299 14.51 296.16 17C296.16 17 296.911 5.20004 291.731 4.48004C286.551 3.76004 276.64 2.00004 276.18 10.4Z" fill="#E58B5E"/>
<path d="M289.47 15.94C289.64 15.697 289.866 15.4983 290.129 15.3608C290.392 15.2233 290.684 15.151 290.98 15.15C291.304 15.1486 291.623 15.2341 291.902 15.3977C292.182 15.5612 292.413 15.7969 292.57 16.08" stroke="#37332F" stroke-width="0.61" stroke-miterlimit="10" stroke-linecap="round"/>
<path d="M281.67 15.94C281.848 15.6847 282.087 15.4785 282.366 15.3408C282.644 15.203 282.953 15.138 283.264 15.152C283.575 15.166 283.877 15.2584 284.142 15.4207C284.407 15.583 284.627 15.8098 284.78 16.08" stroke="#37332F" stroke-width="0.61" stroke-miterlimit="10" stroke-linecap="round"/>
<path d="M276.521 23.17C275.788 23.2335 275.058 23.0322 274.461 22.6029C273.865 22.1735 273.443 21.5444 273.271 20.83C272.371 18.15 273.531 14.4 276.341 16.9" fill="#E58B5E"/>
<path d="M284.2 17.27C284.202 17.4073 284.163 17.5421 284.088 17.6571C284.013 17.7721 283.905 17.8621 283.779 17.9155C283.652 17.969 283.513 17.9835 283.378 17.9572C283.243 17.9309 283.119 17.865 283.022 17.7679C282.925 17.6708 282.859 17.5469 282.833 17.4121C282.807 17.2774 282.821 17.1378 282.875 17.0113C282.928 16.8849 283.018 16.7772 283.133 16.7022C283.248 16.6271 283.383 16.5881 283.52 16.59C283.61 16.5887 283.699 16.6054 283.782 16.6391C283.865 16.6728 283.941 16.7228 284.004 16.7862C284.067 16.8496 284.118 16.9251 284.151 17.0082C284.185 17.0913 284.202 17.1804 284.2 17.27Z" fill="#37332F"/>
<path d="M291.711 17.2701C291.716 17.3657 291.702 17.4614 291.668 17.5512C291.635 17.641 291.583 17.7228 291.516 17.7915C291.45 17.8602 291.369 17.9142 291.28 17.9501C291.192 17.986 291.096 18.003 291.001 18.0001C290.91 18.0001 290.82 17.9822 290.737 17.9476C290.653 17.9129 290.577 17.862 290.513 17.798C290.449 17.7339 290.398 17.6578 290.363 17.5741C290.328 17.4904 290.311 17.4007 290.311 17.3101C290.311 17.2195 290.328 17.1297 290.363 17.046C290.398 16.9623 290.449 16.8862 290.513 16.8222C290.577 16.7581 290.653 16.7073 290.737 16.6726C290.82 16.6379 290.91 16.6201 291.001 16.6201C291.18 16.6146 291.355 16.6794 291.488 16.8008C291.62 16.9222 291.7 17.0906 291.711 17.2701Z" fill="#37332F"/>
<path d="M244.89 73.23C244.89 73.23 255.11 91.81 261.31 100.74L262.08 105.54C262.08 105.54 235.59 83.3 235.46 75.54C235.33 67.78 244.89 73.23 244.89 73.23Z" fill="#EB808B"/>
<path d="M260 103.78C260 103.78 261.55 108.67 264.33 109.52C264.33 109.52 265.02 110.11 265.58 109.87C265.922 109.66 266.192 109.352 266.356 108.986C266.52 108.621 266.57 108.215 266.5 107.82C266.43 106.82 267.1 106.04 267.24 105.34C267.456 104.526 267.392 103.664 267.06 102.89C265.368 101.295 263.187 100.315 260.87 100.11L260 103.78Z" fill="#E58B5E"/>
<path d="M275.21 16.18C275.21 16.18 276.32 18 277.15 18C277.98 18 280 11.41 280 10C280 10 287.19 9.62003 289 6.00003C290.81 2.38003 284 -3.33997 277.08 2.65003C272.74 6.31003 275.21 16.18 275.21 16.18Z" fill="#37332F"/>
<path d="M297.34 16.1801C297.34 16.1801 296.24 18.0001 295.41 18.0001C294.58 18.0001 292.6 11.4501 292.6 10.0001C292.6 10.0001 285.41 9.62005 283.6 6.00005C281.79 2.38005 288.78 -3.11995 295.75 2.86005C300.05 6.53005 297.34 16.1801 297.34 16.1801Z" fill="#37332F"/>
<path d="M282.851 25.11H289.661C289.661 25.11 286.171 29.44 282.851 25.11Z" fill="#FCF6D8"/>
<path d="M279.62 40.8801L287.42 69.0501L278.86 63.7401L279.96 56.7401L274.57 56.2401L276.66 42.6201C276.66 42.6201 279.28 39.5601 279.62 40.8801Z" fill="#E4544A"/>
<path d="M295.3 39.93L287.42 69.12L296 63.81L294.9 56.81L300.28 56.31L298.28 41.68C298.28 41.68 295.64 38.61 295.3 39.93Z" fill="#E4544A"/>
<path d="M261.23 98.77L255.84 102.93C255.84 102.93 232.18 79.42 235.2 72.81C235.2 72.81 238.09 68.81 246.93 74.07L261.23 98.77Z" fill="#C63F3C"/>
<path d="M320.66 76.87H299.76V90.36H320.66V76.87Z" fill="#605D5B"/>
<path d="M261.53 65.48H199.09C198.881 65.48 198.71 65.6501 198.71 65.86V108.12C198.71 108.33 198.881 108.5 199.09 108.5H261.53C261.74 108.5 261.91 108.33 261.91 108.12V65.86C261.91 65.6501 261.74 65.48 261.53 65.48Z" fill="#605D5B"/>
<path d="M236.41 119.56H224.22L227.01 84.98H233.61L236.41 119.56Z" fill="#4F4C4A"/>
<path d="M243.77 119.56H216.86C216.651 119.56 216.48 119.73 216.48 119.94V121.96C216.48 122.17 216.651 122.34 216.86 122.34H243.77C243.98 122.34 244.15 122.17 244.15 121.96V119.94C244.15 119.73 243.98 119.56 243.77 119.56Z" fill="#605D5B"/>
<path d="M381.781 122.34H177.021V243.44H381.781V122.34Z" fill="#186D1E"/>
<path d="M381.781 122.34H177.021V128.26H381.781V122.34Z" fill="#37332F"/>
<path d="M354.25 95.9H299.76V122.34H354.25V95.9Z" fill="#605D5B"/>
<path d="M314.44 95.9001H306.73L308.59 82.3401H312.57L314.44 95.9001Z" fill="#4F4C4A"/>
<path d="M213.228 146.225L192.697 146.831L193.538 175.338L214.069 174.733L213.228 146.225Z" fill="#605D5B"/>
<path d="M211.592 151.796L194.849 152.29L195.378 170.222L212.121 169.728L211.592 151.796Z" fill="white"/>
<path d="M165.001 147.5C164.221 146.93 162.191 145.39 161.501 141.07L160.041 141.13L158.591 141.18C158.241 145.55 156.401 147.3 155.661 147.93C154.461 148.75 153.971 149.2 154.011 150.17L155.011 174.55C155.02 174.804 155.078 175.053 155.184 175.284C155.289 175.514 155.439 175.722 155.625 175.895C155.811 176.067 156.029 176.202 156.266 176.29C156.504 176.379 156.757 176.419 157.011 176.41L165.891 176.07C166.402 176.049 166.884 175.827 167.232 175.453C167.58 175.078 167.767 174.581 167.751 174.07L166.751 149.7C166.711 148.7 166.321 148.2 165.001 147.5Z" fill="#EFA731"/>
<path d="M161.882 139.665L158.064 139.815L158.157 142.173L161.974 142.023L161.882 139.665Z" fill="#FCF6D8"/>
<path d="M165.955 153.347L155.303 153.764L155.767 165.625L166.419 165.208L165.955 153.347Z" fill="#FCF6D8"/>
<path d="M183.505 154.471L161.984 155.106L162.587 175.528L184.108 174.893L183.505 154.471Z" fill="#E4544A"/>
<path d="M184.722 149.944L160.493 150.659L160.668 156.596L184.897 155.881L184.722 149.944Z" fill="#605D5B"/>
<path d="M182.685 160.239L163.603 160.802L163.847 169.068L182.929 168.505L182.685 160.239Z" fill="#FCF6D8"/>
<path d="M197.261 145.91C196.481 145.33 194.461 143.77 193.821 139.44L192.361 139.49H190.911C190.521 143.85 188.661 145.58 187.911 146.2C186.711 147.02 186.211 147.46 186.241 148.43L186.961 172.82C186.968 173.075 187.026 173.326 187.131 173.558C187.236 173.79 187.385 174 187.571 174.175C187.757 174.349 187.975 174.485 188.213 174.576C188.452 174.666 188.706 174.708 188.961 174.7L197.841 174.44C198.095 174.432 198.346 174.374 198.579 174.27C198.811 174.165 199.02 174.015 199.195 173.83C199.37 173.644 199.506 173.426 199.596 173.187C199.686 172.949 199.729 172.695 199.721 172.44L199.001 148.1C199.001 147.12 198.591 146.62 197.261 145.91Z" fill="#EFA731"/>
<path d="M194.229 138.051L190.41 138.163L190.48 140.522L194.298 140.41L194.229 138.051Z" fill="#FCF6D8"/>
<path d="M198.164 151.764L187.509 152.079L187.859 163.943L198.514 163.629L198.164 151.764Z" fill="#FCF6D8"/>
<path d="M222.76 171.1C221.76 171.01 219.26 170.73 216.46 167.36L215.24 168.15L214.03 168.94C215.95 172.87 215.26 175.32 214.95 176.24C214.34 177.56 214.15 178.19 214.68 179.01L228 199.48C228.291 199.901 228.731 200.195 229.232 200.301C229.732 200.407 230.254 200.317 230.69 200.05L238.14 195.22C238.571 194.94 238.872 194.5 238.979 193.998C239.086 193.495 238.989 192.971 238.71 192.54L225.44 172.07C224.86 171.24 224.27 171 222.76 171.1Z" fill="#EFA731"/>
<path d="M216.088 165.939L212.884 168.018L214.168 169.998L217.373 167.918L216.088 165.939Z" fill="white"/>
<path d="M226.586 175.603L217.643 181.404L224.102 191.362L233.045 185.561L226.586 175.603Z" fill="#FCF6D8"/>
<path d="M173.35 175.209L152.819 175.814L153.66 204.322L174.192 203.716L173.35 175.209Z" fill="#605D5B"/>
<path d="M171.684 180.79L154.952 181.283L155.481 199.216L172.213 198.722L171.684 180.79Z" fill="#FCF6D8"/>
<path d="M195.822 174.556L175.291 175.162L176.132 203.669L196.663 203.063L195.822 174.556Z" fill="#605D5B"/>
<path d="M194.185 180.126L177.442 180.62L177.971 198.553L194.714 198.059L194.185 180.126Z" fill="#FCF6D8"/>
<path d="M218.312 173.893L197.781 174.499L198.622 203.006L219.153 202.4L218.312 173.893Z" fill="#605D5B"/>
<path d="M216.675 179.454L199.933 179.948L200.462 197.88L217.204 197.386L216.675 179.454Z" fill="#FCF6D8"/>
<path d="M176.251 175.08C175.471 174.51 173.451 172.95 172.811 168.62H171.351H169.901C169.511 172.98 167.651 174.72 166.901 175.34C165.691 176.15 165.191 176.59 165.221 177.57L166.001 202C166.031 202.509 166.255 202.988 166.627 203.337C166.999 203.687 167.49 203.881 168.001 203.88L176.881 203.61C177.136 203.604 177.387 203.547 177.62 203.442C177.853 203.338 178.063 203.189 178.238 203.002C178.413 202.816 178.549 202.598 178.639 202.359C178.728 202.12 178.77 201.865 178.761 201.61L178.001 177.27C178.001 176.29 177.581 175.79 176.251 175.08Z" fill="#EFA731"/>
<path d="M173.218 167.228L169.4 167.34L169.47 169.699L173.288 169.587L173.218 167.228Z" fill="white"/>
<path d="M177.154 180.941L166.499 181.256L166.849 193.12L177.504 192.806L177.154 180.941Z" fill="#FCF6D8"/>
<path d="M204.36 174.89C203.58 174.32 201.54 172.78 200.85 168.46L199.4 168.52L197.95 168.58C197.6 172.94 195.75 174.69 195.02 175.32C193.82 176.14 193.33 176.59 193.37 177.57L194.32 201.94C194.341 202.451 194.563 202.933 194.938 203.282C195.312 203.63 195.809 203.816 196.32 203.8L205.2 203.46C205.711 203.439 206.194 203.217 206.542 202.843C206.89 202.468 207.077 201.971 207.06 201.46L206.06 177.09C206.08 176.09 205.7 175.59 204.36 174.89Z" fill="#EFA731"/>
<path d="M201.269 167.034L197.452 167.184L197.544 169.542L201.361 169.393L201.269 167.034Z" fill="white"/>
<path d="M205.345 180.737L194.684 181.154L195.148 193.014L205.809 192.597L205.345 180.737Z" fill="#FCF6D8"/>
<path d="M146.431 117.71L127.681 106.12L125.331 68.78L115.521 65.52L120.921 112.48L142.521 121.62L146.431 117.71Z" fill="#E58B5E"/>
<path d="M142.521 121.62C142.521 121.62 148.301 125 154.001 133.89C154.001 133.89 159.58 123.66 146.48 117.71L142.521 121.62Z" fill="#E58B5E"/>
<path d="M54.3105 133.23L58.2405 70.9L68.0405 67.64L60.0805 134.03L54.3105 133.23Z" fill="#E58B5E"/>
<path d="M54.3204 133.23C53.7054 136.095 53.8496 139.072 54.7389 141.864C55.6282 144.656 57.2316 147.168 59.3904 149.15C59.3904 149.15 64.3904 149.15 60.0804 134.03L54.3204 133.23Z" fill="#E58B5E"/>
<path d="M103.51 241.69L99.4502 241.33C99.4502 241.33 96.8202 248.87 97.7002 252.81C98.1902 255.03 111.03 255.81 112.45 255.38C112.45 255.38 113.86 252.27 108.75 250.86C108.75 250.86 105.13 249.45 104.81 248.02C104.39 246.13 103.51 241.69 103.51 241.69Z" fill="#37332F"/>
<path d="M74.5604 241.69L78.6304 241.33C78.6304 241.33 81.2504 248.87 80.3704 252.81C79.8804 255.03 67.0404 255.81 65.6304 255.38C65.6304 255.38 64.2204 252.27 69.3104 250.86C69.3104 250.86 72.9404 249.45 73.3104 248.02C73.6804 246.13 74.5604 241.69 74.5604 241.69Z" fill="#37332F"/>
<path d="M113.94 124.07C113.94 124.07 110 209.55 106.51 242.4H97.4305C97.4305 242.4 92.9705 171.24 91.0805 140.4C91.0805 140.4 83.5305 227.61 81.4805 242.4H70.3905C70.3905 242.4 70.5505 134.25 69.0005 113.79L113.94 124.07Z" fill="#4F4C4A"/>
<path d="M70.5301 51.25C70.5301 51.25 82.5301 48.25 83.1401 46.8C84.1401 44.67 85.5602 38.24 85.9402 31.94C86.0302 30.38 97.3302 23.49 97.3302 23.49C97.3302 23.49 97.0901 38.56 100.53 45.38C100.53 45.38 104.01 46.27 107.53 47.52V56.52L73.6202 61.72C70.0002 59.26 70.0901 51.86 70.5301 51.25Z" fill="#C97550"/>
<path d="M83.6006 45.59C84.8192 41.4106 85.5869 37.1128 85.8906 32.77L95.3306 26.38H97.3306C97.3306 28.17 97.4806 30.62 97.7306 33.25C95.7006 37.79 90.0006 48.55 83.6006 45.59Z" fill="#B25F42"/>
<path d="M68.0005 131.12L68.3005 50.66L82.7305 46.78C92.3305 56.39 100.73 45.4 100.73 45.39C103.25 45.51 117.86 46.7 117.42 56.45C117.42 56.45 115.09 129.45 113.85 131.12H68.0005Z" fill="#C63F3C"/>
<path d="M79.9106 13.0001C79.5002 18.1184 79.6949 23.2673 80.4906 28.3401C81.2806 32.4101 86.1306 36.9401 88.7106 38.0601C88.7106 38.0601 89.4206 38.4601 91.9406 38.0601C95.0506 37.5501 99.7906 32.9001 101.321 26.7801C101.321 26.7801 103.611 27.1601 104.571 24.3001C105.531 21.4401 104.281 17.4101 101.281 20.0901C101.281 20.0901 102.081 7.48007 96.5406 6.71007C91.0006 5.94007 80.4006 4.05007 79.9106 13.0001Z" fill="#E58B5E"/>
<path d="M84.3306 18.94C84.524 18.6746 84.7797 18.4609 85.0753 18.3178C85.3708 18.1746 85.6971 18.1065 86.0252 18.1193C86.3534 18.1322 86.6733 18.2256 86.9568 18.3914C87.2403 18.5572 87.4785 18.7903 87.6506 19.07" stroke="#37332F" stroke-width="0.64" stroke-miterlimit="10" stroke-linecap="round"/>
<path d="M92.3306 18.94C92.524 18.6746 92.7797 18.4609 93.0753 18.3178C93.3708 18.1746 93.6971 18.1065 94.0252 18.1193C94.3534 18.1322 94.6733 18.2256 94.9568 18.3914C95.2403 18.5572 95.4785 18.7903 95.6506 19.07" stroke="#37332F" stroke-width="0.64" stroke-miterlimit="10" stroke-linecap="round"/>
<path d="M80.2803 26.66C79.4969 26.7298 78.7145 26.5157 78.0757 26.0568C77.4369 25.5979 76.9843 24.9247 76.8003 24.16C75.8003 21.29 77.0803 17.28 80.0903 19.95" fill="#E58B5E"/>
<path d="M97.7602 2.45C97.7602 2.45 104.22 1.56 102.35 19.37C102.35 19.37 100.6 21.99 99.9902 21.37C99.3802 20.75 99.9302 19.25 99.9902 17.62C100.05 15.99 98.6002 9.62 97.9902 9.41C97.3802 9.2 91.2203 17 81.4102 15.54C80.9469 17.1146 80.9021 18.7828 81.2802 20.38C81.8802 23.19 80.6102 21.51 80.2802 21.02C79.9502 20.53 78.8002 19.07 78.8002 19.07C78.8002 19.07 76.5402 12.4 79.0002 6C79.0002 6 84.3302 -2.59 97.7602 2.45Z" fill="#37332F"/>
<path d="M87.0005 20.36C87.0005 20.5064 86.9571 20.6494 86.8758 20.7711C86.7945 20.8928 86.6789 20.9877 86.5437 21.0437C86.4085 21.0997 86.2597 21.1143 86.1161 21.0858C85.9726 21.0572 85.8407 20.9867 85.7372 20.8833C85.6338 20.7798 85.5633 20.6479 85.5347 20.5044C85.5062 20.3608 85.5208 20.212 85.5768 20.0768C85.6328 19.9416 85.7277 19.826 85.8494 19.7447C85.9711 19.6634 86.1142 19.62 86.2605 19.62C86.4568 19.62 86.645 19.698 86.7838 19.8367C86.9225 19.9755 87.0005 20.1637 87.0005 20.36Z" fill="#37332F"/>
<path d="M95.0703 20.36C95.0703 20.5064 95.0269 20.6494 94.9456 20.7711C94.8643 20.8928 94.7487 20.9877 94.6135 21.0437C94.4783 21.0997 94.3295 21.1143 94.186 21.0858C94.0424 21.0572 93.9106 20.9867 93.8071 20.8833C93.7036 20.7798 93.6331 20.6479 93.6046 20.5044C93.576 20.3608 93.5907 20.212 93.6467 20.0768C93.7027 19.9416 93.7975 19.826 93.9192 19.7447C94.0409 19.6634 94.184 19.62 94.3303 19.62C94.5266 19.62 94.7148 19.698 94.8536 19.8367C94.9924 19.9755 95.0703 20.1637 95.0703 20.36Z" fill="#37332F"/>
<path d="M94.4404 29.3101C90.2704 33.6801 87.6504 29.6701 87.6504 29.6701L94.4404 29.3101Z" fill="#FCF6D8"/>
<path d="M115.331 81.48L127.481 77.63C126.281 65.2 124.951 55.03 123.681 53.39C120.091 48.77 109.331 47 109.331 47C110.331 49.81 113.941 67.43 113.941 67.43L115.331 81.48Z" fill="#C63F3C"/>
<path d="M68.8704 77.63L69.8704 69.69C69.8704 69.69 73.4404 52.07 74.4704 49.27C74.4704 49.27 63.9704 49.83 60.3804 54.45C59.1104 56 57.8004 65.65 56.6104 77.63H68.8704Z" fill="#C63F3C"/>
<path d="M83.8506 44.7901L92.2906 50.6201L77.8506 55.2801C77.8506 55.2801 83.1106 44.2101 83.8506 44.7901Z" fill="#FCF6D8"/>
<path d="M100.421 44.0901L92.2905 50.6201L106.741 55.2801C106.741 55.2801 101.161 43.5101 100.421 44.0901Z" fill="#FCF6D8"/>
<path d="M228.831 246.61C228.831 248.368 229.352 250.087 230.329 251.549C231.306 253.011 232.694 254.15 234.319 254.823C235.943 255.496 237.73 255.672 239.455 255.329C241.179 254.986 242.763 254.139 244.007 252.896C245.25 251.653 246.097 250.069 246.44 248.344C246.783 246.62 246.607 244.832 245.934 243.208C245.261 241.583 244.122 240.195 242.66 239.218C241.198 238.241 239.479 237.72 237.721 237.72C235.363 237.72 233.102 238.657 231.434 240.324C229.767 241.991 228.831 244.252 228.831 246.61Z" fill="#37332F"/>
<path d="M231.77 246.61C231.758 247.801 232.101 248.969 232.756 249.965C233.41 250.96 234.346 251.739 235.444 252.201C236.542 252.662 237.753 252.787 238.922 252.558C240.091 252.329 241.166 251.758 242.009 250.916C242.852 250.074 243.426 249.001 243.656 247.832C243.887 246.663 243.765 245.452 243.305 244.353C242.845 243.254 242.068 242.317 241.073 241.661C240.079 241.005 238.912 240.66 237.72 240.67C236.148 240.683 234.644 241.313 233.531 242.424C232.418 243.534 231.786 245.038 231.77 246.61Z" fill="#FCF6D8"/>
<path d="M146.78 246.61C146.78 248.369 147.302 250.088 148.279 251.55C149.256 253.012 150.646 254.152 152.271 254.824C153.896 255.497 155.684 255.672 157.408 255.328C159.133 254.985 160.717 254.137 161.96 252.893C163.203 251.648 164.049 250.063 164.391 248.338C164.733 246.613 164.555 244.825 163.881 243.201C163.206 241.577 162.065 240.189 160.602 239.213C159.139 238.238 157.419 237.718 155.66 237.72C153.304 237.723 151.046 238.66 149.381 240.327C147.716 241.994 146.78 244.254 146.78 246.61Z" fill="#37332F"/>
<path d="M149.72 246.61C149.718 247.788 150.066 248.939 150.719 249.919C151.372 250.899 152.301 251.664 153.389 252.115C154.476 252.567 155.673 252.685 156.829 252.456C157.984 252.227 159.045 251.66 159.877 250.827C160.71 249.995 161.277 248.934 161.506 247.778C161.736 246.623 161.617 245.426 161.165 244.338C160.714 243.251 159.95 242.322 158.97 241.669C157.99 241.016 156.838 240.668 155.66 240.67C154.085 240.67 152.574 241.296 151.46 242.41C150.346 243.524 149.72 245.035 149.72 246.61Z" fill="#FCF6D8"/>
<path d="M259.21 152.71L159.74 143C158.532 138.799 156.745 134.788 154.43 131.08C149.03 122.51 141.54 117.57 132.78 116.8L130.84 116.63L151.04 208.63L154.04 208.43C151.39 212.9 145.81 223.43 145.82 232.84V234.42H253.12C253.339 234.437 253.559 234.409 253.766 234.338C253.974 234.266 254.164 234.152 254.325 234.003C254.486 233.854 254.615 233.673 254.703 233.472C254.791 233.271 254.836 233.054 254.836 232.835C254.836 232.616 254.791 232.399 254.703 232.198C254.615 231.997 254.486 231.816 254.325 231.667C254.164 231.518 253.974 231.404 253.766 231.332C253.559 231.261 253.339 231.233 253.12 231.25H149.06C149.77 221.12 156.99 209.65 157.95 208.16L256.87 201.5L259.21 152.71ZM134.48 119.9C141.54 121.09 147.41 125.33 151.97 132.53C153.951 135.711 155.527 139.128 156.66 142.7L139.11 141L134.48 119.9ZM139.75 143.9L145.89 144.5L147.65 167.21L144.86 167.13L139.75 143.9ZM145.49 170L147.87 170.06L149.16 186.73L145.49 170ZM148.77 144.77L155.43 145.42L156.87 167.42L150.52 167.24L148.77 144.77ZM150.77 170.15L157.09 170.33L158.3 188.87L152.24 189.07L150.77 170.15ZM153.52 205.59L152.43 192L158.43 191.8L159.31 205.28L153.52 205.59ZM158.34 145.7L164.89 146.34L166 167.76L159.76 167.58L158.34 145.7ZM159.96 170.41L166.16 170.59L167.1 188.59L161.15 188.78L159.96 170.41ZM162.21 205.01L161.34 191.63L167.24 191.43L167.93 204.62L162.21 205.01ZM167.77 146.62L174.37 147.27L175.18 167.99L168.87 167.81L167.77 146.62ZM169.02 170.62L175.29 170.8L175.97 188.23L169.97 188.43L169.02 170.62ZM170.78 204.38L170.1 191.28L176.1 191.08L176.6 203.99L170.78 204.38ZM177.25 147.5L183.85 148.14L184.28 168.2L178 168.1L177.25 147.5ZM178.15 170.88L184.35 171.06L184.71 187.94L178.83 188.13L178.15 170.88ZM179.43 203.8L178.94 190.99L184.78 190.79L185 203.5L179.43 203.8ZM186.71 148.42L193.32 149.07L193.4 168.46L187.14 168.28L186.71 148.42ZM187.21 171.14L193.41 171.32L193.48 187.64L187.57 187.84L187.21 171.14ZM187.91 203.23L187.63 190.7L193.49 190.5V202.84L187.91 203.23ZM202.41 202.23L196.41 202.63L196.36 190.39L202.51 190.18L202.41 202.23ZM202.52 187.32L196.34 187.53L196.27 171.38L202.64 171.56L202.52 187.32ZM202.66 168.71L196.26 168.52L196.18 149.33L202.8 149.97L202.66 168.71ZM210.95 201.65L205.27 202.03L205.36 190.09L211.23 189.89L210.95 201.65ZM211.3 187.03L205.38 187.23L205.5 171.64L211.65 171.82L211.3 187.03ZM211.72 168.96L205.52 168.79L205.66 150.25L212.15 150.88L211.72 168.96ZM219.86 201.05L213.86 201.46L214.13 189.8L220.34 189.59L219.86 201.05ZM220.41 186.72L214.16 186.94L214.51 171.94L220.97 172.13L220.41 186.72ZM221.08 169.23L214.58 169.05L215 151.16L221.75 151.82L221.08 169.23ZM228.61 200.46L222.72 200.86L223.16 189.49L229.23 189.29L228.61 200.46ZM229.38 186.46L223.27 186.66L223.83 172.2L230.15 172.38L229.38 186.46ZM230.31 169.52L223.94 169.34L224.6 152.13L231.23 152.78L230.31 169.52ZM237.31 199.91L231.51 200.3L232.11 189.23L237.98 189.03L237.31 199.91ZM238.16 186.16L232.27 186.36L233.03 172.46L239.03 172.63L238.16 186.16ZM239.16 169.78L233.16 169.61L234.06 153.06L240.15 153.65L239.16 169.78ZM246.06 199.32L240.17 199.71L240.8 189L246.8 188.8L246.06 199.32ZM247.06 185.87L241 186.07L241.83 172.72L248 173L247.06 185.87ZM242.06 169.87L243 154L249.44 154.63L248.27 170.11L242.06 169.87ZM254.2 198.78L248.97 199.13L249.77 188.65L254.7 188.48L254.2 198.78ZM254.83 185.62L249.98 185.78L250.98 172.98L255.47 173.11L254.83 185.62ZM255.57 170.26L251.17 170.13L252.32 154.85L256.32 155.23L255.57 170.26Z" fill="#37332F"/>
<path d="M164.551 233C164.551 233 161.551 245.55 155.031 246C155.031 246 150.271 247.26 152.331 233H164.551Z" fill="#4F4C4A"/>
<path d="M246.77 233C246.77 233 243.77 245.55 237.24 246C237.24 246 232.48 247.26 234.55 233H246.77Z" fill="#4F4C4A"/>
<path d="M124.771 116.49C124.771 117.647 125.114 118.779 125.757 119.741C126.4 120.703 127.315 121.453 128.384 121.896C129.454 122.338 130.63 122.453 131.765 122.227C132.901 122 133.943 121.442 134.761 120.623C135.578 119.804 136.135 118.761 136.359 117.625C136.584 116.49 136.467 115.313 136.022 114.244C135.578 113.176 134.827 112.263 133.863 111.621C132.9 110.979 131.768 110.638 130.611 110.64C129.843 110.64 129.083 110.791 128.373 111.086C127.664 111.38 127.02 111.811 126.477 112.354C125.935 112.897 125.505 113.542 125.212 114.252C124.919 114.962 124.769 115.722 124.771 116.49Z" fill="#4F4C4A"/>
<path d="M126.61 116.49C126.61 117.281 126.845 118.054 127.284 118.712C127.724 119.37 128.349 119.883 129.08 120.186C129.811 120.488 130.615 120.567 131.391 120.413C132.167 120.259 132.879 119.878 133.439 119.318C133.998 118.759 134.379 118.046 134.533 117.27C134.688 116.494 134.609 115.69 134.306 114.959C134.003 114.228 133.49 113.604 132.833 113.164C132.175 112.725 131.401 112.49 130.61 112.49C129.549 112.49 128.532 112.911 127.782 113.662C127.032 114.412 126.61 115.429 126.61 116.49Z" fill="#37332F"/>
</g>
<defs>
<linearGradient id="paint0_linear" x1="109.337" y1="59.1347" x2="397.519" y2="276.022" gradientUnits="userSpaceOnUse">
<stop stop-color="#37AA3F"/>
<stop offset="1" stop-color="#8CC63E"/>
</linearGradient>
<clipPath id="clip0">
<rect width="445.2" height="303.76" fill="white"/>
</clipPath>
</defs>
</svg>
