<svg width="480" height="309" viewBox="0 0 480 309" fill="none" xmlns="http://www.w3.org/2000/svg">
<g clip-path="url(#clip0)">
<path d="M276.75 11.3C258 -1.39003 231.28 -4.63003 210.26 7.99997C198.39 15.13 194.36 22.78 187.26 34.1C181.64 43 175.26 49.57 166.18 53.3C147.92 60.79 132.58 59.95 114.66 60.3C92.1799 60.77 77.4099 63.59 55.6599 65.86C36.3499 67.9 16.9999 78.46 6.86988 95.33C-4.72012 114.59 -1.34012 136.51 14.6599 152.23C18.5999 156.1 22.8499 159.65 27.1599 163.11C30.6442 165.759 33.9637 168.617 37.0999 171.67C42.8899 177.75 46.7999 182.87 44.6699 190.09C43.2099 195.02 40.1899 199.47 38.0399 204.09C35.7675 209.138 34.277 214.503 33.6199 220C32.2738 230.797 34.0071 241.755 38.6199 251.61C42.8513 260.524 49.5869 268.014 58.0043 273.164C66.4216 278.314 76.1564 280.901 86.0199 280.61C103.48 280.19 119.43 273.61 136.1 269.24C140.1 268.24 144.04 267.24 148.1 266.64C149.993 266.34 151.883 266.107 153.77 265.94L154.51 265.87H155C156.45 265.87 157.9 265.87 159.36 265.95C169.49 266.52 179.16 270.21 188.19 274.83C206.4 284.13 223.02 297 242.62 303.9C263.5 311.24 285.24 310.9 304.1 298.53C313.25 292.53 320.62 284.46 328.64 277.11C336.197 270.139 344.889 264.508 354.34 260.46C394.22 243.25 447.34 243.46 471.14 200.86C482.24 181.03 483.29 158.73 470.84 139.19C464.6 129.39 456.14 121.56 447.45 113.94C437.82 105.51 427.83 97.65 416.45 91.75C395.71 81 371.32 80.57 350.94 69.61C331.3 59 318 39.63 300.11 26.79" fill="#FFC42C"/>
<path d="M276.75 11.3C258 -1.39003 231.28 -4.63003 210.26 7.99997C198.39 15.13 194.36 22.78 187.26 34.1C181.64 43 175.26 49.57 166.18 53.3C147.92 60.79 132.58 59.95 114.66 60.3C92.1799 60.77 77.4099 63.59 55.6599 65.86C36.3499 67.9 16.9999 78.46 6.86988 95.33C-4.72012 114.59 -1.34012 136.51 14.6599 152.23C18.5999 156.1 22.8499 159.65 27.1599 163.11C30.6442 165.759 33.9637 168.617 37.0999 171.67C42.8899 177.75 46.7999 182.87 44.6699 190.09C43.2099 195.02 40.1899 199.47 38.0399 204.09C35.7675 209.138 34.277 214.503 33.6199 220C32.2738 230.797 34.0071 241.755 38.6199 251.61C42.8513 260.524 49.5869 268.014 58.0043 273.164C66.4216 278.314 76.1564 280.901 86.0199 280.61C103.48 280.19 119.43 273.61 136.1 269.24C140.1 268.24 144.04 267.24 148.1 266.64C149.993 266.34 151.883 266.107 153.77 265.94L154.51 265.87H155C156.45 265.87 157.9 265.87 159.36 265.95C169.49 266.52 179.16 270.21 188.19 274.83C206.4 284.13 223.02 297 242.62 303.9C263.5 311.24 285.24 310.9 304.1 298.53C313.25 292.53 320.62 284.46 328.64 277.11C336.197 270.139 344.889 264.508 354.34 260.46C394.22 243.25 447.34 243.46 471.14 200.86C482.24 181.03 483.29 158.73 470.84 139.19C464.6 129.39 456.14 121.56 447.45 113.94C437.82 105.51 427.83 97.65 416.45 91.75C395.71 81 371.32 80.57 350.94 69.61C331.3 59 318 39.63 300.11 26.79" fill="url(#paint0_linear)"/>
<path d="M300.22 243.16C300.22 243.16 301.35 251.79 301.8 253.59V256.52H275.49L277.06 253.52C277.06 253.52 291.79 250.32 294.6 243.21L300.22 243.16Z" fill="#37332F"/>
<path d="M322.17 243.16C322.17 243.16 324.28 254.8 324.52 256.22V257.49C321.965 258.263 319.338 258.772 316.68 259.01L311.88 257.32V255.64C311.88 255.64 314.88 247.64 315.17 243.16H322.17Z" fill="#37332F"/>
<path d="M286.37 48.56C286.37 48.56 279.53 50.78 276.6 53.48C273.67 56.18 265.15 87.13 265.15 89.37C265.15 91.61 270.15 93.03 274.3 92.55C278.45 92.07 287.41 62.7 287.41 62.7L286.37 48.56Z" fill="#9CC0C0"/>
<path d="M289.62 59.63C289.86 57.39 290.18 49.42 290.62 48.86C290.62 48.86 297.73 47.32 298.31 46.06C299.22 44.06 300.51 38.27 300.87 32.55C300.94 31.12 311.22 24.86 311.22 24.86C311.22 24.86 311 38.56 314.13 44.76C314.13 44.76 324.68 46.31 327.06 48.67C327.829 49.6494 328.323 50.8162 328.49 52.05L289.62 59.63Z" fill="#E58B5E"/>
<path d="M300.83 32.55C300.638 35.4258 300.254 38.2855 299.68 41.11C302.63 41.67 307.19 41.41 311.94 36.84C311.405 32.8628 311.151 28.8528 311.18 24.84C311.18 24.84 300.9 31.12 300.83 32.55Z" fill="#C97550"/>
<path d="M328.45 120.74L323.6 243.58C323.6 243.58 320.72 244.92 313.24 243.78L308.07 142.63L306.07 142.54L301.41 243.89C298.572 244.433 295.65 244.345 292.85 243.63L284.5 126.91C284.5 126.91 301.9 123.45 328.45 120.74Z" fill="#605D5B"/>
<path d="M315.86 57.29L314.35 44.77C314.35 44.77 303.24 50.28 302.17 50.13C301.1 49.98 299.17 48.13 297.77 46L294.84 47.14L293.3 57.29H315.86Z" fill="#FCF6D8"/>
<path d="M328.57 129.35C328.57 129.35 287.45 129.99 284.5 126.91C282.65 109.75 282.6 49.91 285.23 48.99L299.07 43.71C298.27 50.58 301.51 52.44 302.66 54.71C309.03 51.71 313.4 43.79 313.4 43.79C315.69 43.89 327.4 47.67 330.57 49.09C330.57 49.13 329.92 117.71 328.57 129.35Z" fill="#9CC0C0"/>
<path d="M296.72 44.77C296.72 44.77 294.72 75.77 294.01 78.27L283.41 105.75C283.41 105.75 282.54 105.67 282.41 102.98C282.497 101.938 282.497 100.892 282.41 99.85C282.24 99.27 287.73 84.76 290.81 78.7L292 46.4C292.011 46.0256 292.143 45.6648 292.375 45.3712C292.607 45.0775 292.928 44.8667 293.29 44.77C294.68 44.21 296.79 43.65 296.72 44.77Z" fill="#37332F"/>
<path d="M287.3 76.22C287.3 76.22 290.77 70.22 296.41 71.67C296.663 72.3126 296.663 73.0273 296.41 73.67C296.41 73.67 297.88 77.94 294.41 79.61C291.56 81 290 82 288.24 81.05L287.3 76.22Z" fill="#E58B5E"/>
<path d="M290.78 16.0899C290.699 20.4121 291.034 24.732 291.78 28.9899C292.5 32.6999 296.36 38.0599 298.7 39.0899C298.7 39.0899 299.33 39.4599 301.63 39.0899C304.46 38.6099 309.55 34.3799 310.94 28.8199C310.94 28.8199 313.02 29.1699 313.89 26.5599C314.76 23.9499 313.47 20.1199 310.74 22.5599C310.74 22.5599 311.63 11.2799 306.59 10.5599C301.55 9.83995 291.22 7.93995 290.78 16.0899Z" fill="#E58B5E"/>
<path d="M313.9 29.38C311.84 31.95 312.06 35.3 311.75 35.24C311.5 33.13 310.91 30.86 310.84 29.18C310.84 29.06 310.91 28.94 310.95 28.81C310.99 28.68 312.1 29.44 313.34 26.34C314.22 24.14 313.18 20.18 311.03 22.62C310.838 22.933 310.587 23.205 310.29 23.42C309.73 23.77 308.03 20.88 308.66 18.42C308.784 16.6177 308.479 14.8116 307.77 13.15C307.77 13.15 302.32 16.08 297.53 16.26C297.53 16.26 293.04 16.34 291.12 14.49L290.77 18C289.84 17.14 289.17 16.0371 288.834 14.8161C288.498 13.595 288.51 12.3044 288.87 11.09C288.87 11.09 291.16 7.72 291.16 4.85C291.16 0.589995 293.16 -0.0500048 295.16 0.119995C297.16 0.289995 299.16 2.66 301.28 1.81C303.4 0.959995 308.43 0.109995 311.57 3C311.57 3 312.83 5.53 314.17 6.21C315.285 6.65434 316.263 7.38792 317.001 8.33525C317.739 9.28259 318.211 10.4095 318.37 11.6C319.33 16.14 317.36 25.07 313.9 29.38Z" fill="#37332F"/>
<path d="M323.53 134.71C323.19 136.05 324.41 143.64 325.74 144.4C327.07 145.16 332.97 138.71 333.74 135.55L327.92 130.55C327.92 130.55 323.87 133.36 323.53 134.71Z" fill="#E58B5E"/>
<path d="M329.17 48.56L334.34 50.67C334.34 50.67 345.46 90.14 345.8 96.88C346.14 103.62 342.05 121.58 336.65 133.71C336.65 133.71 335.22 136.77 333.75 136.51C332.28 136.25 326.47 131.29 326.75 129.87C327.03 128.45 333.75 104.23 334.34 99.35C334.34 99.35 326.84 80.64 326.24 75.91C325.64 71.18 328.09 49.36 329.17 48.56Z" fill="#9CC0C0"/>
<path d="M288 75.89C287.722 75.7284 287.406 75.6432 287.085 75.6432C286.763 75.6432 286.448 75.7284 286.17 75.89C280.9 78.73 264.74 88.65 264.37 91.28C263.91 94.43 263.47 97.58 267.96 99.15C272.45 100.72 286.8 85.55 288.6 82.41C288.6 82.41 290.1 79.82 288 75.89Z" fill="#9CC0C0"/>
<path d="M213.74 66.2C213.74 66.2 216.49 67.05 219.18 73.46L229.99 98.46L250.42 117.75L249.06 120.75C249.06 120.75 232.77 110.13 226.35 106.61C222.8 104.61 211.2 86.13 209 76.1C206.8 66.07 213.74 66.2 213.74 66.2Z" fill="#E58B5E"/>
<path d="M250.32 116.83C250.32 116.83 247.47 120.19 248.63 121.61C249.79 123.03 257.31 126.53 259.63 124.55C261.95 122.57 257.08 119.06 254.97 117.68C254.97 117.68 256.48 116.77 255.86 116.33C255.24 115.89 252.09 115.23 250.32 116.83Z" fill="#F29B7C"/>
<path d="M191.86 36.35C191.86 36.35 181.51 34.35 179.04 44.92C176.57 55.49 172.56 67.15 166.65 68.62C166.65 68.62 167.3 71.14 171.65 69.86C176 68.58 188.23 66.86 187.74 47.03C187.74 47.03 187.41 36.8 191.51 37.89C195.61 38.98 191.86 36.35 191.86 36.35Z" fill="#541B1B"/>
<path d="M191.78 35.78C191.576 35.7379 191.364 35.7562 191.171 35.8325C190.977 35.9089 190.81 36.0401 190.69 36.21C190.24 36.82 189.93 39.06 191.23 39.06C192.53 39.06 191.78 35.78 191.78 35.78Z" fill="#EFA731"/>
<path d="M207.16 246.48L203.46 246.16C203.46 246.16 201.09 253 201.89 256.57C202.33 258.57 213.97 259.31 215.26 258.89C215.26 258.89 216.54 256.07 211.91 254.8C211.91 254.8 208.62 253.52 208.33 252.23C208 250.51 207.16 246.48 207.16 246.48Z" fill="#FCF6D8"/>
<path d="M145.94 185.66L147.55 182.33C147.55 182.33 141.98 177.69 138.35 177.18C136.35 176.89 131.54 187.53 131.48 188.88C131.48 188.88 133.67 191.07 136.48 187.19C136.48 187.19 138.83 184.56 140.15 184.75C141.89 185 145.94 185.66 145.94 185.66Z" fill="#FCF6D8"/>
<path d="M176.85 191.25C177.25 168 179.17 138.5 178.58 130.53L219.28 139.85C219.28 139.85 213.04 217.35 209.87 247.13H201.65C201.65 247.13 200.28 182.62 198.57 154.63C196.978 171.116 194.511 187.506 191.18 203.73C187.96 218.91 149.72 189.44 144.83 186.79L147.55 179.56L176.85 191.25Z" fill="#9CC0C0"/>
<path d="M215.36 80.43C215.8 69.92 214.13 66.91 213.79 66.43C213.79 66.43 206.79 64.18 206.7 63C206.61 61.3 205.09 57 204.8 52.16C204.73 50.96 196.05 45.66 196.05 45.66C196.05 45.66 195.89 58.2 194.05 62.37C189.68 63.4171 185.376 64.7227 181.16 66.28C180.47 66.53 178.89 89.38 178.62 90.71L215.36 80.43Z" fill="#E58B5E"/>
<path d="M204.61 51.81C204.557 51.7281 204.497 51.6511 204.43 51.58L204.29 51.43L204.02 51.18L203.84 51.02C203.73 50.9156 203.613 50.8187 203.49 50.73L203.28 50.56L202.87 50.23L202.64 50.06L202.13 49.69L201.94 49.54L201.29 49.09L201.19 49.01C200.66 48.65 200.13 48.28 199.6 47.94L199.51 47.88L198.85 47.44L198.65 47.32L198.14 46.98L197.93 46.86L197.49 46.58L197.3 46.45L196.97 46.25L196.75 46.11L196.57 46L196.35 45.86L196.05 45.8C196.054 45.8399 196.054 45.8801 196.05 45.92V46.3C196.05 46.42 196.05 46.55 196.05 46.69V47C196.05 47.14 196.05 47.29 196.05 47.46C196.05 47.63 196.05 47.81 196.05 48C196.055 48.0799 196.055 48.1601 196.05 48.24C196.05 48.55 196.05 48.9 196 49.24V49.37C196 50.49 195.88 51.75 195.76 53.08V53.14C195.76 53.65 195.67 54.14 195.62 54.67C195.62 54.67 195.62 54.74 195.62 54.79C195.62 55.06 195.57 55.31 195.53 55.58C198.23 59.36 202.24 63.58 206.99 63.38C206.99 63.38 206.99 63.38 207.05 63.38C206.924 63.2723 206.834 63.1295 206.79 62.97C206.7 61.27 205.18 56.97 204.89 52.13C204.874 52.0376 204.84 51.9493 204.79 51.87C204.728 51.8564 204.668 51.8363 204.61 51.81Z" fill="#C97550"/>
<path d="M206.56 57.73C205.927 58.007 205.213 58.0355 204.56 57.81C203.4 57.53 197.43 53.72 196.25 49.01C196.25 49.01 194.49 49.31 193.75 47.1C193.01 44.89 193.97 41.82 196.29 43.88C196.29 43.88 195.66 34.18 199.92 33.59C204.18 33 212.33 31.59 212.71 38.44C212.766 42.2509 212.431 46.0575 211.71 49.8C210.672 52.8265 208.903 55.5503 206.56 57.73Z" fill="#E58B5E"/>
<path d="M212.7 39C212.972 37.9865 213.023 36.9265 212.851 35.8915C212.678 34.8565 212.286 33.8705 211.7 33C208.96 29.13 198.54 25.41 192.9 33C188.78 38.54 191.33 47 193.77 49.44C195.77 51.44 194.42 52.6 194.77 53.65C195.03 54.38 195.3 54.45 195.55 54.41C195.76 52.61 196.25 50.7 196.32 49.28L196.23 48.96C196.23 48.96 194.47 49.26 193.73 47.05C192.99 44.84 193.93 41.86 196.16 43.74C196.327 43.9966 196.537 44.2231 196.78 44.41C197.26 44.71 199.4 42.6 198.87 40.55C198.87 40.55 203.46 34.08 209.5 37.55C209.51 37.65 212 37.33 212.7 39Z" fill="#541B1B"/>
<path d="M178.58 74.27C178.29 96.18 174.89 145.73 175.44 146.45C175.44 146.45 202.8 149.28 221.07 143.14L215.87 78.73L215 66.66L210.05 64.83C210.05 64.83 207.77 76.93 202.76 76.83C202.76 76.83 196.29 75.11 192.64 62.73C192.64 62.73 181.57 64.63 180.24 66.14C180.28 66.15 178.66 68 178.58 74.27Z" fill="#E4544A"/>
<path d="M198.88 40.6C198.88 40.6 207.37 42.35 209.51 35.78H204.72C204.72 35.78 199.58 37.72 198.88 40.6Z" fill="#541B1B"/>
<path d="M210 36.87C210 36.87 211.45 41.33 212.68 42.58C212.68 42.58 213.68 36.35 212.36 34.34L210 36.87Z" fill="#541B1B"/>
<path d="M241.18 82.12C241.18 82.12 238.63 82.21 235.61 79.2C232.59 76.19 235.05 73.62 240.28 76.2C245.51 78.78 245 78.09 245 78.09C245 78.09 245.64 73.8 249 74.09C252.36 74.38 248.2 81.09 247.82 82.09L241.18 82.12Z" fill="#C63F3C"/>
<path d="M239.51 81.47C239.51 81.47 225.06 92.68 221.31 111.94C221.31 111.94 218.16 123.67 234.44 125.42C234.44 125.42 238.99 132.42 253 127.34C253 127.34 275.94 121.34 265.25 106.4C255.25 92.4 248.2 81.47 248.2 81.47H239.51Z" fill="#C63F3C"/>
<path d="M180.28 66.15C180.28 66.15 183.08 66.87 186.1 73.15L198.22 97.56L227.22 121L226 124C226 124 201.57 109 195 105.82C191.36 104.07 178.79 86.17 176.06 76.26C173.33 66.35 180.28 66.15 180.28 66.15Z" fill="#E58B5E"/>
<path d="M227.08 120C227.08 120 224.39 123.51 225.64 124.87C226.89 126.23 234.56 129.32 236.81 127.21C239.06 125.1 233.97 121.87 231.81 120.61C231.81 120.61 233.27 119.61 232.62 119.21C231.97 118.81 228.75 118.34 227.08 120Z" fill="#E58B5E"/>
</g>
<defs>
<linearGradient id="paint0_linear" x1="407.5" y1="238" x2="31.5" y2="53" gradientUnits="userSpaceOnUse">
<stop offset="0.00892226" stop-color="#EFA731"/>
<stop offset="1" stop-color="#FFC42C"/>
</linearGradient>
<clipPath id="clip0">
<rect width="479.77" height="308.68" fill="white"/>
</clipPath>
</defs>
</svg>
