<svg width="447" height="325" viewBox="0 0 447 325" fill="none" xmlns="http://www.w3.org/2000/svg">
<g clip-path="url(#clip0)">
<path d="M87.632 84.4432C60.705 111.281 46.8935 105.853 27.5256 127.141C5.752 151.161 -8.87771 193.297 6.10615 215.719C19.2582 235.372 45.0007 224.698 65.1867 249.304C79.7188 267.005 70.7431 277.838 82.503 295.087C106.243 329.819 169.866 325.842 205.793 323.585C236.567 321.657 262.309 320.047 290.348 304.249C328.497 282.754 327.74 259.319 366.757 242.179C400.657 227.284 414.456 239.178 430.93 222.844C453.143 200.812 449.125 158.285 438.061 131.252C426.594 103.193 405.981 87.9687 391.205 77.3188C380.8 69.8163 351.919 50.4805 254.689 35.5852C147.86 19.165 127.809 33.9993 121.239 39.6597C106.243 52.5665 110.089 62.0941 87.632 84.4432Z" fill="#E4544A"/>
<path d="M87.632 84.4432C60.705 111.281 46.8935 105.853 27.5256 127.141C5.752 151.161 -8.87771 193.297 6.10615 215.719C19.2582 235.372 45.0007 224.698 65.1867 249.304C79.7188 267.005 70.7431 277.838 82.503 295.087C106.243 329.819 169.866 325.842 205.793 323.585C236.567 321.657 262.309 320.047 290.348 304.249C328.497 282.754 327.74 259.319 366.757 242.179C400.657 227.284 414.456 239.178 430.93 222.844C453.143 200.812 449.125 158.285 438.061 131.252C426.594 103.193 405.981 87.9687 391.205 77.3188C380.8 69.8163 351.919 50.4805 254.689 35.5852C147.86 19.165 127.809 33.9993 121.239 39.6597C106.243 52.5665 110.089 62.0941 87.632 84.4432Z" fill="url(#paint0_linear)"/>
<path d="M168.56 122.09L164.872 63.6678L155.676 60.6058L163.15 122.846L168.56 122.09Z" fill="#E58B5E"/>
<path d="M168.523 122.09C169.099 124.776 168.963 127.566 168.128 130.183C167.292 132.8 165.787 135.153 163.76 137.01C163.76 137.01 159.071 137.01 163.113 122.846L168.523 122.09Z" fill="#E58B5E"/>
<path d="M98.2441 124.079L101.932 65.6442L111.128 62.5944L103.654 124.823L98.2441 124.079Z" fill="#E58B5E"/>
<path d="M98.2441 124.078C97.6677 126.764 97.804 129.554 98.6393 132.171C99.4747 134.788 100.98 137.142 103.007 138.998C103.007 138.998 107.696 138.998 103.654 124.823L98.2441 124.078Z" fill="#E58B5E"/>
<path d="M144.404 225.686L140.594 225.357C140.594 225.357 138.152 232.42 138.946 236.116C139.41 238.202 151.463 238.947 152.794 238.556C152.794 238.556 154.113 235.641 149.326 234.323C149.326 234.323 145.919 233.005 145.662 231.664C145.235 229.907 144.404 225.686 144.404 225.686Z" fill="#FCF6D8"/>
<path d="M117.233 225.686L121.056 225.357C121.056 225.357 123.498 232.42 122.692 236.116C122.228 238.202 110.187 238.947 108.856 238.556C108.856 238.556 107.537 235.641 112.312 234.323C112.312 234.323 115.719 233.005 115.975 231.664C116.415 229.907 117.233 225.686 117.233 225.686Z" fill="#FCF6D8"/>
<path d="M154.186 116.015C154.186 116.015 150.523 196.139 147.226 226.93H138.677C138.677 226.93 134.489 160.237 132.718 131.3C132.718 131.3 125.635 213.035 123.706 226.93H113.326C113.326 226.93 113.472 125.555 112.104 106.377L154.186 116.015Z" fill="#37332F"/>
<path d="M113.032 47.2233C113.032 47.2233 124.243 44.3686 124.853 43.0633C125.782 41.0504 127.125 35.0362 127.479 29.1318C127.564 27.6679 138.164 21.2023 138.164 21.2023C138.164 21.2023 137.993 35.3778 141.181 41.7214C141.181 41.7214 144.441 42.5631 147.787 43.7343V52.2127L115.927 57.0924C112.507 54.738 112.617 47.8088 113.032 47.2233Z" fill="#E58B5E"/>
<path d="M125.782 42.429C126.933 38.5135 127.654 34.4843 127.931 30.4127L136.772 24.3985H138.677C138.677 26.082 138.824 28.3755 139.056 30.8397C137.078 35.1216 131.741 45.2104 125.782 42.429Z" fill="#C97550"/>
<path d="M111.127 121.992L111.396 46.5767L124.939 42.917C133.951 51.92 141.877 41.6238 141.877 41.6116C144.246 41.7214 157.947 42.8316 157.532 51.981C157.532 51.981 155.359 120.455 154.186 121.968L111.127 121.992Z" fill="#541B1B"/>
<path d="M122.265 11.3819C121.877 16.1806 122.057 21.0083 122.802 25.7648C123.547 29.571 128.102 33.8163 130.52 34.8777C131.51 35.1572 132.558 35.1572 133.548 34.8777C136.467 34.3897 140.875 29.998 142.341 24.2887C143.047 24.3493 143.75 24.1456 144.314 23.7173C144.878 23.289 145.263 22.6666 145.394 21.9709C146.297 19.287 145.125 15.5175 142.316 18.0305C142.316 18.0305 143.061 6.19724 137.859 5.48969C132.657 4.78213 122.716 2.98884 122.265 11.3819Z" fill="#E58B5E"/>
<path d="M122.607 24.1789C121.872 24.2433 121.139 24.0422 120.541 23.6124C119.943 23.1825 119.519 22.5524 119.346 21.8367C118.442 19.1529 119.615 15.3833 122.436 17.8963" fill="#E58B5E"/>
<path d="M139.007 1.48833C139.007 1.48833 145.113 0.658779 143.318 17.3473C143.318 17.3473 141.669 19.7872 141.107 19.2382C140.546 18.6893 141.107 17.2497 141.107 15.7248C141.107 14.1999 139.801 8.25891 139.215 8.02712C138.628 7.79534 132.852 15.1149 123.645 13.7608C123.209 15.2328 123.167 16.7933 123.522 18.2867C124.084 20.9339 122.887 19.348 122.582 18.8966C122.277 18.4453 121.214 17.079 121.214 17.079C120.012 13.0913 120.076 8.82955 121.398 4.87972C121.398 4.87972 126.404 -3.24498 139.007 1.48833Z" fill="#37332F"/>
<path d="M155.493 75.5621L166.887 71.9755C165.775 60.3131 164.53 50.7733 163.321 49.2483C159.962 44.9176 149.888 43.2219 149.888 43.2219C150.852 45.857 154.211 62.3625 154.211 62.3625L155.493 75.5621Z" fill="#541B1B"/>
<path d="M111.897 71.9755L112.801 64.534C112.801 64.534 116.159 48.0162 117.124 45.3934C117.124 45.3934 107.269 45.9179 103.898 50.2731C102.75 51.7492 101.456 60.7644 100.394 71.9999L111.897 71.9755Z" fill="#541B1B"/>
<path d="M125.953 41.1725L133.878 46.6377L122.069 53.9573C122.069 53.9573 125.257 40.6357 125.953 41.1725Z" fill="#FCF6D8"/>
<path d="M141.51 40.5259L133.878 46.6255L144.099 52.8227C144.099 52.8227 142.206 39.9769 141.51 40.5259Z" fill="#FCF6D8"/>
<path d="M218.568 139.003L198.476 140.153L200.075 168.019L220.167 166.869L218.568 139.003Z" fill="#541B1B"/>
<path d="M217.724 144.092L201.323 145.075L202.378 162.63L218.778 161.647L217.724 144.092Z" fill="#FCF6D8"/>
<path d="M245.677 137.327C246.385 136.705 248.242 135.033 248.547 130.752L249.976 130.691L251.392 130.617C252.1 134.85 254.054 136.4 254.824 136.949C256.045 137.644 256.582 138.034 256.631 138.998L257.767 162.836C257.79 163.338 257.613 163.83 257.274 164.203C256.935 164.575 256.463 164.799 255.959 164.824L247.265 165.239C246.761 165.262 246.269 165.085 245.896 164.747C245.523 164.408 245.299 163.936 245.274 163.433L244.138 139.596C244.09 138.632 244.419 138.108 245.677 137.327Z" fill="#EFA731"/>
<path d="M251.769 129.232L248.036 129.409L248.146 131.712L251.878 131.535L251.769 129.232Z" fill="#FCF6D8"/>
<path d="M255.653 142.603L245.224 143.1L245.778 154.712L256.207 154.216L255.653 142.603Z" fill="#FCF6D8"/>
<path d="M249.23 144.496L228.175 145.698L229.316 165.66L250.372 164.458L249.23 144.496Z" fill="#4F4C4A"/>
<path d="M250.308 140.005L226.607 141.362L226.94 147.159L250.64 145.802L250.308 140.005Z" fill="#541B1B"/>
<path d="M248.149 150.161L229.484 151.229L229.947 159.304L248.613 158.235L248.149 150.161Z" fill="#FCF6D8"/>
<path d="M214.048 138.498C214.757 137.876 216.589 136.18 216.857 131.91L218.274 131.825L219.703 131.752C220.447 135.961 222.414 137.498 223.195 138.034C224.416 138.73 224.954 139.12 225.015 140.072L226.382 163.909C226.406 164.411 226.231 164.902 225.895 165.277C225.559 165.651 225.089 165.878 224.587 165.91L215.905 166.398C215.656 166.413 215.407 166.378 215.171 166.297C214.936 166.215 214.719 166.088 214.533 165.922C214.347 165.757 214.196 165.556 214.087 165.332C213.979 165.108 213.916 164.865 213.902 164.617L212.485 140.791C212.485 139.828 212.803 139.303 214.048 138.498Z" fill="#EFA731"/>
<path d="M220.069 130.38L216.338 130.592L216.47 132.894L220.2 132.682L220.069 130.38Z" fill="#FCF6D8"/>
<path d="M224.053 143.702L213.629 144.297L214.293 155.892L224.717 155.297L224.053 143.702Z" fill="#FCF6D8"/>
<path d="M191.298 165.227C192.226 165.056 194.68 164.568 197.123 161.042L198.344 161.713L199.565 162.384C198.014 166.373 198.906 168.703 199.284 169.57C199.98 170.789 200.237 171.399 199.785 172.253L188.562 193.334C188.324 193.775 187.921 194.105 187.441 194.251C186.961 194.397 186.442 194.348 185.998 194.114L178.317 190.028C178.096 189.912 177.9 189.754 177.74 189.562C177.58 189.371 177.46 189.15 177.386 188.912C177.313 188.674 177.287 188.423 177.31 188.175C177.334 187.927 177.406 187.686 177.523 187.466L188.745 166.386C189.283 165.544 189.82 165.263 191.298 165.227Z" fill="#EFA731"/>
<path d="M197.378 159.655L196.294 161.69L199.594 163.443L200.677 161.408L197.378 159.655Z" fill="white"/>
<path d="M187.953 169.979L182.495 180.233L191.714 185.13L197.171 174.876L187.953 169.979Z" fill="#FCF6D8"/>
<path d="M259.943 163.875L239.851 165.025L241.45 192.891L261.542 191.741L259.943 163.875Z" fill="#541B1B"/>
<path d="M258.302 169.381L241.928 170.319L242.934 187.845L259.307 186.907L258.302 169.381Z" fill="#FCF6D8"/>
<path d="M237.96 165.13L217.868 166.28L219.466 194.134L239.558 192.984L237.96 165.13Z" fill="#541B1B"/>
<path d="M236.307 170.636L219.933 171.574L220.939 189.1L237.312 188.162L236.307 170.636Z" fill="#FCF6D8"/>
<path d="M215.95 166.412L195.858 167.559L197.452 195.425L217.544 194.278L215.95 166.412Z" fill="#541B1B"/>
<path d="M214.308 171.918L197.935 172.853L198.937 190.379L215.311 189.444L214.308 171.918Z" fill="#FCF6D8"/>
<path d="M237.019 165.166C237.727 164.531 239.571 162.848 239.828 158.566L241.256 158.493L242.673 158.407C243.43 162.628 245.396 164.153 246.166 164.702C247.387 165.385 247.936 165.776 247.985 166.727L249.353 190.564C249.368 190.813 249.333 191.062 249.252 191.297C249.17 191.532 249.043 191.749 248.877 191.935C248.712 192.12 248.511 192.272 248.287 192.38C248.062 192.488 247.819 192.551 247.57 192.565L238.875 193.065C238.372 193.092 237.878 192.918 237.503 192.582C237.128 192.246 236.901 191.775 236.872 191.272L235.505 167.447C235.456 166.483 235.773 165.971 237.019 165.166Z" fill="#EFA731"/>
<path d="M243.03 157.041L239.299 157.254L239.43 159.556L243.161 159.343L243.03 157.041Z" fill="white"/>
<path d="M247.059 170.338L236.635 170.935L237.3 182.53L247.724 181.933L247.059 170.338Z" fill="white"/>
<path d="M209.579 167.361C210.287 166.739 212.143 165.068 212.449 160.798L213.877 160.725L215.294 160.652C216.002 164.885 217.956 166.434 218.726 166.983C219.947 167.691 220.484 168.081 220.533 169.033L221.669 192.882C221.689 193.383 221.51 193.871 221.172 194.241C220.833 194.611 220.362 194.833 219.861 194.859L211.166 195.273C210.663 195.297 210.171 195.12 209.798 194.781C209.425 194.443 209.201 193.971 209.176 193.468L208.04 169.63C207.991 168.667 208.321 168.154 209.579 167.361Z" fill="#EFA731"/>
<path d="M215.688 159.256L211.956 159.434L212.066 161.737L215.798 161.559L215.688 159.256Z" fill="white"/>
<path d="M219.535 172.666L209.105 173.161L209.657 184.761L220.086 184.266L219.535 172.666Z" fill="#FCF6D8"/>
<path d="M245.848 232.835C245.848 234.391 246.31 235.912 247.176 237.206C248.041 238.5 249.271 239.509 250.71 240.104C252.15 240.7 253.733 240.856 255.261 240.552C256.789 240.249 258.193 239.499 259.294 238.399C260.396 237.298 261.146 235.896 261.45 234.37C261.754 232.844 261.598 231.261 261.002 229.824C260.406 228.386 259.396 227.157 258.101 226.292C256.805 225.428 255.283 224.966 253.725 224.966C251.636 224.966 249.632 225.795 248.155 227.271C246.678 228.747 245.848 230.748 245.848 232.835Z" fill="#4F4C4A"/>
<path d="M248.449 232.835C248.449 233.877 248.759 234.896 249.338 235.763C249.918 236.629 250.742 237.305 251.706 237.704C252.67 238.103 253.731 238.207 254.754 238.004C255.777 237.8 256.717 237.298 257.455 236.561C258.193 235.824 258.695 234.885 258.899 233.863C259.102 232.841 258.998 231.781 258.599 230.818C258.199 229.855 257.523 229.032 256.656 228.453C255.788 227.874 254.768 227.565 253.725 227.565C253.031 227.563 252.345 227.698 251.704 227.963C251.063 228.227 250.481 228.615 249.991 229.105C249.501 229.594 249.112 230.176 248.848 230.816C248.583 231.456 248.448 232.142 248.449 232.835Z" fill="#FCF6D8"/>
<path d="M173.102 232.835C173.1 234.394 173.561 235.92 174.426 237.218C175.292 238.515 176.524 239.527 177.966 240.125C179.408 240.723 180.995 240.88 182.527 240.577C184.058 240.273 185.465 239.522 186.569 238.419C187.673 237.317 188.425 235.911 188.729 234.381C189.033 232.851 188.875 231.266 188.277 229.825C187.678 228.385 186.665 227.154 185.366 226.289C184.067 225.424 182.54 224.964 180.979 224.966C178.89 224.966 176.886 225.795 175.409 227.271C173.932 228.746 173.102 230.748 173.102 232.835Z" fill="#4F4C4A"/>
<path d="M175.716 232.835C175.716 233.878 176.026 234.897 176.606 235.764C177.186 236.631 178.011 237.306 178.975 237.705C179.94 238.103 181.001 238.207 182.025 238.003C183.049 237.798 183.989 237.295 184.726 236.557C185.463 235.819 185.965 234.879 186.167 233.855C186.369 232.832 186.263 231.772 185.862 230.81C185.461 229.847 184.782 229.025 183.913 228.447C183.044 227.869 182.023 227.562 180.979 227.565C180.287 227.565 179.601 227.701 178.962 227.966C178.323 228.231 177.742 228.62 177.253 229.109C176.764 229.599 176.377 230.18 176.113 230.819C175.849 231.458 175.714 232.143 175.716 232.835Z" fill="#FCF6D8"/>
<path d="M272.775 149.685L184.593 141.145C183.522 137.424 181.939 133.869 179.892 130.581C175.105 122.993 168.462 118.625 160.695 117.942L158.973 117.796L176.888 199.275L179.55 199.104C177.205 203.056 172.223 212.377 172.223 220.709V222.026H267.438C267.624 222.028 267.808 221.993 267.979 221.923C268.151 221.853 268.307 221.75 268.439 221.62C268.571 221.489 268.675 221.334 268.747 221.163C268.818 220.992 268.855 220.809 268.855 220.623C268.855 219.843 268.22 219.22 267.438 219.586H175.129C175.764 210.254 182.163 200.068 183.006 198.787L270.687 192.882L272.775 149.685ZM162.209 120.626C168.462 121.675 173.664 125.433 177.706 131.813C179.46 134.631 180.859 137.655 181.87 140.816L166.312 139.303L162.209 120.626ZM166.886 141.902L172.321 142.426L173.872 162.543L171.429 162.47L166.886 141.902ZM171.966 165.08H174.079L175.215 179.841L171.966 165.08ZM174.873 142.731L180.783 143.317L182.005 162.835L176.375 162.677L174.873 142.731ZM176.619 165.214L182.224 165.373L183.287 181.793L177.926 181.964L176.619 165.214ZM179.062 196.603L178.133 184.489L183.47 184.318L184.252 196.249L179.062 196.603ZM183.348 143.561L189.148 144.122L190.138 163.067L184.606 162.909L183.348 143.561ZM184.777 165.446L190.272 165.605L191.102 181.525L185.839 181.708L184.777 165.446ZM186.779 196.078L185.986 184.209L191.224 184.026L191.835 195.712L186.779 196.078ZM191.664 144.378L197.526 144.951L198.234 163.25L192.641 163.092L191.664 144.378ZM192.775 165.678L198.332 165.837L198.93 181.269L193.594 181.439L192.775 165.678ZM194.338 195.566L193.728 183.977L199.028 183.794L199.48 195.224L194.338 195.566ZM200.09 145.171L205.94 145.744L206.379 163.47L200.847 163.311L200.09 145.171ZM200.896 165.91L206.379 166.068L206.709 181.025L201.482 181.195L200.896 165.91ZM202.032 195.066L201.592 183.721L206.758 183.55L207.014 194.724L202.032 195.066ZM209.09 146.025L214.952 146.598V163.775L209.408 163.616L209.09 146.025ZM209.444 166.141L214.952 166.3V180.756L209.713 180.939L209.444 166.141ZM209.994 194.554L209.75 183.464L214.952 183.294V194.273L209.994 194.554ZM222.206 193.187L217.394 193.517V183.757L222.279 183.599L222.206 193.187ZM222.206 181.134L216.222 181.33L216.161 165.715L222.328 165.885L222.206 181.134ZM223.427 164.458L217.455 164.287L217.37 146.318L223.549 146.928L223.427 164.458ZM229.814 193.187L224.782 193.517L224.856 182.94L230.058 182.769L229.814 193.187ZM230.021 180.232L224.782 180.415L224.88 166.605L230.339 166.764L230.021 180.232ZM230.278 164.238L224.782 164.08L224.905 147.66L230.656 148.221L230.278 164.238ZM237.922 192.65L232.561 193.016L232.806 182.684L238.313 182.501L237.922 192.65ZM238.411 179.963L232.867 180.146L233.184 166.837L238.911 167.008L238.411 179.963ZM239.009 164.47L233.245 164.312L233.612 148.453L239.595 149.026L239.009 164.47ZM245.689 192.126L240.462 192.48L240.853 182.415L246.226 182.232L245.689 192.126ZM246.361 179.695L240.951 179.878L241.439 167.069L247.045 167.239L246.361 179.695ZM247.191 164.702L241.537 164.543L242.123 149.307L247.997 149.88L247.191 164.702ZM253.321 191.528L248.168 191.87L248.705 182.11L253.908 181.94L253.321 191.528ZM254.066 179.329L248.84 179.5L249.523 167.191L254.811 167.349L254.066 179.329ZM254.97 164.824L249.658 164.665L250.464 150.026L255.849 150.551L254.97 164.824ZM261.076 190.979L255.849 191.333L256.448 181.769L261.784 181.598L261.076 190.979ZM261.967 179.073L256.606 179.243L257.327 167.422L262.847 167.581L261.967 179.073ZM257.486 164.897L258.365 150.783L264.068 151.344L263.03 165.056L257.486 164.897ZM268.256 190.516L263.628 190.833L264.324 181.549L268.696 181.403L268.256 190.516ZM268.818 178.865L264.52 179.012L265.374 167.679L269.355 167.788L268.818 178.865ZM269.478 165.263L265.57 165.153L266.596 151.612L270.113 151.954L269.478 165.263Z" fill="#37332F"/>
<path d="M188.868 220.806C188.868 220.806 186.194 231.92 180.43 232.347C180.43 232.347 176.204 233.457 177.987 220.806H188.868Z" fill="#4F4C4A"/>
<path d="M261.748 220.806C261.748 220.806 259.073 231.92 253.297 232.347C253.297 232.347 249.084 233.457 250.855 220.806H261.748Z" fill="#4F4C4A"/>
<path d="M153.6 117.601C153.6 118.625 153.904 119.626 154.474 120.477C155.044 121.328 155.855 121.991 156.802 122.382C157.75 122.773 158.792 122.874 159.797 122.672C160.802 122.47 161.725 121.975 162.448 121.25C163.171 120.524 163.662 119.6 163.859 118.595C164.056 117.59 163.95 116.549 163.554 115.604C163.159 114.66 162.491 113.854 161.637 113.288C160.782 112.723 159.779 112.423 158.753 112.428C157.384 112.435 156.074 112.983 155.108 113.952C154.142 114.921 153.6 116.233 153.6 117.601Z" fill="#37332F"/>
<path d="M155.224 117.601C155.222 118.304 155.429 118.993 155.819 119.579C156.209 120.165 156.765 120.622 157.415 120.891C158.066 121.161 158.782 121.232 159.473 121.094C160.163 120.957 160.798 120.617 161.295 120.119C161.792 119.62 162.13 118.985 162.265 118.295C162.4 117.604 162.327 116.889 162.055 116.24C161.783 115.591 161.323 115.038 160.735 114.65C160.148 114.263 159.458 114.058 158.753 114.063C157.817 114.069 156.921 114.445 156.261 115.107C155.6 115.769 155.227 116.666 155.224 117.601Z" fill="#4F4C4A"/>
<path d="M306.394 43.2829C306.394 43.2829 319.643 44.6249 320.437 53.4937C320.437 53.4937 322.245 58.7272 318.532 66.3517C318.532 66.3517 324.345 105.963 314.307 103.864L293.742 101.425L301.57 42.8682L306.394 43.2829Z" fill="#37332F"/>
<path d="M277.208 48.004C277.208 48.004 279.65 56.7387 278.294 79.8197C278.294 79.8197 273.288 83.1744 269.38 79.9173C269.38 79.9173 266.974 50.9806 277.208 48.004Z" fill="#EFA731"/>
<path d="M269.881 80.515H277.379C275.913 81.2836 272.714 82.4181 269.881 80.515Z" fill="#45366D"/>
<path d="M269.233 78.002C268.95 78.1233 268.707 78.3235 268.534 78.5786C268.36 78.8338 268.264 79.1333 268.256 79.4415C268.256 79.4415 268.256 82.3571 268.745 82.5889C269.233 82.8207 274.68 84.7725 278.612 82.0643C278.612 82.0643 279.052 78.0142 278.392 78.002C275.399 78.8576 272.226 78.8576 269.233 78.002Z" fill="#FFC42C"/>
<path d="M277.415 82.723C277.415 82.723 255.911 77.575 246.678 74.7203L242.392 75.3669C242.392 75.3669 270.479 91.5675 277.086 89.6156C283.692 87.6637 277.415 82.723 277.415 82.723Z" fill="#E58B5E"/>
<path d="M310.607 206.033C310.387 215.5 310.094 231.322 309.667 231.481C308.44 231.898 307.108 231.898 305.881 231.481C305.503 231.273 303.671 218.427 302.572 209.095L310.607 206.033Z" fill="#F7B889"/>
<path d="M292.851 206.167C292.851 214.353 291.972 229.273 291.972 229.273C290.75 229.992 287.624 229.273 287.624 229.273C287.221 225.21 286.183 210.974 285.768 206.167H292.851Z" fill="#F7B889"/>
<path d="M277.208 57.5926C277.44 55.5431 277.72 48.2724 278.087 47.76C278.087 47.76 284.583 46.3571 285.121 45.2104C286.481 41.2509 287.275 37.1192 287.478 32.938C287.551 31.6326 296.93 25.9112 296.93 25.9112C296.93 25.9112 296.734 38.4276 299.604 44.0759C299.604 44.0759 312.39 46.5157 314.551 48.7116C315.257 49.6006 315.712 50.662 315.87 51.7858L277.208 57.5926Z" fill="#E58B5E"/>
<path d="M285.524 44.0393C286.54 40.572 287.178 37.0055 287.429 33.4016L295.281 28.0583H296.954C296.954 29.5466 297.088 31.5839 297.308 33.7675C295.586 37.5615 290.86 46.4913 285.524 44.0393Z" fill="#C97550"/>
<path d="M313.843 104.913L311.84 228.589C309.178 228.533 306.52 228.334 303.878 227.992L298.005 183.135L293.083 139.071L293.84 225.845C290.965 226.289 288.031 226.186 285.194 225.54L281.287 182.696L276.28 106.365C276.28 106.365 289.639 107.353 313.843 104.913Z" fill="#37332F"/>
<path d="M314.82 110.074C315.846 108.72 316.97 53.2131 316.97 53.2131C317.324 45.125 301.937 44.1369 299.873 44.0393C299.873 44.0393 289.42 53.6767 284.083 45.979L277.208 47.7723L275.852 108.573C275.852 108.573 275.23 110.281 276.549 110.855C277.867 111.428 314.283 114.039 314.82 110.074Z" fill="#EFA731"/>
<path d="M309.312 47.1501C309.312 47.1501 295.122 69.9871 294.304 75.6353V79.4415C294.304 79.4415 300.764 88.4079 314.429 94.8125C314.429 94.8125 315.101 96.7522 314.331 97.1792C314.331 97.1792 294.878 89.1399 291.862 78.8803V75.3426C291.862 75.3426 294.732 61.0938 307.371 46.223C307.395 46.223 309.19 46.4304 309.312 47.1501Z" fill="#37332F"/>
<path d="M296.82 48.797C296.82 48.797 287.429 50.8342 283.729 48.3822L289.224 58.715L296.82 48.797Z" fill="#FCF6D8"/>
<path d="M278.929 18.0305C278.589 22.2802 278.753 26.5553 279.418 30.7665C279.854 32.4475 280.618 34.0259 281.666 35.4117C282.714 36.7974 284.025 37.9632 285.524 38.8424C285.524 38.8424 286.11 39.184 288.21 38.8424C290.799 38.4154 295.44 34.5483 296.759 29.4734C297.384 29.5233 298.006 29.3403 298.504 28.9596C299.002 28.579 299.342 28.0276 299.457 27.4117C300.263 25.0329 299.225 21.6903 296.722 23.9227C296.722 23.9227 297.394 13.4436 292.79 12.8092C288.186 12.1749 279.345 10.589 278.929 18.0305Z" fill="#E58B5E"/>
<path d="M300.41 12.1993C303.048 18.2989 300.63 27.5581 299.445 29.9614C298.139 32.6574 298.749 33.3649 298.334 34.5117C298.053 35.2924 297.748 35.3656 297.479 35.329C297.259 33.4015 296.722 31.3277 296.661 29.7784C296.684 29.6672 296.712 29.5572 296.746 29.449C297.372 29.4989 297.993 29.3159 298.492 28.9352C298.99 28.5546 299.33 28.0032 299.445 27.3873C300.239 25.0451 299.238 21.7757 296.82 23.8007C296.644 24.0849 296.416 24.3332 296.148 24.5327C295.635 24.8499 293.327 22.5686 293.901 20.3484C294.484 18.6691 294.484 16.8429 293.901 15.1637C293.901 15.1637 290.543 17.1765 288.284 15.4809C288.284 15.4809 286.086 17.6767 284.156 16.0786C284.156 16.0786 280.981 17.3961 280.664 15.8712C280.664 15.8712 277.708 17.0912 277.305 14.7733C277.07 14.1033 277.096 13.3691 277.379 12.7177C277.662 12.0663 278.181 11.5457 278.832 11.2599C278.925 10.2663 279.384 9.3424 280.119 8.66657C280.854 7.99074 281.814 7.61084 282.813 7.60014C283.492 6.9574 284.356 6.54437 285.283 6.41957C286.21 6.29477 287.153 6.46453 287.978 6.90479C288.333 6.54616 288.76 6.26869 289.233 6.0916C289.705 5.91451 290.21 5.84202 290.713 5.87915C291.215 5.91627 291.704 6.06214 292.145 6.30663C292.586 6.55113 292.969 6.88842 293.266 7.29516C293.266 7.29516 297.125 6.07524 298.786 9.10065C299.518 10.0222 300.069 11.0735 300.41 12.1993Z" fill="#541B1B"/>
<path d="M293.083 227.723C291.374 227.565 289.657 227.524 287.942 227.601L287.356 230.212C287.356 230.212 279.186 234.591 278.515 235.189V236.665H294.256C294.256 236.665 295.049 236.665 293.083 227.723Z" fill="#FCF6D8"/>
<path d="M310.18 230.139C308.47 229.985 306.753 229.948 305.038 230.029L304.452 232.652C304.452 232.652 296.282 237.019 295.611 237.605V239.105H311.364C311.364 239.105 312.146 239.105 310.18 230.139Z" fill="#FCF6D8"/>
<path d="M312.866 47.1013C312.866 47.1013 310.424 55.836 311.779 78.917C311.779 78.917 316.786 82.2839 320.694 79.0145C320.694 79.0145 323.112 50.0779 312.866 47.1013Z" fill="#EFA731"/>
<path d="M320.865 77.1115C321.145 77.2325 321.385 77.4312 321.556 77.6842C321.727 77.9371 321.822 78.2337 321.83 78.5388C321.83 78.5388 321.83 81.4544 321.341 81.6862C320.853 81.9179 315.394 83.8698 311.462 81.1616C311.462 81.1616 311.022 77.1115 311.682 77.1115C314.684 77.9613 317.863 77.9613 320.865 77.1115Z" fill="#FFC42C"/>
<path d="M301.631 44.0393C301.631 44.0393 296.258 50.2609 289.725 50.7732C289.725 50.7732 284.352 50.3829 282.801 46.3327L284.144 45.9789C284.144 45.9789 289.81 53.5547 299.751 43.7831L301.631 44.0393Z" fill="#37332F"/>
<path d="M313.171 223.344C313.171 223.344 313.074 229.968 312.268 230.065C311.462 230.163 302.925 229.504 302.925 229.504C302.531 227.497 302.412 225.445 302.571 223.405C302.571 223.405 302.852 222.331 313.171 223.344Z" fill="#4F4C4A"/>
<path d="M294.658 221.953C294.658 221.953 294.561 228.589 293.755 228.675C292.949 228.76 284.425 228.114 284.425 228.114C284.018 226.087 283.899 224.013 284.071 221.953C284.071 221.953 284.327 220.953 294.658 221.953Z" fill="#4F4C4A"/>
<path d="M301.326 22.5442C301.326 22.5442 297.211 8.6249 278.759 11.2721C278.759 11.2721 276.56 7.29519 280.59 5.91667C280.59 5.91667 295.867 -2.23242 306.882 12.2115C306.882 12.2115 309.19 17.6157 305.881 17.0912C305.486 18.5016 304.699 19.7709 303.609 20.751C303.609 20.751 303.377 23.508 301.326 22.5442Z" fill="#EFA731"/>
<path d="M286.513 40.4405C286.513 40.4405 284.071 47.6503 289.224 58.654C289.224 58.654 280.31 53.6157 279.797 47.1013C279.797 47.1013 280.701 38.9522 286.513 40.4405Z" fill="#FFC42C"/>
<path d="M320.792 81.8936C320.792 81.8936 303.378 78.5754 296.82 77.1115L296.405 79.4903C296.405 79.4903 316.921 87.5174 317.983 87.5174C318.704 87.5174 320.95 88.103 321.83 85.4069C322.086 84.6018 321.39 83.1989 320.792 81.8936Z" fill="#E58B5E"/>
<path d="M296.746 78.002C296.746 78.002 296.038 75.4767 295.208 75.4035C294.377 75.3303 294.756 75.4767 293.474 75.4035C292.191 75.3303 291.227 75.3303 291.227 76.0867C291.227 76.843 290.555 79.5513 291.227 79.8441C291.898 80.1368 295.33 80.9786 296.746 79.8441V78.002Z" fill="#E58B5E"/>
<path d="M308.152 45.308L305.783 44.8688L289.224 58.654C289.224 58.654 296.551 39.0376 304.428 39.0376C304.428 39.0376 308.287 39.3548 308.384 45.1372C308.299 45.1372 308.226 45.2226 308.152 45.308Z" fill="#FFC42C"/>
<path d="M246.678 75.9281C246.732 74.7436 246.528 73.5615 246.08 72.4635C245.641 71.37 245.338 70.227 245.176 69.06C245.176 69.06 243.76 68.206 244.92 71.9634C244.92 71.9634 236.14 70.6093 235.297 70.6581C234.454 70.7069 232.024 74.2446 245.03 76.8553L246.678 75.9281Z" fill="#E58B5E"/>
</g>
<defs>
<linearGradient id="paint0_linear" x1="343.124" y1="38.3879" x2="108.691" y2="308.276" gradientUnits="userSpaceOnUse">
<stop stop-color="#E4544A"/>
<stop offset="1" stop-color="#C63F3C"/>
</linearGradient>
<clipPath id="clip0">
<rect width="447" height="325" fill="white"/>
</clipPath>
</defs>
</svg>
