<svg width="88" height="80" viewBox="0 0 88 80" fill="none" xmlns="http://www.w3.org/2000/svg">
<g clip-path="url(#clip0)">
<path d="M84.2422 5.82029H73.2085C71.5997 5.82437 70.0373 6.35991 68.7642 7.34363C67.4912 8.32735 66.5788 9.70414 66.169 11.2599L62.9472 23.2756H61.088V4.36383C61.088 3.20647 60.6282 2.09651 59.8098 1.27814C58.9915 0.459757 57.8815 -2.7113e-06 56.7241 -2.7113e-06H8.72745C8.15392 -0.000727783 7.58587 0.111611 7.05579 0.33059C6.52571 0.549569 6.04399 0.870892 5.63819 1.27618C5.23238 1.68148 4.91045 2.16279 4.6908 2.69259C4.47116 3.2224 4.3581 3.7903 4.3581 4.36383V23.2756C3.68663 23.2755 3.02419 23.4304 2.42235 23.7282C1.82051 24.0259 1.2955 24.4586 0.888188 24.9924C0.480876 25.5262 0.202249 26.1468 0.0739947 26.806C-0.05426 27.4651 -0.0286827 28.1449 0.148736 28.7925L6.78552 51.3068C7.19297 52.8634 8.10487 54.2411 9.37858 55.2243C10.6523 56.2076 12.216 56.7409 13.825 56.7409H53.9823L53.5133 58.5615C53.4307 58.87 53.2486 59.1427 52.9953 59.3372C52.7419 59.5317 52.4315 59.6372 52.112 59.6373H10.7852C10.1494 59.6369 9.52117 59.7755 8.9445 60.0434C8.36784 60.3112 7.85667 60.7019 7.44678 61.188C7.03689 61.6741 6.73817 62.2439 6.57154 62.8575C6.4049 63.4711 6.37438 64.1137 6.48209 64.7404C6.68812 65.7725 7.24885 66.7 8.06707 67.362C8.88528 68.024 9.90938 68.3789 10.9618 68.3649H52.09C54.3304 68.3627 56.5077 67.6222 58.2849 66.2579C60.062 64.8936 61.34 62.9817 61.921 60.8179L74.4222 14.1673C74.504 13.8583 74.6859 13.5851 74.9394 13.3904C75.1929 13.1958 75.5039 13.0906 75.8235 13.0915H84.2422C85.2065 13.0915 86.1312 12.7085 86.813 12.0267C87.4948 11.3449 87.8779 10.4201 87.8779 9.4559C87.8779 8.49167 87.4948 7.56694 86.813 6.88513C86.1312 6.20332 85.2065 5.82029 84.2422 5.82029ZM57.491 43.6384H47.4448L49.3922 36.3671H59.4715L57.491 43.6384ZM34.0554 53.8225V46.5458H43.6161L41.6686 53.8225H34.0554ZM22.0838 53.8225L20.1308 46.5458H31.1645V53.8225H22.0838ZM5.41734 36.3671H14.3988L16.3462 43.6384H7.55788L5.41734 36.3671ZM17.4 36.3671H31.148V43.6384H19.3529L17.4 36.3671ZM49.0998 26.183L47.1248 33.4542H34.0554V26.183H49.0998ZM31.148 33.4542H16.6221L14.6746 26.183H31.148V33.4542ZM34.0554 43.6384V36.3671H46.3414L44.3995 43.6384H34.0554ZM60.2163 33.4542H50.1425L52.09 26.183H62.1693L60.2163 33.4542ZM7.25445 4.36383C7.25445 3.97851 7.40714 3.60889 7.67909 3.33591C7.95103 3.06293 8.32007 2.90884 8.70539 2.90738H56.7021C57.0884 2.90738 57.4588 3.06083 57.7319 3.33397C58.0051 3.60711 58.1585 3.97756 58.1585 4.36383V23.2756H7.271L7.25445 4.36383ZM3.21059 26.7513C3.34904 26.5759 3.52613 26.4348 3.72804 26.3391C3.92996 26.2435 4.15124 26.1957 4.37465 26.1996H11.6679L13.6154 33.4708H4.56222L2.9513 27.9981C2.89644 27.7842 2.89129 27.5607 2.93624 27.3446C2.98118 27.1284 3.07503 26.9255 3.21059 26.7513ZM9.59912 50.5124L8.41851 46.5458H17.1021L19.055 53.8225H13.825C12.8547 53.8121 11.9149 53.4821 11.151 52.8838C10.3871 52.2854 9.84165 51.4519 9.59912 50.5124ZM44.6808 53.8225L46.6283 46.5458H56.7131L54.7601 53.8225H44.6808ZM84.2478 10.1841H75.8235C74.8631 10.1841 73.9296 10.5009 73.1675 11.0854C72.4055 11.6699 71.8575 12.4894 71.6086 13.417L59.1129 60.0676C58.6971 61.6128 57.784 62.978 56.5145 63.9523C55.2451 64.9265 53.6902 65.4555 52.09 65.4576H10.9618C10.6009 65.4651 10.2481 65.3504 9.9606 65.132C9.67315 64.9137 9.46799 64.6046 9.37844 64.2549C9.34061 64.0458 9.34968 63.831 9.40502 63.6258C9.46036 63.4207 9.56057 63.2304 9.69842 63.0688C9.83318 62.9064 10.0017 62.7754 10.1923 62.6849C10.3828 62.5944 10.5908 62.5465 10.8018 62.5447H52.0955C53.0564 62.5466 53.9908 62.2305 54.7533 61.6457C55.5157 61.0609 56.0632 60.2403 56.3104 59.3118L68.9992 11.9661C69.247 11.0375 69.7945 10.2167 70.5567 9.63111C71.3188 9.04555 72.2529 8.72796 73.2141 8.72767H84.2478C84.4409 8.72767 84.6261 8.8044 84.7627 8.94096C84.8993 9.07753 84.976 9.26276 84.976 9.4559C84.976 9.64903 84.8993 9.83426 84.7627 9.97083C84.6261 10.1074 84.4409 10.1841 84.2478 10.1841Z" fill="#605D5B"/>
<path d="M13.6924 74.1853C13.6924 75.3364 14.0337 76.4617 14.6733 77.4189C15.3128 78.376 16.2218 79.122 17.2853 79.5625C18.3489 80.003 19.5191 80.1183 20.6482 79.8937C21.7772 79.6692 22.8143 79.1148 23.6282 78.3008C24.4422 77.4869 24.9965 76.4498 25.2211 75.3207C25.4457 74.1917 25.3304 73.0215 24.8899 71.9579C24.4494 70.8944 23.7034 69.9854 22.7463 69.3459C21.7891 68.7063 20.6638 68.365 19.5127 68.365C18.7481 68.3642 17.991 68.5143 17.2845 68.8065C16.578 69.0988 15.9361 69.5275 15.3955 70.0681C14.8549 70.6087 14.4262 71.2506 14.134 71.9571C13.8417 72.6636 13.6917 73.4207 13.6924 74.1853ZM19.5127 71.2724C20.0888 71.2724 20.652 71.4432 21.131 71.7633C21.61 72.0833 21.9834 72.5383 22.2038 73.0705C22.4243 73.6028 22.482 74.1885 22.3696 74.7535C22.2572 75.3186 21.9798 75.8376 21.5724 76.245C21.165 76.6524 20.646 76.9298 20.081 77.0422C19.5159 77.1546 18.9302 77.0969 18.398 76.8764C17.8657 76.656 17.4108 76.2826 17.0907 75.8036C16.7706 75.3246 16.5998 74.7614 16.5998 74.1853C16.5998 73.4127 16.9067 72.6718 17.4529 72.1255C17.9992 71.5793 18.7401 71.2724 19.5127 71.2724Z" fill="#605D5B"/>
<path d="M41.332 74.1853C41.332 75.3366 41.6735 76.4622 42.3133 77.4194C42.9531 78.3767 43.8624 79.1227 44.9263 79.563C45.9901 80.0034 47.1607 80.1183 48.2898 79.8933C49.419 79.6683 50.4561 79.1134 51.2698 78.2989C52.0836 77.4843 52.6375 76.4467 52.8615 75.3174C53.0854 74.188 52.9694 73.0175 52.528 71.9541C52.0866 70.8907 51.3398 69.9821 50.3819 69.3432C49.424 68.7043 48.2982 68.3639 47.1468 68.365C46.3827 68.365 45.6262 68.5156 44.9203 68.8081C44.2145 69.1007 43.5732 69.5295 43.0332 70.07C42.4932 70.6106 42.065 71.2522 41.7731 71.9583C41.4812 72.6645 41.3313 73.4212 41.332 74.1853ZM47.1468 71.2724C47.7232 71.2713 48.2869 71.4412 48.7666 71.7606C49.2464 72.08 49.6206 72.5345 49.8419 73.0667C50.0632 73.5989 50.1217 74.1847 50.0099 74.7501C49.8982 75.3156 49.6212 75.8351 49.214 76.243C48.8069 76.651 48.2878 76.9289 47.7226 77.0418C47.1574 77.1546 46.5715 77.0973 46.0389 76.877C45.5063 76.6566 45.051 76.2833 44.7307 75.8042C44.4104 75.325 44.2394 74.7616 44.2394 74.1853C44.2394 73.4137 44.5456 72.6736 45.0906 72.1275C45.6357 71.5814 46.3752 71.2738 47.1468 71.2724Z" fill="#605D5B"/>
<path d="M14.5421 8.72765H17.4494C17.6407 8.72765 17.8301 8.76532 18.0068 8.83852C18.1835 8.91171 18.3441 9.01899 18.4793 9.15424C18.6146 9.28948 18.7218 9.45004 18.795 9.62674C18.8682 9.80345 18.9059 9.99284 18.9059 10.1841C18.9287 10.5542 19.0918 10.9016 19.3619 11.1556C19.632 11.4096 19.9888 11.551 20.3596 11.551C20.7304 11.551 21.0872 11.4096 21.3573 11.1556C21.6274 10.9016 21.7905 10.5542 21.8133 10.1841C21.8133 9.02674 21.3535 7.91678 20.5351 7.0984C19.7168 6.28003 18.6068 5.82027 17.4494 5.82027H14.5421C13.3847 5.82027 12.2747 6.28003 11.4564 7.0984C10.638 7.91678 10.1782 9.02674 10.1782 10.1841C10.1782 11.3415 10.638 12.4514 11.4564 13.2698C12.2747 14.0882 13.3847 14.5479 14.5421 14.5479H17.4494C17.6479 14.5357 17.8467 14.5642 18.0337 14.6318C18.2207 14.6993 18.3919 14.8044 18.5367 14.9406C18.6816 15.0768 18.797 15.2411 18.8759 15.4236C18.9548 15.6061 18.9955 15.8028 18.9955 16.0016C18.9955 16.2004 18.9548 16.3971 18.8759 16.5796C18.797 16.7621 18.6816 16.9265 18.5367 17.0627C18.3919 17.1989 18.2207 17.304 18.0337 17.3715C17.8467 17.439 17.6479 17.4676 17.4494 17.4553H14.5421C14.1558 17.4553 13.7853 17.3019 13.5122 17.0287C13.2391 16.7556 13.0856 16.3852 13.0856 15.9989C13.0628 15.6288 12.8997 15.2814 12.6296 15.0274C12.3595 14.7734 12.0027 14.632 11.6319 14.632C11.2611 14.632 10.9043 14.7734 10.6342 15.0274C10.3641 15.2814 10.201 15.6288 10.1782 15.9989C10.1782 17.1562 10.638 18.2662 11.4564 19.0846C12.2747 19.903 13.3847 20.3627 14.5421 20.3627H17.4494C18.6068 20.3627 19.7168 19.903 20.5351 19.0846C21.3535 18.2662 21.8133 17.1562 21.8133 15.9989C21.8133 14.8415 21.3535 13.7316 20.5351 12.9132C19.7168 12.0948 18.6068 11.635 17.4494 11.635H14.5421C14.3436 11.6473 14.1448 11.6187 13.9578 11.5512C13.7708 11.4837 13.5996 11.3786 13.4548 11.2424C13.3099 11.1062 13.1945 10.9418 13.1156 10.7593C13.0367 10.5769 12.996 10.3802 12.996 10.1813C12.996 9.98253 13.0367 9.78583 13.1156 9.60335C13.1945 9.42086 13.3099 9.25646 13.4548 9.12027C13.5996 8.98409 13.7708 8.87899 13.9578 8.81147C14.1448 8.74395 14.3436 8.71542 14.5421 8.72765Z" fill="#605D5B"/>
<path d="M33.8071 20.3186C33.9922 20.2728 34.1664 20.1909 34.3197 20.0775C34.473 19.9641 34.6023 19.8215 34.7003 19.6579C34.7982 19.4944 34.8628 19.313 34.8904 19.1244C34.9179 18.9357 34.9079 18.7435 34.8608 18.5587L31.9535 6.91812C31.8756 6.60262 31.6941 6.32237 31.438 6.12231C31.1819 5.92224 30.8661 5.81394 30.5411 5.81475H27.6338C27.309 5.8149 26.9937 5.92357 26.7378 6.12348C26.4819 6.3234 26.3002 6.60309 26.2214 6.91812L23.3141 18.5587C23.2677 18.7438 23.2582 18.9362 23.2862 19.125C23.3142 19.3138 23.3791 19.4951 23.4772 19.6588C23.5753 19.8225 23.7047 19.9653 23.858 20.0789C24.0113 20.1926 24.1854 20.275 24.3705 20.3213C24.5556 20.3677 24.7481 20.3772 24.9368 20.3492C25.1256 20.3212 25.307 20.2563 25.4707 20.1582C25.6343 20.0601 25.7771 19.9307 25.8908 19.7774C26.0044 19.6241 26.0868 19.45 26.1332 19.2649L26.9497 15.9989H31.2252L32.0417 19.2649C32.1196 19.5804 32.3011 19.8606 32.5572 20.0607C32.8132 20.2607 33.1291 20.369 33.454 20.3682C33.5735 20.3681 33.6923 20.3514 33.8071 20.3186ZM27.6779 13.0915L28.7813 8.72765H29.4047L30.508 13.0915H27.6779Z" fill="#605D5B"/>
<path d="M37.8178 20.3627H43.6325C43.831 20.375 44.0298 20.3464 44.2168 20.2789C44.4038 20.2114 44.575 20.1063 44.7198 19.9701C44.8647 19.8339 44.9801 19.6695 45.059 19.487C45.1379 19.3046 45.1786 19.1079 45.1786 18.909C45.1786 18.7102 45.1379 18.5135 45.059 18.331C44.9801 18.1486 44.8647 17.9842 44.7198 17.848C44.575 17.7118 44.4038 17.6067 44.2168 17.5392C44.0298 17.4716 43.831 17.4431 43.6325 17.4554H39.2687V7.27123C39.2459 6.90117 39.0828 6.55373 38.8127 6.29975C38.5426 6.04578 38.1858 5.90437 37.815 5.90437C37.4443 5.90437 37.0874 6.04578 36.8173 6.29975C36.5472 6.55373 36.3841 6.90117 36.3613 7.27123V18.9118C36.3628 19.2971 36.5169 19.6662 36.7899 19.9381C37.0628 20.2101 37.4325 20.3627 37.8178 20.3627Z" fill="#605D5B"/>
<path d="M47.9963 20.3628H53.8166C54.0151 20.375 54.2139 20.3465 54.4009 20.2789C54.5879 20.2114 54.7591 20.1063 54.9039 19.9701C55.0488 19.834 55.1642 19.6696 55.2431 19.4871C55.322 19.3046 55.3627 19.1079 55.3627 18.9091C55.3627 18.7103 55.322 18.5136 55.2431 18.3311C55.1642 18.1486 55.0488 17.9842 54.9039 17.848C54.7591 17.7118 54.5879 17.6067 54.4009 17.5392C54.2139 17.4717 54.0151 17.4432 53.8166 17.4554H49.4528V14.548H52.3602C52.7465 14.548 53.1169 14.3945 53.39 14.1214C53.6632 13.8483 53.8166 13.4778 53.8166 13.0915C53.8166 12.7053 53.6632 12.3348 53.39 12.0617C53.1169 11.7885 52.7465 11.6351 52.3602 11.6351H49.4528V8.72771H53.8166C54.0151 8.73994 54.2139 8.71141 54.4009 8.64389C54.5879 8.57637 54.7591 8.47127 54.9039 8.33509C55.0488 8.1989 55.1642 8.0345 55.2431 7.85202C55.322 7.66953 55.3627 7.47283 55.3627 7.27402C55.3627 7.07521 55.322 6.8785 55.2431 6.69602C55.1642 6.51353 55.0488 6.34913 54.9039 6.21295C54.7591 6.07676 54.5879 5.97167 54.4009 5.90414C54.2139 5.83662 54.0151 5.80809 53.8166 5.82032H47.9963C47.6115 5.82032 47.2425 5.97319 46.9704 6.24529C46.6983 6.5174 46.5454 6.88645 46.5454 7.27126V18.9118C46.5454 19.2966 46.6983 19.6657 46.9704 19.9378C47.2425 20.2099 47.6115 20.3628 47.9963 20.3628Z" fill="#605D5B"/>
</g>
<defs>
<clipPath id="clip0">
<rect width="87.8781" height="80" fill="white"/>
</clipPath>
</defs>
</svg>
