<svg width="79" height="80" viewBox="0 0 79 80" fill="none" xmlns="http://www.w3.org/2000/svg">
<g clip-path="url(#clip0)">
<path d="M78.6667 70.6667C78.6662 67.5392 77.5663 64.5113 75.5593 62.1127C73.5523 59.7141 70.766 58.0973 67.6877 57.5451C64.6093 56.9928 61.4348 57.5403 58.7192 59.0917C56.0036 60.6432 53.9198 63.0999 52.8322 66.0322C51.7224 65.5742 50.534 65.3368 49.3334 65.3333C46.8584 65.3346 44.4851 66.3183 42.735 68.0684C40.985 69.8184 40.0012 72.1917 40 74.6667C39.996 76.3103 40.4326 77.9249 41.2644 79.3425C41.3622 79.5085 41.4952 79.6509 41.6541 79.7597C41.813 79.8686 41.9939 79.9412 42.1839 79.9724C42.253 79.9906 42.324 79.9999 42.3954 80H74.2529C74.3357 80.005 74.4183 79.9875 74.492 79.9494C74.7802 79.9079 75.0459 79.7701 75.246 79.5586C77.4447 77.1184 78.6631 73.9513 78.6667 70.6667ZM65.3334 60C67.3448 59.9953 69.3164 60.5607 71.0197 61.6306C72.723 62.7005 74.0883 64.2312 74.9573 66.0453C75.8263 67.8593 76.1635 69.8825 75.9298 71.8803C75.6961 73.8781 74.901 75.7688 73.6368 77.3333H58.2667C58.5279 76.4684 58.6626 75.5702 58.6667 74.6667C58.6695 73.2707 58.3566 71.8923 57.7515 70.6343C57.1464 69.3763 56.2648 68.2715 55.1724 67.4023C55.8576 65.2476 57.2125 63.3677 59.0401 62.0363C60.8676 60.705 63.0723 59.9916 65.3334 60ZM49.3334 68C50.6082 67.9917 51.8573 68.3596 52.9242 69.0575C53.8684 69.6571 54.6456 70.4858 55.1834 71.4665C55.7212 72.4473 56.0021 73.5482 56 74.6667C55.9968 75.5845 55.8059 76.492 55.4391 77.3333H43.2184C42.8417 76.495 42.6489 75.5857 42.6529 74.6667C42.6535 73.7902 42.8268 72.9224 43.1629 72.113C43.499 71.3035 43.9913 70.5682 44.6117 69.9491C45.2321 69.33 45.9685 68.8392 46.7786 68.5047C47.5888 68.1703 48.4569 67.9988 49.3334 68Z" fill="#605D5B"/>
<path d="M33.3333 40C33.3333 39.8249 33.2989 39.6515 33.2318 39.4898C33.1648 39.328 33.0666 39.181 32.9428 39.0572C32.819 38.9334 32.672 38.8352 32.5103 38.7682C32.3485 38.7012 32.1751 38.6667 32 38.6667H13.3333C13.1582 38.6667 12.9849 38.7012 12.8231 38.7682C12.6613 38.8352 12.5143 38.9334 12.3905 39.0572C12.2667 39.181 12.1685 39.328 12.1015 39.4898C12.0345 39.6515 12 39.8249 12 40V72H8V34.5333C9.60542 34.1982 11.0302 33.2812 12 31.9586C12.6134 32.7976 13.4161 33.4799 14.3428 33.9504C15.2695 34.4208 16.2941 34.6659 17.3333 34.6659C18.3726 34.6659 19.3972 34.4208 20.3239 33.9504C21.2506 33.4799 22.0533 32.7976 22.6667 31.9586C23.2801 32.7976 24.0827 33.4799 25.0094 33.9504C25.9361 34.4208 26.9607 34.6659 28 34.6659C29.0393 34.6659 30.0639 34.4208 30.9906 33.9504C31.9173 33.4799 32.7199 32.7976 33.3333 31.9586C33.9467 32.7976 34.7494 33.4799 35.6761 33.9504C36.6028 34.4208 37.6274 34.6659 38.6667 34.6659C39.7059 34.6659 40.7305 34.4208 41.6572 33.9504C42.584 33.4799 43.3866 32.7976 44 31.9586C44.6134 32.7976 45.4161 33.4799 46.3428 33.9504C47.2695 34.4208 48.2941 34.6659 49.3333 34.6659C50.3726 34.6659 51.3972 34.4208 52.3239 33.9504C53.2506 33.4799 54.0533 32.7976 54.6667 31.9586C55.2801 32.7976 56.0827 33.4799 57.0094 33.9504C57.9361 34.4208 58.9608 34.6659 60 34.6659C61.0393 34.6659 62.0639 34.4208 62.9906 33.9504C63.9173 33.4799 64.7199 32.7976 65.3334 31.9586C66.3032 33.2812 67.7279 34.1982 69.3334 34.5333V55.9172H72V34.5333C73.5047 34.2236 74.8565 33.4047 75.828 32.2147C76.7994 31.0246 77.3311 29.5362 77.3334 28V17.3333C77.333 17.1356 77.2874 16.9406 77.2 16.7632V16.7356L71.8667 6.06897C71.7543 5.8473 71.5827 5.66116 71.3708 5.53128C71.159 5.4014 70.9152 5.33288 70.6667 5.33333H56V0H21.3333V5.33333H6.66667C6.41894 5.33372 6.17615 5.40265 5.96517 5.53249C5.75419 5.66232 5.58325 5.84799 5.47127 6.06897L0.137931 16.7356V16.7632C0.0516108 16.9412 0.00457024 17.1356 0 17.3333L0 28C0.00141392 29.5364 0.532736 31.0253 1.50433 32.2155C2.47592 33.4057 3.82831 34.2244 5.33333 34.5333V74.6667H37.3333V72H33.3333V40ZM17.3333 32C16.2725 32 15.2551 31.5786 14.5049 30.8284C13.7548 30.0783 13.3333 29.0609 13.3333 28V18.6667H21.3333V28C21.3321 29.0605 20.9103 30.0772 20.1604 30.8271C19.4105 31.577 18.3938 31.9988 17.3333 32ZM28 32C26.9391 32 25.9217 31.5786 25.1716 30.8284C24.4214 30.0783 24 29.0609 24 28V18.6667H32V28C31.9988 29.0605 31.577 30.0772 30.8271 30.8271C30.0772 31.577 29.0605 31.9988 28 32ZM38.6667 32C37.6058 32 36.5884 31.5786 35.8382 30.8284C35.0881 30.0783 34.6667 29.0609 34.6667 28V18.6667H42.6667V28C42.6655 29.0605 42.2436 30.0772 41.4938 30.8271C40.7439 31.577 39.7272 31.9988 38.6667 32ZM49.3333 32C48.2725 32 47.2551 31.5786 46.5049 30.8284C45.7548 30.0783 45.3333 29.0609 45.3333 28V18.6667H53.3333V28C53.3321 29.0605 52.9103 30.0772 52.1604 30.8271C51.4105 31.577 50.3938 31.9988 49.3333 32ZM60 32C58.9391 32 57.9217 31.5786 57.1716 30.8284C56.4214 30.0783 56 29.0609 56 28V18.6667H64V28C63.9988 29.0605 63.577 30.0772 62.8271 30.8271C62.0772 31.577 61.0605 31.9988 60 32ZM74.6667 28C74.6667 29.0609 74.2453 30.0783 73.4951 30.8284C72.745 31.5786 71.7275 32 70.6667 32C69.6058 32 68.5884 31.5786 67.8383 30.8284C67.0881 30.0783 66.6667 29.0609 66.6667 28V18.6667H74.6667V28ZM24 2.66667H53.3333V10.6667H24V2.66667ZM7.48966 8H21.3333V13.3333H56V8H69.8437L73.8437 16H3.48966L7.48966 8ZM2.66667 28V18.6667H10.6667V28C10.6667 29.0609 10.2452 30.0783 9.4951 30.8284C8.74495 31.5786 7.72753 32 6.66667 32C5.6058 32 4.58839 31.5786 3.83824 30.8284C3.08809 30.0783 2.66667 29.0609 2.66667 28ZM14.6667 72V41.3333H30.6667V72H14.6667Z" fill="#605D5B"/>
<path d="M66.6668 53.3333V39.9999C66.6668 39.8248 66.6324 39.6515 66.5653 39.4897C66.4983 39.3279 66.4001 39.1809 66.2763 39.0571C66.1525 38.9333 66.0055 38.8351 65.8438 38.7681C65.682 38.7011 65.5086 38.6666 65.3335 38.6666H38.6668C38.4917 38.6666 38.3184 38.7011 38.1566 38.7681C37.9948 38.8351 37.8478 38.9333 37.724 39.0571C37.6002 39.1809 37.502 39.3279 37.435 39.4897C37.368 39.6515 37.3335 39.8248 37.3335 39.9999V53.3333C37.3335 53.6869 37.474 54.026 37.724 54.2761C37.9741 54.5261 38.3132 54.6666 38.6668 54.6666H65.3335C65.6871 54.6666 66.0263 54.5261 66.2763 54.2761C66.5264 54.026 66.6668 53.6869 66.6668 53.3333ZM64.0002 51.9999H40.0002V41.3333H64.0002V51.9999Z" fill="#605D5B"/>
<path d="M28 42.6667H17.3333C16.9797 42.6667 16.6406 42.8071 16.3905 43.0572C16.1405 43.3072 16 43.6464 16 44V60C16 60.3536 16.1405 60.6928 16.3905 60.9428C16.6406 61.1929 16.9797 61.3333 17.3333 61.3333H28C28.3536 61.3333 28.6928 61.1929 28.9428 60.9428C29.1929 60.6928 29.3333 60.3536 29.3333 60V44C29.3333 43.6464 29.1929 43.3072 28.9428 43.0572C28.6928 42.8071 28.3536 42.6667 28 42.6667ZM26.6667 58.6667H18.6667V45.3333H26.6667V58.6667Z" fill="#605D5B"/>
<path d="M26.6667 62.6667H25.3333C24.9797 62.6667 24.6406 62.8071 24.3905 63.0572C24.1405 63.3072 24 63.6464 24 64C24 64.3536 24.1405 64.6928 24.3905 64.9428C24.6406 65.1928 24.9797 65.3333 25.3333 65.3333H26.6667C27.0203 65.3333 27.3594 65.1928 27.6095 64.9428C27.8595 64.6928 28 64.3536 28 64C28 63.6464 27.8595 63.3072 27.6095 63.0572C27.3594 62.8071 27.0203 62.6667 26.6667 62.6667Z" fill="#605D5B"/>
</g>
<defs>
<clipPath id="clip0">
<rect width="78.6667" height="80" fill="white"/>
</clipPath>
</defs>
</svg>
