<svg width="425" height="288" viewBox="0 0 425 288" fill="none" xmlns="http://www.w3.org/2000/svg">
<g clip-path="url(#clip0)">
<path d="M97.6632 105.921C79.6889 115.658 76.226 113.202 59.2039 121.609C41.2621 130.47 4.32859 148.722 0.346311 178.887C-3.13818 205.394 20.1387 231.339 41.1214 243.229C54.8321 250.976 65.2207 251.42 126.665 251.073C204.157 250.641 211.807 249.807 228.689 255.001C262.884 265.517 261.835 278.284 293.823 284.819C305.185 287.134 341.188 294.491 376.228 273.826C380.383 271.381 422.76 245.61 424.924 205.567C426.472 176.42 404.991 172.027 400.587 134.16C396.183 96.2918 415.975 84.7909 406.084 62.7519C395.155 38.3976 361.716 31.5706 326.006 24.3C305.618 20.1562 268.219 12.9829 224.003 25.8904C181.215 38.3759 149.996 64.4505 145.526 68.2589C130.041 81.4369 120.713 93.4896 97.6632 105.921Z" fill="#FFC42C"/>
<path d="M97.6632 105.921C79.6889 115.658 76.226 113.202 59.2039 121.609C41.2621 130.47 4.32859 148.722 0.346311 178.887C-3.13818 205.394 20.1387 231.339 41.1214 243.229C54.8321 250.976 65.2207 251.42 126.665 251.073C204.157 250.641 211.807 249.807 228.689 255.001C262.884 265.517 261.835 278.284 293.823 284.819C305.185 287.134 341.188 294.491 376.228 273.826C380.383 271.381 422.76 245.61 424.924 205.567C426.472 176.42 404.991 172.027 400.587 134.16C396.183 96.2918 415.975 84.7909 406.084 62.7519C395.155 38.3976 361.716 31.5706 326.006 24.3C305.618 20.1562 268.219 12.9829 224.003 25.8904C181.215 38.3759 149.996 64.4505 145.526 68.2589C130.041 81.4369 120.713 93.4896 97.6632 105.921Z" fill="url(#paint0_linear)"/>
<path d="M271.617 60.1445C271.617 60.1445 270.027 55.1135 268.544 55.0702C267.062 55.0269 257.723 55.7626 256.825 56.0331C255.926 56.3036 256.738 57.3422 257.799 57.9049C258.859 58.4675 267.538 59.3114 267.538 59.3114L269.886 62.027L271.617 60.1445Z" fill="#E58B5E"/>
<path d="M365.212 122.063C365.212 122.063 366.911 130.719 362.766 132.061C362.766 132.061 359.639 133.078 360.147 122.767L365.212 122.063Z" fill="#E58B5E"/>
<path d="M342.573 219.275L339.013 218.951C339.013 218.951 336.697 225.583 337.466 229.056C337.909 231.003 349.196 231.707 350.451 231.306C350.451 231.306 351.696 228.569 347.205 227.336C347.205 227.336 344.013 226.091 343.731 224.836C343.353 223.181 342.573 219.275 342.573 219.275Z" fill="#FCF6D8"/>
<path d="M317.121 219.275L320.703 218.951C320.703 218.951 323.008 225.583 322.229 229.056C321.807 231.003 310.51 231.707 309.243 231.306C309.243 231.306 308.01 228.569 312.49 227.336C312.49 227.336 315.682 226.091 315.953 224.836C316.342 223.181 317.121 219.275 317.121 219.275Z" fill="#FCF6D8"/>
<path d="M351.75 115.864C351.75 115.864 348.298 191.015 345.257 219.903H337.271C337.271 219.903 333.354 157.335 331.687 130.2C331.687 130.2 325.043 206.877 323.236 219.903H313.496C313.496 219.903 313.637 124.812 312.317 106.83L351.75 115.864Z" fill="#37332F"/>
<path d="M297.405 65.998C297.405 65.998 287.568 74.0044 285.501 75.6489C285.501 75.6489 284.419 79.4898 288.867 82.4434L301.852 72.8683L297.405 65.998Z" fill="#EA6A7C"/>
<path d="M283.911 76.7088C283.911 76.7088 302.794 58.316 311.657 51.3267L327.099 55.4596C326.861 55.7626 326.612 56.0872 326.32 56.4009C323.073 60.112 296.604 78.1045 289.451 83.3519C288.003 82.8664 286.718 81.9882 285.74 80.8152C284.761 79.6422 284.128 78.2206 283.911 76.7088Z" fill="#C63F3C"/>
<path d="M313.583 51.8464C313.583 51.8464 324.101 49.1632 324.664 47.9406C325.54 46.0581 326.828 40.3671 327.131 34.8709C327.218 33.4968 337.141 27.438 337.141 27.438C337.141 27.438 336.946 40.6917 339.965 46.6856C339.965 46.6856 343.028 47.4646 346.155 48.5573V56.5096L316.299 61.0537C313.096 58.8898 313.193 52.3874 313.583 51.8464Z" fill="#E58B5E"/>
<path d="M325.075 46.8695C326.152 43.199 326.827 39.4226 327.088 35.6065L335.388 29.9805H337.174C337.174 31.5601 337.303 33.7131 337.531 36.0177C335.713 40.0316 330.702 49.4769 325.075 46.8695Z" fill="#C97550"/>
<path d="M312.133 117.476C311.655 116.758 311.399 115.915 311.397 115.053L311.657 51.327L324.35 47.9189C332.78 56.358 340.214 46.6963 340.214 46.6963C342.433 46.7937 355.278 47.8431 354.888 56.4337C354.888 56.4337 353.709 115.215 352.616 116.633C352.616 116.633 348.146 121.685 343.753 123.384L332.012 118.861L320.314 123.34C320.314 123.34 313.421 119.013 312.133 117.476Z" fill="#C63F3C"/>
<path d="M321.829 18.2308C321.467 22.7287 321.638 27.2537 322.337 31.7117C323.03 35.2929 327.305 39.2852 329.566 40.2589C329.566 40.2589 330.194 40.616 332.412 40.2589C335.139 39.8045 339.316 35.7148 340.658 30.3376C340.658 30.3376 342.671 30.673 343.515 28.1737C344.359 25.6745 343.266 22.1257 340.615 24.4735C340.615 24.4735 341.329 13.3837 336.449 12.7129C331.568 12.0421 322.262 10.3543 321.829 18.2308Z" fill="#E58B5E"/>
<path d="M322.153 30.2292C321.469 30.2895 320.786 30.105 320.225 29.7088C319.664 29.3125 319.262 28.7302 319.091 28.0654C318.247 25.5445 319.35 22.0065 321.991 24.3652" fill="#E58B5E"/>
<path d="M335.854 8.54734C335.854 8.54734 343.212 8.15785 341.556 23.8134C341.556 23.8134 340.02 26.118 339.49 25.5878C338.959 25.0577 339.435 23.7269 339.49 22.342C339.544 20.9571 338.267 15.3311 337.736 15.1255C337.206 14.9199 332.326 19.1828 323.669 17.9061C323.669 17.9061 322.467 22.2338 322.998 24.7547C323.528 27.2756 322.413 25.7393 322.121 25.3173C321.829 24.8954 320.812 23.597 320.812 23.597C320.812 23.597 318.702 16.651 321.613 12.042C321.613 12.042 319.145 11.1764 319.297 9.87812C319.448 8.5798 323.863 9.48863 327.424 9.09913C327.424 9.09913 325.681 8.70963 325.357 7.70344C325.032 6.69724 334.912 8.41751 335.854 8.54734Z" fill="#37332F"/>
<path d="M347.703 48.0811C347.703 48.0811 357.161 49.6715 360.31 53.7288C363.459 57.786 367.051 121.382 367.051 121.382C367.051 121.382 362.366 125.461 358.535 122.529L351.75 65.9979C351.75 65.9979 348.601 50.537 347.703 48.0811Z" fill="#C63F3C"/>
<path d="M324.642 47.9405C324.642 47.9405 331.135 69.3844 332.693 73.0522C332.693 73.0522 339.403 50.3316 340.192 46.6963C340.214 46.6963 335.464 52.7876 324.642 47.9405Z" fill="#FCF6D8"/>
<path d="M331.341 54.659L329.793 67.837L331.785 72.868L332.715 73.0519C332.715 73.0519 333.862 73.0519 333.862 72.868C333.862 72.684 335.464 67.4583 335.464 67.4583L333.148 53.8584L331.341 54.659Z" fill="#EFA731"/>
<path d="M325.313 46.1011L332.715 73.052L331.633 75.0753L324.426 67.0798L326.06 61.9622L320.487 60.8803L321.645 48.6869C321.645 48.6869 324.35 45.7116 325.313 46.1011Z" fill="#E4544A"/>
<path d="M339.565 45.7874L332.715 73.0521L333.797 75.0753L341.015 67.0798L339.381 61.9623L344.954 60.8803L343.785 47.0965C343.785 47.0965 340.517 45.4411 339.565 45.7874Z" fill="#E4544A"/>
<path d="M334.1 49.8336C333.765 49.3359 332.445 49.3467 332.445 49.3467C332.445 49.3467 331.114 49.3467 330.789 49.8336C330.325 50.8327 329.99 51.8871 329.793 52.9712L331.341 54.659H333.3L335.096 53.0145C334.903 51.9156 334.568 50.8464 334.1 49.8336Z" fill="#EFA731"/>
<path d="M268.371 61.6701C268.371 61.6701 284.387 83.3088 286.302 83.7416C287.048 83.9662 287.84 83.991 288.599 83.8134C289.357 83.6358 290.056 83.2621 290.625 82.7296C291.194 82.1971 291.613 81.5246 291.84 80.7794C292.067 80.0342 292.094 79.2424 291.918 78.4834C291.377 75.9192 271.866 58.4243 271.866 58.4243L268.371 61.6701Z" fill="#C63F3C"/>
<path d="M127.693 38.2138L116.979 37.3916V37.3267H116.59H116.2V37.3916L105.487 38.2138C105.487 38.2138 103.204 48.1568 105.487 51.4784C108.977 50.4743 112.572 49.8788 116.2 49.704H116.979C120.607 49.8788 124.202 50.4743 127.693 51.4784C129.965 48.1568 127.693 38.2138 127.693 38.2138Z" fill="#37332F"/>
<path d="M168.403 60.4044C168.403 60.4044 169.063 54.5295 170.675 54.1508C172.288 53.7722 182.73 52.5712 183.769 52.6578C184.808 52.7443 184.148 54.0859 183.109 54.9298C182.07 55.7737 172.666 58.6084 172.666 58.6084L170.675 62.1139L168.403 60.4044Z" fill="#F4A684"/>
<path d="M144.931 71.4077C144.931 71.4077 155.958 80.3878 158.263 82.2271C158.263 82.2271 159.507 86.5548 154.475 89.8006L139.953 79.057L144.931 71.4077Z" fill="#EA6A7C"/>
<path d="M135.96 59.5063L134.435 76.3953C143.546 82.8869 148.134 86.7494 152.257 89.7897C152.257 89.7897 159.129 89.3028 160.06 83.2981C160.06 83.3089 146.425 68.1618 135.96 59.5063Z" fill="#C63F3C"/>
<path d="M172.32 61.389C172.32 61.389 158.977 89.2163 156.975 90.136C152.56 92.1484 150.039 87.9721 150.082 84.9968C150.125 82.0215 167.732 58.6084 167.732 58.6084L172.32 61.389Z" fill="#C63F3C"/>
<path d="M123.429 219.719L119.988 219.405C119.988 219.405 117.824 225.789 118.505 229.143C118.927 231.014 129.803 231.696 131.004 231.307C131.004 231.307 132.194 228.667 127.877 227.487C127.877 227.487 124.803 226.286 124.533 225.075C124.176 223.484 123.429 219.719 123.429 219.719Z" fill="#FCF6D8"/>
<path d="M110.854 219.719L114.296 219.405C114.296 219.405 116.525 225.789 115.778 229.143C115.367 231.014 104.491 231.696 103.29 231.307C103.29 231.307 102.089 228.667 106.418 227.487C106.418 227.487 109.491 226.286 109.751 225.075C110.108 223.484 110.854 219.719 110.854 219.719Z" fill="#FCF6D8"/>
<path d="M101.721 126.218C104.091 164.216 110.887 219.719 110.887 219.719L114.415 219.665C114.858 199.671 117.098 135.512 117.098 135.512C118.689 161.652 119.771 220.184 119.771 220.184L123.58 220.314C133.157 145.747 134.607 144.308 136.014 127.051L101.721 126.218Z" fill="#E58B5E"/>
<path d="M99.3514 111.439C99.3514 111.439 94.0273 135.631 101.721 174.862C111.979 177.979 122.932 177.979 133.19 174.862C133.19 174.862 140.44 128.988 133.19 113.311L99.3514 111.439Z" fill="#37332F"/>
<path d="M84.0606 73.6689C84.0606 73.6689 74.581 81.394 72.6007 82.9736C72.6007 82.9736 71.5186 86.6738 75.8471 89.4652L88.335 80.2363L84.0606 73.6689Z" fill="#EA6A7C"/>
<path d="M70.6963 83.8499C70.6963 83.8499 89.2442 66.2035 97.7498 59.5063L112.629 63.4879C112.398 63.7836 112.149 64.0865 111.883 64.3967C108.831 67.9779 83.7036 83.9905 76.832 89.054C76.832 89.054 71.5079 88.9999 70.6963 83.8499Z" fill="#C63F3C"/>
<path d="M125.063 55.038C122.152 49.2605 122.347 36.4937 122.347 36.4937C122.347 36.4937 112.781 42.3253 112.705 43.6452C112.38 48.9792 111.168 54.4646 110.324 56.2389C109.967 57.0071 105.606 57.8943 102.63 58.4028V68.8218L131.026 64.4941V56.8448C128.007 55.7954 125.063 55.038 125.063 55.038Z" fill="#E58B5E"/>
<path d="M110.714 55.1787C111.749 51.6528 112.398 48.0252 112.651 44.3594L120.659 38.9497H122.369C122.369 40.4644 122.498 42.5417 122.715 44.7705C120.962 48.6006 116.146 57.7213 110.714 55.1787Z" fill="#C97550"/>
<path d="M135.711 120.333C135.233 113.812 133.961 107.374 131.924 101.161C130.936 98.4821 130.579 95.6115 130.881 92.7724C131.183 89.9333 132.136 87.2021 133.666 84.7912C138.438 77.3475 135.96 59.5064 135.96 59.5064C133.937 57.5156 127.455 55.1787 125.312 55.0488C125.312 55.0488 118.148 64.3535 110.021 56.2281L97.793 59.4739C97.793 59.4739 94.9578 76.9796 100.855 83.547C106.201 89.5192 102.814 98.099 101.938 100.425C99.6137 106.85 98.0873 113.536 97.3927 120.333C97.3927 120.333 98.6047 124.725 106.602 130.178L116.839 120.333L126.697 130.178C126.697 130.178 135.03 123.254 135.711 120.333Z" fill="#C63F3C"/>
<path d="M125.312 55.0488C125.312 55.0488 118.148 64.3535 110.021 56.2281C110.021 56.2281 114.458 75.0105 117.78 80.7339C117.78 80.7339 124.446 62.1896 125.312 55.0488Z" fill="white"/>
<path d="M107.597 27.6109C107.248 31.9427 107.412 36.3005 108.084 40.5941C108.744 44.0454 112.856 47.8755 115.042 48.8276C115.042 48.8276 115.648 49.1738 117.78 48.8276C120.42 48.3948 124.435 44.4998 125.723 39.2741C126.362 39.3252 126.998 39.1379 127.507 38.7484C128.017 38.3588 128.364 37.7946 128.482 37.1643C129.294 34.7408 128.234 31.3327 125.69 33.6048C125.69 33.6048 126.372 22.9261 121.687 22.2769C117.001 21.6278 108.008 20.0157 107.597 27.6109Z" fill="#E58B5E"/>
<path d="M107.9 39.1768C107.231 39.2345 106.563 39.0468 106.021 38.6487C105.48 38.2506 105.101 37.6692 104.957 37.0129C104.145 34.5786 105.195 31.1813 107.738 33.4425" fill="#E58B5E"/>
<path d="M79.2452 84.5207C79.2452 84.5207 88.5083 101.345 94.1246 109.405L94.8172 113.733C94.8172 113.733 70.8261 93.6414 70.6963 86.6521C70.5664 79.6628 79.2452 84.5207 79.2452 84.5207Z" fill="#E58B5E"/>
<path d="M92.9561 112.196C92.9561 112.196 94.3628 116.621 96.8734 117.39C96.8734 117.39 97.501 117.92 97.9555 117.703C98.2648 117.515 98.5098 117.237 98.6585 116.907C98.8072 116.577 98.8526 116.21 98.7888 115.853C98.7239 114.955 99.3299 114.23 99.4597 113.603C99.6351 112.882 99.5783 112.125 99.2974 111.439C97.7674 109.99 95.7916 109.101 93.6919 108.918L92.9561 112.196Z" fill="#E58B5E"/>
<path d="M106.721 32.8472C106.721 32.8472 107.727 34.4918 108.474 34.4593C109.221 34.4269 111.017 28.5303 111.017 27.232C111.017 27.232 117.51 26.8858 119.176 23.5859C120.843 20.286 114.707 15.1468 108.387 20.5565C104.481 23.9105 106.721 32.8472 106.721 32.8472Z" fill="#37332F"/>
<path d="M126.762 32.8473C126.762 32.8473 125.766 34.4919 125.02 34.4594C124.273 34.427 122.466 28.5304 122.466 27.2321C122.466 27.2321 115.973 26.8859 114.306 23.586C112.64 20.2861 119.003 15.3308 125.312 20.7513C129.218 24.1053 126.762 32.8473 126.762 32.8473Z" fill="#37332F"/>
<path d="M110.714 55.1787L117.78 80.6907L110.021 75.8761L111.017 69.5035L106.136 69.0491L108.03 56.715C108.03 56.715 110.378 54.021 110.714 55.1787Z" fill="#E4544A"/>
<path d="M124.912 54.3564L117.78 80.7989L125.528 75.9843L124.533 69.6117L129.413 69.1573L127.584 55.9036C127.584 55.9036 125.225 53.1663 124.912 54.3564Z" fill="#E4544A"/>
<path d="M94.049 107.653L89.1685 111.439C89.1685 111.439 67.7313 90.1252 70.4691 84.1421C70.4691 84.1421 73.0879 80.4743 81.0957 85.2889L94.049 107.653Z" fill="#C63F3C"/>
<path d="M220.605 122.064L217.153 67.2528L208.54 64.3965L215.541 122.767L220.605 122.064Z" fill="#E58B5E"/>
<path d="M220.605 122.063C221.147 124.582 221.02 127.197 220.238 129.651C219.456 132.105 218.045 134.312 216.147 136.053C216.147 136.053 211.742 136.053 215.541 122.767L220.605 122.063Z" fill="#E58B5E"/>
<path d="M154.714 123.924L158.166 69.1137L166.791 66.2466L159.789 124.628L154.714 123.924Z" fill="#E58B5E"/>
<path d="M154.746 123.925C154.208 126.444 154.337 129.06 155.121 131.513C155.905 133.967 157.316 136.173 159.215 137.914C159.215 137.914 163.609 137.914 159.821 124.628L154.746 123.925Z" fill="#E58B5E"/>
<path d="M197.967 219.275L194.407 218.951C194.407 218.951 192.091 225.583 192.859 229.056C193.303 231.003 204.59 231.707 205.845 231.306C205.845 231.306 207.079 228.569 202.599 227.336C202.599 227.336 199.417 226.091 199.136 224.836C198.746 223.181 197.967 219.275 197.967 219.275Z" fill="#FCF6D8"/>
<path d="M172.515 219.275L176.097 218.951C176.097 218.951 178.402 225.583 177.623 229.056C177.19 231.003 165.903 231.707 164.637 231.306C164.637 231.306 163.403 228.569 167.883 227.336C167.883 227.336 171.065 226.091 171.346 224.836C171.736 223.181 172.515 219.275 172.515 219.275Z" fill="#FCF6D8"/>
<path d="M207.144 115.864C207.144 115.864 203.692 191.015 200.651 219.903H192.621C192.621 219.903 188.704 157.335 187.037 130.2C187.037 130.2 180.393 206.877 178.586 219.903H168.847C168.847 219.903 168.987 124.812 167.656 106.83L207.144 115.864Z" fill="#37332F"/>
<path d="M168.976 51.8464C168.976 51.8464 179.495 49.1632 180.057 47.9406C180.934 46.0581 182.222 40.3671 182.525 34.8709C182.6 33.4968 192.534 27.438 192.534 27.438C192.534 27.438 192.329 40.6917 195.359 46.6856C195.359 46.6856 198.41 47.4646 201.549 48.5573V56.5096L171.692 61.0537C168.489 58.8898 168.587 52.3874 168.976 51.8464Z" fill="#E58B5E"/>
<path d="M180.469 46.8695C181.545 43.1994 182.217 39.4226 182.471 35.6065L190.782 29.9805H192.621C192.621 31.5601 192.751 33.7131 192.967 36.0177C191.106 40.0316 186.128 49.4769 180.469 46.8695Z" fill="#C97550"/>
<path d="M166.791 122.064L167.05 51.327L179.733 47.9189C188.174 56.358 195.597 46.6963 195.608 46.6963C197.826 46.7937 210.671 47.8431 210.282 56.4337C210.282 56.4337 208.237 120.657 207.144 122.085L166.791 122.064Z" fill="#EFA731"/>
<path d="M177.222 18.2306C176.861 22.7286 177.032 27.2535 177.731 31.7115C178.424 35.2927 182.687 39.285 184.96 40.2588C184.96 40.2588 185.577 40.605 187.806 40.2588C190.533 39.8043 194.699 35.7146 196.041 30.3374C196.041 30.3374 198.064 30.6728 198.909 28.1736C199.753 25.6743 198.649 22.1255 196.008 24.4733C196.008 24.4733 196.723 13.3835 191.842 12.7127C186.962 12.0419 177.655 10.3433 177.222 18.2306Z" fill="#E58B5E"/>
<path d="M177.547 30.2292C176.863 30.2895 176.18 30.105 175.619 29.7088C175.058 29.3125 174.656 28.7302 174.484 28.0654C173.64 25.5445 174.733 22.0065 177.385 24.3652" fill="#E58B5E"/>
<path d="M192.913 8.94753C192.913 8.94753 198.594 8.15772 196.95 23.8025C196.95 23.8025 195.413 26.107 194.883 25.5769C194.352 25.0467 194.829 23.7159 194.883 22.3311C194.937 20.9462 193.66 15.3201 193.13 15.1146C192.599 14.909 187.21 21.7252 178.553 20.4485C178.147 21.8354 178.106 23.3039 178.434 24.7113C178.964 27.1781 177.85 25.6959 177.558 25.2739C177.265 24.852 176.248 23.5536 176.248 23.5536C175.097 19.8024 175.146 15.7854 176.389 12.0635C176.389 12.0635 181.107 4.5116 192.913 8.94753Z" fill="#37332F"/>
<path d="M208.366 78.4185L219.047 75.0429C217.965 64.1045 216.883 55.1677 215.703 53.7288C212.554 49.6715 203.085 48.0811 203.085 48.0811C203.994 50.537 207.143 66.0303 207.143 66.0303L208.366 78.4185Z" fill="#EFA731"/>
<path d="M167.515 75.0431L168.348 68.0646C168.348 68.0646 171.497 52.5713 172.406 50.1045C172.406 50.1045 163.165 50.6022 160.016 54.6594C158.934 56.0443 157.787 64.505 156.77 75.0431H167.515Z" fill="#EFA731"/>
<path d="M176.389 12.0635C176.389 12.0635 182.72 14.0651 186.334 14.0651L195.608 10.6353C195.608 10.6353 190.381 4.93355 185.187 0.0323844C185.187 -7.36229e-05 181.107 4.97682 176.389 12.0635Z" fill="#FCF6D8"/>
<path d="M180.717 46.166L188.141 51.2944L177.038 58.143C177.038 58.143 180.036 45.6575 180.717 46.166Z" fill="#FCF6D8"/>
<path d="M195.261 45.5493L188.108 51.2944L197.729 57.0936C197.729 57.0936 195.867 45.0408 195.261 45.5493Z" fill="#FCF6D8"/>
<path d="M257.182 50.4615C257.182 50.4615 262.722 52.3874 263.837 48.1029C265.079 46.7614 266.638 45.7533 268.371 45.1709C270.741 44.6083 272.7 43.3641 271.369 40.9405C270.286 38.9281 269.615 37.9544 270.514 37.5108C271.412 37.0672 274.702 37.3269 273.912 35.3469C273.122 33.367 270.46 33.3129 271.509 31.9172C272.559 30.5215 275.156 27.9465 273.912 27.1567C272.667 26.3669 270.665 26.2479 271.369 25.1226C272.072 23.9974 274.009 20.9572 272.321 20.9572C270.633 20.9572 268.717 20.2756 268.934 18.3606C269.15 16.4455 268.739 13.5568 267.04 14.2276C265.341 14.8984 265.016 15.6557 263.848 12.9509C262.398 9.61853 259.736 9.80246 259.13 10.787C258.524 11.7716 256.965 13.3728 255.331 11.685C253.697 9.99721 250.288 7.06517 248.665 9.4346C247.042 11.804 245.57 14.4872 244.109 14.4872C242.649 14.4872 239.575 15.0498 239.088 17.1813C238.601 19.3127 239.748 21.8227 238.396 22.2772C237.043 22.7316 234.565 25.6528 235.582 27.3406C236.599 29.0284 236.329 31.3546 234.976 31.8847C233.623 32.4149 231.827 35.4335 233.136 37.1213C234.446 38.8091 235.052 39.7829 234.857 41.7844C234.511 45.4846 236.415 46.8371 238.969 46.3826C241.523 45.9282 242.4 46.5233 243.482 48.2111C244.564 49.8989 247.962 50.7861 250.959 48.9901L257.182 50.4615Z" fill="#541B1B"/>
<path d="M260.125 219.719L256.673 219.405C256.673 219.405 254.455 225.799 255.201 229.143C255.623 231.014 266.488 231.696 267.689 231.307C267.689 231.307 268.891 228.667 264.573 227.487C264.573 227.487 261.489 226.286 261.229 225.075C260.872 223.484 260.125 219.719 260.125 219.719Z" fill="#FCF6D8"/>
<path d="M247.54 219.719L250.992 219.405C250.992 219.405 253.21 225.799 252.474 229.143C252.052 231.014 241.188 231.696 239.976 231.307C239.976 231.307 238.785 228.667 243.103 227.487C243.103 227.487 246.176 226.286 246.447 225.075C246.804 223.484 247.54 219.719 247.54 219.719Z" fill="#FCF6D8"/>
<path d="M238.374 126.218C240.744 164.205 247.54 219.719 247.54 219.719L251.057 219.632C251.5 199.638 253.73 135.48 253.73 135.48C255.385 161.652 256.467 220.184 256.467 220.184L260.287 220.314C269.864 145.747 271.314 144.308 272.721 127.051L238.374 126.218Z" fill="#E58B5E"/>
<path d="M271.542 161.673C273.122 146.872 274.593 123.589 269.821 113.311L236.037 111.439C236.037 111.439 231.903 130.33 236.188 161.727C236.188 161.673 251.057 169.106 271.542 161.673Z" fill="#37332F"/>
<path d="M261.759 55.038C258.848 49.2605 259.043 36.4937 259.043 36.4937C259.043 36.4937 249.466 42.3253 249.39 43.6561C249.066 48.99 247.864 54.4754 247.02 56.2389C246.663 57.0071 242.302 57.8835 239.315 58.4028V68.8218L267.722 64.4941V56.8448C264.702 55.7954 261.759 55.038 261.759 55.038Z" fill="#E58B5E"/>
<path d="M247.41 55.1787C248.446 51.6535 249.092 48.0254 249.336 44.3594L257.355 38.9497H259.054C259.054 40.4752 259.195 42.5417 259.411 44.7705C257.658 48.6006 252.832 57.7213 247.41 55.1787Z" fill="#C97550"/>
<path d="M272.397 120.333C271.924 113.812 270.656 107.374 268.62 101.161C267.63 98.4829 267.272 95.6128 267.572 92.7737C267.872 89.9346 268.823 87.203 270.351 84.7912C275.134 77.3475 272.7 59.5064 272.7 59.5064C270.676 57.5156 264.183 55.1787 262.051 55.0488C262.051 55.0488 254.877 64.3535 246.761 56.2281L234.522 59.4739C234.522 59.4739 231.697 76.9472 237.595 83.5145C242.941 89.4868 239.543 98.0665 238.677 100.393C236.357 106.818 234.834 113.504 234.143 120.3C234.143 120.3 235.355 124.628 243.352 130.146L253.578 120.3L263.447 130.146C263.447 130.146 271.726 123.254 272.397 120.333Z" fill="#C63F3C"/>
<path d="M262.008 55.0488C262.008 55.0488 254.833 64.3535 246.728 56.2606C246.728 56.2606 251.165 75.043 254.487 80.7664C254.476 80.7339 261.153 62.1896 262.008 55.0488Z" fill="#FCF6D8"/>
<path d="M244.283 27.6109C243.934 31.943 244.101 36.3013 244.78 40.5941C245.441 44.0454 249.553 47.8755 251.739 48.8276C251.739 48.8276 252.334 49.1738 254.476 48.8276C257.106 48.3948 261.121 44.4998 262.419 39.2741C263.05 39.3138 263.674 39.121 264.172 38.7323C264.671 38.3436 265.01 37.7858 265.125 37.1643C265.936 34.7408 264.887 31.3327 262.344 33.6048C262.344 33.6048 263.025 22.9261 258.329 22.2769C253.632 21.6278 244.694 20.0157 244.283 27.6109Z" fill="#E58B5E"/>
<path d="M244.564 39.1768C243.893 39.2326 243.225 39.0444 242.682 38.6468C242.14 38.2493 241.759 37.669 241.61 37.013C240.798 34.5894 241.848 31.1922 244.391 33.4534" fill="#E58B5E"/>
<path d="M247.41 55.1785L254.476 80.6905L246.728 75.9192L247.724 69.5466L242.843 69.0922L244.737 56.7582C244.737 56.7582 247.096 54.0209 247.41 55.1785Z" fill="#E4544A"/>
<path d="M261.607 54.3564L254.476 80.7989L262.224 75.9843L261.239 69.6117L266.109 69.1573L264.291 55.9036C264.291 55.9036 261.878 53.1663 261.607 54.3564Z" fill="#E4544A"/>
<path d="M222.759 127.744L225.886 77.3255L234.5 74.4692L227.834 128.447L222.759 127.744Z" fill="#E58B5E"/>
<path d="M222.759 127.744C222.223 130.265 222.356 132.882 223.144 135.335C223.931 137.789 225.347 139.995 227.249 141.733C227.249 141.733 231.643 141.733 227.855 128.447L222.759 127.744Z" fill="#E58B5E"/>
<path d="M234.5 84.8346L236.069 76.2765C236.069 76.2765 239.218 60.7832 240.127 58.3164C240.127 58.3164 230.885 58.8141 227.726 62.8713C226.643 64.2562 225.496 72.7169 224.479 83.255C224.447 83.3091 229.414 86.5549 234.5 84.8346Z" fill="#C63F3C"/>
<path d="M285.242 130.773L281.79 75.9731L273.165 73.106L280.166 131.476L285.242 130.773Z" fill="#E58B5E"/>
<path d="M285.242 130.773C285.78 133.292 285.65 135.908 284.866 138.362C284.082 140.816 282.671 143.022 280.772 144.763C280.772 144.763 276.379 144.763 280.166 131.477L285.242 130.773Z" fill="#E58B5E"/>
<path d="M283.683 83.7523C282.601 72.8248 281.454 63.8772 280.339 62.4382C277.18 58.381 267.722 56.7905 267.722 56.7905C268.631 59.2573 271.769 74.7398 271.769 74.7398L272.992 87.1388C272.992 87.1388 280.004 87.8096 283.683 83.7523Z" fill="#C63F3C"/>
<path d="M243.558 32.9122C243.597 33.1702 243.728 33.4053 243.927 33.5743C244.126 33.7433 244.379 33.8348 244.64 33.8318C245.527 33.9076 245.949 28.0435 246.804 26.5829C247.659 25.1222 248.049 28.2707 259.498 25.9012C259.498 25.9012 261.002 35.7901 262.474 33.6046C262.744 33.2532 263.139 33.0177 263.576 32.9454C264.014 32.8731 264.463 32.9695 264.833 33.2151C264.833 33.2151 267.809 17.9057 253.632 17.2241C253.632 17.2241 240.798 15.9691 241.729 33.8318C241.632 33.8318 242.53 31.9817 243.558 32.9122Z" fill="#541B1B"/>
</g>
<defs>
<linearGradient id="paint0_linear" x1="360.943" y1="226.242" x2="29.8473" y2="60.8978" gradientUnits="userSpaceOnUse">
<stop offset="0.00892226" stop-color="#EFA731"/>
<stop offset="1" stop-color="#FFC42C"/>
</linearGradient>
<clipPath id="clip0">
<rect width="425" height="288" fill="white"/>
</clipPath>
</defs>
</svg>
