<svg width="356" height="250" viewBox="0 0 356 250" fill="none" xmlns="http://www.w3.org/2000/svg">
<g clip-path="url(#clip0)">
<path fill-rule="evenodd" clip-rule="evenodd" d="M87.4078 249.789C127.035 252.082 137.366 234.79 178.393 233.426C219.419 232.062 253.466 253.46 297.013 233.426C354.986 206.752 359.488 141.692 353.362 101.526C345.868 52.4434 313.999 6.49245 256.112 0.592785C205.589 -4.55335 178.664 25.3021 151.011 31.7839C103.476 42.8547 71.1037 25.7735 29.631 69.0496C-11.681 112.136 -1.98842 173.636 12.2166 201.721C26.4216 229.805 56.0776 247.979 87.4078 249.793V249.789Z" fill="#E6F2FF"/>
<path fill-rule="evenodd" clip-rule="evenodd" d="M209.584 27.2984V52.1398H233.888V64.7856H255.805V35.5015L286.31 27.2877V60.2858H306.056V42.1868H329.532C342.198 59.3287 350.095 80.1311 353.362 101.523C355.207 113.665 355.805 125.964 355.147 138.228H0.242798C1.6708 114.751 9.7497 89.7663 29.6132 69.0496C37.2387 61.0965 44.5572 55.1825 51.715 50.7578H59.8546V70.7888H78.3043V87.8164H99.0103V54.3254H127.967V35.4158C135.722 34.7313 143.421 33.5178 151.011 31.7839C154.085 31.047 157.104 30.0922 160.043 28.9269V63.3178H183.919V17.2847L185.704 16.3597L209.58 27.2984H209.584Z" fill="#CCE5FF"/>
<path fill-rule="evenodd" clip-rule="evenodd" d="M3.68054 116.008C10.7349 112.99 19.003 110.554 32.3619 110.554C49.605 110.554 58.3622 114.615 66.9908 118.74L67.8119 119.132C76.4371 123.254 85.1943 127.314 102.441 127.314V170.412H2.18114C-0.774816 154.009 -1.13539 134.914 3.68054 116.008V116.008Z" fill="#B3D8FF"/>
<path fill-rule="evenodd" clip-rule="evenodd" d="M26.3215 110.733C24.8114 112.597 23.7225 114.983 26.043 116.593C32.1834 120.839 42.9255 121.95 43.3503 126.736C44.0037 134.124 19.2314 135.956 0.378296 136.285C0.518716 134.449 0.700786 132.608 0.924505 130.76C34.7609 130.175 36.828 127.782 25.4754 121.597C18.1283 117.597 18.5996 113.858 20.5202 111.301C22.3302 111.065 24.2759 110.861 26.3215 110.733Z" fill="#E6F2FF"/>
<path fill-rule="evenodd" clip-rule="evenodd" d="M353.483 154.052H265.918V110.954C300.954 110.954 300.954 94.191 335.994 94.191C341.486 94.1327 346.97 94.6413 352.359 95.7088C352.732 97.6373 353.068 99.574 353.365 101.519C355.671 116.629 356.471 135.26 353.487 154.045L353.483 154.052Z" fill="#B3D8FF"/>
<path fill-rule="evenodd" clip-rule="evenodd" d="M331.788 94.2803C333.133 94.2232 334.535 94.1946 335.994 94.1946H336.743C339.271 96.2517 341.284 99.7336 333.605 103.505C323.649 108.39 329.036 110.39 354.543 110.954C354.672 112.261 354.791 113.588 354.9 114.933V114.958L354.922 115.236L354.94 115.501V115.526C337.896 115.226 316.027 113.679 316.612 107.712C316.998 103.783 326.765 102.883 332.345 99.4015C334.608 97.973 333.309 95.8303 331.792 94.2768L331.788 94.2803Z" fill="#E6F2FF"/>
<path fill-rule="evenodd" clip-rule="evenodd" d="M314.02 136.714C318.951 135.232 324.016 133.8 333.887 133.8C344.715 133.8 349.781 135.532 355.215 137.153C354.651 148.638 352.876 160.584 349.338 172.151H252.513V133.8C272.862 133.8 272.862 139.913 293.211 139.913C303.064 139.913 308.144 138.485 313.078 136.999L314.031 136.714H314.02Z" fill="#80C0FF"/>
<path fill-rule="evenodd" clip-rule="evenodd" d="M322.603 119.25C325.159 119.25 327.244 127.546 327.244 133.396C327.244 139.246 324.388 140.438 322.603 140.438C320.818 140.438 317.962 139.242 317.962 133.396C317.962 127.55 320.036 119.25 322.603 119.25V119.25Z" fill="#5AA6F1"/>
<path fill-rule="evenodd" clip-rule="evenodd" d="M340.956 127.957C343.508 127.957 345.597 136.256 345.597 142.103C345.597 147.949 342.741 149.149 340.956 149.149C339.171 149.149 336.315 147.949 336.315 142.103C336.315 136.256 338.389 127.957 340.956 127.957Z" fill="#5AA6F1"/>
<path fill-rule="evenodd" clip-rule="evenodd" d="M191.955 146.285C196.889 147.763 201.951 149.199 211.822 149.199C232.171 149.199 232.171 143.081 252.52 143.081V181.45H4.64092C1.32359 169.08 -0.238697 156.305 -7.76294e-05 143.499C2.77599 143.207 5.56596 143.068 8.35728 143.081C18.2105 143.081 23.2906 144.51 28.2243 145.995L29.1775 146.285C34.1077 147.763 39.1913 149.199 49.0445 149.199C58.8977 149.199 63.9778 147.77 68.9116 146.285L69.8647 145.995C74.7985 144.517 79.8786 143.081 89.7318 143.081C99.585 143.081 104.669 144.51 109.599 145.995L110.552 146.285C115.486 147.763 120.566 149.199 130.419 149.199C150.768 149.199 150.768 143.081 171.117 143.081C180.974 143.081 186.054 144.51 190.984 145.995L191.941 146.285H191.955Z" fill="#80C0FF"/>
<path fill-rule="evenodd" clip-rule="evenodd" d="M22.2161 131.957C24.7686 131.957 26.8571 140.253 26.8571 146.099C26.8571 151.945 24.0011 153.145 22.2161 153.145C20.4311 153.145 17.5751 151.949 17.5751 146.099C17.5751 140.249 19.6635 131.957 22.2161 131.957Z" fill="#5AA6F1"/>
<path fill-rule="evenodd" clip-rule="evenodd" d="M0.967529 162.301C1.24956 162.28 1.53159 162.266 1.82076 162.266C3.38403 162.265 4.92472 162.639 6.31363 163.357C7.70255 164.074 8.89921 165.115 9.80327 166.391C10.7084 165.115 11.9055 164.076 13.2946 163.358C14.6836 162.641 16.2242 162.266 17.7876 162.266C19.3509 162.266 20.8915 162.641 22.2805 163.358C23.6696 164.076 24.8667 165.115 25.7719 166.391C26.677 165.115 27.8741 164.076 29.2632 163.358C30.6522 162.641 32.1928 162.266 33.7562 162.266C35.3195 162.266 36.8601 162.641 38.2491 163.358C39.6382 164.076 40.8353 165.115 41.7405 166.391C42.6456 165.115 43.8427 164.076 45.2318 163.358C46.6208 162.641 48.1614 162.266 49.7247 162.266C51.2881 162.266 52.8287 162.641 54.2177 163.358C55.6068 164.076 56.8039 165.115 57.709 166.391C58.6142 165.115 59.8113 164.076 61.2004 163.358C62.5894 162.641 64.13 162.266 65.6933 162.266C67.2567 162.266 68.7973 162.641 70.1863 163.358C71.5754 164.076 72.7725 165.115 73.6776 166.391C74.5828 165.115 75.7799 164.076 77.169 163.358C78.558 162.641 80.0986 162.266 81.6619 162.266C83.2253 162.266 84.7659 162.641 86.1549 163.358C87.544 164.076 88.7411 165.115 89.6462 166.391C90.5513 165.115 91.7485 164.076 93.1376 163.358C94.5266 162.641 96.0672 162.266 97.6305 162.266C99.1939 162.266 100.734 162.641 102.124 163.358C103.513 164.076 104.71 165.115 105.615 166.391C106.52 165.115 107.717 164.076 109.106 163.358C110.495 162.641 112.036 162.266 113.599 162.266C115.162 162.266 116.703 162.641 118.092 163.358C119.481 164.076 120.678 165.115 121.583 166.391C122.489 165.115 123.686 164.076 125.075 163.358C126.464 162.641 128.004 162.266 129.568 162.266C131.131 162.266 132.672 162.641 134.061 163.358C135.45 164.076 136.647 165.115 137.552 166.391C138.457 165.115 139.654 164.076 141.043 163.358C142.432 162.641 143.973 162.266 145.536 162.266C147.1 162.266 148.64 162.641 150.029 163.358C151.418 164.076 152.615 165.115 153.521 166.391C154.425 165.115 155.622 164.076 157.011 163.358C158.4 162.641 159.94 162.266 161.503 162.266C163.066 162.266 164.607 162.641 165.995 163.358C167.384 164.076 168.581 165.115 169.486 166.391C170.391 165.115 171.588 164.076 172.977 163.358C174.366 162.641 175.907 162.266 177.47 162.266C179.033 162.266 180.574 162.641 181.963 163.358C183.352 164.076 184.549 165.115 185.454 166.391C186.359 165.115 187.556 164.076 188.946 163.358C190.335 162.641 191.875 162.266 193.438 162.266C195.002 162.266 196.542 162.641 197.931 163.358C199.321 164.076 200.518 165.115 201.423 166.391C202.328 165.115 203.525 164.076 204.914 163.358C206.303 162.641 207.844 162.266 209.407 162.266C210.97 162.266 212.511 162.641 213.9 163.358C215.289 164.076 216.486 165.115 217.391 166.391C218.297 165.115 219.494 164.076 220.883 163.358C222.272 162.641 223.812 162.266 225.376 162.266C226.939 162.266 228.48 162.641 229.869 163.358C231.258 164.076 232.455 165.115 233.36 166.391C234.265 165.115 235.462 164.076 236.851 163.358C238.24 162.641 239.781 162.266 241.344 162.266C242.908 162.266 244.448 162.641 245.837 163.358C247.226 164.076 248.423 165.115 249.329 166.391C250.234 165.115 251.431 164.076 252.82 163.358C254.209 162.641 255.75 162.266 257.313 162.266C258.876 162.266 260.417 162.641 261.806 163.358C263.195 164.076 264.392 165.115 265.297 166.391C266.202 165.115 267.399 164.076 268.788 163.358C270.178 162.641 271.718 162.266 273.281 162.266C274.845 162.266 276.385 162.641 277.774 163.358C279.164 164.076 280.361 165.115 281.266 166.391C282.171 165.115 283.368 164.076 284.757 163.358C286.146 162.641 287.687 162.266 289.25 162.266C290.813 162.266 292.354 162.641 293.743 163.358C295.132 164.076 296.329 165.115 297.234 166.391C298.139 165.115 299.337 164.076 300.726 163.358C302.115 162.641 303.655 162.266 305.219 162.266C306.782 162.266 308.323 162.641 309.712 163.358C311.101 164.076 312.298 165.115 313.203 166.391C314.108 165.115 315.305 164.076 316.694 163.358C318.083 162.641 319.624 162.266 321.187 162.266C322.751 162.266 324.291 162.641 325.68 163.358C327.069 164.076 328.266 165.115 329.172 166.391C330.077 165.115 331.274 164.076 332.663 163.358C334.052 162.641 335.593 162.266 337.156 162.266C338.719 162.266 340.26 162.641 341.649 163.358C343.038 164.076 344.235 165.115 345.14 166.391C345.927 165.281 346.937 164.348 348.105 163.65C349.273 162.953 350.573 162.507 351.923 162.341C348.814 176.401 343.391 190.271 334.691 202.528H12.6307C12.4879 202.26 12.3522 201.988 12.213 201.717C7.25786 191.918 2.85606 178.043 0.967529 162.301Z" fill="#5AA6F1"/>
<path fill-rule="evenodd" clip-rule="evenodd" d="M347.95 176.418C339.928 199.553 324.466 220.795 297.024 233.426C253.47 253.46 219.426 232.065 178.403 233.426C137.381 234.787 127.049 252.082 87.4185 249.789C56.0882 247.979 26.4287 229.79 12.2237 201.721C8.8036 194.989 5.65486 186.307 3.40576 176.418H347.95Z" fill="#99CDFF"/>
<path fill-rule="evenodd" clip-rule="evenodd" d="M317.148 208.659C317.149 208.413 317.101 208.17 317.007 207.942C316.914 207.715 316.776 207.508 316.602 207.334C316.428 207.16 316.221 207.022 315.994 206.929C315.767 206.835 315.523 206.787 315.277 206.788H49.6229C49.3772 206.788 49.1339 206.836 48.907 206.93C48.68 207.024 48.4738 207.161 48.3003 207.335C48.1268 207.509 47.9893 207.716 47.8959 207.943C47.8024 208.17 47.7548 208.414 47.7558 208.659C47.7553 208.905 47.8033 209.148 47.8969 209.375C47.9906 209.602 48.1281 209.808 48.3016 209.981C48.475 210.155 48.6811 210.292 48.9078 210.386C49.1345 210.48 49.3775 210.528 49.6229 210.527H315.277C315.523 210.528 315.766 210.48 315.993 210.387C316.22 210.294 316.427 210.156 316.601 209.982C316.774 209.809 316.912 209.603 317.006 209.376C317.1 209.149 317.148 208.905 317.148 208.659Z" fill="#5AA5F2"/>
<path fill-rule="evenodd" clip-rule="evenodd" d="M347.95 176.418C346.714 179.99 345.299 183.497 343.709 186.925H6.26176C5.20861 183.614 4.24471 180.1 3.40576 176.418H347.95Z" fill="#CCE5FF"/>
<path d="M295.128 167.901H263.526V197.832H295.128V167.901Z" fill="url(#paint0_linear)"/>
<path fill-rule="evenodd" clip-rule="evenodd" d="M268.082 172.365H280.894C287.188 172.365 292.301 180.497 292.301 190.511C292.301 200.524 287.188 208.66 280.894 208.66H268.082C261.788 208.66 256.676 200.528 256.676 190.511C256.676 180.493 261.788 172.365 268.082 172.365Z" fill="url(#paint1_linear)"/>
<path d="M280.894 208.656C287.194 208.656 292.301 200.532 292.301 190.511C292.301 180.489 287.194 172.365 280.894 172.365C274.595 172.365 269.488 180.489 269.488 190.511C269.488 200.532 274.595 208.656 280.894 208.656Z" fill="url(#paint2_linear)"/>
<path d="M280.894 203.338C285.348 203.338 288.959 197.595 288.959 190.511C288.959 183.426 285.348 177.683 280.894 177.683C276.441 177.683 272.83 183.426 272.83 190.511C272.83 197.595 276.441 203.338 280.894 203.338Z" fill="url(#paint3_linear)"/>
<path d="M279.652 197.832C282.194 197.832 284.254 194.554 284.254 190.511C284.254 186.467 282.194 183.19 279.652 183.19C277.111 183.19 275.05 186.467 275.05 190.511C275.05 194.554 277.111 197.832 279.652 197.832Z" fill="url(#paint4_linear)"/>
<path fill-rule="evenodd" clip-rule="evenodd" d="M201.244 172.365H214.057C220.351 172.365 225.459 180.497 225.459 190.511C225.459 200.524 220.351 208.659 214.057 208.659H201.244C194.95 208.659 189.82 200.528 189.82 190.511C189.82 180.493 194.95 172.365 201.244 172.365Z" fill="url(#paint5_linear)"/>
<path d="M214.057 208.656C220.356 208.656 225.463 200.532 225.463 190.511C225.463 180.489 220.356 172.365 214.057 172.365C207.757 172.365 202.651 180.489 202.651 190.511C202.651 200.532 207.757 208.656 214.057 208.656Z" fill="url(#paint6_linear)"/>
<path fill-rule="evenodd" clip-rule="evenodd" d="M292.272 177.683C289.673 172.508 285.542 169.162 280.894 169.162C276.246 169.162 272.119 172.508 269.52 177.683H183.615V76.442H306.684C307.229 76.442 307.752 76.6587 308.138 77.0445C308.524 77.4303 308.74 77.9535 308.74 78.499V177.683H292.272Z" fill="url(#paint7_linear)"/>
<path fill-rule="evenodd" clip-rule="evenodd" d="M284.393 98.1694C284.393 97.7334 284.307 97.3017 284.14 96.8989C283.973 96.4962 283.729 96.1303 283.42 95.8221C283.112 95.514 282.746 95.2697 282.343 95.1032C281.94 94.9367 281.509 94.8512 281.073 94.8517H248.943C248.507 94.8512 248.075 94.9367 247.673 95.1032C247.27 95.2697 246.904 95.514 246.595 95.8221C246.287 96.1303 246.042 96.4962 245.876 96.8989C245.709 97.3017 245.623 97.7334 245.623 98.1694V98.1694C245.623 99.0502 245.973 99.895 246.595 100.518C247.218 101.141 248.062 101.491 248.943 101.491H281.073C281.953 101.491 282.798 101.141 283.421 100.518C284.043 99.895 284.393 99.0502 284.393 98.1694Z" fill="url(#paint8_linear)"/>
<path fill-rule="evenodd" clip-rule="evenodd" d="M272.626 109.94C272.626 109.06 272.277 108.216 271.655 107.593C271.033 106.97 270.19 106.62 269.31 106.619H237.18C236.299 106.62 235.456 106.97 234.833 107.593C234.211 108.215 233.861 109.06 233.86 109.94V109.94C233.86 110.821 234.209 111.666 234.832 112.289C235.455 112.911 236.299 113.261 237.18 113.261H269.31C269.746 113.261 270.177 113.175 270.58 113.009C270.982 112.842 271.348 112.597 271.656 112.288C271.964 111.98 272.208 111.614 272.375 111.211C272.541 110.808 272.627 110.376 272.626 109.94V109.94Z" fill="url(#paint9_linear)"/>
<path fill-rule="evenodd" clip-rule="evenodd" d="M284.393 121.711C284.393 120.83 284.043 119.985 283.421 119.362C282.798 118.74 281.953 118.39 281.073 118.39H248.943C248.062 118.39 247.218 118.74 246.595 119.362C245.973 119.985 245.623 120.83 245.623 121.711C245.623 122.147 245.709 122.579 245.876 122.981C246.042 123.384 246.287 123.75 246.595 124.058C246.904 124.366 247.27 124.611 247.673 124.777C248.075 124.944 248.507 125.029 248.943 125.029H281.073C281.509 125.029 281.94 124.944 282.343 124.777C282.746 124.611 283.112 124.366 283.42 124.058C283.729 123.75 283.973 123.384 284.14 122.981C284.307 122.579 284.393 122.147 284.393 121.711V121.711Z" fill="url(#paint10_linear)"/>
<path fill-rule="evenodd" clip-rule="evenodd" d="M266.679 197.846H183.615V177.683H269.535C268.663 179.438 267.992 181.287 267.535 183.193C266.959 185.589 266.672 188.046 266.679 190.51V197.846ZM294.264 183.111C293.808 181.239 293.146 179.423 292.29 177.697H308.758V195.792C308.758 196.062 308.705 196.33 308.602 196.579C308.498 196.828 308.347 197.055 308.156 197.246C307.965 197.436 307.738 197.587 307.488 197.69C307.239 197.793 306.972 197.846 306.702 197.846H295.131V190.525C295.138 188.059 294.849 185.601 294.271 183.204L294.246 183.107L294.264 183.111Z" fill="url(#paint11_linear)"/>
<path fill-rule="evenodd" clip-rule="evenodd" d="M212.972 188.443C212.972 188.326 212.949 188.211 212.904 188.104C212.86 187.996 212.794 187.899 212.712 187.817C212.63 187.734 212.532 187.669 212.425 187.625C212.318 187.58 212.203 187.557 212.086 187.557H194.258C194.141 187.557 194.026 187.58 193.919 187.625C193.811 187.669 193.714 187.734 193.632 187.817C193.549 187.899 193.484 187.996 193.44 188.104C193.395 188.211 193.372 188.326 193.372 188.443V192.582C193.372 192.817 193.466 193.042 193.632 193.208C193.798 193.374 194.023 193.468 194.258 193.468H212.086C212.321 193.468 212.546 193.374 212.712 193.208C212.878 193.042 212.972 192.817 212.972 192.582V188.443Z" fill="url(#paint12_linear)"/>
<path fill-rule="evenodd" clip-rule="evenodd" d="M308.737 186.932H305.524C305.389 186.932 305.255 186.958 305.13 187.009C305.006 187.06 304.892 187.136 304.797 187.231C304.701 187.326 304.625 187.439 304.574 187.564C304.522 187.689 304.495 187.822 304.495 187.957V193.064C304.495 193.199 304.521 193.333 304.573 193.458C304.624 193.583 304.7 193.697 304.795 193.792C304.891 193.888 305.005 193.964 305.13 194.015C305.254 194.067 305.388 194.093 305.524 194.092H308.737V186.932Z" fill="url(#paint13_linear)"/>
<path fill-rule="evenodd" clip-rule="evenodd" d="M70.3823 172.365H83.1807C89.4746 172.365 94.6047 180.497 94.6047 190.511C94.6047 200.524 89.4925 208.659 83.1807 208.659H70.3823C64.0884 208.659 58.9797 200.528 58.9797 190.511C58.9797 180.493 64.0884 172.365 70.3823 172.365V172.365Z" fill="url(#paint14_linear)"/>
<path d="M83.1952 208.656C89.4946 208.656 94.6013 200.532 94.6013 190.511C94.6013 180.489 89.4946 172.365 83.1952 172.365C76.8958 172.365 71.7891 180.489 71.7891 190.511C71.7891 200.532 76.8958 208.656 83.1952 208.656Z" fill="url(#paint15_linear)"/>
<path fill-rule="evenodd" clip-rule="evenodd" d="M62.4284 133.817C62.4275 133.402 62.262 133.004 61.9682 132.711C61.6743 132.418 61.2762 132.253 60.8612 132.253H53.5499C53.1354 132.254 52.7383 132.419 52.4452 132.712C52.1522 133.005 51.9871 133.403 51.9862 133.817V146.52C51.9871 146.935 52.1522 147.332 52.4452 147.625C52.7383 147.918 53.1354 148.083 53.5499 148.084H60.8505C61.2655 148.084 61.6636 147.92 61.9574 147.626C62.2513 147.333 62.4168 146.935 62.4177 146.52L62.4284 133.817Z" fill="url(#paint16_linear)"/>
<path fill-rule="evenodd" clip-rule="evenodd" d="M183.615 76.442H118.831C118.286 76.442 117.763 76.6582 117.378 77.0432C116.992 77.4282 116.775 77.9505 116.774 78.4955V183.204H183.615V76.442Z" fill="url(#paint17_linear)"/>
<path fill-rule="evenodd" clip-rule="evenodd" d="M145.541 101.491H77.0297C76.2917 101.491 75.5675 101.69 74.933 102.067C74.2985 102.444 73.7773 102.985 73.424 103.633L49.937 146.513H145.541V101.491Z" fill="url(#paint18_linear)"/>
<path d="M116.774 146.513H49.937V183.19H116.774V146.513Z" fill="url(#paint19_linear)"/>
<path d="M99.4957 176.283H67.2194V183.193H99.4957V176.283Z" fill="url(#paint20_linear)"/>
<path d="M99.4957 169.369H67.2194V176.279H99.4957V169.369Z" fill="url(#paint21_linear)"/>
<path d="M99.4957 162.459H67.2194V169.369H99.4957V162.459Z" fill="url(#paint22_linear)"/>
<path fill-rule="evenodd" clip-rule="evenodd" d="M99.4958 157.605C99.4958 157.06 99.2792 156.536 98.8935 156.151C98.5079 155.765 97.9849 155.548 97.4395 155.548H69.2579C68.7132 155.549 68.1911 155.766 67.8062 156.152C67.4214 156.538 67.2052 157.06 67.2052 157.605V162.459H99.4958V157.605Z" fill="url(#paint23_linear)"/>
<path fill-rule="evenodd" clip-rule="evenodd" d="M116.775 155.548H106.257C105.987 155.548 105.72 155.601 105.471 155.705C105.222 155.808 104.995 155.96 104.805 156.151C104.614 156.342 104.463 156.569 104.36 156.818C104.257 157.068 104.204 157.335 104.205 157.605V163.858C104.204 164.128 104.257 164.396 104.36 164.645C104.463 164.895 104.614 165.122 104.805 165.313C104.995 165.504 105.222 165.655 105.471 165.759C105.72 165.862 105.987 165.915 106.257 165.915H116.775V155.548Z" fill="url(#paint24_linear)"/>
<path fill-rule="evenodd" clip-rule="evenodd" d="M49.937 155.548H60.4542C60.9993 155.549 61.5218 155.766 61.9072 156.152C62.2926 156.537 62.5096 157.06 62.5105 157.605V163.858C62.5096 164.404 62.2926 164.926 61.9072 165.312C61.5218 165.698 60.9993 165.915 60.4542 165.915H49.937V155.548Z" fill="url(#paint25_linear)"/>
<path fill-rule="evenodd" clip-rule="evenodd" d="M119.484 183.204H49.937V195.789C49.938 196.334 50.155 196.856 50.5406 197.241C50.9261 197.626 51.4486 197.842 51.9933 197.842H119.484V183.204Z" fill="url(#paint26_linear)"/>
<path fill-rule="evenodd" clip-rule="evenodd" d="M95.3189 187.2C95.3189 186.821 95.1684 186.458 94.9006 186.19C94.6328 185.922 94.2696 185.771 93.8909 185.771H72.8279C72.4492 185.771 72.086 185.922 71.8182 186.19C71.5504 186.458 71.3999 186.821 71.3999 187.2V193.825C71.3999 194.203 71.5504 194.567 71.8182 194.835C72.086 195.103 72.4492 195.253 72.8279 195.253H93.8909C94.2696 195.253 94.6328 195.103 94.9006 194.835C95.1684 194.567 95.3189 194.203 95.3189 193.825V187.2Z" fill="url(#paint27_linear)"/>
<path fill-rule="evenodd" clip-rule="evenodd" d="M57.9838 187.957C57.9838 187.822 57.9572 187.689 57.9054 187.564C57.8537 187.439 57.7779 187.326 57.6824 187.231C57.5869 187.136 57.4735 187.06 57.3488 187.009C57.2241 186.958 57.0905 186.932 56.9556 186.932H49.937V194.075H56.9556C57.0908 194.075 57.2247 194.049 57.3496 193.997C57.4746 193.946 57.5881 193.87 57.6837 193.774C57.7793 193.679 57.855 193.565 57.9065 193.44C57.958 193.315 57.9843 193.181 57.9838 193.046V187.957Z" fill="url(#paint28_linear)"/>
<path fill-rule="evenodd" clip-rule="evenodd" d="M116.775 186.932H109.756C109.484 186.933 109.224 187.041 109.031 187.233C108.839 187.425 108.73 187.685 108.728 187.957V193.064C108.733 193.332 108.841 193.588 109.031 193.778C109.221 193.968 109.477 194.075 109.745 194.078H116.775V186.932Z" fill="url(#paint29_linear)"/>
<path fill-rule="evenodd" clip-rule="evenodd" d="M137.363 108.922H70.5216L49.937 146.513H116.778L137.363 108.922Z" fill="url(#paint30_linear)"/>
<path fill-rule="evenodd" clip-rule="evenodd" d="M68.2153 113.136L86.4937 146.513H70.5215L60.2292 127.718L68.2153 113.136Z" fill="#4298F0" fill-opacity="0.3"/>
<path fill-rule="evenodd" clip-rule="evenodd" d="M83.3556 108.922H74.1558L94.7404 146.51H103.944L83.3556 108.922Z" fill="#4298F0" fill-opacity="0.3"/>
<path fill-rule="evenodd" clip-rule="evenodd" d="M131.376 119.84L123.397 134.421L109.435 108.922H125.407L131.376 119.84Z" fill="#4298F0" fill-opacity="0.3"/>
<path d="M165.023 167.901H133.421V197.832H165.023V167.901Z" fill="url(#paint31_linear)"/>
<path fill-rule="evenodd" clip-rule="evenodd" d="M137.223 172.365H150.036C156.33 172.365 161.439 180.497 161.439 190.511C161.439 200.524 156.33 208.66 150.036 208.66H137.223C130.926 208.66 125.817 200.528 125.817 190.511C125.817 180.493 130.926 172.365 137.223 172.365Z" fill="url(#paint32_linear)"/>
<path d="M150.036 208.656C156.335 208.656 161.442 200.532 161.442 190.511C161.442 180.489 156.335 172.365 150.036 172.365C143.737 172.365 138.63 180.489 138.63 190.511C138.63 200.532 143.737 208.656 150.036 208.656Z" fill="url(#paint33_linear)"/>
<path d="M150.036 203.338C154.49 203.338 158.101 197.595 158.101 190.511C158.101 183.426 154.49 177.683 150.036 177.683C145.582 177.683 141.971 183.426 141.971 190.511C141.971 197.595 145.582 203.338 150.036 203.338Z" fill="url(#paint34_linear)"/>
<path d="M148.79 197.832C151.332 197.832 153.392 194.554 153.392 190.511C153.392 186.467 151.332 183.19 148.79 183.19C146.249 183.19 144.188 186.467 144.188 190.511C144.188 194.554 146.249 197.832 148.79 197.832Z" fill="url(#paint35_linear)"/>
<path fill-rule="evenodd" clip-rule="evenodd" d="M183.615 183.204H162.642C160.764 175.019 155.823 169.172 150.036 169.172C144.249 169.172 139.308 175.008 137.445 183.204H116.774V146.513C116.774 146.513 135.367 112.565 140.265 103.626C140.618 102.979 141.139 102.438 141.772 102.061C142.406 101.684 143.13 101.484 143.867 101.483H183.615V183.204Z" fill="url(#paint36_linear)"/>
<path fill-rule="evenodd" clip-rule="evenodd" d="M121.487 157.605C121.486 157.06 121.269 156.537 120.884 156.152C120.498 155.766 119.976 155.549 119.431 155.548H116.778V165.905H119.431C119.976 165.904 120.498 165.687 120.884 165.301C121.269 164.916 121.486 164.393 121.487 163.848V157.605Z" fill="url(#paint37_linear)"/>
<path fill-rule="evenodd" clip-rule="evenodd" d="M173.248 153.238C173.248 152.837 173.089 152.453 172.806 152.17C172.523 151.886 172.139 151.727 171.738 151.727H165.583C165.183 151.727 164.799 151.886 164.516 152.17C164.232 152.453 164.073 152.837 164.073 153.238V153.238C164.073 153.436 164.112 153.633 164.188 153.816C164.264 153.999 164.375 154.166 164.516 154.306C164.656 154.446 164.822 154.557 165.005 154.633C165.189 154.709 165.385 154.748 165.583 154.748H171.738C171.936 154.748 172.133 154.709 172.316 154.633C172.499 154.557 172.666 154.446 172.806 154.306C172.946 154.166 173.057 153.999 173.133 153.816C173.209 153.633 173.248 153.436 173.248 153.238V153.238Z" fill="url(#paint38_linear)"/>
<path fill-rule="evenodd" clip-rule="evenodd" d="M137.445 183.204C136.9 185.605 136.628 188.059 136.634 190.521V197.846H118.831C118.286 197.846 117.764 197.629 117.379 197.244C116.994 196.859 116.778 196.337 116.778 195.792V183.204H137.445ZM183.633 197.846H163.456V190.525C163.461 188.062 163.188 185.606 162.642 183.204H183.616V197.846H183.633Z" fill="url(#paint39_linear)"/>
<path fill-rule="evenodd" clip-rule="evenodd" d="M122.194 187.957C122.194 187.822 122.167 187.689 122.115 187.564C122.064 187.439 121.988 187.326 121.892 187.231C121.797 187.136 121.683 187.06 121.559 187.009C121.434 186.958 121.3 186.932 121.165 186.932H116.774V194.075H121.165C121.301 194.075 121.435 194.049 121.56 193.997C121.684 193.946 121.798 193.87 121.894 193.774C121.989 193.679 122.065 193.565 122.116 193.44C122.168 193.315 122.194 193.181 122.194 193.046V187.957Z" fill="url(#paint40_linear)"/>
<path fill-rule="evenodd" clip-rule="evenodd" d="M151.725 108.922C151.359 108.926 151 109.027 150.686 109.215C150.373 109.403 150.115 109.672 149.94 109.994L130.772 144.992C130.686 145.148 130.642 145.324 130.644 145.503C130.647 145.681 130.696 145.856 130.787 146.01C130.878 146.164 131.007 146.291 131.163 146.379C131.318 146.467 131.493 146.514 131.672 146.513H173.341C173.611 146.514 173.878 146.461 174.128 146.358C174.377 146.255 174.604 146.104 174.795 145.913C174.986 145.722 175.137 145.496 175.241 145.246C175.344 144.997 175.397 144.73 175.397 144.46V110.983C175.397 110.437 175.181 109.914 174.795 109.528C174.409 109.143 173.886 108.926 173.341 108.926L151.725 108.922ZM124.236 144.913C123.97 145.397 123.579 145.801 123.103 146.083C122.628 146.364 122.086 146.513 121.533 146.513H116.785L137.363 108.922H142.204C142.382 108.923 142.557 108.97 142.711 109.058C142.866 109.147 142.995 109.274 143.086 109.427C143.176 109.581 143.226 109.755 143.229 109.933C143.232 110.111 143.189 110.287 143.103 110.444L124.236 144.913Z" fill="url(#paint41_linear)"/>
<path fill-rule="evenodd" clip-rule="evenodd" d="M149.201 111.319L168.479 146.513H152.503L141.215 125.904L149.201 111.319V111.319ZM134.639 113.897L137.363 108.922H142.203C142.382 108.923 142.557 108.97 142.711 109.058C142.866 109.147 142.995 109.274 143.086 109.427C143.176 109.581 143.226 109.755 143.229 109.933C143.232 110.111 143.189 110.287 143.103 110.444L137.927 119.897L134.639 113.894V113.897Z" fill="#4298F0" fill-opacity="0.3"/>
<path fill-rule="evenodd" clip-rule="evenodd" d="M167.558 108.922L175.412 123.236V140.021L158.354 108.922H167.558Z" fill="#4298F0" fill-opacity="0.3"/>
<path fill-rule="evenodd" clip-rule="evenodd" d="M136.577 133.817C136.577 133.402 136.412 133.005 136.119 132.711C135.826 132.418 135.428 132.253 135.013 132.253H127.713C127.298 132.253 126.9 132.418 126.607 132.711C126.314 133.005 126.149 133.402 126.149 133.817V146.52C126.15 146.935 126.315 147.332 126.608 147.625C126.901 147.918 127.298 148.083 127.713 148.084H135.013C135.428 148.083 135.825 147.918 136.118 147.625C136.411 147.332 136.576 146.935 136.577 146.52V133.817Z" fill="url(#paint42_linear)"/>
<path d="M305.002 205.645C305.682 204.159 306.85 202.95 308.312 202.221C309.774 201.493 311.442 201.287 313.037 201.64C314.632 201.993 316.058 202.882 317.077 204.159C318.096 205.437 318.647 207.025 318.636 208.659H298.319C298.319 207.885 298.542 207.127 298.962 206.476C299.382 205.825 299.981 205.31 300.687 204.992C301.393 204.673 302.176 204.566 302.941 204.682C303.707 204.797 304.422 205.132 305.002 205.645V205.645ZM295.856 208.659H291.151C291.151 208.035 291.399 207.437 291.84 206.995C292.281 206.554 292.88 206.306 293.504 206.306C294.127 206.306 294.726 206.554 295.167 206.995C295.608 207.437 295.856 208.035 295.856 208.659V208.659Z" fill="url(#paint43_linear)"/>
<path d="M171.784 205.645C172.464 204.159 173.632 202.95 175.094 202.221C176.556 201.493 178.224 201.287 179.819 201.64C181.414 201.993 182.84 202.882 183.859 204.159C184.878 205.437 185.429 207.025 185.418 208.659H165.101C165.101 207.885 165.324 207.127 165.744 206.476C166.164 205.825 166.763 205.31 167.469 204.992C168.175 204.673 168.958 204.566 169.723 204.682C170.489 204.797 171.204 205.132 171.784 205.645V205.645ZM162.638 208.659H157.933C157.933 208.035 158.181 207.437 158.622 206.995C159.063 206.554 159.662 206.306 160.285 206.306C160.909 206.306 161.508 206.554 161.949 206.995C162.39 207.437 162.638 208.035 162.638 208.659V208.659Z" fill="url(#paint44_linear)"/>
<path fill-rule="evenodd" clip-rule="evenodd" d="M25.0899 98.2944C23.1193 96.0635 21.3974 93.9577 19.9242 91.9769C18.4509 89.996 16.967 87.8271 15.4724 85.4701C13.902 82.9574 12.5477 80.3159 11.424 77.5741C10.2996 75.0009 9.55753 72.277 9.22132 69.4889C9.15706 68.721 9.1285 67.9889 9.1285 67.2854C9.09208 65.0327 9.51776 62.7965 10.3792 60.7148C11.2407 58.6332 12.5197 56.7503 14.1372 55.1825C15.7036 53.5624 17.5853 52.2807 19.6662 51.4165C21.7471 50.5522 23.9831 50.1239 26.2359 50.1578C28.4893 50.124 30.7257 50.5524 32.8072 51.4166C34.8886 52.2808 36.771 53.5625 38.3382 55.1825C39.9578 56.7495 41.2391 58.6318 42.103 60.7135C42.9669 62.7951 43.3951 65.0318 43.3612 67.2854C43.3612 67.9247 43.3291 68.6246 43.2648 69.3924C42.933 72.2334 42.176 75.0083 41.0193 77.6241C39.91 80.2825 38.6095 82.857 37.128 85.3272C35.7904 87.5271 34.2756 89.7603 32.5834 92.0269C30.8912 94.2934 29.7274 95.8088 29.0919 96.573C28.4529 97.3373 27.9459 97.9122 27.5604 98.2944C27.3512 98.5652 27.0918 98.7931 26.7964 98.9657C26.6423 99.0198 26.4811 99.0511 26.318 99.0586C26.1548 99.0517 25.9936 99.0204 25.8396 98.9657C25.5695 98.7603 25.3142 98.5359 25.0757 98.2944H25.0899ZM17.5251 67.3354C17.5088 68.4828 17.7254 69.6216 18.1617 70.683C18.598 71.7443 19.2449 72.706 20.0634 73.5101C20.8588 74.3423 21.8179 75.0007 22.8802 75.4438C23.9425 75.887 25.0851 76.1053 26.2359 76.0849C27.3872 76.1051 28.5303 75.8868 29.5932 75.4437C30.6561 75.0005 31.6158 74.3422 32.412 73.5101C34.0362 71.8656 34.9471 69.6471 34.9471 67.3354C34.9471 65.0237 34.0362 62.8052 32.412 61.1608C31.6173 60.3254 30.6583 59.6637 29.5953 59.2175C28.5324 58.7713 27.3885 58.5501 26.2359 58.5681C25.0849 58.5484 23.9422 58.7673 22.8799 59.2111C21.8176 59.6548 20.8586 60.3138 20.0634 61.1465C19.2432 61.9522 18.5952 62.9163 18.1588 63.9802C17.7225 65.0441 17.5069 66.1856 17.5251 67.3354V67.3354Z" fill="url(#paint45_linear)"/>
<path fill-rule="evenodd" clip-rule="evenodd" d="M331.563 82.2667C329.59 80.0359 327.868 77.9312 326.398 75.9528C324.927 73.9743 323.444 71.8054 321.949 69.446C320.372 66.9347 319.011 64.2931 317.883 61.55C316.76 58.9755 316.019 56.2503 315.684 53.4612C315.62 52.697 315.588 51.9637 315.588 51.2613C315.745 46.8227 317.618 42.6183 320.812 39.5338C324.006 36.4492 328.273 34.7254 332.713 34.7254C337.153 34.7254 341.419 36.4492 344.614 39.5338C347.808 42.6183 349.681 46.8227 349.838 51.2613C349.838 51.9018 349.806 52.6029 349.742 53.3648C349.408 56.2 348.65 58.9689 347.493 61.5786C346.389 64.2376 345.095 66.8132 343.619 69.2853C342.282 71.4852 340.767 73.7172 339.075 75.9813C337.382 78.2455 336.217 79.7668 335.58 80.5454C334.941 81.3132 334.43 81.8846 334.048 82.2703C333.838 82.541 333.578 82.7678 333.281 82.9381C333.128 82.995 332.968 83.0275 332.806 83.0345C332.642 83.0282 332.481 82.9957 332.327 82.9381C332.055 82.7337 331.799 82.5093 331.56 82.2667H331.563ZM324.002 51.3077C323.986 52.4557 324.202 53.5951 324.639 54.657C325.075 55.7189 325.722 56.6813 326.54 57.486C327.348 58.3016 328.31 58.9491 329.369 59.3909C330.429 59.8328 331.565 60.0602 332.713 60.0602C333.861 60.0602 334.997 59.8328 336.057 59.3909C337.116 58.9491 338.078 58.3016 338.885 57.486C340.512 55.8419 341.424 53.6224 341.424 51.3095C341.424 48.9967 340.512 46.7772 338.885 45.1331C338.078 44.3174 337.116 43.67 336.057 43.2282C334.997 42.7863 333.861 42.5588 332.713 42.5588C331.565 42.5588 330.429 42.7863 329.369 43.2282C328.31 43.67 327.348 44.3174 326.54 45.1331C325.722 45.9373 325.075 46.899 324.639 47.9603C324.203 49.0216 323.986 50.1603 324.002 51.3077V51.3077Z" fill="url(#paint46_linear)"/>
</g>
<defs>
<linearGradient id="paint0_linear" x1="279.954" y1="167.982" x2="279.954" y2="197.625" gradientUnits="userSpaceOnUse">
<stop stop-color="#304F82"/>
<stop offset="1" stop-color="#193766"/>
</linearGradient>
<linearGradient id="paint1_linear" x1="274.857" y1="155.102" x2="274.857" y2="209.085" gradientUnits="userSpaceOnUse">
<stop stop-color="#3D64A4"/>
<stop offset="1" stop-color="#193766"/>
</linearGradient>
<linearGradient id="paint2_linear" x1="278.018" y1="171.9" x2="278.018" y2="208.473" gradientUnits="userSpaceOnUse">
<stop stop-color="#3D64A4"/>
<stop offset="1" stop-color="#2F4F83"/>
</linearGradient>
<linearGradient id="paint3_linear" x1="278.668" y1="177.458" x2="278.668" y2="203.269" gradientUnits="userSpaceOnUse">
<stop stop-color="white"/>
<stop offset="1" stop-color="#CCEEFF"/>
</linearGradient>
<linearGradient id="paint4_linear" x1="282.066" y1="183.382" x2="282.066" y2="197.835" gradientUnits="userSpaceOnUse">
<stop stop-color="#FF5252"/>
<stop offset="1" stop-color="#F10D5A"/>
</linearGradient>
<linearGradient id="paint5_linear" x1="-8.90523e+06" y1="-964656" x2="-8.90523e+06" y2="-961005" gradientUnits="userSpaceOnUse">
<stop stop-color="#3D64A4"/>
<stop offset="1" stop-color="#2F4F83"/>
</linearGradient>
<linearGradient id="paint6_linear" x1="1.70259e+07" y1="-878023" x2="1.70259e+07" y2="-874573" gradientUnits="userSpaceOnUse">
<stop stop-color="#3D64A4"/>
<stop offset="1" stop-color="#193766"/>
</linearGradient>
<linearGradient id="paint7_linear" x1="1.25033e+08" y1="-1.01092e+07" x2="1.25033e+08" y2="-1.00716e+07" gradientUnits="userSpaceOnUse">
<stop stop-color="white"/>
<stop offset="1" stop-color="#CCEEFF"/>
</linearGradient>
<linearGradient id="paint8_linear" x1="265.786" y1="71.3072" x2="265.786" y2="124.475" gradientUnits="userSpaceOnUse">
<stop stop-color="white"/>
<stop offset="1" stop-color="#B4DAFF"/>
</linearGradient>
<linearGradient id="paint9_linear" x1="-5905.22" y1="12152.1" x2="-5883.12" y2="12152.1" gradientUnits="userSpaceOnUse">
<stop stop-color="white"/>
<stop offset="1" stop-color="#B4DAFF"/>
</linearGradient>
<linearGradient id="paint10_linear" x1="265.786" y1="71.3071" x2="265.786" y2="124.475" gradientUnits="userSpaceOnUse">
<stop stop-color="white"/>
<stop offset="1" stop-color="#B4DAFF"/>
</linearGradient>
<linearGradient id="paint11_linear" x1="241.881" y1="177.402" x2="241.881" y2="197.707" gradientUnits="userSpaceOnUse">
<stop stop-color="#FFC44C"/>
<stop offset="1" stop-color="#FF8618"/>
</linearGradient>
<linearGradient id="paint12_linear" x1="1.09512e+06" y1="-92484.3" x2="1.09512e+06" y2="-92163.5" gradientUnits="userSpaceOnUse">
<stop stop-color="white"/>
<stop offset="1" stop-color="#CCEEFF"/>
</linearGradient>
<linearGradient id="paint13_linear" x1="284757" y1="-12743.9" x2="284757" y2="-12658.3" gradientUnits="userSpaceOnUse">
<stop stop-color="white"/>
<stop offset="1" stop-color="#CCEEFF"/>
</linearGradient>
<linearGradient id="paint14_linear" x1="-8.89566e+06" y1="-987363" x2="-8.89566e+06" y2="-983713" gradientUnits="userSpaceOnUse">
<stop stop-color="#3D64A4"/>
<stop offset="1" stop-color="#2F4F83"/>
</linearGradient>
<linearGradient id="paint15_linear" x1="1.70355e+07" y1="-912140" x2="1.70355e+07" y2="-908690" gradientUnits="userSpaceOnUse">
<stop stop-color="#3D64A4"/>
<stop offset="1" stop-color="#193766"/>
</linearGradient>
<linearGradient id="paint16_linear" x1="304842" y1="-122713" x2="304842" y2="-122247" gradientUnits="userSpaceOnUse">
<stop stop-color="#FF5252"/>
<stop offset="1" stop-color="#F10D5A"/>
</linearGradient>
<linearGradient id="paint17_linear" x1="150.386" y1="76.3937" x2="150.386" y2="115.184" gradientUnits="userSpaceOnUse">
<stop stop-color="white"/>
<stop offset="1" stop-color="#A6E1FF"/>
</linearGradient>
<linearGradient id="paint18_linear" x1="94.8841" y1="101.024" x2="94.8841" y2="146.394" gradientUnits="userSpaceOnUse">
<stop stop-color="#E33D4B"/>
<stop offset="0.61" stop-color="#DF324D"/>
<stop offset="0.82" stop-color="#D61A51"/>
<stop offset="1" stop-color="#CC0055"/>
</linearGradient>
<linearGradient id="paint19_linear" x1="-8.80221e+06" y1="-1.88798e+06" x2="-8.80221e+06" y2="-1.88118e+06" gradientUnits="userSpaceOnUse">
<stop stop-color="#E33D4B"/>
<stop offset="0.61" stop-color="#DF324D"/>
<stop offset="0.82" stop-color="#D61A51"/>
<stop offset="1" stop-color="#CC0055"/>
</linearGradient>
<linearGradient id="paint20_linear" x1="4.45052e+06" y1="-263285" x2="4.45052e+06" y2="-262356" gradientUnits="userSpaceOnUse">
<stop stop-color="#3D64A4"/>
<stop offset="1" stop-color="#193766"/>
</linearGradient>
<linearGradient id="paint21_linear" x1="4.44798e+06" y1="-262832" x2="4.44798e+06" y2="-261919" gradientUnits="userSpaceOnUse">
<stop stop-color="#3D64A4"/>
<stop offset="1" stop-color="#193766"/>
</linearGradient>
<linearGradient id="paint22_linear" x1="4.44543e+06" y1="-262378" x2="4.44543e+06" y2="-261465" gradientUnits="userSpaceOnUse">
<stop stop-color="#3D64A4"/>
<stop offset="1" stop-color="#193766"/>
</linearGradient>
<linearGradient id="paint23_linear" x1="4.44288e+06" y1="-262061" x2="4.44288e+06" y2="-261131" gradientUnits="userSpaceOnUse">
<stop stop-color="#3D64A4"/>
<stop offset="1" stop-color="#193766"/>
</linearGradient>
<linearGradient id="paint24_linear" x1="1.49564e+06" y1="-88156.9" x2="1.49564e+06" y2="-87833.5" gradientUnits="userSpaceOnUse">
<stop stop-color="white"/>
<stop offset="1" stop-color="#A6E1FF"/>
</linearGradient>
<linearGradient id="paint25_linear" x1="-1.50348e+06" y1="-90633.4" x2="-1.50348e+06" y2="-90310" gradientUnits="userSpaceOnUse">
<stop stop-color="white"/>
<stop offset="1" stop-color="#A6E1FF"/>
</linearGradient>
<linearGradient id="paint26_linear" x1="85.7042" y1="183.477" x2="85.7042" y2="197.734" gradientUnits="userSpaceOnUse">
<stop stop-color="#FFC44C"/>
<stop offset="1" stop-color="#FF6718"/>
</linearGradient>
<linearGradient id="paint27_linear" x1="2.605e+06" y1="-163247" x2="2.605e+06" y2="-162675" gradientUnits="userSpaceOnUse">
<stop stop-color="white"/>
<stop offset="1" stop-color="#A6E1FF"/>
</linearGradient>
<linearGradient id="paint28_linear" x1="652773" y1="-40468" x2="652773" y2="-40324.9" gradientUnits="userSpaceOnUse">
<stop stop-color="white"/>
<stop offset="1" stop-color="#A6E1FF"/>
</linearGradient>
<linearGradient id="paint29_linear" x1="652345" y1="-38634.6" x2="652345" y2="-38491.6" gradientUnits="userSpaceOnUse">
<stop stop-color="white"/>
<stop offset="1" stop-color="#A6E1FF"/>
</linearGradient>
<linearGradient id="paint30_linear" x1="6.76271e+07" y1="-3.712e+06" x2="6.76271e+07" y2="-3.69831e+06" gradientUnits="userSpaceOnUse">
<stop stop-color="#3D64A4"/>
<stop offset="1" stop-color="#193766"/>
</linearGradient>
<linearGradient id="paint31_linear" x1="1.31617e+07" y1="-712309" x2="1.31617e+07" y2="-709685" gradientUnits="userSpaceOnUse">
<stop stop-color="#304F82"/>
<stop offset="1" stop-color="#193766"/>
</linearGradient>
<linearGradient id="paint32_linear" x1="2.66114e+07" y1="-1.42913e+06" x2="2.66114e+07" y2="-1.42374e+06" gradientUnits="userSpaceOnUse">
<stop stop-color="#3D64A4"/>
<stop offset="1" stop-color="#193766"/>
</linearGradient>
<linearGradient id="paint33_linear" x1="-5.70621e+06" y1="-610742" x2="-5.70621e+06" y2="-608405" gradientUnits="userSpaceOnUse">
<stop stop-color="#3D64A4"/>
<stop offset="1" stop-color="#2F4F83"/>
</linearGradient>
<linearGradient id="paint34_linear" x1="4.04378e+06" y1="-299879" x2="4.04378e+06" y2="-298713" gradientUnits="userSpaceOnUse">
<stop stop-color="white"/>
<stop offset="1" stop-color="#CCEEFF"/>
</linearGradient>
<linearGradient id="paint35_linear" x1="-1.01635e+06" y1="-93410.7" x2="-1.01635e+06" y2="-93038.2" gradientUnits="userSpaceOnUse">
<stop stop-color="#FF5252"/>
<stop offset="1" stop-color="#F10D5A"/>
</linearGradient>
<linearGradient id="paint36_linear" x1="153.626" y1="101.407" x2="153.626" y2="182.318" gradientUnits="userSpaceOnUse">
<stop stop-color="#FF5252"/>
<stop offset="0.56" stop-color="#FC4454"/>
<stop offset="1" stop-color="#F10D5A"/>
</linearGradient>
<linearGradient id="paint37_linear" x1="523692" y1="-30725.9" x2="523692" y2="-30588.1" gradientUnits="userSpaceOnUse">
<stop stop-color="#FFC44C"/>
<stop offset="1" stop-color="#FF8618"/>
</linearGradient>
<linearGradient id="paint38_linear" x1="248447" y1="-22370.1" x2="248447" y2="-22293.3" gradientUnits="userSpaceOnUse">
<stop stop-color="white"/>
<stop offset="1" stop-color="#CCEEFF"/>
</linearGradient>
<linearGradient id="paint39_linear" x1="1.06884e+07" y1="-774407" x2="1.06884e+07" y2="-771691" gradientUnits="userSpaceOnUse">
<stop stop-color="#FFC44C"/>
<stop offset="1" stop-color="#FF8618"/>
</linearGradient>
<linearGradient id="paint40_linear" x1="366628" y1="-26410.4" x2="366628" y2="-26301" gradientUnits="userSpaceOnUse">
<stop stop-color="white"/>
<stop offset="1" stop-color="#CCEEFF"/>
</linearGradient>
<linearGradient id="paint41_linear" x1="145.672" y1="104.906" x2="145.672" y2="146.993" gradientUnits="userSpaceOnUse">
<stop stop-color="#3863A9"/>
<stop offset="1" stop-color="#284D8A"/>
</linearGradient>
<linearGradient id="paint42_linear" x1="302548" y1="-116820" x2="302548" y2="-116354" gradientUnits="userSpaceOnUse">
<stop stop-color="#FF5252"/>
<stop offset="1" stop-color="#F10D5A"/>
</linearGradient>
<linearGradient id="paint43_linear" x1="-82178.8" y1="-141921" x2="-82178.8" y2="-141427" gradientUnits="userSpaceOnUse">
<stop stop-color="white"/>
<stop offset="1" stop-color="#CCEEFF"/>
</linearGradient>
<linearGradient id="paint44_linear" x1="-80432.2" y1="-146123" x2="-80432.2" y2="-145629" gradientUnits="userSpaceOnUse">
<stop stop-color="white"/>
<stop offset="1" stop-color="#CCEEFF"/>
</linearGradient>
<linearGradient id="paint45_linear" x1="1.84922e+07" y1="-1.27425e+06" x2="1.84922e+07" y2="-1.2696e+06" gradientUnits="userSpaceOnUse">
<stop stop-color="#FFC44C"/>
<stop offset="1" stop-color="#FF8618"/>
</linearGradient>
<linearGradient id="paint46_linear" x1="1.82329e+07" y1="-1.20072e+06" x2="1.82329e+07" y2="-1.19607e+06" gradientUnits="userSpaceOnUse">
<stop stop-color="#FFC44C"/>
<stop offset="1" stop-color="#FF8618"/>
</linearGradient>
<clipPath id="clip0">
<rect width="355.422" height="250" fill="white"/>
</clipPath>
</defs>
</svg>
