<svg width="80" height="80" viewBox="0 0 80 80" fill="none" xmlns="http://www.w3.org/2000/svg">
<g clip-path="url(#clip0)">
<path d="M78.6649 50.6649H67.027C67.9065 49.8906 68.6533 48.9776 69.2378 47.9622C69.3459 47.9622 69.4541 47.9946 69.5568 47.9946C71.3244 47.9944 73.0197 47.2925 74.2703 46.0432L78.0541 42.2594C78.8538 41.4599 79.4369 40.47 79.7486 39.3829C80.0602 38.2958 80.0901 37.1473 79.8355 36.0454C79.5808 34.9436 79.05 33.9247 78.293 33.0846C77.5359 32.2445 76.5776 31.6108 75.5081 31.2432L76.4865 30.2703C77.7355 29.0196 78.4371 27.3243 78.4371 25.5567C78.4371 23.7892 77.7355 22.0939 76.4865 20.8432C76.0515 20.4158 75.5583 20.0519 75.0216 19.7622L76.4865 18.2919C77.4886 17.295 78.1468 16.0046 78.3657 14.6081C78.5846 13.2117 78.3528 11.7818 77.7038 10.5261C77.0548 9.27033 76.0226 8.2541 74.7568 7.6249C73.4911 6.99569 72.0577 6.78627 70.6649 7.02702V6.68648C70.6649 4.91885 69.9627 3.22361 68.7128 1.97371C67.4629 0.723803 65.7676 0.0216135 64 0.0216135C62.2324 0.0216135 60.5371 0.723803 59.2872 1.97371C58.0373 3.22361 57.3351 4.91885 57.3351 6.68648V7.02702C55.9467 6.79492 54.5204 7.00913 53.2614 7.63886C52.0024 8.26859 50.9755 9.28138 50.3285 10.5316C49.6815 11.7818 49.4476 13.205 49.6605 14.5965C49.8735 15.988 50.5222 17.2762 51.5135 18.2757L52.973 19.7405C52.4338 20.0289 51.9387 20.3929 51.5027 20.8216C51.3302 21.0093 51.1679 21.2059 51.0162 21.4108C49.3854 20.54 47.5756 20.0571 45.7278 20C43.8799 19.9428 42.0437 20.3127 40.3622 21.0811C39.0686 19.7588 37.3563 18.9263 35.5174 18.7257C33.6786 18.5251 31.8271 18.9689 30.2789 19.9812C28.7307 20.9936 27.5818 22.5118 27.0282 24.2768C26.4746 26.0418 26.5506 27.9442 27.2433 29.6595C25.5327 30.6657 24.0987 32.081 23.0703 33.7784L23.7297 26.8432L24 24C24.0007 22.5231 23.6934 21.0624 23.0978 19.7109C22.5021 18.3595 21.6311 17.1472 20.5406 16.1513L22.6433 5.59999C22.6871 5.40499 22.6865 5.2026 22.6414 5.00789C22.5962 4.81317 22.5078 4.63113 22.3826 4.47531C22.2574 4.31948 22.0987 4.19388 21.9183 4.10785C21.7379 4.02181 21.5404 3.97756 21.3405 3.97837H17.1297L17.3351 1.41621C17.3455 1.23623 17.3198 1.05599 17.2594 0.886103C17.1991 0.71622 17.1054 0.560128 16.9838 0.427019C16.8582 0.291699 16.706 0.183885 16.5367 0.110384C16.3673 0.0368841 16.1846 -0.00070472 16 -8.13566e-06H8.00001C7.81724 0.000782472 7.63658 0.0390912 7.46921 0.112545C7.30185 0.185999 7.15135 0.293033 7.02704 0.427019C6.90274 0.562706 6.80746 0.722349 6.74704 0.896163C6.68662 1.06998 6.66234 1.2543 6.67569 1.43783L6.88109 3.99999H2.66488C2.465 3.99918 2.26751 4.04344 2.0871 4.12947C1.90669 4.21551 1.74799 4.3411 1.62281 4.49693C1.49763 4.65275 1.40919 4.83479 1.36407 5.02951C1.31894 5.22423 1.3183 5.42661 1.36217 5.62161L3.70812 17.3351C2.16316 19.2639 1.32567 21.6639 1.33515 24.1351L3.86488 50.6649H1.33515C0.981046 50.6649 0.641449 50.8055 0.391063 51.0559C0.140677 51.3063 1.10325e-05 51.6459 1.10325e-05 52V78.6649C-0.000703977 78.8404 0.0333422 79.0143 0.100186 79.1766C0.167029 79.3389 0.265347 79.4864 0.389469 79.6105C0.51359 79.7347 0.661058 79.833 0.823367 79.8998C0.985676 79.9667 1.15961 80.0007 1.33515 80H78.6649C78.8404 80.0007 79.0143 79.9667 79.1767 79.8998C79.339 79.833 79.4864 79.7347 79.6105 79.6105C79.7347 79.4864 79.833 79.3389 79.8998 79.1766C79.9667 79.0143 80.0007 78.8404 80 78.6649V52C80 51.6459 79.8593 51.3063 79.6089 51.0559C79.3586 50.8055 79.019 50.6649 78.6649 50.6649ZM56.373 19.3622L53.4 16.3892C52.7233 15.7174 52.31 14.8251 52.2352 13.8745C52.1604 12.9239 52.429 11.978 52.9923 11.2086C53.5556 10.4392 54.3762 9.8974 55.305 9.68157C56.2338 9.46575 57.2092 9.59024 58.0541 10.0324C58.2581 10.1368 58.4855 10.1871 58.7145 10.1786C58.9435 10.1701 59.1665 10.103 59.3622 9.98377C59.5573 9.86552 59.7185 9.69889 59.8302 9.50001C59.942 9.30113 60.0005 9.07676 60 8.84864V6.68648C60 5.62561 60.4214 4.6082 61.1716 3.85805C61.9217 3.10791 62.9391 2.68648 64 2.68648C65.0609 2.68648 66.0783 3.10791 66.8284 3.85805C67.5786 4.6082 68 5.62561 68 6.68648V8.84864C67.9996 9.07676 68.058 9.30113 68.1698 9.50001C68.2815 9.69889 68.4428 9.86552 68.6378 9.98377C68.8335 10.103 69.0565 10.1701 69.2856 10.1786C69.5146 10.1871 69.7419 10.1368 69.9459 10.0324C70.7906 9.5938 71.7643 9.47204 72.691 9.6892C73.6176 9.90636 74.4358 10.4481 74.9976 11.2163C75.5594 11.9845 75.8276 12.9285 75.7537 13.8774C75.6798 14.8262 75.2686 15.7172 74.5946 16.3892L71.6216 19.3622C71.4463 19.5363 71.323 19.7558 71.2654 19.9961C71.2079 20.2364 71.2185 20.4879 71.2959 20.7225C71.3734 20.9572 71.5147 21.1656 71.704 21.3244C71.8933 21.4832 72.1231 21.5861 72.3676 21.6216C73.1014 21.7268 73.7912 22.0348 74.3593 22.5111C74.9274 22.9874 75.3511 23.6129 75.5826 24.3171C75.8142 25.0213 75.8444 25.7762 75.6698 26.4967C75.4952 27.2171 75.1228 27.8745 74.5946 28.3946L71.6324 31.3513C71.4351 31.5494 71.3048 31.8044 71.2601 32.0804C71.2155 32.3565 71.2586 32.6396 71.3834 32.8898C71.5082 33.14 71.7084 33.3447 71.9558 33.475C72.2032 33.6054 72.4852 33.6547 72.7622 33.6162C73.3761 33.521 74.0038 33.5717 74.5945 33.7642C75.1852 33.9568 75.7222 34.2857 76.1622 34.7243C76.9105 35.476 77.3306 36.4934 77.3306 37.554C77.3306 38.6147 76.9105 39.6321 76.1622 40.3838L72.3784 44.1676C71.8165 44.7213 71.104 45.0973 70.3297 45.2486C70.901 43.0066 70.7207 40.639 69.8165 38.5094C68.9123 36.3797 67.3342 34.6056 65.3243 33.4595V31.3513L70.1243 27.7513C70.411 27.5363 70.6006 27.2162 70.6513 26.8614C70.702 26.5066 70.6096 26.1462 70.3946 25.8595C70.1796 25.5727 69.8594 25.3832 69.5046 25.3325C69.1498 25.2818 68.7894 25.3741 68.5027 25.5892L65.3027 27.9892V20.6649L70.1027 17.0649C70.3851 16.8498 70.5706 16.5314 70.6182 16.1796C70.6658 15.8279 70.5718 15.4716 70.3568 15.1892C70.1417 14.9068 69.8233 14.7213 69.4715 14.6737C69.1198 14.626 68.7635 14.7201 68.4811 14.9351L65.2811 17.3351V13.3351C65.2811 12.981 65.1404 12.6414 64.89 12.391C64.6397 12.1407 64.3001 12 63.946 12C63.5919 12 63.2523 12.1407 63.0019 12.391C62.7515 12.6414 62.6108 12.981 62.6108 13.3351V17.3351L59.4595 14.9351C59.177 14.7201 58.8208 14.626 58.469 14.6737C58.1173 14.7213 57.7988 14.9068 57.5838 15.1892C57.3688 15.4716 57.2747 15.8279 57.3224 16.1796C57.37 16.5314 57.5554 16.8498 57.8378 17.0649L62.6378 20.6649V28L59.4595 25.6C59.1727 25.385 58.8123 25.2926 58.4576 25.3433C58.1027 25.394 57.7826 25.5835 57.5676 25.8703C57.3525 26.157 57.2602 26.5174 57.3109 26.8722C57.3616 27.227 57.5511 27.5471 57.8378 27.7622L62.6649 31.3513V32.3676C60.9135 31.8865 59.0649 31.8865 57.3135 32.3676C57.3135 32.2432 57.3135 32.1243 57.3135 32C57.3115 30.2871 56.9423 28.5946 56.2309 27.0365C55.5194 25.4784 54.4822 24.0909 53.1892 22.9676C53.2541 22.8919 53.3081 22.8054 53.3784 22.7351C53.9905 22.1313 54.7809 21.7409 55.6324 21.6216C55.8776 21.586 56.108 21.4827 56.2975 21.3232C56.4871 21.1637 56.6284 20.9544 56.7053 20.7189C56.7823 20.4834 56.792 20.2311 56.7333 19.9905C56.6746 19.7498 56.5498 19.5303 56.373 19.3568V19.3622ZM54.6649 32C54.6612 32.5165 54.6142 33.0319 54.5243 33.5405C52.6768 34.6438 51.2054 36.2791 50.3027 38.2324C48.6908 37.3936 46.8391 37.1359 45.0595 37.5027C44.6017 35.3889 43.5839 33.4371 42.1127 31.8518C40.6415 30.2665 38.7711 29.106 36.6973 28.4919C37.5094 26.4854 38.9943 24.824 40.8973 23.7925C42.8003 22.761 45.0029 22.4237 47.1274 22.8385C49.2518 23.2533 51.1658 24.3943 52.5411 26.0659C53.9163 27.7375 54.6672 29.8354 54.6649 32ZM29.3351 26.6649C29.3324 25.661 29.6139 24.6768 30.1469 23.8261C30.68 22.9754 31.4429 22.293 32.3475 21.8576C33.2521 21.4223 34.2614 21.2519 35.2588 21.366C36.2562 21.4801 37.2009 21.8742 37.9838 22.5027C36.1517 23.9198 34.7713 25.8392 34.0108 28.027C33.7838 28.027 33.5622 28 33.3351 28C32.0983 28.0004 30.8691 28.1937 29.6919 28.573C29.4553 27.9647 29.3343 27.3176 29.3351 26.6649ZM24.0595 38.9676C24.3106 36.6498 25.4209 34.5102 27.1715 32.9705C28.922 31.4309 31.1859 30.6028 33.5167 30.6496C35.8476 30.6964 38.0764 31.6147 39.7637 33.2234C41.451 34.8321 42.4745 37.0146 42.6324 39.3405C42.6463 39.5541 42.7116 39.7612 42.8227 39.9442C42.9337 40.1272 43.0873 40.2806 43.2704 40.3915C43.4535 40.5024 43.6606 40.5675 43.8742 40.5812C44.0878 40.5949 44.3016 40.5569 44.4973 40.4703C45.4132 40.0529 46.4302 39.9095 47.4258 40.0572C48.4213 40.2049 49.3529 40.6374 50.1081 41.3027C50.2768 41.4471 50.4789 41.547 50.696 41.5933C50.9132 41.6396 51.1385 41.6307 51.3514 41.5676C51.5675 41.4998 51.7631 41.3786 51.92 41.2151C52.0768 41.0516 52.1899 40.8512 52.2487 40.6324C52.6283 39.1872 53.4051 37.8772 54.4911 36.8508C55.577 35.8244 56.9287 35.1227 58.3931 34.8251C59.8574 34.5275 61.3758 34.646 62.7762 35.1672C64.1767 35.6883 65.4032 36.5912 66.3168 37.7737C67.2303 38.9561 67.7945 40.3708 67.9453 41.8574C68.0961 43.344 67.8276 44.8432 67.1701 46.185C66.5126 47.5268 65.4924 48.6577 64.2252 49.4495C62.9579 50.2412 61.4943 50.6623 60 50.6649H21.3351C20.5877 50.6649 19.8486 50.5078 19.1659 50.2037C18.4831 49.8996 17.872 49.4553 17.3721 48.8996C16.8722 48.3439 16.4948 47.6893 16.2644 46.9783C16.0339 46.2673 15.9556 45.5158 16.0345 44.7725C16.1134 44.0293 16.3478 43.3109 16.7223 42.6641C17.0969 42.0173 17.6033 41.4566 18.2087 41.0182C18.8141 40.5799 19.5049 40.2738 20.2363 40.1198C20.9677 39.9658 21.7233 39.9673 22.4541 40.1243C22.6401 40.1651 22.8326 40.166 23.019 40.1268C23.2053 40.0877 23.3813 40.0094 23.5351 39.8973C23.685 39.7885 23.8105 39.6496 23.9036 39.4895C23.9967 39.3294 24.0553 39.1516 24.0757 38.9676H24.0595ZM19.7351 6.66486L18.1676 14.4919C17.5938 14.2022 16.995 13.9652 16.3784 13.7838L16.9189 6.66486H19.7351ZM14.5892 2.66486L13.7351 13.3513C13.6 13.3513 13.4649 13.3513 13.3351 13.3513H12C11.4199 13.3571 10.8413 13.4113 10.2703 13.5135L9.44325 2.70269L14.5892 2.66486ZM7.10271 6.66486L7.6865 14.2649C7.10648 14.5263 6.5511 14.8393 6.02704 15.2L4.2919 6.66486H7.10271ZM6.03785 45.3351H10.6649C11.019 45.3351 11.3586 45.1945 11.609 44.9441C11.8593 44.6937 12 44.3541 12 44C12 43.6459 11.8593 43.3063 11.609 43.0559C11.3586 42.8055 11.019 42.6649 10.6649 42.6649H5.80001L5.52974 40H9.31352C9.65224 39.9784 9.97002 39.8286 10.2023 39.5811C10.4345 39.3336 10.5638 39.007 10.5638 38.6676C10.5638 38.3282 10.4345 38.0015 10.2023 37.754C9.97002 37.5065 9.65224 37.3567 9.31352 37.3351H5.33515H5.27569L5.00542 34.5946C5.11156 34.6322 5.22265 34.6541 5.33515 34.6594H12C12.1821 34.6711 12.3647 34.6452 12.5364 34.5835C12.7082 34.5218 12.8654 34.4255 12.9985 34.3007C13.1316 34.1758 13.2376 34.025 13.3101 33.8575C13.3826 33.69 13.4201 33.5095 13.4201 33.327C13.4201 33.1445 13.3826 32.964 13.3101 32.7965C13.2376 32.6291 13.1316 32.4782 12.9985 32.3534C12.8654 32.2285 12.7082 32.1323 12.5364 32.0705C12.3647 32.0088 12.1821 31.983 12 31.9946H5.33515C5.14706 31.9982 4.96224 32.0444 4.79461 32.1297L4.52433 29.3297H9.35136C9.70546 29.3297 10.0451 29.1891 10.2954 28.9387C10.5458 28.6883 10.6865 28.3487 10.6865 27.9946C10.6865 27.6405 10.5458 27.3009 10.2954 27.0505C10.0451 26.8001 9.70546 26.6595 9.35136 26.6595H4.25407L4.00001 24C4.00287 21.8791 4.84664 19.846 6.34632 18.3463C7.84599 16.8466 9.87916 16.0029 12 16H13.3351C15.1428 16.0001 16.8974 16.6116 18.3135 17.7351C19.2429 18.4654 19.9957 19.3957 20.516 20.4569C21.0363 21.5181 21.3108 22.683 21.3189 23.8649L21.0595 26.5676L20.0433 37.4432C18.6257 37.6699 17.2957 38.275 16.1935 39.1948C15.0913 40.1145 14.2579 41.3148 13.7813 42.6689C13.3046 44.023 13.2024 45.4807 13.4854 46.8881C13.7684 48.2954 14.4262 49.6003 15.3892 50.6649H6.54596L6.03785 45.3351ZM77.3351 53.3351V57.3351H42.6649C42.3262 57.3567 42.0084 57.5065 41.7761 57.754C41.5439 58.0015 41.4146 58.3282 41.4146 58.6676C41.4146 59.007 41.5439 59.3336 41.7761 59.5811C42.0084 59.8286 42.3262 59.9784 42.6649 60H77.3351V64H2.66488V60H25.3351C25.6739 59.9784 25.9916 59.8286 26.2239 59.5811C26.4561 59.3336 26.5854 59.007 26.5854 58.6676C26.5854 58.3282 26.4561 58.0015 26.2239 57.754C25.9916 57.5065 25.6739 57.3567 25.3351 57.3351H2.66488V53.3351H77.3351ZM2.66488 77.3351V73.3351H50.6649C51.019 73.3351 51.3586 73.1945 51.609 72.9441C51.8593 72.6937 52 72.3541 52 72C52 71.6459 51.8593 71.3063 51.609 71.0559C51.3586 70.8055 51.019 70.6649 50.6649 70.6649H2.66488V66.6649H77.3351V70.6649H66.6649C66.3108 70.6649 65.9712 70.8055 65.7208 71.0559C65.4704 71.3063 65.3297 71.6459 65.3297 72C65.3297 72.3541 65.4704 72.6937 65.7208 72.9441C65.9712 73.1945 66.3108 73.3351 66.6649 73.3351H77.3351V77.3351H2.66488Z" fill="#605D5B"/>
</g>
<defs>
<clipPath id="clip0">
<rect width="80" height="80" fill="white"/>
</clipPath>
</defs>
</svg>
